<?xml version="1.0" standalone="no"?>
<svg
  width="600"
  height="600"
  viewBox="0 0 600 600"
  xmlns="http://www.w3.org/2000/svg"
>
  <g transform="translate(300,300)">
    <path d="M128.3,-156.9C155.1,-130.5,157.8,-79.4,173.7,-25.3C189.6,28.8,218.6,85.9,204.6,125.5C190.5,165.2,133.4,187.4,76.5,206.6C19.5,225.8,-37.3,242.1,-89.4,230C-141.5,217.8,-189,177.1,-199.6,129.4C-210.1,81.7,-183.9,27,-162.8,-17.6C-141.7,-62.2,-125.8,-96.6,-99.5,-123.1C-73.3,-149.7,-36.6,-168.3,7.1,-176.8C50.8,-185.2,101.6,-183.4,128.3,-156.9Z" fill="#00d084" />
  </g>
</svg>
  