  0
SECTION
  2
HEADER
  9
$ACADVER
  1
AC1024
  9
$ACADMAINTVER
 70
     6
  9
$DWGCODEPAGE
  3
UNDEFINED
  9
$INSBASE
 10
0.0
 20
0.0
 30
0.0
  9
$EXTMIN
 10
1.000000000000000E+20
 20
1.000000000000000E+20
 30
1.000000000000000E+20
  9
$EXTMAX
 10
-1.000000000000000E+20
 20
-1.000000000000000E+20
 30
-1.000000000000000E+20
  9
$LIMMIN
 10
0.0
 20
0.0
  9
$LIMMAX
 10
12.0
 20
9.0
  9
$ORTHOMODE
 70
     0
  9
$REGENMODE
 70
     1
  9
$FILLMODE
 70
     1
  9
$QTEXTMODE
 70
     0
  9
$MIRRTEXT
 70
     1
  9
$LTSCALE
 40
1.0
  9
$ATTMODE
 70
     1
  9
$TEXTSIZE
 40
0.2
  9
$TRACEWID
 40
0.05
  9
$TEXTSTYLE
  7
Standard
  9
$CLAYER
  8
0
  9
$CELTYPE
  6
ByLayer
  9
$CECOLOR
 62
   256
  9
$CELTSCALE
 40
1.0
  9
$DISPSILH
 70
     0
  9
$DIMSCALE
 40
1.0
  9
$DIMASZ
 40
0.18
  9
$DIMEXO
 40
0.0625
  9
$DIMDLI
 40
0.38
  9
$DIMRND
 40
0.0
  9
$DIMDLE
 40
0.0
  9
$DIMEXE
 40
0.18
  9
$DIMTP
 40
0.0
  9
$DIMTM
 40
0.0
  9
$DIMTXT
 40
0.18
  9
$DIMCEN
 40
0.09
  9
$DIMTSZ
 40
0.0
  9
$DIMTOL
 70
     0
  9
$DIMLIM
 70
     0
  9
$DIMTIH
 70
     1
  9
$DIMTOH
 70
     1
  9
$DIMSE1
 70
     0
  9
$DIMSE2
 70
     0
  9
$DIMTAD
 70
     0
  9
$DIMZIN
 70
     0
  9
$DIMBLK
  1

  9
$DIMASO
 70
     1
  9
$DIMSHO
 70
     1
  9
$DIMPOST
  1

  9
$DIMAPOST
  1

  9
$DIMALT
 70
     0
  9
$DIMALTD
 70
     2
  9
$DIMALTF
 40
25.4
  9
$DIMLFAC
 40
1.0
  9
$DIMTOFL
 70
     0
  9
$DIMTVP
 40
0.0
  9
$DIMTIX
 70
     0
  9
$DIMSOXD
 70
     0
  9
$DIMSAH
 70
     0
  9
$DIMBLK1
  1

  9
$DIMBLK2
  1

  9
$DIMSTYLE
  2
Standard
  9
$DIMCLRD
 70
     0
  9
$DIMCLRE
 70
     0
  9
$DIMCLRT
 70
     0
  9
$DIMTFAC
 40
1.0
  9
$DIMGAP
 40
0.09
  9
$DIMJUST
 70
     0
  9
$DIMSD1
 70
     0
  9
$DIMSD2
 70
     0
  9
$DIMTOLJ
 70
     1
  9
$DIMTZIN
 70
     0
  9
$DIMALTZ
 70
     0
  9
$DIMALTTZ
 70
     0
  9
$DIMUPT
 70
     0
  9
$DIMDEC
 70
     4
  9
$DIMTDEC
 70
     4
  9
$DIMALTU
 70
     2
  9
$DIMALTTD
 70
     2
  9
$DIMTXSTY
  7
Standard
  9
$DIMAUNIT
 70
     0
  9
$DIMADEC
 70
     0
  9
$DIMALTRND
 40
0.0
  9
$DIMAZIN
 70
     0
  9
$DIMDSEP
 70
    46
  9
$DIMATFIT
 70
     3
  9
$DIMFRAC
 70
     0
  9
$DIMLDRBLK
  1

  9
$DIMLUNIT
 70
     2
  9
$DIMLWD
 70
    -2
  9
$DIMLWE
 70
    -2
  9
$DIMTMOVE
 70
     0
  9
$DIMFXL
 40
1.0
  9
$DIMFXLON
 70
     0
  9
$DIMJOGANG
 40
0.7853981633974483
  9
$DIMTFILL
 70
     0
  9
$DIMTFILLCLR
 70
     0
  9
$DIMARCSYM
 70
     0
  9
$DIMLTYPE
  6

  9
$DIMLTEX1
  6

  9
$DIMLTEX2
  6

  9
$DIMTXTDIRECTION
 70
     0
  9
$LUNITS
 70
     2
  9
$LUPREC
 70
     4
  9
$SKETCHINC
 40
0.1
  9
$FILLETRAD
 40
0.5
  9
$AUNITS
 70
     0
  9
$AUPREC
 70
     0
  9
$MENU
  1
.
  9
$ELEVATION
 40
0.0
  9
$PELEVATION
 40
0.0
  9
$THICKNESS
 40
0.0
  9
$LIMCHECK
 70
     0
  9
$CHAMFERA
 40
0.5
  9
$CHAMFERB
 40
0.5
  9
$CHAMFERC
 40
1.0
  9
$CHAMFERD
 40
0.0
  9
$SKPOLY
 70
     0
  9
$TDCREATE
 40
2458086.406377303
  9
$TDUCREATE
 40
2458086.614710648
  9
$TDUPDATE
 40
2458086.406377303
  9
$TDUUPDATE
 40
2458086.614710648
  9
$TDINDWG
 40
0.0000000116
  9
$TDUSRTIMER
 40
0.0000000116
  9
$USRTIMER
 70
     1
  9
$ANGBASE
 50
0.0
  9
$ANGDIR
 70
     0
  9
$PDMODE
 70
     0
  9
$PDSIZE
 40
0.0
  9
$PLINEWID
 40
0.0
  9
$SPLFRAME
 70
     0
  9
$SPLINETYPE
 70
     6
  9
$SPLINESEGS
 70
     8
  9
$HANDSEED
  5
C3
  9
$SURFTAB1
 70
     6
  9
$SURFTAB2
 70
     6
  9
$SURFTYPE
 70
     6
  9
$SURFU
 70
     6
  9
$SURFV
 70
     6
  9
$UCSBASE
  2

  9
$UCSNAME
  2

  9
$UCSORG
 10
0.0
 20
0.0
 30
0.0
  9
$UCSXDIR
 10
1.0
 20
0.0
 30
0.0
  9
$UCSYDIR
 10
0.0
 20
1.0
 30
0.0
  9
$UCSORTHOREF
  2

  9
$UCSORTHOVIEW
 70
     0
  9
$UCSORGTOP
 10
0.0
 20
0.0
 30
0.0
  9
$UCSORGBOTTOM
 10
0.0
 20
0.0
 30
0.0
  9
$UCSORGLEFT
 10
0.0
 20
0.0
 30
0.0
  9
$UCSORGRIGHT
 10
0.0
 20
0.0
 30
0.0
  9
$UCSORGFRONT
 10
0.0
 20
0.0
 30
0.0
  9
$UCSORGBACK
 10
0.0
 20
0.0
 30
0.0
  9
$PUCSBASE
  2

  9
$PUCSNAME
  2

  9
$PUCSORG
 10
0.0
 20
0.0
 30
0.0
  9
$PUCSXDIR
 10
1.0
 20
0.0
 30
0.0
  9
$PUCSYDIR
 10
0.0
 20
1.0
 30
0.0
  9
$PUCSORTHOREF
  2

  9
$PUCSORTHOVIEW
 70
     0
  9
$PUCSORGTOP
 10
0.0
 20
0.0
 30
0.0
  9
$PUCSORGBOTTOM
 10
0.0
 20
0.0
 30
0.0
  9
$PUCSORGLEFT
 10
0.0
 20
0.0
 30
0.0
  9
$PUCSORGRIGHT
 10
0.0
 20
0.0
 30
0.0
  9
$PUCSORGFRONT
 10
0.0
 20
0.0
 30
0.0
  9
$PUCSORGBACK
 10
0.0
 20
0.0
 30
0.0
  9
$USERI1
 70
     0
  9
$USERI2
 70
     0
  9
$USERI3
 70
     0
  9
$USERI4
 70
     0
  9
$USERI5
 70
     0
  9
$USERR1
 40
0.0
  9
$USERR2
 40
0.0
  9
$USERR3
 40
0.0
  9
$USERR4
 40
0.0
  9
$USERR5
 40
0.0
  9
$WORLDVIEW
 70
     1
  9
$SHADEDGE
 70
     3
  9
$SHADEDIF
 70
    70
  9
$TILEMODE
 70
     1
  9
$MAXACTVP
 70
    64
  9
$PINSBASE
 10
0.0
 20
0.0
 30
0.0
  9
$PLIMCHECK
 70
     0
  9
$PEXTMIN
 10
1.000000000000000E+20
 20
1.000000000000000E+20
 30
1.000000000000000E+20
  9
$PEXTMAX
 10
-1.000000000000000E+20
 20
-1.000000000000000E+20
 30
-1.000000000000000E+20
  9
$PLIMMIN
 10
0.0
 20
0.0
  9
$PLIMMAX
 10
12.0
 20
9.0
  9
$UNITMODE
 70
     0
  9
$VISRETAIN
 70
     1
  9
$PLINEGEN
 70
     0
  9
$PSLTSCALE
 70
     1
  9
$TREEDEPTH
 70
  3020
  9
$CMLSTYLE
  2
Standard
  9
$CMLJUST
 70
     0
  9
$CMLSCALE
 40
1.0
  9
$PROXYGRAPHICS
 70
     1
  9
$MEASUREMENT
 70
     0
  9
$CELWEIGHT
370
    -1
  9
$ENDCAPS
280
     0
  9
$JOINSTYLE
280
     0
  9
$LWDISPLAY
290
     1
  9
$INSUNITS
 70
     1
  9
$HYPERLINKBASE
  1

  9
$STYLESHEET
  1

  9
$XEDIT
290
     1
  9
$CEPSNTYPE
380
     0
  9
$PSTYLEMODE
290
     1
  9
$FINGERPRINTGUID
  2
{A4E0600B-41BA-513B-CF7D-09C2AB5A2BC9}
  9
$VERSIONGUID
  2
{FAEB1C32-E019-11D5-929B-00C0DF256EC4}
  9
$EXTNAMES
290
     1
  9
$PSVPSCALE
 40
0.0
  9
$OLESTARTUP
290
     0
  9
$SORTENTS
280
   127
  9
$INDEXCTL
280
     0
  9
$HIDETEXT
280
     1
  9
$XCLIPFRAME
280
     2
  9
$HALOGAP
280
     0
  9
$OBSCOLOR
 70
   257
  9
$OBSLTYPE
280
     0
  9
$INTERSECTIONDISPLAY
280
     0
  9
$INTERSECTIONCOLOR
 70
   257
  9
$DIMASSOC
280
     2
  9
$PROJECTNAME
  1

  9
$CAMERADISPLAY
290
     0
  9
$LENSLENGTH
 40
50.0
  9
$CAMERAHEIGHT
 40
0.0
  9
$STEPSPERSEC
 40
2.0
  9
$STEPSIZE
 40
6.0
  9
$3DDWFPREC
 40
2.0
  9
$PSOLWIDTH
 40
0.25
  9
$PSOLHEIGHT
 40
4.0
  9
$LOFTANG1
 40
1.570796326794897
  9
$LOFTANG2
 40
1.570796326794897
  9
$LOFTMAG1
 40
0.0
  9
$LOFTMAG2
 40
0.0
  9
$LOFTPARAM
 70
     7
  9
$LOFTNORMALS
280
     1
  9
$LATITUDE
 40
37.795
  9
$LONGITUDE
 40
-122.394
  9
$NORTHDIRECTION
 40
0.0
  9
$TIMEZONE
 70
 -8000
  9
$LIGHTGLYPHDISPLAY
280
     1
  9
$TILEMODELIGHTSYNCH
280
     1
  9
$CMATERIAL
347
3C
  9
$SOLIDHIST
280
     1
  9
$SHOWHIST
280
     1
  9
$DWFFRAME
280
     2
  9
$DGNFRAME
280
     2
  9
$REALWORLDSCALE
290
     1
  9
$INTERFERECOLOR
 62
   256
  9
$CSHADOW
280
     0
  9
$SHADOWPLANELOCATION
 40
0.0
  0
ENDSEC
  0
SECTION
  2
CLASSES
  0
CLASS
  1
ACDBDICTIONARYWDFLT
  2
AcDbDictionaryWithDefault
  3
ObjectDBX Classes
 90
        0
 91
        4
280
     0
281
     0
  0
CLASS
  1
VISUALSTYLE
  2
AcDbVisualStyle
  3
ObjectDBX Classes
 90
     4095
 91
        4
280
     0
281
     0
  0
CLASS
  1
MATERIAL
  2
AcDbMaterial
  3
ObjectDBX Classes
 90
     1153
 91
        4
280
     0
281
     0
  0
CLASS
  1
SUN
  2
AcDbSun
  3
SCENEOE
 90
     1024
 91
        4
280
     0
281
     0
  0
ENDSEC
  0
SECTION
  2
TABLES
  0
TABLE
  2
VPORT
  5
8
330
0
100
AcDbSymbolTable
 70
     1
  0
VPORT
  5
29
330
8
100
AcDbSymbolTableRecord
100
AcDbViewportTableRecord
  2
*Active
 70
     0
 10
0.0
 20
0.0
 11
1.0
 21
1.0
 12
0.0
 22
0.0
 13
0.0
 23
0.0
 14
0.5
 24
0.5
 15
0.5
 25
0.5
 16
0.0
 26
0.0
 36
1.0
 17
3.0
 27
3.0
 37
0.0
 40
6.0
 41
1.0
 42
50.0
 43
0.0
 44
0.0
 50
0.0
 51
0.0
 71
     0
 72
   100
 73
     1
 74
     3
 75
     0
 76
     0
 77
     0
 78
     0
281
     0
 65
     1
110
0.0
120
0.0
130
0.0
111
1.0
121
0.0
131
0.0
112
0.0
122
1.0
132
0.0
 79
     0
146
0.0
 60
     3
 61
     5
292
     1
282
     1
141
0.0
142
0.0
 63
   250
361
3F
  0
ENDTAB
  0
TABLE
  2
LTYPE
  5
5
330
0
100
AcDbSymbolTable
 70
     1
  0
LTYPE
  5
14
330
5
100
AcDbSymbolTableRecord
100
AcDbLinetypeTableRecord
  2
ByBlock
 70
     0
  3

 72
    65
 73
     0
 40
0.0
  0
LTYPE
  5
15
330
5
100
AcDbSymbolTableRecord
100
AcDbLinetypeTableRecord
  2
ByLayer
 70
     0
  3

 72
    65
 73
     0
 40
0.0
  0
LTYPE
  5
16
330
5
100
AcDbSymbolTableRecord
100
AcDbLinetypeTableRecord
  2
Continuous
 70
     0
  3
Solid line
 72
    65
 73
     0
 40
0.0
  0
ENDTAB
  0
TABLE
  2
LAYER
  5
2
330
0
100
AcDbSymbolTable
 70
     2
  0
LAYER
  5
10
330
2
100
AcDbSymbolTableRecord
100
AcDbLayerTableRecord
  2
0
 70
     0
 62
     7
  6
Continuous
370
    -3
390
F
347
3E
  0
LAYER
  5
40
330
2
100
AcDbSymbolTableRecord
100
AcDbLayerTableRecord
  2
Calque 1
 70
     0
 62
     7
  6
Continuous
370
    -3
390
F
347
3E
  0
ENDTAB
  0
TABLE
  2
STYLE
  5
3
330
0
100
AcDbSymbolTable
 70
     1
  0
STYLE
  5
11
330
3
100
AcDbSymbolTableRecord
100
AcDbTextStyleTableRecord
  2
Standard
 70
     0
 40
0.0
 41
1.0
 50
0.0
 71
     0
 42
0.2
  3
txt
  4

  0
ENDTAB
  0
TABLE
  2
VIEW
  5
6
330
0
100
AcDbSymbolTable
 70
     0
  0
ENDTAB
  0
TABLE
  2
UCS
  5
7
330
0
100
AcDbSymbolTable
 70
     0
  0
ENDTAB
  0
TABLE
  2
APPID
  5
9
330
0
100
AcDbSymbolTable
 70
     1
  0
APPID
  5
12
330
9
100
AcDbSymbolTableRecord
100
AcDbRegAppTableRecord
  2
ACAD
 70
     0
  0
ENDTAB
  0
TABLE
  2
DIMSTYLE
  5
A
330
0
100
AcDbSymbolTable
 70
     1
100
AcDbDimStyleTable
  0
DIMSTYLE
105
27
330
A
100
AcDbSymbolTableRecord
100
AcDbDimStyleTableRecord
  2
Standard
 70
     0
178
     0
340
11
  0
ENDTAB
  0
TABLE
  2
BLOCK_RECORD
  5
1
330
0
100
AcDbSymbolTable
 70
    21
  0
BLOCK_RECORD
  5
1F
330
1
100
AcDbSymbolTableRecord
100
AcDbBlockTableRecord
  2
*Model_Space
340
22
 70
     0
280
     1
281
     0
  0
BLOCK_RECORD
  5
1B
330
1
100
AcDbSymbolTableRecord
100
AcDbBlockTableRecord
  2
*Paper_Space
340
1E
 70
     0
280
     1
281
     0
  0
BLOCK_RECORD
  5
23
330
1
100
AcDbSymbolTableRecord
100
AcDbBlockTableRecord
  2
*Paper_Space0
340
26
 70
     0
280
     1
281
     0
  0
BLOCK_RECORD
  5
41
330
1
100
AcDbSymbolTableRecord
100
AcDbBlockTableRecord
  2
block 2
340
0
102
{BLKREFS
331
42
102
}
 70
     0
280
     1
281
     0
  0
BLOCK_RECORD
  5
45
330
1
100
AcDbSymbolTableRecord
100
AcDbBlockTableRecord
  2
block 3
340
0
102
{BLKREFS
331
46
102
}
 70
     0
280
     1
281
     0
  0
BLOCK_RECORD
  5
4D
330
1
100
AcDbSymbolTableRecord
100
AcDbBlockTableRecord
  2
block 4
340
0
102
{BLKREFS
331
4E
102
}
 70
     0
280
     1
281
     0
  0
BLOCK_RECORD
  5
51
330
1
100
AcDbSymbolTableRecord
100
AcDbBlockTableRecord
  2
block 5
340
0
102
{BLKREFS
331
52
102
}
 70
     0
280
     1
281
     0
  0
BLOCK_RECORD
  5
57
330
1
100
AcDbSymbolTableRecord
100
AcDbBlockTableRecord
  2
block 6
340
0
102
{BLKREFS
331
58
102
}
 70
     0
280
     1
281
     0
  0
BLOCK_RECORD
  5
5B
330
1
100
AcDbSymbolTableRecord
100
AcDbBlockTableRecord
  2
block 7
340
0
102
{BLKREFS
331
5C
102
}
 70
     0
280
     1
281
     0
  0
BLOCK_RECORD
  5
5F
330
1
100
AcDbSymbolTableRecord
100
AcDbBlockTableRecord
  2
block 8
340
0
102
{BLKREFS
331
60
102
}
 70
     0
280
     1
281
     0
  0
BLOCK_RECORD
  5
67
330
1
100
AcDbSymbolTableRecord
100
AcDbBlockTableRecord
  2
block 9
340
0
102
{BLKREFS
331
68
102
}
 70
     0
280
     1
281
     0
  0
BLOCK_RECORD
  5
6F
330
1
100
AcDbSymbolTableRecord
100
AcDbBlockTableRecord
  2
block 10
340
0
102
{BLKREFS
331
70
102
}
 70
     0
280
     1
281
     0
  0
BLOCK_RECORD
  5
77
330
1
100
AcDbSymbolTableRecord
100
AcDbBlockTableRecord
  2
block 11
340
0
102
{BLKREFS
331
78
102
}
 70
     0
280
     1
281
     0
  0
BLOCK_RECORD
  5
7B
330
1
100
AcDbSymbolTableRecord
100
AcDbBlockTableRecord
  2
block 12
340
0
102
{BLKREFS
331
7C
102
}
 70
     0
280
     1
281
     0
  0
BLOCK_RECORD
  5
81
330
1
100
AcDbSymbolTableRecord
100
AcDbBlockTableRecord
  2
block 13
340
0
102
{BLKREFS
331
82
102
}
 70
     0
280
     1
281
     0
  0
BLOCK_RECORD
  5
87
330
1
100
AcDbSymbolTableRecord
100
AcDbBlockTableRecord
  2
block 14
340
0
102
{BLKREFS
331
88
102
}
 70
     0
280
     1
281
     0
  0
BLOCK_RECORD
  5
91
330
1
100
AcDbSymbolTableRecord
100
AcDbBlockTableRecord
  2
block 15
340
0
102
{BLKREFS
331
92
102
}
 70
     0
280
     1
281
     0
  0
BLOCK_RECORD
  5
97
330
1
100
AcDbSymbolTableRecord
100
AcDbBlockTableRecord
  2
block 16
340
0
102
{BLKREFS
331
98
102
}
 70
     0
280
     1
281
     0
  0
BLOCK_RECORD
  5
9B
330
1
100
AcDbSymbolTableRecord
100
AcDbBlockTableRecord
  2
block 17
340
0
102
{BLKREFS
331
9C
102
}
 70
     0
280
     1
281
     0
  0
BLOCK_RECORD
  5
9F
330
1
100
AcDbSymbolTableRecord
100
AcDbBlockTableRecord
  2
block 18
340
0
102
{BLKREFS
331
A0
102
}
 70
     0
280
     1
281
     0
  0
BLOCK_RECORD
  5
A7
330
1
100
AcDbSymbolTableRecord
100
AcDbBlockTableRecord
  2
block 19
340
0
102
{BLKREFS
331
A8
102
}
 70
     0
280
     1
281
     0
  0
BLOCK_RECORD
  5
AF
330
1
100
AcDbSymbolTableRecord
100
AcDbBlockTableRecord
  2
block 20
340
0
102
{BLKREFS
331
B0
102
}
 70
     0
280
     1
281
     0
  0
BLOCK_RECORD
  5
B9
330
1
100
AcDbSymbolTableRecord
100
AcDbBlockTableRecord
  2
block 21
340
0
102
{BLKREFS
331
BA
102
}
 70
     0
280
     1
281
     0
  0
ENDTAB
  0
ENDSEC
  0
SECTION
  2
BLOCKS
  0
BLOCK
  5
20
330
1F
100
AcDbEntity
  8
0
100
AcDbBlockBegin
  2
*Model_Space
 70
     0
 10
0.0
 20
0.0
 30
0.0
  3
*Model_Space
  1

  0
ENDBLK
  5
21
330
1F
100
AcDbEntity
  8
0
100
AcDbBlockEnd
  0
BLOCK
  5
1C
330
1B
100
AcDbEntity
 67
     1
  8
0
100
AcDbBlockBegin
  2
*Paper_Space
 70
     0
 10
0.0
 20
0.0
 30
0.0
  3
*Paper_Space
  1

  0
ENDBLK
  5
1D
330
1B
100
AcDbEntity
 67
     1
  8
0
100
AcDbBlockEnd
  0
BLOCK
  5
24
330
23
100
AcDbEntity
  8
0
100
AcDbBlockBegin
  2
*Paper_Space0
 70
     0
 10
0.0
 20
0.0
 30
0.0
  3
*Paper_Space0
  1

  0
ENDBLK
  5
25
330
23
100
AcDbEntity
  8
0
100
AcDbBlockEnd
  0
BLOCK
  5
43
330
41
100
AcDbEntity
  8
0
100
AcDbBlockBegin
  2
block 2
 70
     0
 10
0.0
 20
0.0
 30
0.0
  3
block 2
  1

  0
INSERT
  5
46
330
41
100
AcDbEntity
  8
Calque 1
100
AcDbBlockReference
  2
block 3
 10
0.0
 20
0.0
 30
0.0
  0
INSERT
  5
4E
330
41
100
AcDbEntity
  8
Calque 1
100
AcDbBlockReference
  2
block 4
 10
0.0
 20
0.0
 30
0.0
  0
ENDBLK
  5
44
330
41
100
AcDbEntity
  8
0
100
AcDbBlockEnd
  0
BLOCK
  5
47
330
45
100
AcDbEntity
  8
0
100
AcDbBlockBegin
  2
block 3
 70
     0
 10
0.0
 20
0.0
 30
0.0
  3
block 3
  1

  0
SPLINE
  5
49
330
45
100
AcDbEntity
  8
Calque 1
370
     0
100
AcDbSpline
210
0.0
220
0.0
230
1.0
 70
    11
 71
     3
 72
   101
 73
    97
 74
     0
 42
0.0000000001
 43
0.0000000001
 12
1.0
 22
0.0
 32
0.0
 13
1.0
 23
0.0
 33
0.0
 40
0.0
 40
0.0
 40
0.0
 40
0.0
 40
1.0
 40
1.0
 40
1.0
 40
2.0
 40
2.0
 40
2.0
 40
3.0
 40
3.0
 40
3.0
 40
4.0
 40
4.0
 40
4.0
 40
5.0
 40
5.0
 40
5.0
 40
6.0
 40
6.0
 40
6.0
 40
7.0
 40
7.0
 40
7.0
 40
8.0
 40
8.0
 40
8.0
 40
9.0
 40
9.0
 40
9.0
 40
10.0
 40
10.0
 40
10.0
 40
11.0
 40
11.0
 40
11.0
 40
12.0
 40
12.0
 40
12.0
 40
13.0
 40
13.0
 40
13.0
 40
14.0
 40
14.0
 40
14.0
 40
15.0
 40
15.0
 40
15.0
 40
16.0
 40
16.0
 40
16.0
 40
17.0
 40
17.0
 40
17.0
 40
18.0
 40
18.0
 40
18.0
 40
19.0
 40
19.0
 40
19.0
 40
20.0
 40
20.0
 40
20.0
 40
21.0
 40
21.0
 40
21.0
 40
22.0
 40
22.0
 40
22.0
 40
23.0
 40
23.0
 40
23.0
 40
24.0
 40
24.0
 40
24.0
 40
25.0
 40
25.0
 40
25.0
 40
26.0
 40
26.0
 40
26.0
 40
27.0
 40
27.0
 40
27.0
 40
28.0
 40
28.0
 40
28.0
 40
29.0
 40
29.0
 40
29.0
 40
30.0
 40
30.0
 40
30.0
 40
31.0
 40
31.0
 40
31.0
 40
32.0
 40
32.0
 40
32.0
 40
32.0
 10
2.736111111111111
 20
4.315277735392252
 30
0.0
 10
2.736111111111111
 20
4.320833312140571
 30
0.0
 10
2.736111111111111
 20
4.326388888888888
 30
0.0
 10
2.736111111111111
 20
4.330555491977267
 30
0.0
 10
2.73750008477105
 20
4.383333312140571
 30
0.0
 10
2.736111111111111
 20
4.43611102634006
 30
0.0
 10
2.740277820163303
 20
4.487499978807237
 30
0.0
 10
2.747222264607747
 20
4.59305551317003
 30
0.0
 10
2.76944457160102
 20
4.694444444444444
 30
0.0
 10
2.819444444444444
 20
4.788888931274414
 30
0.0
 10
2.856944402058919
 20
4.859722243414985
 30
0.0
 10
2.906944486829969
 20
4.916666666666666
 30
0.0
 10
2.976388931274414
 20
4.958333333333333
 30
0.0
 10
3.004166709052192
 20
4.974999957614474
 30
0.0
 10
3.034722222222222
 20
4.987499978807237
 30
0.0
 10
3.066666709052192
 20
4.993055555555555
 30
0.0
 10
3.113888846503364
 20
5.001388867696126
 30
0.0
 10
3.158333460489909
 20
4.993055555555555
 30
0.0
 10
3.200000127156575
 20
4.966666645473904
 30
0.0
 10
3.243055767483181
 20
4.938888867696126
 30
0.0
 10
3.272222306993272
 20
4.901388910081651
 30
0.0
 10
3.294444613986545
 20
4.855555534362793
 30
0.0
 10
3.322222391764323
 20
4.797222243414985
 30
0.0
 10
3.337500254313151
 20
4.736111111111111
 30
0.0
 10
3.345833460489909
 20
4.672222243414985
 30
0.0
 10
3.355555640326606
 20
4.594444486829969
 30
0.0
 10
3.352777904934353
 20
4.51805559794108
 30
0.0
 10
3.344444486829969
 20
4.441666709052192
 30
0.0
 10
3.341666751437717
 20
4.418055640326606
 30
0.0
 10
3.341666751437717
 20
4.394444465637207
 30
0.0
 10
3.340277777777778
 20
4.370833396911621
 30
0.0
 10
3.334722306993272
 20
4.263888994852701
 30
0.0
 10
3.322222179836697
 20
4.156944486829969
 30
0.0
 10
3.301388846503364
 20
4.052777820163302
 30
0.0
 10
3.277777777777778
 20
3.931944529215495
 30
0.0
 10
3.25
 20
3.8125
 30
0.0
 10
3.226388931274414
 20
3.691666709052192
 30
0.0
 10
3.202777862548828
 20
3.575000127156575
 30
0.0
 10
3.181944529215495
 20
3.45694457160102
 30
0.0
 10
3.166666666666667
 20
3.338889016045464
 30
0.0
 10
3.156944486829969
 20
3.262500127156575
 30
0.0
 10
3.148611068725586
 20
3.184722264607747
 30
0.0
 10
3.140277862548828
 20
3.108333375718858
 30
0.0
 10
3.136111153496636
 20
3.073611153496636
 30
0.0
 10
3.105555640326606
 20
3.058333290947808
 30
0.0
 10
3.076388888888889
 20
3.076388888888889
 30
0.0
 10
3.069444444444444
 20
3.080555597941081
 30
0.0
 10
3.0625
 20
3.086111068725586
 30
0.0
 10
3.055555555555555
 20
3.09305551317003
 30
0.0
 10
3.047222137451172
 20
3.102777693006727
 30
0.0
 10
3.037499957614475
 20
3.111111111111111
 30
0.0
 10
3.03055551317003
 20
3.122222264607747
 30
0.0
 10
2.990277820163303
 20
3.180555555555555
 30
0.0
 10
2.943055470784505
 20
3.231944402058919
 30
0.0
 10
2.895833333333333
 20
3.283333460489909
 30
0.0
 10
2.775000042385525
 20
3.418055640326606
 30
0.0
 10
2.654166751437717
 20
3.551389058430989
 30
0.0
 10
2.533333248562283
 20
3.686111238267686
 30
0.0
 10
2.455555386013455
 20
3.773611280653212
 30
0.0
 10
2.379166497124566
 20
3.86250008477105
 30
0.0
 10
2.309722052680121
 20
3.95694457160102
 30
0.0
 10
2.240277608235677
 20
4.052777820163302
 30
0.0
 10
2.173610899183485
 20
4.148611280653212
 30
0.0
 10
2.11805534362793
 20
4.252777947319879
 30
0.0
 10
2.084722095065647
 20
4.315277947319879
 30
0.0
 10
2.05555534362793
 20
4.377777947319879
 30
0.0
 10
2.040277481079102
 20
4.447222391764322
 30
0.0
 10
2.034722010294596
 20
4.476389037238227
 30
0.0
 10
2.030555301242404
 20
4.50694465637207
 30
0.0
 10
2.027777565850152
 20
4.5375001695421
 30
0.0
 10
2.024999830457899
 20
4.563889079623752
 30
0.0
 10
2.02361085679796
 20
4.590277989705403
 30
0.0
 10
2.024999830457899
 20
4.616666793823242
 30
0.0
 10
2.026388804117838
 20
4.654166751437717
 30
0.0
 10
2.033333248562283
 20
4.690277947319879
 30
0.0
 10
2.049999872843424
 20
4.723611195882161
 30
0.0
 10
2.07499991522895
 20
4.773611174689399
 30
0.0
 10
2.112499872843424
 20
4.809722264607747
 30
0.0
 10
2.16805542839898
 20
4.820833418104383
 30
0.0
 10
2.201388676961263
 20
4.827777862548828
 30
0.0
 10
2.233333163791233
 20
4.825000127156575
 30
0.0
 10
2.266666624281141
 20
4.818055682712131
 30
0.0
 10
2.331944359673394
 20
4.802777926127115
 30
0.0
 10
2.388888888888889
 20
4.770833439297146
 30
0.0
 10
2.438888761732313
 20
4.727777904934353
 30
0.0
 10
2.506944232516819
 20
4.669444613986545
 30
0.0
 10
2.562499788072374
 20
4.6000001695421
 30
0.0
 10
2.612499872843424
 20
4.526389016045465
 30
0.0
 10
2.65555551317003
 20
4.463889016045465
 30
0.0
 10
2.690277735392252
 20
4.397222306993273
 30
0.0
 10
2.722222010294596
 20
4.330555703904894
 30
0.0
 10
2.724999745686849
 20
4.326388994852701
 30
0.0
 10
2.726388719346788
 20
4.320833524068196
 30
0.0
 10
2.729166454739041
 20
4.316666815016005
 30
0.0
 10
2.733333375718858
 20
4.315277735392252
 30
0.0
 10
2.734722137451172
 20
4.315277735392252
 30
0.0
 10
2.736111111111111
 20
4.315277735392252
 30
0.0
  0
HATCH
  5
4A
330
45
100
AcDbEntity
  8
Calque 1
 62
    24
420
 11016482
100
AcDbHatch
 10
0.0
 20
0.0
 30
0.0
210
0.0
220
0.0
230
1.0
  2
SOLID
 70
     1
 71
     0
 91
        1
 92
        1
 93
        1
 72
     4
 94
        3
 73
     0
 74
     1
 95
      101
 96
       97
 40
0.0
 40
0.0
 40
0.0
 40
0.0
 40
1.0
 40
1.0
 40
1.0
 40
2.0
 40
2.0
 40
2.0
 40
3.0
 40
3.0
 40
3.0
 40
4.0
 40
4.0
 40
4.0
 40
5.0
 40
5.0
 40
5.0
 40
6.0
 40
6.0
 40
6.0
 40
7.0
 40
7.0
 40
7.0
 40
8.0
 40
8.0
 40
8.0
 40
9.0
 40
9.0
 40
9.0
 40
10.0
 40
10.0
 40
10.0
 40
11.0
 40
11.0
 40
11.0
 40
12.0
 40
12.0
 40
12.0
 40
13.0
 40
13.0
 40
13.0
 40
14.0
 40
14.0
 40
14.0
 40
15.0
 40
15.0
 40
15.0
 40
16.0
 40
16.0
 40
16.0
 40
17.0
 40
17.0
 40
17.0
 40
18.0
 40
18.0
 40
18.0
 40
19.0
 40
19.0
 40
19.0
 40
20.0
 40
20.0
 40
20.0
 40
21.0
 40
21.0
 40
21.0
 40
22.0
 40
22.0
 40
22.0
 40
23.0
 40
23.0
 40
23.0
 40
24.0
 40
24.0
 40
24.0
 40
25.0
 40
25.0
 40
25.0
 40
26.0
 40
26.0
 40
26.0
 40
27.0
 40
27.0
 40
27.0
 40
28.0
 40
28.0
 40
28.0
 40
29.0
 40
29.0
 40
29.0
 40
30.0
 40
30.0
 40
30.0
 40
31.0
 40
31.0
 40
31.0
 40
32.0
 40
32.0
 40
32.0
 40
32.0
 10
2.736111111111111
 20
4.315277735392252
 10
2.736111111111111
 20
4.320833312140571
 10
2.736111111111111
 20
4.326388888888888
 10
2.736111111111111
 20
4.330555491977267
 10
2.73750008477105
 20
4.383333312140571
 10
2.736111111111111
 20
4.43611102634006
 10
2.740277820163303
 20
4.487499978807237
 10
2.747222264607747
 20
4.59305551317003
 10
2.76944457160102
 20
4.694444444444444
 10
2.819444444444444
 20
4.788888931274414
 10
2.856944402058919
 20
4.859722243414985
 10
2.906944486829969
 20
4.916666666666666
 10
2.976388931274414
 20
4.958333333333333
 10
3.004166709052192
 20
4.974999957614474
 10
3.034722222222222
 20
4.987499978807237
 10
3.066666709052192
 20
4.993055555555555
 10
3.113888846503364
 20
5.001388867696126
 10
3.158333460489909
 20
4.993055555555555
 10
3.200000127156575
 20
4.966666645473904
 10
3.243055767483181
 20
4.938888867696126
 10
3.272222306993272
 20
4.901388910081651
 10
3.294444613986545
 20
4.855555534362793
 10
3.322222391764323
 20
4.797222243414985
 10
3.337500254313151
 20
4.736111111111111
 10
3.345833460489909
 20
4.672222243414985
 10
3.355555640326606
 20
4.594444486829969
 10
3.352777904934353
 20
4.51805559794108
 10
3.344444486829969
 20
4.441666709052192
 10
3.341666751437717
 20
4.418055640326606
 10
3.341666751437717
 20
4.394444465637207
 10
3.340277777777778
 20
4.370833396911621
 10
3.334722306993272
 20
4.263888994852701
 10
3.322222179836697
 20
4.156944486829969
 10
3.301388846503364
 20
4.052777820163302
 10
3.277777777777778
 20
3.931944529215495
 10
3.25
 20
3.8125
 10
3.226388931274414
 20
3.691666709052192
 10
3.202777862548828
 20
3.575000127156575
 10
3.181944529215495
 20
3.45694457160102
 10
3.166666666666667
 20
3.338889016045464
 10
3.156944486829969
 20
3.262500127156575
 10
3.148611068725586
 20
3.184722264607747
 10
3.140277862548828
 20
3.108333375718858
 10
3.136111153496636
 20
3.073611153496636
 10
3.105555640326606
 20
3.058333290947808
 10
3.076388888888889
 20
3.076388888888889
 10
3.069444444444444
 20
3.080555597941081
 10
3.0625
 20
3.086111068725586
 10
3.055555555555555
 20
3.09305551317003
 10
3.047222137451172
 20
3.102777693006727
 10
3.037499957614475
 20
3.111111111111111
 10
3.03055551317003
 20
3.122222264607747
 10
2.990277820163303
 20
3.180555555555555
 10
2.943055470784505
 20
3.231944402058919
 10
2.895833333333333
 20
3.283333460489909
 10
2.775000042385525
 20
3.418055640326606
 10
2.654166751437717
 20
3.551389058430989
 10
2.533333248562283
 20
3.686111238267686
 10
2.455555386013455
 20
3.773611280653212
 10
2.379166497124566
 20
3.86250008477105
 10
2.309722052680121
 20
3.95694457160102
 10
2.240277608235677
 20
4.052777820163302
 10
2.173610899183485
 20
4.148611280653212
 10
2.11805534362793
 20
4.252777947319879
 10
2.084722095065647
 20
4.315277947319879
 10
2.05555534362793
 20
4.377777947319879
 10
2.040277481079102
 20
4.447222391764322
 10
2.034722010294596
 20
4.476389037238227
 10
2.030555301242404
 20
4.50694465637207
 10
2.027777565850152
 20
4.5375001695421
 10
2.024999830457899
 20
4.563889079623752
 10
2.02361085679796
 20
4.590277989705403
 10
2.024999830457899
 20
4.616666793823242
 10
2.026388804117838
 20
4.654166751437717
 10
2.033333248562283
 20
4.690277947319879
 10
2.049999872843424
 20
4.723611195882161
 10
2.07499991522895
 20
4.773611174689399
 10
2.112499872843424
 20
4.809722264607747
 10
2.16805542839898
 20
4.820833418104383
 10
2.201388676961263
 20
4.827777862548828
 10
2.233333163791233
 20
4.825000127156575
 10
2.266666624281141
 20
4.818055682712131
 10
2.331944359673394
 20
4.802777926127115
 10
2.388888888888889
 20
4.770833439297146
 10
2.438888761732313
 20
4.727777904934353
 10
2.506944232516819
 20
4.669444613986545
 10
2.562499788072374
 20
4.6000001695421
 10
2.612499872843424
 20
4.526389016045465
 10
2.65555551317003
 20
4.463889016045465
 10
2.690277735392252
 20
4.397222306993273
 10
2.722222010294596
 20
4.330555703904894
 10
2.724999745686849
 20
4.326388994852701
 10
2.726388719346788
 20
4.320833524068196
 10
2.729166454739041
 20
4.316666815016005
 10
2.733333375718858
 20
4.315277735392252
 10
2.734722137451172
 20
4.315277735392252
 10
2.736111111111111
 20
4.315277735392252
 97
        0
 97
        0
 75
     2
 76
     1
 98
        0
  0
SPLINE
  5
4B
330
45
100
AcDbEntity
  8
Calque 1
370
     0
100
AcDbSpline
210
0.0
220
0.0
230
1.0
 70
    11
 71
     3
 72
    65
 73
    61
 74
     0
 42
0.0000000001
 43
0.0000000001
 12
1.0
 22
0.0
 32
0.0
 13
1.0
 23
0.0
 33
0.0
 40
0.0
 40
0.0
 40
0.0
 40
0.0
 40
1.0
 40
1.0
 40
1.0
 40
2.0
 40
2.0
 40
2.0
 40
3.0
 40
3.0
 40
3.0
 40
4.0
 40
4.0
 40
4.0
 40
5.0
 40
5.0
 40
5.0
 40
6.0
 40
6.0
 40
6.0
 40
7.0
 40
7.0
 40
7.0
 40
8.0
 40
8.0
 40
8.0
 40
9.0
 40
9.0
 40
9.0
 40
10.0
 40
10.0
 40
10.0
 40
11.0
 40
11.0
 40
11.0
 40
12.0
 40
12.0
 40
12.0
 40
13.0
 40
13.0
 40
13.0
 40
14.0
 40
14.0
 40
14.0
 40
15.0
 40
15.0
 40
15.0
 40
16.0
 40
16.0
 40
16.0
 40
17.0
 40
17.0
 40
17.0
 40
18.0
 40
18.0
 40
18.0
 40
19.0
 40
19.0
 40
19.0
 40
20.0
 40
20.0
 40
20.0
 40
20.0
 10
3.525000042385525
 20
3.816666709052192
 30
0.0
 10
3.533333460489909
 20
3.822222179836697
 30
0.0
 10
3.538888931274414
 20
3.826388888888889
 30
0.0
 10
3.544444402058919
 20
3.830555597941081
 30
0.0
 10
3.572222391764323
 20
3.849999957614475
 30
0.0
 10
3.6000001695421
 20
3.865277820163303
 30
0.0
 10
3.634722391764323
 20
3.869444529215495
 30
0.0
 10
3.686111450195312
 20
3.875
 30
0.0
 10
3.723611195882161
 20
3.841666751437717
 30
0.0
 10
3.7250001695421
 20
3.790277904934353
 30
0.0
 10
3.7250001695421
 20
3.762500127156575
 30
0.0
 10
3.716666751437717
 20
3.736111323038737
 30
0.0
 10
3.705555809868706
 20
3.711111280653212
 30
0.0
 10
3.683333502875434
 20
3.659722434149848
 30
0.0
 10
3.654166751437717
 20
3.61250008477105
 30
0.0
 10
3.619444529215495
 20
3.568055682712131
 30
0.0
 10
3.593055725097656
 20
3.533333460489909
 30
0.0
 10
3.565277947319878
 20
3.500000211927626
 30
0.0
 10
3.538888931274414
 20
3.465277989705403
 30
0.0
 10
3.494444529215495
 20
3.409722434149848
 30
0.0
 10
3.450000127156575
 20
3.352777904934353
 30
0.0
 10
3.404166751437717
 20
3.297222349378798
 30
0.0
 10
3.391666836208767
 20
3.281944486829969
 30
0.0
 10
3.377777947319878
 20
3.266666836208767
 30
0.0
 10
3.363889058430989
 20
3.251388973659939
 30
0.0
 10
3.358333587646484
 20
3.245833502875434
 30
0.0
 10
3.35138914320204
 20
3.240277820163303
 30
0.0
 10
3.344444698757595
 20
3.236111111111111
 30
0.0
 10
3.325000339084201
 20
3.226388931274414
 30
0.0
 10
3.304167005750868
 20
3.234722137451172
 30
0.0
 10
3.297222561306423
 20
3.254166709052192
 30
0.0
 10
3.294444825914171
 20
3.263888888888889
 30
0.0
 10
3.291667090521918
 20
3.275000042385525
 30
0.0
 10
3.291667090521918
 20
3.284722222222222
 30
0.0
 10
3.283333672417534
 20
3.356944402058919
 30
0.0
 10
3.277778201633029
 20
3.429166581895616
 30
0.0
 10
3.281944910685221
 20
3.501388973659939
 30
0.0
 10
3.284722646077474
 20
3.5625
 30
0.0
 10
3.287500381469727
 20
3.623611238267686
 30
0.0
 10
3.294444825914171
 20
3.684722264607747
 30
0.0
 10
3.300000296698676
 20
3.744444529215495
 30
0.0
 10
3.309722688462999
 20
3.802777820163303
 30
0.0
 10
3.319444868299696
 20
3.861111111111111
 30
0.0
 10
3.325000339084201
 20
3.900000042385525
 30
0.0
 10
3.336111492580837
 20
3.9375
 30
0.0
 10
3.352778116861979
 20
3.973611195882161
 30
0.0
 10
3.359722561306423
 20
3.98750008477105
 30
0.0
 10
3.366667005750868
 20
4.0
 30
0.0
 10
3.375000423855251
 20
4.011111153496636
 30
0.0
 10
3.408333672417534
 20
4.052777820163302
 30
0.0
 10
3.461111492580837
 20
4.052777820163302
 30
0.0
 10
3.497222688462999
 20
4.013888888888888
 30
0.0
 10
3.518056021796332
 20
3.991666581895616
 30
0.0
 10
3.527778201633029
 20
3.963888804117838
 30
0.0
 10
3.530555937025282
 20
3.934722264607747
 30
0.0
 10
3.534722646077474
 20
3.900000042385525
 30
0.0
 10
3.533333672417534
 20
3.865277820163303
 30
0.0
 10
3.529166963365343
 20
3.830555597941081
 30
0.0
 10
3.526388804117838
 20
3.827777862548828
 30
0.0
 10
3.525000042385525
 20
3.823611153496636
 30
0.0
 10
3.525000042385525
 20
3.816666709052192
 30
0.0
  0
HATCH
  5
4C
330
45
100
AcDbEntity
  8
Calque 1
 62
    24
420
 11016482
100
AcDbHatch
 10
0.0
 20
0.0
 30
0.0
210
0.0
220
0.0
230
1.0
  2
SOLID
 70
     1
 71
     0
 91
        1
 92
        1
 93
        1
 72
     4
 94
        3
 73
     0
 74
     1
 95
       65
 96
       61
 40
0.0
 40
0.0
 40
0.0
 40
0.0
 40
1.0
 40
1.0
 40
1.0
 40
2.0
 40
2.0
 40
2.0
 40
3.0
 40
3.0
 40
3.0
 40
4.0
 40
4.0
 40
4.0
 40
5.0
 40
5.0
 40
5.0
 40
6.0
 40
6.0
 40
6.0
 40
7.0
 40
7.0
 40
7.0
 40
8.0
 40
8.0
 40
8.0
 40
9.0
 40
9.0
 40
9.0
 40
10.0
 40
10.0
 40
10.0
 40
11.0
 40
11.0
 40
11.0
 40
12.0
 40
12.0
 40
12.0
 40
13.0
 40
13.0
 40
13.0
 40
14.0
 40
14.0
 40
14.0
 40
15.0
 40
15.0
 40
15.0
 40
16.0
 40
16.0
 40
16.0
 40
17.0
 40
17.0
 40
17.0
 40
18.0
 40
18.0
 40
18.0
 40
19.0
 40
19.0
 40
19.0
 40
20.0
 40
20.0
 40
20.0
 40
20.0
 10
3.525000042385525
 20
3.816666709052192
 10
3.533333460489909
 20
3.822222179836697
 10
3.538888931274414
 20
3.826388888888889
 10
3.544444402058919
 20
3.830555597941081
 10
3.572222391764323
 20
3.849999957614475
 10
3.6000001695421
 20
3.865277820163303
 10
3.634722391764323
 20
3.869444529215495
 10
3.686111450195312
 20
3.875
 10
3.723611195882161
 20
3.841666751437717
 10
3.7250001695421
 20
3.790277904934353
 10
3.7250001695421
 20
3.762500127156575
 10
3.716666751437717
 20
3.736111323038737
 10
3.705555809868706
 20
3.711111280653212
 10
3.683333502875434
 20
3.659722434149848
 10
3.654166751437717
 20
3.61250008477105
 10
3.619444529215495
 20
3.568055682712131
 10
3.593055725097656
 20
3.533333460489909
 10
3.565277947319878
 20
3.500000211927626
 10
3.538888931274414
 20
3.465277989705403
 10
3.494444529215495
 20
3.409722434149848
 10
3.450000127156575
 20
3.352777904934353
 10
3.404166751437717
 20
3.297222349378798
 10
3.391666836208767
 20
3.281944486829969
 10
3.377777947319878
 20
3.266666836208767
 10
3.363889058430989
 20
3.251388973659939
 10
3.358333587646484
 20
3.245833502875434
 10
3.35138914320204
 20
3.240277820163303
 10
3.344444698757595
 20
3.236111111111111
 10
3.325000339084201
 20
3.226388931274414
 10
3.304167005750868
 20
3.234722137451172
 10
3.297222561306423
 20
3.254166709052192
 10
3.294444825914171
 20
3.263888888888889
 10
3.291667090521918
 20
3.275000042385525
 10
3.291667090521918
 20
3.284722222222222
 10
3.283333672417534
 20
3.356944402058919
 10
3.277778201633029
 20
3.429166581895616
 10
3.281944910685221
 20
3.501388973659939
 10
3.284722646077474
 20
3.5625
 10
3.287500381469727
 20
3.623611238267686
 10
3.294444825914171
 20
3.684722264607747
 10
3.300000296698676
 20
3.744444529215495
 10
3.309722688462999
 20
3.802777820163303
 10
3.319444868299696
 20
3.861111111111111
 10
3.325000339084201
 20
3.900000042385525
 10
3.336111492580837
 20
3.9375
 10
3.352778116861979
 20
3.973611195882161
 10
3.359722561306423
 20
3.98750008477105
 10
3.366667005750868
 20
4.0
 10
3.375000423855251
 20
4.011111153496636
 10
3.408333672417534
 20
4.052777820163302
 10
3.461111492580837
 20
4.052777820163302
 10
3.497222688462999
 20
4.013888888888888
 10
3.518056021796332
 20
3.991666581895616
 10
3.527778201633029
 20
3.963888804117838
 10
3.530555937025282
 20
3.934722264607747
 10
3.534722646077474
 20
3.900000042385525
 10
3.533333672417534
 20
3.865277820163303
 10
3.529166963365343
 20
3.830555597941081
 10
3.526388804117838
 20
3.827777862548828
 10
3.525000042385525
 20
3.823611153496636
 10
3.525000042385525
 20
3.816666709052192
 97
        0
 97
        0
 75
     2
 76
     1
 98
        0
  0
ENDBLK
  5
48
330
45
100
AcDbEntity
  8
0
100
AcDbBlockEnd
  0
BLOCK
  5
4F
330
4D
100
AcDbEntity
  8
0
100
AcDbBlockBegin
  2
block 4
 70
     0
 10
0.0
 20
0.0
 30
0.0
  3
block 4
  1

  0
INSERT
  5
52
330
4D
100
AcDbEntity
  8
Calque 1
100
AcDbBlockReference
  2
block 5
 10
0.0
 20
0.0
 30
0.0
  0
INSERT
  5
92
330
4D
100
AcDbEntity
  8
Calque 1
100
AcDbBlockReference
  2
block 15
 10
0.0
 20
0.0
 30
0.0
  0
ENDBLK
  5
50
330
4D
100
AcDbEntity
  8
0
100
AcDbBlockEnd
  0
BLOCK
  5
53
330
51
100
AcDbEntity
  8
0
100
AcDbBlockBegin
  2
block 5
 70
     0
 10
0.0
 20
0.0
 30
0.0
  3
block 5
  1

  0
SPLINE
  5
55
330
51
100
AcDbEntity
  8
Calque 1
370
     0
100
AcDbSpline
210
0.0
220
0.0
230
1.0
 70
    11
 71
     3
 72
   125
 73
   121
 74
     0
 42
0.0000000001
 43
0.0000000001
 12
1.0
 22
0.0
 32
0.0
 13
1.0
 23
0.0
 33
0.0
 40
0.0
 40
0.0
 40
0.0
 40
0.0
 40
1.0
 40
1.0
 40
1.0
 40
2.0
 40
2.0
 40
2.0
 40
3.0
 40
3.0
 40
3.0
 40
4.0
 40
4.0
 40
4.0
 40
5.0
 40
5.0
 40
5.0
 40
6.0
 40
6.0
 40
6.0
 40
7.0
 40
7.0
 40
7.0
 40
8.0
 40
8.0
 40
8.0
 40
9.0
 40
9.0
 40
9.0
 40
10.0
 40
10.0
 40
10.0
 40
11.0
 40
11.0
 40
11.0
 40
12.0
 40
12.0
 40
12.0
 40
13.0
 40
13.0
 40
13.0
 40
14.0
 40
14.0
 40
14.0
 40
15.0
 40
15.0
 40
15.0
 40
16.0
 40
16.0
 40
16.0
 40
17.0
 40
17.0
 40
17.0
 40
18.0
 40
18.0
 40
18.0
 40
19.0
 40
19.0
 40
19.0
 40
20.0
 40
20.0
 40
20.0
 40
21.0
 40
21.0
 40
21.0
 40
22.0
 40
22.0
 40
22.0
 40
23.0
 40
23.0
 40
23.0
 40
24.0
 40
24.0
 40
24.0
 40
25.0
 40
25.0
 40
25.0
 40
26.0
 40
26.0
 40
26.0
 40
27.0
 40
27.0
 40
27.0
 40
28.0
 40
28.0
 40
28.0
 40
29.0
 40
29.0
 40
29.0
 40
30.0
 40
30.0
 40
30.0
 40
31.0
 40
31.0
 40
31.0
 40
32.0
 40
32.0
 40
32.0
 40
33.0
 40
33.0
 40
33.0
 40
34.0
 40
34.0
 40
34.0
 40
35.0
 40
35.0
 40
35.0
 40
36.0
 40
36.0
 40
36.0
 40
37.0
 40
37.0
 40
37.0
 40
38.0
 40
38.0
 40
38.0
 40
39.0
 40
39.0
 40
39.0
 40
40.0
 40
40.0
 40
40.0
 40
40.0
 10
5.176389058430989
 20
2.148611280653212
 30
0.0
 10
5.173611111111111
 20
2.125
 30
0.0
 10
5.177778032090928
 20
2.10138914320204
 30
0.0
 10
5.181944529215494
 20
2.077777862548828
 30
0.0
 10
5.204166836208767
 20
1.923611111111111
 30
0.0
 10
5.198611365424262
 20
1.770833333333333
 30
0.0
 10
5.156944698757595
 20
1.619444529215495
 30
0.0
 10
5.116667005750868
 20
1.469444698757595
 30
0.0
 10
5.036111195882161
 20
1.345833248562283
 30
0.0
 10
4.919444613986545
 20
1.243055555555556
 30
0.0
 10
4.802778032090928
 20
1.141666836208767
 30
0.0
 10
4.670833587646484
 20
1.068055470784505
 30
0.0
 10
4.522222306993272
 20
1.027777777777778
 30
0.0
 10
4.406944698757595
 20
0.9972220526801214
 30
0.0
 10
4.291666666666666
 20
0.9958335028754339
 30
0.0
 10
4.17500008477105
 20
1.018055386013455
 30
0.0
 10
4.152777777777778
 20
1.022221883138021
 30
0.0
 10
4.130555470784505
 20
1.024999830457899
 30
0.0
 10
4.108333587646484
 20
1.026388804117838
 30
0.0
 10
4.03888914320204
 20
1.029166751437717
 30
0.0
 10
3.9750001695421
 20
1.045833163791233
 30
0.0
 10
3.911111195882161
 20
1.070833418104384
 30
0.0
 10
3.830555809868706
 20
1.102777693006727
 30
0.0
 10
3.759722391764323
 20
1.150000254313151
 30
0.0
 10
3.691666920979817
 20
1.205555809868706
 30
0.0
 10
3.594444698757595
 20
1.284722646077474
 30
0.0
 10
3.530555725097656
 20
1.384722391764323
 30
0.0
 10
3.488889058430989
 20
1.502777947319878
 30
0.0
 10
3.452777862548828
 20
1.604166666666667
 30
0.0
 10
3.430555767483181
 20
1.706944783528646
 30
0.0
 10
3.420833587646484
 20
1.813888973659939
 30
0.0
 10
3.418055852254231
 20
1.850000169542101
 30
0.0
 10
3.416666878594292
 20
1.886111365424262
 30
0.0
 10
3.415278116861979
 20
1.908333248562283
 30
0.0
 10
3.415278116861979
 20
1.990277608235677
 30
0.0
 10
3.423611534966363
 20
2.056944529215495
 30
0.0
 10
3.43333371480306
 20
2.122222052680121
 30
0.0
 10
3.438889185587565
 20
2.155555301242404
 30
0.0
 10
3.436111450195312
 20
2.188888549804688
 30
0.0
 10
3.43333371480306
 20
2.222222222222222
 30
0.0
 10
3.427778244018555
 20
2.288888719346788
 30
0.0
 10
3.406944910685221
 20
2.351388719346788
 30
0.0
 10
3.387500339084201
 20
2.415277693006727
 30
0.0
 10
3.356944825914171
 20
2.515277650621202
 30
0.0
 10
3.331944783528646
 20
2.618055555555555
 30
0.0
 10
3.315278159247504
 20
2.720833248562283
 30
0.0
 10
3.309722688462999
 20
2.756944444444444
 30
0.0
 10
3.302778244018555
 20
2.79305542839898
 30
0.0
 10
3.30694474114312
 20
2.829166624281141
 30
0.0
 10
3.309722476535373
 20
2.869444317287869
 30
0.0
 10
3.330555809868706
 20
2.895833333333333
 30
0.0
 10
3.366667005750868
 20
2.911110983954535
 30
0.0
 10
3.408333672417534
 20
2.927777608235677
 30
0.0
 10
3.451389312744141
 20
2.927777608235677
 30
0.0
 10
3.49444474114312
 20
2.916666454739041
 30
0.0
 10
3.543055852254231
 20
2.902777565850152
 30
0.0
 10
3.591667175292969
 20
2.887499703301323
 30
0.0
 10
3.640278286404079
 20
2.873610814412435
 30
0.0
 10
3.730556064181858
 20
2.845833036634657
 30
0.0
 10
3.820833841959635
 20
2.81666628519694
 30
0.0
 10
3.915278116861979
 20
2.798610899183485
 30
0.0
 10
3.955555809868706
 20
2.790277481079102
 30
0.0
 10
3.998611450195312
 20
2.787499745686849
 30
0.0
 10
4.040278116861979
 20
2.783333036634657
 30
0.0
 10
4.045833587646484
 20
2.783333036634657
 30
0.0
 10
4.052778032090929
 20
2.783333036634657
 30
0.0
 10
4.058333502875434
 20
2.784722010294596
 30
0.0
 10
4.083333333333333
 20
2.791666454739041
 30
0.0
 10
4.106944613986545
 20
2.797221925523546
 30
0.0
 10
4.131944444444445
 20
2.799999872843424
 30
0.0
 10
4.151388804117838
 20
2.802777608235677
 30
0.0
 10
4.172222137451172
 20
2.80555534362793
 30
0.0
 10
4.193055470784505
 20
2.808333290947808
 30
0.0
 10
4.224999745686849
 20
2.811111026340061
 30
0.0
 10
4.256944444444445
 20
2.8125
 30
0.0
 10
4.288888719346788
 20
2.8125
 30
0.0
 10
4.305555555555555
 20
2.8125
 30
0.0
 10
4.320832994249132
 20
2.8125
 30
0.0
 10
4.337499830457899
 20
2.811111026340061
 30
0.0
 10
4.341666327582465
 20
2.811111026340061
 30
0.0
 10
4.344444274902344
 20
2.811111026340061
 30
0.0
 10
4.34861077202691
 20
2.811111026340061
 30
0.0
 10
4.384721967909071
 20
2.808333290947808
 30
0.0
 10
4.42222171359592
 20
2.804166581895616
 30
0.0
 10
4.458332909478082
 20
2.798611111111111
 30
0.0
 10
4.479166242811415
 20
2.795833375718858
 30
0.0
 10
4.499999576144748
 20
2.791666666666667
 30
0.0
 10
4.520832909478082
 20
2.786111195882161
 30
0.0
 10
4.540277269151475
 20
2.781944486829969
 30
0.0
 10
4.559721628824869
 20
2.776389016045464
 30
0.0
 10
4.577777438693576
 20
2.770833333333333
 30
0.0
 10
4.588888380262587
 20
2.766666624281141
 30
0.0
 10
4.599999745686849
 20
2.769444359673394
 30
0.0
 10
4.60972171359592
 20
2.772222306993272
 30
0.0
 10
4.647221883138021
 20
2.780555725097656
 30
0.0
 10
4.681944105360243
 20
2.794444613986545
 30
0.0
 10
4.715277353922525
 20
2.813888973659939
 30
0.0
 10
4.779166327582465
 20
2.8500001695421
 30
0.0
 10
4.843055301242404
 20
2.886111153496636
 30
0.0
 10
4.906943851047092
 20
2.922222349378798
 30
0.0
 10
4.943055046929254
 20
2.943055682712131
 30
0.0
 10
4.979166242811415
 20
2.962500042385525
 30
0.0
 10
5.015277014838325
 20
2.981944613986545
 30
0.0
 10
5.044443766276041
 20
2.997222476535373
 30
0.0
 10
5.074999067518446
 20
3.009722391764323
 30
0.0
 10
5.106943766276041
 20
3.016666836208767
 30
0.0
 10
5.158332824707031
 20
3.029166751437717
 30
0.0
 10
5.197221544053819
 20
3.011111365424262
 30
0.0
 10
5.222221374511719
 20
2.965277989705403
 30
0.0
 10
5.243054707845052
 20
2.929166793823242
 30
0.0
 10
5.251388125949435
 20
2.888889100816515
 30
0.0
 10
5.252777099609375
 20
2.847222434149848
 30
0.0
 10
5.256943596733941
 20
2.750000211927626
 30
0.0
 10
5.248610602484809
 20
2.654166963365343
 30
0.0
 10
5.23472171359592
 20
2.558333502875434
 30
0.0
 10
5.220832824707031
 20
2.470833460489909
 30
0.0
 10
5.206943935818142
 20
2.383333418104383
 30
0.0
 10
5.195832994249131
 20
2.294444613986545
 30
0.0
 10
5.184722052680121
 20
2.245833502875434
 30
0.0
 10
5.181944529215494
 20
2.197222391764323
 30
0.0
 10
5.176389058430989
 20
2.148611280653212
 30
0.0
  0
HATCH
  5
56
330
51
100
AcDbEntity
  8
Calque 1
 62
    23
420
 13009992
100
AcDbHatch
 10
0.0
 20
0.0
 30
0.0
210
0.0
220
0.0
230
1.0
  2
SOLID
 70
     1
 71
     0
 91
        1
 92
        1
 93
        1
 72
     4
 94
        3
 73
     0
 74
     1
 95
      125
 96
      121
 40
0.0
 40
0.0
 40
0.0
 40
0.0
 40
1.0
 40
1.0
 40
1.0
 40
2.0
 40
2.0
 40
2.0
 40
3.0
 40
3.0
 40
3.0
 40
4.0
 40
4.0
 40
4.0
 40
5.0
 40
5.0
 40
5.0
 40
6.0
 40
6.0
 40
6.0
 40
7.0
 40
7.0
 40
7.0
 40
8.0
 40
8.0
 40
8.0
 40
9.0
 40
9.0
 40
9.0
 40
10.0
 40
10.0
 40
10.0
 40
11.0
 40
11.0
 40
11.0
 40
12.0
 40
12.0
 40
12.0
 40
13.0
 40
13.0
 40
13.0
 40
14.0
 40
14.0
 40
14.0
 40
15.0
 40
15.0
 40
15.0
 40
16.0
 40
16.0
 40
16.0
 40
17.0
 40
17.0
 40
17.0
 40
18.0
 40
18.0
 40
18.0
 40
19.0
 40
19.0
 40
19.0
 40
20.0
 40
20.0
 40
20.0
 40
21.0
 40
21.0
 40
21.0
 40
22.0
 40
22.0
 40
22.0
 40
23.0
 40
23.0
 40
23.0
 40
24.0
 40
24.0
 40
24.0
 40
25.0
 40
25.0
 40
25.0
 40
26.0
 40
26.0
 40
26.0
 40
27.0
 40
27.0
 40
27.0
 40
28.0
 40
28.0
 40
28.0
 40
29.0
 40
29.0
 40
29.0
 40
30.0
 40
30.0
 40
30.0
 40
31.0
 40
31.0
 40
31.0
 40
32.0
 40
32.0
 40
32.0
 40
33.0
 40
33.0
 40
33.0
 40
34.0
 40
34.0
 40
34.0
 40
35.0
 40
35.0
 40
35.0
 40
36.0
 40
36.0
 40
36.0
 40
37.0
 40
37.0
 40
37.0
 40
38.0
 40
38.0
 40
38.0
 40
39.0
 40
39.0
 40
39.0
 40
40.0
 40
40.0
 40
40.0
 40
40.0
 10
5.176389058430989
 20
2.148611280653212
 10
5.173611111111111
 20
2.125
 10
5.177778032090928
 20
2.10138914320204
 10
5.181944529215494
 20
2.077777862548828
 10
5.204166836208767
 20
1.923611111111111
 10
5.198611365424262
 20
1.770833333333333
 10
5.156944698757595
 20
1.619444529215495
 10
5.116667005750868
 20
1.469444698757595
 10
5.036111195882161
 20
1.345833248562283
 10
4.919444613986545
 20
1.243055555555556
 10
4.802778032090928
 20
1.141666836208767
 10
4.670833587646484
 20
1.068055470784505
 10
4.522222306993272
 20
1.027777777777778
 10
4.406944698757595
 20
0.9972220526801214
 10
4.291666666666666
 20
0.9958335028754339
 10
4.17500008477105
 20
1.018055386013455
 10
4.152777777777778
 20
1.022221883138021
 10
4.130555470784505
 20
1.024999830457899
 10
4.108333587646484
 20
1.026388804117838
 10
4.03888914320204
 20
1.029166751437717
 10
3.9750001695421
 20
1.045833163791233
 10
3.911111195882161
 20
1.070833418104384
 10
3.830555809868706
 20
1.102777693006727
 10
3.759722391764323
 20
1.150000254313151
 10
3.691666920979817
 20
1.205555809868706
 10
3.594444698757595
 20
1.284722646077474
 10
3.530555725097656
 20
1.384722391764323
 10
3.488889058430989
 20
1.502777947319878
 10
3.452777862548828
 20
1.604166666666667
 10
3.430555767483181
 20
1.706944783528646
 10
3.420833587646484
 20
1.813888973659939
 10
3.418055852254231
 20
1.850000169542101
 10
3.416666878594292
 20
1.886111365424262
 10
3.415278116861979
 20
1.908333248562283
 10
3.415278116861979
 20
1.990277608235677
 10
3.423611534966363
 20
2.056944529215495
 10
3.43333371480306
 20
2.122222052680121
 10
3.438889185587565
 20
2.155555301242404
 10
3.436111450195312
 20
2.188888549804688
 10
3.43333371480306
 20
2.222222222222222
 10
3.427778244018555
 20
2.288888719346788
 10
3.406944910685221
 20
2.351388719346788
 10
3.387500339084201
 20
2.415277693006727
 10
3.356944825914171
 20
2.515277650621202
 10
3.331944783528646
 20
2.618055555555555
 10
3.315278159247504
 20
2.720833248562283
 10
3.309722688462999
 20
2.756944444444444
 10
3.302778244018555
 20
2.79305542839898
 10
3.30694474114312
 20
2.829166624281141
 10
3.309722476535373
 20
2.869444317287869
 10
3.330555809868706
 20
2.895833333333333
 10
3.366667005750868
 20
2.911110983954535
 10
3.408333672417534
 20
2.927777608235677
 10
3.451389312744141
 20
2.927777608235677
 10
3.49444474114312
 20
2.916666454739041
 10
3.543055852254231
 20
2.902777565850152
 10
3.591667175292969
 20
2.887499703301323
 10
3.640278286404079
 20
2.873610814412435
 10
3.730556064181858
 20
2.845833036634657
 10
3.820833841959635
 20
2.81666628519694
 10
3.915278116861979
 20
2.798610899183485
 10
3.955555809868706
 20
2.790277481079102
 10
3.998611450195312
 20
2.787499745686849
 10
4.040278116861979
 20
2.783333036634657
 10
4.045833587646484
 20
2.783333036634657
 10
4.052778032090929
 20
2.783333036634657
 10
4.058333502875434
 20
2.784722010294596
 10
4.083333333333333
 20
2.791666454739041
 10
4.106944613986545
 20
2.797221925523546
 10
4.131944444444445
 20
2.799999872843424
 10
4.151388804117838
 20
2.802777608235677
 10
4.172222137451172
 20
2.80555534362793
 10
4.193055470784505
 20
2.808333290947808
 10
4.224999745686849
 20
2.811111026340061
 10
4.256944444444445
 20
2.8125
 10
4.288888719346788
 20
2.8125
 10
4.305555555555555
 20
2.8125
 10
4.320832994249132
 20
2.8125
 10
4.337499830457899
 20
2.811111026340061
 10
4.341666327582465
 20
2.811111026340061
 10
4.344444274902344
 20
2.811111026340061
 10
4.34861077202691
 20
2.811111026340061
 10
4.384721967909071
 20
2.808333290947808
 10
4.42222171359592
 20
2.804166581895616
 10
4.458332909478082
 20
2.798611111111111
 10
4.479166242811415
 20
2.795833375718858
 10
4.499999576144748
 20
2.791666666666667
 10
4.520832909478082
 20
2.786111195882161
 10
4.540277269151475
 20
2.781944486829969
 10
4.559721628824869
 20
2.776389016045464
 10
4.577777438693576
 20
2.770833333333333
 10
4.588888380262587
 20
2.766666624281141
 10
4.599999745686849
 20
2.769444359673394
 10
4.60972171359592
 20
2.772222306993272
 10
4.647221883138021
 20
2.780555725097656
 10
4.681944105360243
 20
2.794444613986545
 10
4.715277353922525
 20
2.813888973659939
 10
4.779166327582465
 20
2.8500001695421
 10
4.843055301242404
 20
2.886111153496636
 10
4.906943851047092
 20
2.922222349378798
 10
4.943055046929254
 20
2.943055682712131
 10
4.979166242811415
 20
2.962500042385525
 10
5.015277014838325
 20
2.981944613986545
 10
5.044443766276041
 20
2.997222476535373
 10
5.074999067518446
 20
3.009722391764323
 10
5.106943766276041
 20
3.016666836208767
 10
5.158332824707031
 20
3.029166751437717
 10
5.197221544053819
 20
3.011111365424262
 10
5.222221374511719
 20
2.965277989705403
 10
5.243054707845052
 20
2.929166793823242
 10
5.251388125949435
 20
2.888889100816515
 10
5.252777099609375
 20
2.847222434149848
 10
5.256943596733941
 20
2.750000211927626
 10
5.248610602484809
 20
2.654166963365343
 10
5.23472171359592
 20
2.558333502875434
 10
5.220832824707031
 20
2.470833460489909
 10
5.206943935818142
 20
2.383333418104383
 10
5.195832994249131
 20
2.294444613986545
 10
5.184722052680121
 20
2.245833502875434
 10
5.181944529215494
 20
2.197222391764323
 10
5.176389058430989
 20
2.148611280653212
 97
        0
 97
        0
 75
     2
 76
     1
 98
        0
  0
INSERT
  5
58
330
51
100
AcDbEntity
  8
Calque 1
100
AcDbBlockReference
  2
block 6
 10
0.0
 20
0.0
 30
0.0
  0
ENDBLK
  5
54
330
51
100
AcDbEntity
  8
0
100
AcDbBlockEnd
  0
BLOCK
  5
59
330
57
100
AcDbEntity
  8
0
100
AcDbBlockBegin
  2
block 6
 70
     0
 10
0.0
 20
0.0
 30
0.0
  3
block 6
  1

  0
INSERT
  5
5C
330
57
100
AcDbEntity
  8
Calque 1
100
AcDbBlockReference
  2
block 7
 10
0.0
 20
0.0
 30
0.0
  0
INSERT
  5
70
330
57
100
AcDbEntity
  8
Calque 1
100
AcDbBlockReference
  2
block 10
 10
0.0
 20
0.0
 30
0.0
  0
INSERT
  5
78
330
57
100
AcDbEntity
  8
Calque 1
100
AcDbBlockReference
  2
block 11
 10
0.0
 20
0.0
 30
0.0
  0
ENDBLK
  5
5A
330
57
100
AcDbEntity
  8
0
100
AcDbBlockEnd
  0
BLOCK
  5
5D
330
5B
100
AcDbEntity
  8
0
100
AcDbBlockBegin
  2
block 7
 70
     0
 10
0.0
 20
0.0
 30
0.0
  3
block 7
  1

  0
INSERT
  5
60
330
5B
100
AcDbEntity
  8
Calque 1
100
AcDbBlockReference
  2
block 8
 10
0.0
 20
0.0
 30
0.0
  0
INSERT
  5
68
330
5B
100
AcDbEntity
  8
Calque 1
100
AcDbBlockReference
  2
block 9
 10
0.0
 20
0.0
 30
0.0
  0
ENDBLK
  5
5E
330
5B
100
AcDbEntity
  8
0
100
AcDbBlockEnd
  0
BLOCK
  5
61
330
5F
100
AcDbEntity
  8
0
100
AcDbBlockBegin
  2
block 8
 70
     0
 10
0.0
 20
0.0
 30
0.0
  3
block 8
  1

  0
SPLINE
  5
63
330
5F
100
AcDbEntity
  8
Calque 1
370
     0
100
AcDbSpline
210
0.0
220
0.0
230
1.0
 70
    11
 71
     3
 72
    17
 73
    13
 74
     0
 42
0.0000000001
 43
0.0000000001
 12
1.0
 22
0.0
 32
0.0
 13
1.0
 23
0.0
 33
0.0
 40
0.0
 40
0.0
 40
0.0
 40
0.0
 40
1.0
 40
1.0
 40
1.0
 40
2.0
 40
2.0
 40
2.0
 40
3.0
 40
3.0
 40
3.0
 40
4.0
 40
4.0
 40
4.0
 40
4.0
 10
3.955555386013454
 20
2.233333163791233
 30
0.0
 10
4.051438225640191
 20
2.233333163791233
 30
0.0
 10
4.129166497124566
 20
2.155604892306858
 30
0.0
 10
4.129166497124566
 20
2.059722052680121
 30
0.0
 10
4.129166497124566
 20
1.963839213053385
 30
0.0
 10
4.051438225640191
 20
1.88611094156901
 30
0.0
 10
3.955555386013454
 20
1.88611094156901
 30
0.0
 10
3.859672546386719
 20
1.88611094156901
 30
0.0
 10
3.781944274902344
 20
1.963839213053385
 30
0.0
 10
3.781944274902344
 20
2.059722052680121
 30
0.0
 10
3.781944274902344
 20
2.155604892306858
 30
0.0
 10
3.859672546386719
 20
2.233333163791233
 30
0.0
 10
3.955555386013454
 20
2.233333163791233
 30
0.0
  0
HATCH
  5
64
330
5F
100
AcDbEntity
  8
Calque 1
 62
   178
420
   131587
100
AcDbHatch
 10
0.0
 20
0.0
 30
0.0
210
0.0
220
0.0
230
1.0
  2
SOLID
 70
     1
 71
     0
 91
        1
 92
        1
 93
        1
 72
     4
 94
        3
 73
     0
 74
     1
 95
       17
 96
       13
 40
0.0
 40
0.0
 40
0.0
 40
0.0
 40
1.0
 40
1.0
 40
1.0
 40
2.0
 40
2.0
 40
2.0
 40
3.0
 40
3.0
 40
3.0
 40
4.0
 40
4.0
 40
4.0
 40
4.0
 10
3.955555386013454
 20
2.233333163791233
 10
4.051438225640191
 20
2.233333163791233
 10
4.129166497124566
 20
2.155604892306858
 10
4.129166497124566
 20
2.059722052680121
 10
4.129166497124566
 20
1.963839213053385
 10
4.051438225640191
 20
1.88611094156901
 10
3.955555386013454
 20
1.88611094156901
 10
3.859672546386719
 20
1.88611094156901
 10
3.781944274902344
 20
1.963839213053385
 10
3.781944274902344
 20
2.059722052680121
 10
3.781944274902344
 20
2.155604892306858
 10
3.859672546386719
 20
2.233333163791233
 10
3.955555386013454
 20
2.233333163791233
 97
        0
 97
        0
 75
     2
 76
     1
 98
        0
  0
SPLINE
  5
65
330
5F
100
AcDbEntity
  8
Calque 1
370
     0
100
AcDbSpline
210
0.0
220
0.0
230
1.0
 70
    11
 71
     3
 72
    17
 73
    13
 74
     0
 42
0.0000000001
 43
0.0000000001
 12
1.0
 22
0.0
 32
0.0
 13
1.0
 23
0.0
 33
0.0
 40
0.0
 40
0.0
 40
0.0
 40
0.0
 40
1.0
 40
1.0
 40
1.0
 40
2.0
 40
2.0
 40
2.0
 40
3.0
 40
3.0
 40
3.0
 40
4.0
 40
4.0
 40
4.0
 40
4.0
 10
3.955555386013454
 20
2.129166497124566
 30
0.0
 10
3.993908352322048
 20
2.129166497124566
 30
0.0
 10
4.024999830457899
 20
2.098075018988715
 30
0.0
 10
4.024999830457899
 20
2.059722052680121
 30
0.0
 10
4.024999830457899
 20
2.021369086371528
 30
0.0
 10
3.993908352322048
 20
1.990277608235677
 30
0.0
 10
3.955555386013454
 20
1.990277608235677
 30
0.0
 10
3.917202419704861
 20
1.990277608235677
 30
0.0
 10
3.88611094156901
 20
2.021369086371528
 30
0.0
 10
3.88611094156901
 20
2.059722052680121
 30
0.0
 10
3.88611094156901
 20
2.098075018988715
 30
0.0
 10
3.917202419704861
 20
2.129166497124566
 30
0.0
 10
3.955555386013454
 20
2.129166497124566
 30
0.0
  0
SPLINE
  5
66
330
5F
100
AcDbEntity
  8
Calque 1
370
     0
100
AcDbSpline
210
0.0
220
0.0
230
1.0
 70
    11
 71
     3
 72
    17
 73
    13
 74
     0
 42
0.0000000001
 43
0.0000000001
 12
1.0
 22
0.0
 32
0.0
 13
1.0
 23
0.0
 33
0.0
 40
0.0
 40
0.0
 40
0.0
 40
0.0
 40
1.0
 40
1.0
 40
1.0
 40
2.0
 40
2.0
 40
2.0
 40
3.0
 40
3.0
 40
3.0
 40
4.0
 40
4.0
 40
4.0
 40
4.0
 10
4.048611111111111
 20
2.013888888888889
 30
0.0
 10
4.065486484103732
 20
2.013888888888889
 30
0.0
 10
4.079166836208767
 20
2.000208536783854
 30
0.0
 10
4.079166836208767
 20
1.983333163791233
 30
0.0
 10
4.079166836208767
 20
1.966457790798611
 30
0.0
 10
4.065486484103732
 20
1.952777438693576
 30
0.0
 10
4.048611111111111
 20
1.952777438693576
 30
0.0
 10
4.031735738118489
 20
1.952777438693576
 30
0.0
 10
4.018055386013454
 20
1.966457790798611
 30
0.0
 10
4.018055386013454
 20
1.983333163791233
 30
0.0
 10
4.018055386013454
 20
2.000208536783854
 30
0.0
 10
4.031735738118489
 20
2.013888888888889
 30
0.0
 10
4.048611111111111
 20
2.013888888888889
 30
0.0
  0
ENDBLK
  5
62
330
5F
100
AcDbEntity
  8
0
100
AcDbBlockEnd
  0
BLOCK
  5
69
330
67
100
AcDbEntity
  8
0
100
AcDbBlockBegin
  2
block 9
 70
     0
 10
0.0
 20
0.0
 30
0.0
  3
block 9
  1

  0
SPLINE
  5
6B
330
67
100
AcDbEntity
  8
Calque 1
370
     0
100
AcDbSpline
210
0.0
220
0.0
230
1.0
 70
    11
 71
     3
 72
    17
 73
    13
 74
     0
 42
0.0000000001
 43
0.0000000001
 12
1.0
 22
0.0
 32
0.0
 13
1.0
 23
0.0
 33
0.0
 40
0.0
 40
0.0
 40
0.0
 40
0.0
 40
1.0
 40
1.0
 40
1.0
 40
2.0
 40
2.0
 40
2.0
 40
3.0
 40
3.0
 40
3.0
 40
4.0
 40
4.0
 40
4.0
 40
4.0
 10
4.6625001695421
 20
2.233333163791233
 30
0.0
 10
4.758383009168837
 20
2.233333163791233
 30
0.0
 10
4.836111280653212
 20
2.155604892306858
 30
0.0
 10
4.836111280653212
 20
2.059722052680121
 30
0.0
 10
4.836111280653212
 20
1.963839213053385
 30
0.0
 10
4.758383009168837
 20
1.88611094156901
 30
0.0
 10
4.6625001695421
 20
1.88611094156901
 30
0.0
 10
4.566617329915364
 20
1.88611094156901
 30
0.0
 10
4.488889058430989
 20
1.963839213053385
 30
0.0
 10
4.488889058430989
 20
2.059722052680121
 30
0.0
 10
4.488889058430989
 20
2.155604892306858
 30
0.0
 10
4.566617329915364
 20
2.233333163791233
 30
0.0
 10
4.6625001695421
 20
2.233333163791233
 30
0.0
  0
HATCH
  5
6C
330
67
100
AcDbEntity
  8
Calque 1
 62
   178
420
   131587
100
AcDbHatch
 10
0.0
 20
0.0
 30
0.0
210
0.0
220
0.0
230
1.0
  2
SOLID
 70
     1
 71
     0
 91
        1
 92
        1
 93
        1
 72
     4
 94
        3
 73
     0
 74
     1
 95
       17
 96
       13
 40
0.0
 40
0.0
 40
0.0
 40
0.0
 40
1.0
 40
1.0
 40
1.0
 40
2.0
 40
2.0
 40
2.0
 40
3.0
 40
3.0
 40
3.0
 40
4.0
 40
4.0
 40
4.0
 40
4.0
 10
4.6625001695421
 20
2.233333163791233
 10
4.758383009168837
 20
2.233333163791233
 10
4.836111280653212
 20
2.155604892306858
 10
4.836111280653212
 20
2.059722052680121
 10
4.836111280653212
 20
1.963839213053385
 10
4.758383009168837
 20
1.88611094156901
 10
4.6625001695421
 20
1.88611094156901
 10
4.566617329915364
 20
1.88611094156901
 10
4.488889058430989
 20
1.963839213053385
 10
4.488889058430989
 20
2.059722052680121
 10
4.488889058430989
 20
2.155604892306858
 10
4.566617329915364
 20
2.233333163791233
 10
4.6625001695421
 20
2.233333163791233
 97
        0
 97
        0
 75
     2
 76
     1
 98
        0
  0
SPLINE
  5
6D
330
67
100
AcDbEntity
  8
Calque 1
370
     0
100
AcDbSpline
210
0.0
220
0.0
230
1.0
 70
    11
 71
     3
 72
    17
 73
    13
 74
     0
 42
0.0000000001
 43
0.0000000001
 12
1.0
 22
0.0
 32
0.0
 13
1.0
 23
0.0
 33
0.0
 40
0.0
 40
0.0
 40
0.0
 40
0.0
 40
1.0
 40
1.0
 40
1.0
 40
2.0
 40
2.0
 40
2.0
 40
3.0
 40
3.0
 40
3.0
 40
4.0
 40
4.0
 40
4.0
 40
4.0
 10
4.6625001695421
 20
2.129166497124566
 30
0.0
 10
4.700853135850694
 20
2.129166497124566
 30
0.0
 10
4.731944613986545
 20
2.098075018988715
 30
0.0
 10
4.731944613986545
 20
2.059722052680121
 30
0.0
 10
4.731944613986545
 20
2.021369086371528
 30
0.0
 10
4.700853135850694
 20
1.990277608235677
 30
0.0
 10
4.6625001695421
 20
1.990277608235677
 30
0.0
 10
4.624147203233506
 20
1.990277608235677
 30
0.0
 10
4.593055725097656
 20
2.021369086371528
 30
0.0
 10
4.593055725097656
 20
2.059722052680121
 30
0.0
 10
4.593055725097656
 20
2.098075018988715
 30
0.0
 10
4.624147203233506
 20
2.129166497124566
 30
0.0
 10
4.6625001695421
 20
2.129166497124566
 30
0.0
  0
SPLINE
  5
6E
330
67
100
AcDbEntity
  8
Calque 1
370
     0
100
AcDbSpline
210
0.0
220
0.0
230
1.0
 70
    11
 71
     3
 72
    17
 73
    13
 74
     0
 42
0.0000000001
 43
0.0000000001
 12
1.0
 22
0.0
 32
0.0
 13
1.0
 23
0.0
 33
0.0
 40
0.0
 40
0.0
 40
0.0
 40
0.0
 40
1.0
 40
1.0
 40
1.0
 40
2.0
 40
2.0
 40
2.0
 40
3.0
 40
3.0
 40
3.0
 40
4.0
 40
4.0
 40
4.0
 40
4.0
 10
4.755555470784505
 20
2.013888888888889
 30
0.0
 10
4.772430843777126
 20
2.013888888888889
 30
0.0
 10
4.786111195882161
 20
2.000208536783854
 30
0.0
 10
4.786111195882161
 20
1.983333163791233
 30
0.0
 10
4.786111195882161
 20
1.966457790798611
 30
0.0
 10
4.772430843777126
 20
1.952777438693576
 30
0.0
 10
4.755555470784505
 20
1.952777438693576
 30
0.0
 10
4.738680097791883
 20
1.952777438693576
 30
0.0
 10
4.724999745686849
 20
1.966457790798611
 30
0.0
 10
4.724999745686849
 20
1.983333163791233
 30
0.0
 10
4.724999745686849
 20
2.000208536783854
 30
0.0
 10
4.738680097791883
 20
2.013888888888889
 30
0.0
 10
4.755555470784505
 20
2.013888888888889
 30
0.0
  0
ENDBLK
  5
6A
330
67
100
AcDbEntity
  8
0
100
AcDbBlockEnd
  0
BLOCK
  5
71
330
6F
100
AcDbEntity
  8
0
100
AcDbBlockBegin
  2
block 10
 70
     0
 10
0.0
 20
0.0
 30
0.0
  3
block 10
  1

  0
SPLINE
  5
73
330
6F
100
AcDbEntity
  8
Calque 1
370
     0
100
AcDbSpline
210
0.0
220
0.0
230
1.0
 70
    11
 71
     3
 72
    74
 73
    70
 74
     0
 42
0.0000000001
 43
0.0000000001
 12
1.0
 22
0.0
 32
0.0
 13
1.0
 23
0.0
 33
0.0
 40
0.0
 40
0.0
 40
0.0
 40
0.0
 40
1.0
 40
1.0
 40
1.0
 40
2.0
 40
2.0
 40
2.0
 40
3.0
 40
3.0
 40
3.0
 40
4.0
 40
4.0
 40
4.0
 40
5.0
 40
5.0
 40
5.0
 40
6.0
 40
6.0
 40
6.0
 40
7.0
 40
7.0
 40
7.0
 40
8.0
 40
8.0
 40
8.0
 40
9.0
 40
9.0
 40
9.0
 40
10.0
 40
10.0
 40
10.0
 40
11.0
 40
11.0
 40
11.0
 40
12.0
 40
12.0
 40
12.0
 40
13.0
 40
13.0
 40
13.0
 40
14.0
 40
14.0
 40
14.0
 40
15.0
 40
15.0
 40
15.0
 40
16.0
 40
16.0
 40
16.0
 40
17.0
 40
17.0
 40
17.0
 40
18.0
 40
18.0
 40
18.0
 40
19.0
 40
19.0
 40
19.0
 40
20.0
 40
20.0
 40
20.0
 40
21.0
 40
21.0
 40
21.0
 40
22.0
 40
22.0
 40
22.0
 40
23.0
 40
23.0
 40
23.0
 40
23.0
 10
4.322222391764322
 20
1.411111195882161
 30
0.0
 10
4.320833418104383
 20
1.409722222222222
 30
0.0
 10
4.319444444444445
 20
1.408333248562283
 30
0.0
 10
4.318055894639757
 20
1.405555725097656
 30
0.0
 10
4.286111619737413
 20
1.354166666666667
 30
0.0
 10
4.237500508626302
 20
1.326388888888889
 30
0.0
 10
4.179167005750868
 20
1.316666920979818
 30
0.0
 10
4.137500339084201
 20
1.309722476535373
 30
0.0
 10
4.097222646077474
 20
1.315277947319878
 30
0.0
 10
4.059722476535373
 20
1.331944783528646
 30
0.0
 10
4.031944698757595
 20
1.344444698757595
 30
0.0
 10
4.013889312744141
 20
1.368055979410807
 30
0.0
 10
4.002777947319879
 20
1.394444783528646
 30
0.0
 10
3.995833502875434
 20
1.411111619737413
 30
0.0
 10
4.005555894639757
 20
1.427778032090929
 30
0.0
 10
4.022222306993273
 20
1.427778032090929
 30
0.0
 10
4.029166751437717
 20
1.427778032090929
 30
0.0
 10
4.036111195882161
 20
1.42500008477105
 30
0.0
 10
4.03888914320204
 20
1.418055640326606
 30
0.0
 10
4.058333502875434
 20
1.376388973659939
 30
0.0
 10
4.094444698757595
 20
1.359722137451172
 30
0.0
 10
4.138889312744141
 20
1.359722137451172
 30
0.0
 10
4.191666920979817
 20
1.358333163791233
 30
0.0
 10
4.236111534966363
 20
1.376388973659939
 30
0.0
 10
4.269444783528646
 20
1.418055640326606
 30
0.0
 10
4.293056064181857
 20
1.447222391764323
 30
0.0
 10
4.300000508626302
 20
1.480555640326606
 30
0.0
 10
4.301389058430989
 20
1.516666836208767
 30
0.0
 10
4.301389058430989
 20
1.52638922797309
 30
0.0
 10
4.301389058430989
 20
1.537500169542101
 30
0.0
 10
4.304167005750868
 20
1.547222561306423
 30
0.0
 10
4.306944953070746
 20
1.558333502875434
 30
0.0
 10
4.316666920979817
 20
1.565277947319878
 30
0.0
 10
4.326389312744141
 20
1.562500423855252
 30
0.0
 10
4.334722730848524
 20
1.561111450195312
 30
0.0
 10
4.340278201633029
 20
1.554167005750868
 30
0.0
 10
4.341667175292969
 20
1.545833587646484
 30
0.0
 10
4.344445122612847
 20
1.533333672417535
 30
0.0
 10
4.345833672417535
 20
1.520833757188585
 30
0.0
 10
4.347222646077474
 20
1.508333418104384
 30
0.0
 10
4.350000593397352
 20
1.459722306993273
 30
0.0
 10
4.366667005750868
 20
1.419444613986545
 30
0.0
 10
4.40000025431315
 20
1.383333418104384
 30
0.0
 10
4.440277947319879
 20
1.340277777777778
 30
0.0
 10
4.502777947319879
 20
1.340277777777778
 30
0.0
 10
4.545833587646484
 20
1.370833502875434
 30
0.0
 10
4.565277947319879
 20
1.386111365424262
 30
0.0
 10
4.581944783528646
 20
1.404166751437717
 30
0.0
 10
4.594444698757595
 20
1.42500008477105
 30
0.0
 10
4.598611195882161
 20
1.431944529215495
 30
0.0
 10
4.604167090521918
 20
1.438888973659939
 30
0.0
 10
4.609722561306423
 20
1.445833418104384
 30
0.0
 10
4.613889058430989
 20
1.451388888888889
 30
0.0
 10
4.620833502875434
 20
1.454166836208767
 30
0.0
 10
4.627777947319879
 20
1.454166836208767
 30
0.0
 10
4.640277862548828
 20
1.454166836208767
 30
0.0
 10
4.65000025431315
 20
1.443055894639757
 30
0.0
 10
4.647222306993272
 20
1.430555555555556
 30
0.0
 10
4.645833333333333
 20
1.42638905843099
 30
0.0
 10
4.644444359673394
 20
1.422222137451172
 30
0.0
 10
4.641666836208767
 20
1.418055640326606
 30
0.0
 10
4.626388973659939
 20
1.393055809868706
 30
0.0
 10
4.609722561306423
 20
1.368055555555556
 30
0.0
 10
4.58888922797309
 20
1.347222222222222
 30
0.0
 10
4.530555725097656
 20
1.291666666666667
 30
0.0
 10
4.426389058430989
 20
1.283333248562283
 30
0.0
 10
4.362500508626302
 20
1.356944613986545
 30
0.0
 10
4.347222222222222
 20
1.375
 30
0.0
 10
4.334722306993273
 20
1.393055386013455
 30
0.0
 10
4.322222391764322
 20
1.411111195882161
 30
0.0
  0
HATCH
  5
74
330
6F
100
AcDbEntity
  8
Calque 1
 62
     7
420
 16777215
100
AcDbHatch
 10
0.0
 20
0.0
 30
0.0
210
0.0
220
0.0
230
1.0
  2
SOLID
 70
     1
 71
     0
 91
        1
 92
        1
 93
        1
 72
     4
 94
        3
 73
     0
 74
     1
 95
       74
 96
       70
 40
0.0
 40
0.0
 40
0.0
 40
0.0
 40
1.0
 40
1.0
 40
1.0
 40
2.0
 40
2.0
 40
2.0
 40
3.0
 40
3.0
 40
3.0
 40
4.0
 40
4.0
 40
4.0
 40
5.0
 40
5.0
 40
5.0
 40
6.0
 40
6.0
 40
6.0
 40
7.0
 40
7.0
 40
7.0
 40
8.0
 40
8.0
 40
8.0
 40
9.0
 40
9.0
 40
9.0
 40
10.0
 40
10.0
 40
10.0
 40
11.0
 40
11.0
 40
11.0
 40
12.0
 40
12.0
 40
12.0
 40
13.0
 40
13.0
 40
13.0
 40
14.0
 40
14.0
 40
14.0
 40
15.0
 40
15.0
 40
15.0
 40
16.0
 40
16.0
 40
16.0
 40
17.0
 40
17.0
 40
17.0
 40
18.0
 40
18.0
 40
18.0
 40
19.0
 40
19.0
 40
19.0
 40
20.0
 40
20.0
 40
20.0
 40
21.0
 40
21.0
 40
21.0
 40
22.0
 40
22.0
 40
22.0
 40
23.0
 40
23.0
 40
23.0
 40
23.0
 10
4.322222391764322
 20
1.411111195882161
 10
4.320833418104383
 20
1.409722222222222
 10
4.319444444444445
 20
1.408333248562283
 10
4.318055894639757
 20
1.405555725097656
 10
4.286111619737413
 20
1.354166666666667
 10
4.237500508626302
 20
1.326388888888889
 10
4.179167005750868
 20
1.316666920979818
 10
4.137500339084201
 20
1.309722476535373
 10
4.097222646077474
 20
1.315277947319878
 10
4.059722476535373
 20
1.331944783528646
 10
4.031944698757595
 20
1.344444698757595
 10
4.013889312744141
 20
1.368055979410807
 10
4.002777947319879
 20
1.394444783528646
 10
3.995833502875434
 20
1.411111619737413
 10
4.005555894639757
 20
1.427778032090929
 10
4.022222306993273
 20
1.427778032090929
 10
4.029166751437717
 20
1.427778032090929
 10
4.036111195882161
 20
1.42500008477105
 10
4.03888914320204
 20
1.418055640326606
 10
4.058333502875434
 20
1.376388973659939
 10
4.094444698757595
 20
1.359722137451172
 10
4.138889312744141
 20
1.359722137451172
 10
4.191666920979817
 20
1.358333163791233
 10
4.236111534966363
 20
1.376388973659939
 10
4.269444783528646
 20
1.418055640326606
 10
4.293056064181857
 20
1.447222391764323
 10
4.300000508626302
 20
1.480555640326606
 10
4.301389058430989
 20
1.516666836208767
 10
4.301389058430989
 20
1.52638922797309
 10
4.301389058430989
 20
1.537500169542101
 10
4.304167005750868
 20
1.547222561306423
 10
4.306944953070746
 20
1.558333502875434
 10
4.316666920979817
 20
1.565277947319878
 10
4.326389312744141
 20
1.562500423855252
 10
4.334722730848524
 20
1.561111450195312
 10
4.340278201633029
 20
1.554167005750868
 10
4.341667175292969
 20
1.545833587646484
 10
4.344445122612847
 20
1.533333672417535
 10
4.345833672417535
 20
1.520833757188585
 10
4.347222646077474
 20
1.508333418104384
 10
4.350000593397352
 20
1.459722306993273
 10
4.366667005750868
 20
1.419444613986545
 10
4.40000025431315
 20
1.383333418104384
 10
4.440277947319879
 20
1.340277777777778
 10
4.502777947319879
 20
1.340277777777778
 10
4.545833587646484
 20
1.370833502875434
 10
4.565277947319879
 20
1.386111365424262
 10
4.581944783528646
 20
1.404166751437717
 10
4.594444698757595
 20
1.42500008477105
 10
4.598611195882161
 20
1.431944529215495
 10
4.604167090521918
 20
1.438888973659939
 10
4.609722561306423
 20
1.445833418104384
 10
4.613889058430989
 20
1.451388888888889
 10
4.620833502875434
 20
1.454166836208767
 10
4.627777947319879
 20
1.454166836208767
 10
4.640277862548828
 20
1.454166836208767
 10
4.65000025431315
 20
1.443055894639757
 10
4.647222306993272
 20
1.430555555555556
 10
4.645833333333333
 20
1.42638905843099
 10
4.644444359673394
 20
1.422222137451172
 10
4.641666836208767
 20
1.418055640326606
 10
4.626388973659939
 20
1.393055809868706
 10
4.609722561306423
 20
1.368055555555556
 10
4.58888922797309
 20
1.347222222222222
 10
4.530555725097656
 20
1.291666666666667
 10
4.426389058430989
 20
1.283333248562283
 10
4.362500508626302
 20
1.356944613986545
 10
4.347222222222222
 20
1.375
 10
4.334722306993273
 20
1.393055386013455
 10
4.322222391764322
 20
1.411111195882161
 97
        0
 97
        0
 75
     2
 76
     1
 98
        0
  0
SPLINE
  5
75
330
6F
100
AcDbEntity
  8
Calque 1
370
     0
100
AcDbSpline
210
0.0
220
0.0
230
1.0
 70
    11
 71
     3
 72
    47
 73
    43
 74
     0
 42
0.0000000001
 43
0.0000000001
 12
1.0
 22
0.0
 32
0.0
 13
1.0
 23
0.0
 33
0.0
 40
0.0
 40
0.0
 40
0.0
 40
0.0
 40
1.0
 40
1.0
 40
1.0
 40
2.0
 40
2.0
 40
2.0
 40
3.0
 40
3.0
 40
3.0
 40
4.0
 40
4.0
 40
4.0
 40
5.0
 40
5.0
 40
5.0
 40
6.0
 40
6.0
 40
6.0
 40
7.0
 40
7.0
 40
7.0
 40
8.0
 40
8.0
 40
8.0
 40
9.0
 40
9.0
 40
9.0
 40
10.0
 40
10.0
 40
10.0
 40
11.0
 40
11.0
 40
11.0
 40
12.0
 40
12.0
 40
12.0
 40
13.0
 40
13.0
 40
13.0
 40
14.0
 40
14.0
 40
14.0
 40
14.0
 10
4.301389058430989
 20
1.744444529215495
 30
0.0
 10
4.309722476535373
 20
1.756944444444444
 30
0.0
 10
4.316666920979817
 20
1.768055809868706
 30
0.0
 10
4.325000339084201
 20
1.779166751437717
 30
0.0
 10
4.341667175292969
 20
1.798611111111111
 30
0.0
 10
4.362500508626302
 20
1.811111026340061
 30
0.0
 10
4.387500339084201
 20
1.813888973659939
 30
0.0
 10
4.408333672417535
 20
1.815277947319878
 30
0.0
 10
4.425000508626302
 20
1.808333502875434
 30
0.0
 10
4.438889397515191
 20
1.790277693006727
 30
0.0
 10
4.458333757188584
 20
1.763888888888889
 30
0.0
 10
4.462500678168403
 20
1.734722137451172
 30
0.0
 10
4.458333757188584
 20
1.704166412353516
 30
0.0
 10
4.451389312744141
 20
1.651388804117838
 30
0.0
 10
4.427778032090929
 20
1.605555216471354
 30
0.0
 10
4.393055809868707
 20
1.566666497124566
 30
0.0
 10
4.383333418104383
 20
1.555555555555555
 30
0.0
 10
4.370833502875434
 20
1.545833163791233
 30
0.0
 10
4.358333587646484
 20
1.537499745686849
 30
0.0
 10
4.340278201633029
 20
1.52361085679796
 30
0.0
 10
4.320833418104383
 20
1.524999830457899
 30
0.0
 10
4.30000008477105
 20
1.533333248562283
 30
0.0
 10
4.297222137451172
 20
1.534722222222222
 30
0.0
 10
4.294444613986545
 20
1.536111195882161
 30
0.0
 10
4.293055640326606
 20
1.537499745686849
 30
0.0
 10
4.238889058430989
 20
1.570832994249132
 30
0.0
 10
4.194444444444445
 20
1.613888634575738
 30
0.0
 10
4.169444613986545
 20
1.673610687255859
 30
0.0
 10
4.161111195882161
 20
1.694444020589193
 30
0.0
 10
4.155555725097656
 20
1.715277353922526
 30
0.0
 10
4.158333672417535
 20
1.737499660915798
 30
0.0
 10
4.159722646077474
 20
1.744444105360243
 30
0.0
 10
4.159722646077474
 20
1.751388549804688
 30
0.0
 10
4.162500169542101
 20
1.756944020589193
 30
0.0
 10
4.176389058430989
 20
1.798610687255859
 30
0.0
 10
4.216666751437717
 20
1.813888549804688
 30
0.0
 10
4.255555894639757
 20
1.793055216471354
 30
0.0
 10
4.268055809868707
 20
1.78611077202691
 30
0.0
 10
4.277778201633029
 20
1.777777353922526
 30
0.0
 10
4.286111619737413
 20
1.766666412353516
 30
0.0
 10
4.290277693006727
 20
1.759722391764323
 30
0.0
 10
4.295833163791232
 20
1.752777947319878
 30
0.0
 10
4.301389058430989
 20
1.744444529215495
 30
0.0
  0
HATCH
  5
76
330
6F
100
AcDbEntity
  8
Calque 1
 62
    24
420
 10692654
100
AcDbHatch
 10
0.0
 20
0.0
 30
0.0
210
0.0
220
0.0
230
1.0
  2
SOLID
 70
     1
 71
     0
 91
        1
 92
        1
 93
        1
 72
     4
 94
        3
 73
     0
 74
     1
 95
       47
 96
       43
 40
0.0
 40
0.0
 40
0.0
 40
0.0
 40
1.0
 40
1.0
 40
1.0
 40
2.0
 40
2.0
 40
2.0
 40
3.0
 40
3.0
 40
3.0
 40
4.0
 40
4.0
 40
4.0
 40
5.0
 40
5.0
 40
5.0
 40
6.0
 40
6.0
 40
6.0
 40
7.0
 40
7.0
 40
7.0
 40
8.0
 40
8.0
 40
8.0
 40
9.0
 40
9.0
 40
9.0
 40
10.0
 40
10.0
 40
10.0
 40
11.0
 40
11.0
 40
11.0
 40
12.0
 40
12.0
 40
12.0
 40
13.0
 40
13.0
 40
13.0
 40
14.0
 40
14.0
 40
14.0
 40
14.0
 10
4.301389058430989
 20
1.744444529215495
 10
4.309722476535373
 20
1.756944444444444
 10
4.316666920979817
 20
1.768055809868706
 10
4.325000339084201
 20
1.779166751437717
 10
4.341667175292969
 20
1.798611111111111
 10
4.362500508626302
 20
1.811111026340061
 10
4.387500339084201
 20
1.813888973659939
 10
4.408333672417535
 20
1.815277947319878
 10
4.425000508626302
 20
1.808333502875434
 10
4.438889397515191
 20
1.790277693006727
 10
4.458333757188584
 20
1.763888888888889
 10
4.462500678168403
 20
1.734722137451172
 10
4.458333757188584
 20
1.704166412353516
 10
4.451389312744141
 20
1.651388804117838
 10
4.427778032090929
 20
1.605555216471354
 10
4.393055809868707
 20
1.566666497124566
 10
4.383333418104383
 20
1.555555555555555
 10
4.370833502875434
 20
1.545833163791233
 10
4.358333587646484
 20
1.537499745686849
 10
4.340278201633029
 20
1.52361085679796
 10
4.320833418104383
 20
1.524999830457899
 10
4.30000008477105
 20
1.533333248562283
 10
4.297222137451172
 20
1.534722222222222
 10
4.294444613986545
 20
1.536111195882161
 10
4.293055640326606
 20
1.537499745686849
 10
4.238889058430989
 20
1.570832994249132
 10
4.194444444444445
 20
1.613888634575738
 10
4.169444613986545
 20
1.673610687255859
 10
4.161111195882161
 20
1.694444020589193
 10
4.155555725097656
 20
1.715277353922526
 10
4.158333672417535
 20
1.737499660915798
 10
4.159722646077474
 20
1.744444105360243
 10
4.159722646077474
 20
1.751388549804688
 10
4.162500169542101
 20
1.756944020589193
 10
4.176389058430989
 20
1.798610687255859
 10
4.216666751437717
 20
1.813888549804688
 10
4.255555894639757
 20
1.793055216471354
 10
4.268055809868707
 20
1.78611077202691
 10
4.277778201633029
 20
1.777777353922526
 10
4.286111619737413
 20
1.766666412353516
 10
4.290277693006727
 20
1.759722391764323
 10
4.295833163791232
 20
1.752777947319878
 10
4.301389058430989
 20
1.744444529215495
 97
        0
 97
        0
 75
     2
 76
     1
 98
        0
  0
ENDBLK
  5
72
330
6F
100
AcDbEntity
  8
0
100
AcDbBlockEnd
  0
BLOCK
  5
79
330
77
100
AcDbEntity
  8
0
100
AcDbBlockBegin
  2
block 11
 70
     0
 10
0.0
 20
0.0
 30
0.0
  3
block 11
  1

  0
INSERT
  5
7C
330
77
100
AcDbEntity
  8
Calque 1
100
AcDbBlockReference
  2
block 12
 10
0.0
 20
0.0
 30
0.0
  0
INSERT
  5
82
330
77
100
AcDbEntity
  8
Calque 1
100
AcDbBlockReference
  2
block 13
 10
0.0
 20
0.0
 30
0.0
  0
INSERT
  5
88
330
77
100
AcDbEntity
  8
Calque 1
100
AcDbBlockReference
  2
block 14
 10
0.0
 20
0.0
 30
0.0
  0
SPLINE
  5
8D
330
77
100
AcDbEntity
  8
Calque 1
370
     0
100
AcDbSpline
210
0.0
220
0.0
230
1.0
 70
    11
 71
     3
 72
    14
 73
    10
 74
     0
 42
0.0000000001
 43
0.0000000001
 12
1.0
 22
0.0
 32
0.0
 13
1.0
 23
0.0
 33
0.0
 40
0.0
 40
0.0
 40
0.0
 40
0.0
 40
1.0
 40
1.0
 40
1.0
 40
2.0
 40
2.0
 40
2.0
 40
3.0
 40
3.0
 40
3.0
 40
3.0
 10
4.774999830457899
 20
2.659722222222222
 30
0.0
 10
4.876388549804688
 20
2.745833290947808
 30
0.0
 10
5.040277693006727
 20
2.872222264607747
 30
0.0
 10
5.111111111111111
 20
2.845833248562283
 30
0.0
 10
5.181944529215494
 20
2.819444444444444
 30
0.0
 10
5.102777693006727
 20
2.524999830457899
 30
0.0
 10
5.094444274902344
 20
2.487499872843424
 30
0.0
 10
5.086111280653212
 20
2.44999991522895
 30
0.0
 10
4.727777693006727
 20
2.619444529215495
 30
0.0
 10
4.774999830457899
 20
2.659722222222222
 30
0.0
  0
HATCH
  5
8E
330
77
100
AcDbEntity
  8
Calque 1
 62
    35
420
 11759931
100
AcDbHatch
 10
0.0
 20
0.0
 30
0.0
210
0.0
220
0.0
230
1.0
  2
SOLID
 70
     1
 71
     0
 91
        1
 92
        1
 93
        1
 72
     4
 94
        3
 73
     0
 74
     1
 95
       14
 96
       10
 40
0.0
 40
0.0
 40
0.0
 40
0.0
 40
1.0
 40
1.0
 40
1.0
 40
2.0
 40
2.0
 40
2.0
 40
3.0
 40
3.0
 40
3.0
 40
3.0
 10
4.774999830457899
 20
2.659722222222222
 10
4.876388549804688
 20
2.745833290947808
 10
5.040277693006727
 20
2.872222264607747
 10
5.111111111111111
 20
2.845833248562283
 10
5.181944529215494
 20
2.819444444444444
 10
5.102777693006727
 20
2.524999830457899
 10
5.094444274902344
 20
2.487499872843424
 10
5.086111280653212
 20
2.44999991522895
 10
4.727777693006727
 20
2.619444529215495
 10
4.774999830457899
 20
2.659722222222222
 97
        0
 97
        0
 75
     2
 76
     1
 98
        0
  0
SPLINE
  5
8F
330
77
100
AcDbEntity
  8
Calque 1
370
     0
100
AcDbSpline
210
0.0
220
0.0
230
1.0
 70
    11
 71
     3
 72
    14
 73
    10
 74
     0
 42
0.0000000001
 43
0.0000000001
 12
1.0
 22
0.0
 32
0.0
 13
1.0
 23
0.0
 33
0.0
 40
0.0
 40
0.0
 40
0.0
 40
0.0
 40
1.0
 40
1.0
 40
1.0
 40
2.0
 40
2.0
 40
2.0
 40
3.0
 40
3.0
 40
3.0
 40
3.0
 10
3.816666497124566
 20
2.636111153496636
 30
0.0
 10
3.708333333333333
 20
2.713889016045464
 30
0.0
 10
3.533333248562283
 20
2.825000127156575
 30
0.0
 10
3.465277565850152
 20
2.791666666666667
 30
0.0
 10
3.397222095065647
 20
2.758333418104383
 30
0.0
 10
3.501388761732313
 20
2.472222222222222
 30
0.0
 10
3.513888676961263
 20
2.436111026340061
 30
0.0
 10
3.525000042385525
 20
2.398611280653212
 30
0.0
 10
3.866666581895616
 20
2.599999957614475
 30
0.0
 10
3.816666497124566
 20
2.636111153496636
 30
0.0
  0
HATCH
  5
90
330
77
100
AcDbEntity
  8
Calque 1
 62
    35
420
 11759931
100
AcDbHatch
 10
0.0
 20
0.0
 30
0.0
210
0.0
220
0.0
230
1.0
  2
SOLID
 70
     1
 71
     0
 91
        1
 92
        1
 93
        1
 72
     4
 94
        3
 73
     0
 74
     1
 95
       14
 96
       10
 40
0.0
 40
0.0
 40
0.0
 40
0.0
 40
1.0
 40
1.0
 40
1.0
 40
2.0
 40
2.0
 40
2.0
 40
3.0
 40
3.0
 40
3.0
 40
3.0
 10
3.816666497124566
 20
2.636111153496636
 10
3.708333333333333
 20
2.713889016045464
 10
3.533333248562283
 20
2.825000127156575
 10
3.465277565850152
 20
2.791666666666667
 10
3.397222095065647
 20
2.758333418104383
 10
3.501388761732313
 20
2.472222222222222
 10
3.513888676961263
 20
2.436111026340061
 10
3.525000042385525
 20
2.398611280653212
 10
3.866666581895616
 20
2.599999957614475
 10
3.816666497124566
 20
2.636111153496636
 97
        0
 97
        0
 75
     2
 76
     1
 98
        0
  0
ENDBLK
  5
7A
330
77
100
AcDbEntity
  8
0
100
AcDbBlockEnd
  0
BLOCK
  5
7D
330
7B
100
AcDbEntity
  8
0
100
AcDbBlockBegin
  2
block 12
 70
     0
 10
0.0
 20
0.0
 30
0.0
  3
block 12
  1

  0
SPLINE
  5
7F
330
7B
100
AcDbEntity
  8
Calque 1
370
     0
100
AcDbSpline
210
0.0
220
0.0
230
1.0
 70
    11
 71
     3
 72
    17
 73
    13
 74
     0
 42
0.0000000001
 43
0.0000000001
 12
1.0
 22
0.0
 32
0.0
 13
1.0
 23
0.0
 33
0.0
 40
0.0
 40
0.0
 40
0.0
 40
0.0
 40
1.0
 40
1.0
 40
1.0
 40
2.0
 40
2.0
 40
2.0
 40
3.0
 40
3.0
 40
3.0
 40
4.0
 40
4.0
 40
4.0
 40
4.0
 10
4.188888973659939
 20
2.808333290947808
 30
0.0
 10
4.129166920979817
 20
2.708333333333333
 30
0.0
 10
4.086111280653212
 20
2.599999957614475
 30
0.0
 10
4.059722476535373
 20
2.484722137451172
 30
0.0
 10
4.052778032090929
 20
2.454166624281141
 30
0.0
 10
4.005555894639757
 20
2.466666539510091
 30
0.0
 10
4.012500339084201
 20
2.497222052680121
 30
0.0
 10
4.037500169542101
 20
2.604166454739041
 30
0.0
 10
4.075000339084201
 20
2.705555386013455
 30
0.0
 10
4.127777947319879
 20
2.799999872843424
 30
0.0
 10
4.148611280653212
 20
2.802777820163303
 30
0.0
 10
4.168055640326606
 20
2.805555555555555
 30
0.0
 10
4.188888973659939
 20
2.808333290947808
 30
0.0
  0
HATCH
  5
80
330
7B
100
AcDbEntity
  8
Calque 1
 62
    35
420
 11759931
100
AcDbHatch
 10
0.0
 20
0.0
 30
0.0
210
0.0
220
0.0
230
1.0
  2
SOLID
 70
     1
 71
     0
 91
        1
 92
        1
 93
        1
 72
     4
 94
        3
 73
     0
 74
     1
 95
       17
 96
       13
 40
0.0
 40
0.0
 40
0.0
 40
0.0
 40
1.0
 40
1.0
 40
1.0
 40
2.0
 40
2.0
 40
2.0
 40
3.0
 40
3.0
 40
3.0
 40
4.0
 40
4.0
 40
4.0
 40
4.0
 10
4.188888973659939
 20
2.808333290947808
 10
4.129166920979817
 20
2.708333333333333
 10
4.086111280653212
 20
2.599999957614475
 10
4.059722476535373
 20
2.484722137451172
 10
4.052778032090929
 20
2.454166624281141
 10
4.005555894639757
 20
2.466666539510091
 10
4.012500339084201
 20
2.497222052680121
 10
4.037500169542101
 20
2.604166454739041
 10
4.075000339084201
 20
2.705555386013455
 10
4.127777947319879
 20
2.799999872843424
 10
4.148611280653212
 20
2.802777820163303
 10
4.168055640326606
 20
2.805555555555555
 10
4.188888973659939
 20
2.808333290947808
 97
        0
 97
        0
 75
     2
 76
     1
 98
        0
  0
ENDBLK
  5
7E
330
7B
100
AcDbEntity
  8
0
100
AcDbBlockEnd
  0
BLOCK
  5
83
330
81
100
AcDbEntity
  8
0
100
AcDbBlockBegin
  2
block 13
 70
     0
 10
0.0
 20
0.0
 30
0.0
  3
block 13
  1

  0
SPLINE
  5
85
330
81
100
AcDbEntity
  8
Calque 1
370
     0
100
AcDbSpline
210
0.0
220
0.0
230
1.0
 70
    11
 71
     3
 72
    17
 73
    13
 74
     0
 42
0.0000000001
 43
0.0000000001
 12
1.0
 22
0.0
 32
0.0
 13
1.0
 23
0.0
 33
0.0
 40
0.0
 40
0.0
 40
0.0
 40
0.0
 40
1.0
 40
1.0
 40
1.0
 40
2.0
 40
2.0
 40
2.0
 40
3.0
 40
3.0
 40
3.0
 40
4.0
 40
4.0
 40
4.0
 40
4.0
 10
4.576388888888888
 20
2.483333375718858
 30
0.0
 10
4.551389058430989
 20
2.594444486829969
 30
0.0
 10
4.509722391764322
 20
2.698611153496636
 30
0.0
 10
4.452777862548828
 20
2.797222349378798
 30
0.0
 10
4.473611195882161
 20
2.794444613986545
 30
0.0
 10
4.494444529215494
 20
2.790277904934353
 30
0.0
 10
4.515277862548828
 20
2.784722434149848
 30
0.0
 10
4.563888973659939
 20
2.69444465637207
 30
0.0
 10
4.6000001695421
 20
2.597222434149848
 30
0.0
 10
4.62361102634006
 20
2.495833502875434
 30
0.0
 10
4.630555470784505
 20
2.466666751437717
 30
0.0
 10
4.583333333333333
 20
2.452777862548828
 30
0.0
 10
4.576388888888888
 20
2.483333375718858
 30
0.0
  0
HATCH
  5
86
330
81
100
AcDbEntity
  8
Calque 1
 62
    35
420
 11759931
100
AcDbHatch
 10
0.0
 20
0.0
 30
0.0
210
0.0
220
0.0
230
1.0
  2
SOLID
 70
     1
 71
     0
 91
        1
 92
        1
 93
        1
 72
     4
 94
        3
 73
     0
 74
     1
 95
       17
 96
       13
 40
0.0
 40
0.0
 40
0.0
 40
0.0
 40
1.0
 40
1.0
 40
1.0
 40
2.0
 40
2.0
 40
2.0
 40
3.0
 40
3.0
 40
3.0
 40
4.0
 40
4.0
 40
4.0
 40
4.0
 10
4.576388888888888
 20
2.483333375718858
 10
4.551389058430989
 20
2.594444486829969
 10
4.509722391764322
 20
2.698611153496636
 10
4.452777862548828
 20
2.797222349378798
 10
4.473611195882161
 20
2.794444613986545
 10
4.494444529215494
 20
2.790277904934353
 10
4.515277862548828
 20
2.784722434149848
 10
4.563888973659939
 20
2.69444465637207
 10
4.6000001695421
 20
2.597222434149848
 10
4.62361102634006
 20
2.495833502875434
 10
4.630555470784505
 20
2.466666751437717
 10
4.583333333333333
 20
2.452777862548828
 10
4.576388888888888
 20
2.483333375718858
 97
        0
 97
        0
 75
     2
 76
     1
 98
        0
  0
ENDBLK
  5
84
330
81
100
AcDbEntity
  8
0
100
AcDbBlockEnd
  0
BLOCK
  5
89
330
87
100
AcDbEntity
  8
0
100
AcDbBlockBegin
  2
block 14
 70
     0
 10
0.0
 20
0.0
 30
0.0
  3
block 14
  1

  0
SPLINE
  5
8B
330
87
100
AcDbEntity
  8
Calque 1
370
     0
100
AcDbSpline
210
0.0
220
0.0
230
1.0
 70
    11
 71
     3
 72
    17
 73
    13
 74
     0
 42
0.0000000001
 43
0.0000000001
 12
1.0
 22
0.0
 32
0.0
 13
1.0
 23
0.0
 33
0.0
 40
0.0
 40
0.0
 40
0.0
 40
0.0
 40
1.0
 40
1.0
 40
1.0
 40
2.0
 40
2.0
 40
2.0
 40
3.0
 40
3.0
 40
3.0
 40
4.0
 40
4.0
 40
4.0
 40
4.0
 10
4.333333333333333
 20
2.809722264607747
 30
0.0
 10
4.333333333333333
 20
2.809722264607747
 30
0.0
 10
4.333333333333333
 20
2.479166666666667
 30
0.0
 10
4.333333333333333
 20
2.479166666666667
 30
0.0
 10
4.333333333333333
 20
2.448611153496636
 30
0.0
 10
4.284722222222222
 20
2.448611153496636
 30
0.0
 10
4.284722222222222
 20
2.479166666666667
 30
0.0
 10
4.284722222222222
 20
2.479166666666667
 30
0.0
 10
4.284722222222222
 20
2.811111026340061
 30
0.0
 10
4.284722222222222
 20
2.811111026340061
 30
0.0
 10
4.30000008477105
 20
2.811111026340061
 30
0.0
 10
4.316666497124566
 20
2.811111026340061
 30
0.0
 10
4.333333333333333
 20
2.809722264607747
 30
0.0
  0
HATCH
  5
8C
330
87
100
AcDbEntity
  8
Calque 1
 62
    35
420
 11759931
100
AcDbHatch
 10
0.0
 20
0.0
 30
0.0
210
0.0
220
0.0
230
1.0
  2
SOLID
 70
     1
 71
     0
 91
        1
 92
        1
 93
        1
 72
     4
 94
        3
 73
     0
 74
     1
 95
       17
 96
       13
 40
0.0
 40
0.0
 40
0.0
 40
0.0
 40
1.0
 40
1.0
 40
1.0
 40
2.0
 40
2.0
 40
2.0
 40
3.0
 40
3.0
 40
3.0
 40
4.0
 40
4.0
 40
4.0
 40
4.0
 10
4.333333333333333
 20
2.809722264607747
 10
4.333333333333333
 20
2.809722264607747
 10
4.333333333333333
 20
2.479166666666667
 10
4.333333333333333
 20
2.479166666666667
 10
4.333333333333333
 20
2.448611153496636
 10
4.284722222222222
 20
2.448611153496636
 10
4.284722222222222
 20
2.479166666666667
 10
4.284722222222222
 20
2.479166666666667
 10
4.284722222222222
 20
2.811111026340061
 10
4.284722222222222
 20
2.811111026340061
 10
4.30000008477105
 20
2.811111026340061
 10
4.316666497124566
 20
2.811111026340061
 10
4.333333333333333
 20
2.809722264607747
 97
        0
 97
        0
 75
     2
 76
     1
 98
        0
  0
ENDBLK
  5
8A
330
87
100
AcDbEntity
  8
0
100
AcDbBlockEnd
  0
BLOCK
  5
93
330
91
100
AcDbEntity
  8
0
100
AcDbBlockBegin
  2
block 15
 70
     0
 10
0.0
 20
0.0
 30
0.0
  3
block 15
  1

  0
SPLINE
  5
95
330
91
100
AcDbEntity
  8
Calque 1
370
     0
100
AcDbSpline
210
0.0
220
0.0
230
1.0
 70
    11
 71
     3
 72
   185
 73
   181
 74
     0
 42
0.0000000001
 43
0.0000000001
 12
1.0
 22
0.0
 32
0.0
 13
1.0
 23
0.0
 33
0.0
 40
0.0
 40
0.0
 40
0.0
 40
0.0
 40
1.0
 40
1.0
 40
1.0
 40
2.0
 40
2.0
 40
2.0
 40
3.0
 40
3.0
 40
3.0
 40
4.0
 40
4.0
 40
4.0
 40
5.0
 40
5.0
 40
5.0
 40
6.0
 40
6.0
 40
6.0
 40
7.0
 40
7.0
 40
7.0
 40
8.0
 40
8.0
 40
8.0
 40
9.0
 40
9.0
 40
9.0
 40
10.0
 40
10.0
 40
10.0
 40
11.0
 40
11.0
 40
11.0
 40
12.0
 40
12.0
 40
12.0
 40
13.0
 40
13.0
 40
13.0
 40
14.0
 40
14.0
 40
14.0
 40
15.0
 40
15.0
 40
15.0
 40
16.0
 40
16.0
 40
16.0
 40
17.0
 40
17.0
 40
17.0
 40
18.0
 40
18.0
 40
18.0
 40
19.0
 40
19.0
 40
19.0
 40
20.0
 40
20.0
 40
20.0
 40
21.0
 40
21.0
 40
21.0
 40
22.0
 40
22.0
 40
22.0
 40
23.0
 40
23.0
 40
23.0
 40
24.0
 40
24.0
 40
24.0
 40
25.0
 40
25.0
 40
25.0
 40
26.0
 40
26.0
 40
26.0
 40
27.0
 40
27.0
 40
27.0
 40
28.0
 40
28.0
 40
28.0
 40
29.0
 40
29.0
 40
29.0
 40
30.0
 40
30.0
 40
30.0
 40
31.0
 40
31.0
 40
31.0
 40
32.0
 40
32.0
 40
32.0
 40
33.0
 40
33.0
 40
33.0
 40
34.0
 40
34.0
 40
34.0
 40
35.0
 40
35.0
 40
35.0
 40
36.0
 40
36.0
 40
36.0
 40
37.0
 40
37.0
 40
37.0
 40
38.0
 40
38.0
 40
38.0
 40
39.0
 40
39.0
 40
39.0
 40
40.0
 40
40.0
 40
40.0
 40
41.0
 40
41.0
 40
41.0
 40
42.0
 40
42.0
 40
42.0
 40
43.0
 40
43.0
 40
43.0
 40
44.0
 40
44.0
 40
44.0
 40
45.0
 40
45.0
 40
45.0
 40
46.0
 40
46.0
 40
46.0
 40
47.0
 40
47.0
 40
47.0
 40
48.0
 40
48.0
 40
48.0
 40
49.0
 40
49.0
 40
49.0
 40
50.0
 40
50.0
 40
50.0
 40
51.0
 40
51.0
 40
51.0
 40
52.0
 40
52.0
 40
52.0
 40
53.0
 40
53.0
 40
53.0
 40
54.0
 40
54.0
 40
54.0
 40
55.0
 40
55.0
 40
55.0
 40
56.0
 40
56.0
 40
56.0
 40
57.0
 40
57.0
 40
57.0
 40
58.0
 40
58.0
 40
58.0
 40
59.0
 40
59.0
 40
59.0
 40
60.0
 40
60.0
 40
60.0
 40
60.0
 10
1.473611089918349
 20
2.611111111111111
 30
0.0
 10
1.450000021192763
 20
2.622222264607747
 30
0.0
 10
1.426388846503364
 20
2.629166709052192
 30
0.0
 10
1.402777777777778
 20
2.633333418104383
 30
0.0
 10
1.380555576748318
 20
2.636111153496636
 30
0.0
 10
1.359722243414985
 20
2.627777947319878
 30
0.0
 10
1.34305551317003
 20
2.615277820163303
 30
0.0
 10
1.331944359673394
 20
2.606944402058919
 30
0.0
 10
1.322222179836697
 20
2.597222222222222
 30
0.0
 10
1.3125
 20
2.587500042385525
 30
0.0
 10
1.269444465637207
 20
2.540277904934353
 30
0.0
 10
1.234722243414985
 20
2.48750008477105
 30
0.0
 10
1.200000021192763
 20
2.434722052680121
 30
0.0
 10
1.169444508022732
 20
2.390277438693576
 30
0.0
 10
1.140277756585015
 20
2.344444274902344
 30
0.0
 10
1.108333375718858
 20
2.299999660915799
 30
0.0
 10
1.073611153496636
 20
2.251388549804688
 30
0.0
 10
1.034722222222222
 20
2.206943935818142
 30
0.0
 10
0.9875000847710503
 20
2.170833163791233
 30
0.0
 10
0.9652778837415906
 20
2.154166327582465
 30
0.0
 10
0.943055682712131
 20
2.140277438693576
 30
0.0
 10
0.9166667726304796
 20
2.131944444444444
 30
0.0
 10
0.8527779049343532
 20
2.111111111111111
 30
0.0
 10
0.7930556403266058
 20
2.138888888888889
 30
0.0
 10
0.7666667832268609
 20
2.19999991522895
 30
0.0
 10
0.750000105963813
 20
2.238888634575738
 30
0.0
 10
0.7472223175896539
 20
2.280555301242404
 30
0.0
 10
0.750000105963813
 20
2.322221967909071
 30
0.0
 10
0.7541667620340983
 20
2.38749991522895
 30
0.0
 10
0.7652778625488281
 20
2.452777438693576
 30
0.0
 10
0.7861111958821614
 20
2.515277438693576
 30
0.0
 10
0.8111111852857801
 20
2.590277353922526
 30
0.0
 10
0.8500000635782877
 20
2.658333036634657
 30
0.0
 10
0.8958334392971462
 20
2.722221798366971
 30
0.0
 10
0.9597223069932725
 20
2.813888549804688
 30
0.0
 10
1.036111195882161
 20
2.893055174085829
 30
0.0
 10
1.129166709052192
 20
2.955555174085829
 30
0.0
 10
1.168055640326606
 20
2.981943978203667
 30
0.0
 10
1.211111174689399
 20
3.001388549804688
 30
0.0
 10
1.258333418104384
 20
3.009721755981445
 30
0.0
 10
1.283333460489909
 20
3.013888465033637
 30
0.0
 10
1.306944529215495
 20
3.011110729641385
 30
0.0
 10
1.330555597941081
 20
3.00416628519694
 30
0.0
 10
1.386111153496636
 20
2.987499660915799
 30
0.0
 10
1.431944529215495
 20
2.955555174085829
 30
0.0
 10
1.472222222222222
 20
2.912499533759223
 30
0.0
 10
1.515277756585015
 20
2.866666158040364
 30
0.0
 10
1.548611111111111
 20
2.812499576144748
 30
0.0
 10
1.580555597941081
 20
2.758332782321506
 30
0.0
 10
1.587500042385525
 20
2.74722162882487
 30
0.0
 10
1.593055619133843
 20
2.736110475328233
 30
0.0
 10
1.600000063578288
 20
2.723610560099284
 30
0.0
 10
1.606944508022732
 20
2.729166030883789
 30
0.0
 10
1.613888952467176
 20
2.733332739935981
 30
0.0
 10
1.620833396911621
 20
2.737499448988173
 30
0.0
 10
1.690277841356066
 20
2.784721586439344
 30
0.0
 10
1.768055597941081
 20
2.813888337877061
 30
0.0
 10
1.851388931274414
 20
2.82777722676595
 30
0.0
 10
2.013888888888889
 20
2.855555004543728
 30
0.0
 10
2.169444402058919
 20
2.830554962158203
 30
0.0
 10
2.318055470784505
 20
2.759721755981445
 30
0.0
 10
2.322222179836697
 20
2.758332782321506
 30
0.0
 10
2.32499991522895
 20
2.756944020589192
 30
0.0
 10
2.329166624281141
 20
2.755555046929253
 30
0.0
 10
2.329166624281141
 20
2.755555046929253
 30
0.0
 10
2.330555597941081
 20
2.755555046929253
 30
0.0
 10
2.331944359673394
 20
2.755555046929253
 30
0.0
 10
2.334722095065647
 20
2.759721755981445
 30
0.0
 10
2.338888804117838
 20
2.763888465033637
 30
0.0
 10
2.34305551317003
 20
2.768054962158203
 30
0.0
 10
2.402777777777778
 20
2.837499406602647
 30
0.0
 10
2.470833248562283
 20
2.898610432942708
 30
0.0
 10
2.549999872843424
 20
2.944443808661567
 30
0.0
 10
2.594444274902344
 20
2.969443851047092
 30
0.0
 10
2.641666624281141
 20
2.986110475328233
 30
0.0
 10
2.693055470784505
 20
2.987499448988173
 30
0.0
 10
2.773611068725586
 20
2.988888422648112
 30
0.0
 10
2.844444274902344
 20
2.962499406602647
 30
0.0
 10
2.902777777777778
 20
2.906943851047092
 30
0.0
 10
2.94999991522895
 20
2.862499448988173
 30
0.0
 10
3.0
 20
2.818055046929253
 30
0.0
 10
3.038888931274414
 20
2.76527722676595
 30
0.0
 10
3.083333333333333
 20
2.705554962158203
 30
0.0
 10
3.123611238267686
 20
2.643054962158203
 30
0.0
 10
3.15555551317003
 20
2.574999491373698
 30
0.0
 10
3.183333290947808
 20
2.518054962158203
 30
0.0
 10
3.201388888888889
 20
2.456943935818142
 30
0.0
 10
3.211111068725586
 20
2.393054962158203
 30
0.0
 10
3.21805551317003
 20
2.340277353922526
 30
0.0
 10
3.209722095065647
 20
2.288888295491536
 30
0.0
 10
3.184722264607747
 20
2.241666158040364
 30
0.0
 10
3.158333460489909
 20
2.193055046929254
 30
0.0
 10
3.119444529215495
 20
2.162499321831597
 30
0.0
 10
3.0625
 20
2.156943851047092
 30
0.0
 10
3.051388846503364
 20
2.155554877387153
 30
0.0
 10
3.038888931274414
 20
2.156943851047092
 30
0.0
 10
3.027777777777778
 20
2.158332824707031
 30
0.0
 10
2.945833418104383
 20
2.170832739935981
 30
0.0
 10
2.876388973659939
 20
2.208332909478082
 30
0.0
 10
2.818055470784505
 20
2.266665988498264
 30
0.0
 10
2.770833333333333
 20
2.313888125949436
 30
0.0
 10
2.73055542839898
 20
2.368054707845052
 30
0.0
 10
2.69861094156901
 20
2.426388210720486
 30
0.0
 10
2.66805542839898
 20
2.480554792616102
 30
0.0
 10
2.641666412353516
 20
2.537499321831597
 30
0.0
 10
2.612499872843424
 20
2.593054877387153
 30
0.0
 10
2.598610983954535
 20
2.619443681504991
 30
0.0
 10
2.581944359673394
 20
2.644443723890516
 30
0.0
 10
2.565277735392252
 20
2.670832739935981
 30
0.0
 10
2.558333290947808
 20
2.681943893432617
 30
0.0
 10
2.547222137451172
 20
2.690277099609375
 30
0.0
 10
2.534722222222222
 20
2.695832782321506
 30
0.0
 10
2.53055551317003
 20
2.697221755981445
 30
0.0
 10
2.525000042385525
 20
2.698610517713758
 30
0.0
 10
2.520833333333333
 20
2.695832782321506
 30
0.0
 10
2.502777735392252
 20
2.686110602484809
 30
0.0
 10
2.486111111111111
 20
2.674999448988173
 30
0.0
 10
2.46805551317003
 20
2.663888295491536
 30
0.0
 10
2.472222222222222
 20
2.659721586439344
 30
0.0
 10
2.474999957614475
 20
2.655554877387153
 30
0.0
 10
2.477777693006727
 20
2.6527771419949
 30
0.0
 10
2.563888761732313
 20
2.570832782321506
 30
0.0
 10
2.625
 20
2.472221586439344
 30
0.0
 10
2.662499957614475
 20
2.361110263400608
 30
0.0
 10
2.666666666666667
 20
2.349999321831597
 30
0.0
 10
2.670833375718858
 20
2.340276930067274
 30
0.0
 10
2.674999872843424
 20
2.329165988498264
 30
0.0
 10
2.688888761732313
 20
2.293054792616102
 30
0.0
 10
2.705555386013455
 20
2.25833257039388
 30
0.0
 10
2.71805551317003
 20
2.220832824707031
 30
0.0
 10
2.745833290947808
 20
2.137499491373698
 30
0.0
 10
2.770833333333333
 20
2.052777184380425
 30
0.0
 10
2.795833375718858
 20
1.968054877387153
 30
0.0
 10
2.815277735392252
 20
1.901388380262587
 30
0.0
 10
2.833333333333333
 20
1.83333248562283
 30
0.0
 10
2.84305551317003
 20
1.763888041178385
 30
0.0
 10
2.854166666666667
 20
1.687499152289496
 30
0.0
 10
2.852777693006727
 20
1.611110263400608
 30
0.0
 10
2.834722095065647
 20
1.534721374511719
 30
0.0
 10
2.815277735392252
 20
1.454165988498264
 30
0.0
 10
2.770833121405707
 20
1.388888041178385
 30
0.0
 10
2.711111068725586
 20
1.33333248562283
 30
0.0
 10
2.674999872843424
 20
1.299999237060547
 30
0.0
 10
2.634722179836697
 20
1.272221459282769
 30
0.0
 10
2.59305551317003
 20
1.245832655164931
 30
0.0
 10
2.484722137451172
 20
1.176388210720486
 30
0.0
 10
2.370833290947808
 20
1.115277184380425
 30
0.0
 10
2.248611026340061
 20
1.07083257039388
 30
0.0
 10
2.1875
 20
1.048610263400608
 30
0.0
 10
2.125
 20
1.029165903727213
 30
0.0
 10
2.061111026340061
 20
1.019443511962891
 30
0.0
 10
1.961111068725586
 20
1.004165649414062
 30
0.0
 10
1.863888846503364
 20
1.012499067518446
 30
0.0
 10
1.769444359673394
 20
1.04444334242079
 30
0.0
 10
1.666666560702854
 20
1.079165564643012
 30
0.0
 10
1.569444338480631
 20
1.129165649414062
 30
0.0
 10
1.473610983954535
 20
1.1805542839898
 30
0.0
 10
1.413888719346788
 20
1.213887532552083
 30
0.0
 10
1.358333163791233
 20
1.254165225558811
 30
0.0
 10
1.308333184983995
 20
1.301387786865234
 30
0.0
 10
1.274999830457899
 20
1.333332061767578
 30
0.0
 10
1.245833184983995
 20
1.3680542839898
 30
0.0
 10
1.219444274902344
 20
1.405554453531901
 30
0.0
 10
1.179166475931803
 20
1.465276506212023
 30
0.0
 10
1.161110983954535
 20
1.53194342719184
 30
0.0
 10
1.162499851650662
 20
1.604165395100911
 30
0.0
 10
1.163888719346788
 20
1.663887447781033
 30
0.0
 10
1.166666560702854
 20
1.723609924316406
 30
0.0
 10
1.170833163791233
 20
1.783331976996528
 30
0.0
 10
1.177777608235677
 20
1.866665310329861
 30
0.0
 10
1.187499788072374
 20
1.948609670003255
 30
0.0
 10
1.205555386013455
 20
2.030554029676649
 30
0.0
 10
1.233333163791233
 20
2.151387532552083
 30
0.0
 10
1.273610962761773
 20
2.2680541144477
 30
0.0
 10
1.327777650621202
 20
2.379165225558811
 30
0.0
 10
1.356944296095106
 20
2.438887278238932
 30
0.0
 10
1.38749991522895
 20
2.498609754774305
 30
0.0
 10
1.429166581895616
 20
2.551387363009983
 30
0.0
 10
1.441666709052192
 20
2.572222179836697
 30
0.0
 10
1.456944465637207
 20
2.590277777777778
 30
0.0
 10
1.473611089918349
 20
2.611111111111111
 30
0.0
  0
HATCH
  5
96
330
91
100
AcDbEntity
  8
Calque 1
 62
   253
420
 13087386
100
AcDbHatch
 10
0.0
 20
0.0
 30
0.0
210
0.0
220
0.0
230
1.0
  2
SOLID
 70
     1
 71
     0
 91
        1
 92
        1
 93
        1
 72
     4
 94
        3
 73
     0
 74
     1
 95
      185
 96
      181
 40
0.0
 40
0.0
 40
0.0
 40
0.0
 40
1.0
 40
1.0
 40
1.0
 40
2.0
 40
2.0
 40
2.0
 40
3.0
 40
3.0
 40
3.0
 40
4.0
 40
4.0
 40
4.0
 40
5.0
 40
5.0
 40
5.0
 40
6.0
 40
6.0
 40
6.0
 40
7.0
 40
7.0
 40
7.0
 40
8.0
 40
8.0
 40
8.0
 40
9.0
 40
9.0
 40
9.0
 40
10.0
 40
10.0
 40
10.0
 40
11.0
 40
11.0
 40
11.0
 40
12.0
 40
12.0
 40
12.0
 40
13.0
 40
13.0
 40
13.0
 40
14.0
 40
14.0
 40
14.0
 40
15.0
 40
15.0
 40
15.0
 40
16.0
 40
16.0
 40
16.0
 40
17.0
 40
17.0
 40
17.0
 40
18.0
 40
18.0
 40
18.0
 40
19.0
 40
19.0
 40
19.0
 40
20.0
 40
20.0
 40
20.0
 40
21.0
 40
21.0
 40
21.0
 40
22.0
 40
22.0
 40
22.0
 40
23.0
 40
23.0
 40
23.0
 40
24.0
 40
24.0
 40
24.0
 40
25.0
 40
25.0
 40
25.0
 40
26.0
 40
26.0
 40
26.0
 40
27.0
 40
27.0
 40
27.0
 40
28.0
 40
28.0
 40
28.0
 40
29.0
 40
29.0
 40
29.0
 40
30.0
 40
30.0
 40
30.0
 40
31.0
 40
31.0
 40
31.0
 40
32.0
 40
32.0
 40
32.0
 40
33.0
 40
33.0
 40
33.0
 40
34.0
 40
34.0
 40
34.0
 40
35.0
 40
35.0
 40
35.0
 40
36.0
 40
36.0
 40
36.0
 40
37.0
 40
37.0
 40
37.0
 40
38.0
 40
38.0
 40
38.0
 40
39.0
 40
39.0
 40
39.0
 40
40.0
 40
40.0
 40
40.0
 40
41.0
 40
41.0
 40
41.0
 40
42.0
 40
42.0
 40
42.0
 40
43.0
 40
43.0
 40
43.0
 40
44.0
 40
44.0
 40
44.0
 40
45.0
 40
45.0
 40
45.0
 40
46.0
 40
46.0
 40
46.0
 40
47.0
 40
47.0
 40
47.0
 40
48.0
 40
48.0
 40
48.0
 40
49.0
 40
49.0
 40
49.0
 40
50.0
 40
50.0
 40
50.0
 40
51.0
 40
51.0
 40
51.0
 40
52.0
 40
52.0
 40
52.0
 40
53.0
 40
53.0
 40
53.0
 40
54.0
 40
54.0
 40
54.0
 40
55.0
 40
55.0
 40
55.0
 40
56.0
 40
56.0
 40
56.0
 40
57.0
 40
57.0
 40
57.0
 40
58.0
 40
58.0
 40
58.0
 40
59.0
 40
59.0
 40
59.0
 40
60.0
 40
60.0
 40
60.0
 40
60.0
 10
1.473611089918349
 20
2.611111111111111
 10
1.450000021192763
 20
2.622222264607747
 10
1.426388846503364
 20
2.629166709052192
 10
1.402777777777778
 20
2.633333418104383
 10
1.380555576748318
 20
2.636111153496636
 10
1.359722243414985
 20
2.627777947319878
 10
1.34305551317003
 20
2.615277820163303
 10
1.331944359673394
 20
2.606944402058919
 10
1.322222179836697
 20
2.597222222222222
 10
1.3125
 20
2.587500042385525
 10
1.269444465637207
 20
2.540277904934353
 10
1.234722243414985
 20
2.48750008477105
 10
1.200000021192763
 20
2.434722052680121
 10
1.169444508022732
 20
2.390277438693576
 10
1.140277756585015
 20
2.344444274902344
 10
1.108333375718858
 20
2.299999660915799
 10
1.073611153496636
 20
2.251388549804688
 10
1.034722222222222
 20
2.206943935818142
 10
0.9875000847710503
 20
2.170833163791233
 10
0.9652778837415906
 20
2.154166327582465
 10
0.943055682712131
 20
2.140277438693576
 10
0.9166667726304796
 20
2.131944444444444
 10
0.8527779049343532
 20
2.111111111111111
 10
0.7930556403266058
 20
2.138888888888889
 10
0.7666667832268609
 20
2.19999991522895
 10
0.750000105963813
 20
2.238888634575738
 10
0.7472223175896539
 20
2.280555301242404
 10
0.750000105963813
 20
2.322221967909071
 10
0.7541667620340983
 20
2.38749991522895
 10
0.7652778625488281
 20
2.452777438693576
 10
0.7861111958821614
 20
2.515277438693576
 10
0.8111111852857801
 20
2.590277353922526
 10
0.8500000635782877
 20
2.658333036634657
 10
0.8958334392971462
 20
2.722221798366971
 10
0.9597223069932725
 20
2.813888549804688
 10
1.036111195882161
 20
2.893055174085829
 10
1.129166709052192
 20
2.955555174085829
 10
1.168055640326606
 20
2.981943978203667
 10
1.211111174689399
 20
3.001388549804688
 10
1.258333418104384
 20
3.009721755981445
 10
1.283333460489909
 20
3.013888465033637
 10
1.306944529215495
 20
3.011110729641385
 10
1.330555597941081
 20
3.00416628519694
 10
1.386111153496636
 20
2.987499660915799
 10
1.431944529215495
 20
2.955555174085829
 10
1.472222222222222
 20
2.912499533759223
 10
1.515277756585015
 20
2.866666158040364
 10
1.548611111111111
 20
2.812499576144748
 10
1.580555597941081
 20
2.758332782321506
 10
1.587500042385525
 20
2.74722162882487
 10
1.593055619133843
 20
2.736110475328233
 10
1.600000063578288
 20
2.723610560099284
 10
1.606944508022732
 20
2.729166030883789
 10
1.613888952467176
 20
2.733332739935981
 10
1.620833396911621
 20
2.737499448988173
 10
1.690277841356066
 20
2.784721586439344
 10
1.768055597941081
 20
2.813888337877061
 10
1.851388931274414
 20
2.82777722676595
 10
2.013888888888889
 20
2.855555004543728
 10
2.169444402058919
 20
2.830554962158203
 10
2.318055470784505
 20
2.759721755981445
 10
2.322222179836697
 20
2.758332782321506
 10
2.32499991522895
 20
2.756944020589192
 10
2.329166624281141
 20
2.755555046929253
 10
2.329166624281141
 20
2.755555046929253
 10
2.330555597941081
 20
2.755555046929253
 10
2.331944359673394
 20
2.755555046929253
 10
2.334722095065647
 20
2.759721755981445
 10
2.338888804117838
 20
2.763888465033637
 10
2.34305551317003
 20
2.768054962158203
 10
2.402777777777778
 20
2.837499406602647
 10
2.470833248562283
 20
2.898610432942708
 10
2.549999872843424
 20
2.944443808661567
 10
2.594444274902344
 20
2.969443851047092
 10
2.641666624281141
 20
2.986110475328233
 10
2.693055470784505
 20
2.987499448988173
 10
2.773611068725586
 20
2.988888422648112
 10
2.844444274902344
 20
2.962499406602647
 10
2.902777777777778
 20
2.906943851047092
 10
2.94999991522895
 20
2.862499448988173
 10
3.0
 20
2.818055046929253
 10
3.038888931274414
 20
2.76527722676595
 10
3.083333333333333
 20
2.705554962158203
 10
3.123611238267686
 20
2.643054962158203
 10
3.15555551317003
 20
2.574999491373698
 10
3.183333290947808
 20
2.518054962158203
 10
3.201388888888889
 20
2.456943935818142
 10
3.211111068725586
 20
2.393054962158203
 10
3.21805551317003
 20
2.340277353922526
 10
3.209722095065647
 20
2.288888295491536
 10
3.184722264607747
 20
2.241666158040364
 10
3.158333460489909
 20
2.193055046929254
 10
3.119444529215495
 20
2.162499321831597
 10
3.0625
 20
2.156943851047092
 10
3.051388846503364
 20
2.155554877387153
 10
3.038888931274414
 20
2.156943851047092
 10
3.027777777777778
 20
2.158332824707031
 10
2.945833418104383
 20
2.170832739935981
 10
2.876388973659939
 20
2.208332909478082
 10
2.818055470784505
 20
2.266665988498264
 10
2.770833333333333
 20
2.313888125949436
 10
2.73055542839898
 20
2.368054707845052
 10
2.69861094156901
 20
2.426388210720486
 10
2.66805542839898
 20
2.480554792616102
 10
2.641666412353516
 20
2.537499321831597
 10
2.612499872843424
 20
2.593054877387153
 10
2.598610983954535
 20
2.619443681504991
 10
2.581944359673394
 20
2.644443723890516
 10
2.565277735392252
 20
2.670832739935981
 10
2.558333290947808
 20
2.681943893432617
 10
2.547222137451172
 20
2.690277099609375
 10
2.534722222222222
 20
2.695832782321506
 10
2.53055551317003
 20
2.697221755981445
 10
2.525000042385525
 20
2.698610517713758
 10
2.520833333333333
 20
2.695832782321506
 10
2.502777735392252
 20
2.686110602484809
 10
2.486111111111111
 20
2.674999448988173
 10
2.46805551317003
 20
2.663888295491536
 10
2.472222222222222
 20
2.659721586439344
 10
2.474999957614475
 20
2.655554877387153
 10
2.477777693006727
 20
2.6527771419949
 10
2.563888761732313
 20
2.570832782321506
 10
2.625
 20
2.472221586439344
 10
2.662499957614475
 20
2.361110263400608
 10
2.666666666666667
 20
2.349999321831597
 10
2.670833375718858
 20
2.340276930067274
 10
2.674999872843424
 20
2.329165988498264
 10
2.688888761732313
 20
2.293054792616102
 10
2.705555386013455
 20
2.25833257039388
 10
2.71805551317003
 20
2.220832824707031
 10
2.745833290947808
 20
2.137499491373698
 10
2.770833333333333
 20
2.052777184380425
 10
2.795833375718858
 20
1.968054877387153
 10
2.815277735392252
 20
1.901388380262587
 10
2.833333333333333
 20
1.83333248562283
 10
2.84305551317003
 20
1.763888041178385
 10
2.854166666666667
 20
1.687499152289496
 10
2.852777693006727
 20
1.611110263400608
 10
2.834722095065647
 20
1.534721374511719
 10
2.815277735392252
 20
1.454165988498264
 10
2.770833121405707
 20
1.388888041178385
 10
2.711111068725586
 20
1.33333248562283
 10
2.674999872843424
 20
1.299999237060547
 10
2.634722179836697
 20
1.272221459282769
 10
2.59305551317003
 20
1.245832655164931
 10
2.484722137451172
 20
1.176388210720486
 10
2.370833290947808
 20
1.115277184380425
 10
2.248611026340061
 20
1.07083257039388
 10
2.1875
 20
1.048610263400608
 10
2.125
 20
1.029165903727213
 10
2.061111026340061
 20
1.019443511962891
 10
1.961111068725586
 20
1.004165649414062
 10
1.863888846503364
 20
1.012499067518446
 10
1.769444359673394
 20
1.04444334242079
 10
1.666666560702854
 20
1.079165564643012
 10
1.569444338480631
 20
1.129165649414062
 10
1.473610983954535
 20
1.1805542839898
 10
1.413888719346788
 20
1.213887532552083
 10
1.358333163791233
 20
1.254165225558811
 10
1.308333184983995
 20
1.301387786865234
 10
1.274999830457899
 20
1.333332061767578
 10
1.245833184983995
 20
1.3680542839898
 10
1.219444274902344
 20
1.405554453531901
 10
1.179166475931803
 20
1.465276506212023
 10
1.161110983954535
 20
1.53194342719184
 10
1.162499851650662
 20
1.604165395100911
 10
1.163888719346788
 20
1.663887447781033
 10
1.166666560702854
 20
1.723609924316406
 10
1.170833163791233
 20
1.783331976996528
 10
1.177777608235677
 20
1.866665310329861
 10
1.187499788072374
 20
1.948609670003255
 10
1.205555386013455
 20
2.030554029676649
 10
1.233333163791233
 20
2.151387532552083
 10
1.273610962761773
 20
2.2680541144477
 10
1.327777650621202
 20
2.379165225558811
 10
1.356944296095106
 20
2.438887278238932
 10
1.38749991522895
 20
2.498609754774305
 10
1.429166581895616
 20
2.551387363009983
 10
1.441666709052192
 20
2.572222179836697
 10
1.456944465637207
 20
2.590277777777778
 10
1.473611089918349
 20
2.611111111111111
 97
        0
 97
        0
 75
     2
 76
     1
 98
        0
  0
INSERT
  5
98
330
91
100
AcDbEntity
  8
Calque 1
100
AcDbBlockReference
  2
block 16
 10
0.0
 20
0.0
 30
0.0
  0
ENDBLK
  5
94
330
91
100
AcDbEntity
  8
0
100
AcDbBlockEnd
  0
BLOCK
  5
99
330
97
100
AcDbEntity
  8
0
100
AcDbBlockBegin
  2
block 16
 70
     0
 10
0.0
 20
0.0
 30
0.0
  3
block 16
  1

  0
INSERT
  5
9C
330
97
100
AcDbEntity
  8
Calque 1
100
AcDbBlockReference
  2
block 17
 10
0.0
 20
0.0
 30
0.0
  0
INSERT
  5
B0
330
97
100
AcDbEntity
  8
Calque 1
100
AcDbBlockReference
  2
block 20
 10
0.0
 20
0.0
 30
0.0
  0
INSERT
  5
BA
330
97
100
AcDbEntity
  8
Calque 1
100
AcDbBlockReference
  2
block 21
 10
0.0
 20
0.0
 30
0.0
  0
ENDBLK
  5
9A
330
97
100
AcDbEntity
  8
0
100
AcDbBlockEnd
  0
BLOCK
  5
9D
330
9B
100
AcDbEntity
  8
0
100
AcDbBlockBegin
  2
block 17
 70
     0
 10
0.0
 20
0.0
 30
0.0
  3
block 17
  1

  0
INSERT
  5
A0
330
9B
100
AcDbEntity
  8
Calque 1
100
AcDbBlockReference
  2
block 18
 10
0.0
 20
0.0
 30
0.0
  0
INSERT
  5
A8
330
9B
100
AcDbEntity
  8
Calque 1
100
AcDbBlockReference
  2
block 19
 10
0.0
 20
0.0
 30
0.0
  0
ENDBLK
  5
9E
330
9B
100
AcDbEntity
  8
0
100
AcDbBlockEnd
  0
BLOCK
  5
A1
330
9F
100
AcDbEntity
  8
0
100
AcDbBlockBegin
  2
block 18
 70
     0
 10
0.0
 20
0.0
 30
0.0
  3
block 18
  1

  0
SPLINE
  5
A3
330
9F
100
AcDbEntity
  8
Calque 1
370
     0
100
AcDbSpline
210
0.0
220
0.0
230
1.0
 70
    11
 71
     3
 72
    17
 73
    13
 74
     0
 42
0.0000000001
 43
0.0000000001
 12
1.0
 22
0.0
 32
0.0
 13
1.0
 23
0.0
 33
0.0
 40
0.0
 40
0.0
 40
0.0
 40
0.0
 40
1.0
 40
1.0
 40
1.0
 40
2.0
 40
2.0
 40
2.0
 40
3.0
 40
3.0
 40
3.0
 40
4.0
 40
4.0
 40
4.0
 40
4.0
 10
1.630555576748318
 20
2.233333163791233
 30
0.0
 10
1.726438310411241
 20
2.233333163791233
 30
0.0
 10
1.804166581895616
 20
2.155604892306858
 30
0.0
 10
1.804166581895616
 20
2.059722052680121
 30
0.0
 10
1.804166581895616
 20
1.963839213053385
 30
0.0
 10
1.726438310411241
 20
1.88611094156901
 30
0.0
 10
1.630555576748318
 20
1.88611094156901
 30
0.0
 10
1.534672843085395
 20
1.88611094156901
 30
0.0
 10
1.456944465637207
 20
1.963839213053385
 30
0.0
 10
1.456944465637207
 20
2.059722052680121
 30
0.0
 10
1.456944465637207
 20
2.155604892306858
 30
0.0
 10
1.534672843085395
 20
2.233333163791233
 30
0.0
 10
1.630555576748318
 20
2.233333163791233
 30
0.0
  0
HATCH
  5
A4
330
9F
100
AcDbEntity
  8
Calque 1
 62
   178
420
   131587
100
AcDbHatch
 10
0.0
 20
0.0
 30
0.0
210
0.0
220
0.0
230
1.0
  2
SOLID
 70
     1
 71
     0
 91
        1
 92
        1
 93
        1
 72
     4
 94
        3
 73
     0
 74
     1
 95
       17
 96
       13
 40
0.0
 40
0.0
 40
0.0
 40
0.0
 40
1.0
 40
1.0
 40
1.0
 40
2.0
 40
2.0
 40
2.0
 40
3.0
 40
3.0
 40
3.0
 40
4.0
 40
4.0
 40
4.0
 40
4.0
 10
1.630555576748318
 20
2.233333163791233
 10
1.726438310411241
 20
2.233333163791233
 10
1.804166581895616
 20
2.155604892306858
 10
1.804166581895616
 20
2.059722052680121
 10
1.804166581895616
 20
1.963839213053385
 10
1.726438310411241
 20
1.88611094156901
 10
1.630555576748318
 20
1.88611094156901
 10
1.534672843085395
 20
1.88611094156901
 10
1.456944465637207
 20
1.963839213053385
 10
1.456944465637207
 20
2.059722052680121
 10
1.456944465637207
 20
2.155604892306858
 10
1.534672843085395
 20
2.233333163791233
 10
1.630555576748318
 20
2.233333163791233
 97
        0
 97
        0
 75
     2
 76
     1
 98
        0
  0
SPLINE
  5
A5
330
9F
100
AcDbEntity
  8
Calque 1
370
     0
100
AcDbSpline
210
0.0
220
0.0
230
1.0
 70
    11
 71
     3
 72
    17
 73
    13
 74
     0
 42
0.0000000001
 43
0.0000000001
 12
1.0
 22
0.0
 32
0.0
 13
1.0
 23
0.0
 33
0.0
 40
0.0
 40
0.0
 40
0.0
 40
0.0
 40
1.0
 40
1.0
 40
1.0
 40
2.0
 40
2.0
 40
2.0
 40
3.0
 40
3.0
 40
3.0
 40
4.0
 40
4.0
 40
4.0
 40
4.0
 10
1.630555576748318
 20
2.129166497124566
 30
0.0
 10
1.668908649020725
 20
2.129166497124566
 30
0.0
 10
1.700000021192762
 20
2.098075018988715
 30
0.0
 10
1.700000021192762
 20
2.059722052680121
 30
0.0
 10
1.700000021192762
 20
2.021369086371528
 30
0.0
 10
1.668908649020725
 20
1.990277608235677
 30
0.0
 10
1.630555576748318
 20
1.990277608235677
 30
0.0
 10
1.592202504475911
 20
1.990277608235677
 30
0.0
 10
1.561111132303874
 20
2.021369086371528
 30
0.0
 10
1.561111132303874
 20
2.059722052680121
 30
0.0
 10
1.561111132303874
 20
2.098075018988715
 30
0.0
 10
1.592202504475911
 20
2.129166497124566
 30
0.0
 10
1.630555576748318
 20
2.129166497124566
 30
0.0
  0
SPLINE
  5
A6
330
9F
100
AcDbEntity
  8
Calque 1
370
     0
100
AcDbSpline
210
0.0
220
0.0
230
1.0
 70
    11
 71
     3
 72
    17
 73
    13
 74
     0
 42
0.0000000001
 43
0.0000000001
 12
1.0
 22
0.0
 32
0.0
 13
1.0
 23
0.0
 33
0.0
 40
0.0
 40
0.0
 40
0.0
 40
0.0
 40
1.0
 40
1.0
 40
1.0
 40
2.0
 40
2.0
 40
2.0
 40
3.0
 40
3.0
 40
3.0
 40
4.0
 40
4.0
 40
4.0
 40
4.0
 10
1.724999957614475
 20
2.013888888888889
 30
0.0
 10
1.741875330607096
 20
2.013888888888889
 30
0.0
 10
1.755555470784505
 20
2.000208536783854
 30
0.0
 10
1.755555470784505
 20
1.983333163791233
 30
0.0
 10
1.755555470784505
 20
1.966457790798611
 30
0.0
 10
1.741875330607096
 20
1.952777438693576
 30
0.0
 10
1.724999957614475
 20
1.952777438693576
 30
0.0
 10
1.708124584621853
 20
1.952777438693576
 30
0.0
 10
1.694444444444444
 20
1.966457790798611
 30
0.0
 10
1.694444444444444
 20
1.983333163791233
 30
0.0
 10
1.694444444444444
 20
2.000208536783854
 30
0.0
 10
1.708124584621853
 20
2.013888888888889
 30
0.0
 10
1.724999957614475
 20
2.013888888888889
 30
0.0
  0
ENDBLK
  5
A2
330
9F
100
AcDbEntity
  8
0
100
AcDbBlockEnd
  0
BLOCK
  5
A9
330
A7
100
AcDbEntity
  8
0
100
AcDbBlockBegin
  2
block 19
 70
     0
 10
0.0
 20
0.0
 30
0.0
  3
block 19
  1

  0
SPLINE
  5
AB
330
A7
100
AcDbEntity
  8
Calque 1
370
     0
100
AcDbSpline
210
0.0
220
0.0
230
1.0
 70
    11
 71
     3
 72
    17
 73
    13
 74
     0
 42
0.0000000001
 43
0.0000000001
 12
1.0
 22
0.0
 32
0.0
 13
1.0
 23
0.0
 33
0.0
 40
0.0
 40
0.0
 40
0.0
 40
0.0
 40
1.0
 40
1.0
 40
1.0
 40
2.0
 40
2.0
 40
2.0
 40
3.0
 40
3.0
 40
3.0
 40
4.0
 40
4.0
 40
4.0
 40
4.0
 10
2.337500042385525
 20
2.233333163791233
 30
0.0
 10
2.433382882012261
 20
2.233333163791233
 30
0.0
 10
2.511111153496636
 20
2.155604892306858
 30
0.0
 10
2.511111153496636
 20
2.059722052680121
 30
0.0
 10
2.511111153496636
 20
1.963839213053385
 30
0.0
 10
2.433382882012261
 20
1.88611094156901
 30
0.0
 10
2.337500042385525
 20
1.88611094156901
 30
0.0
 10
2.241617202758789
 20
1.88611094156901
 30
0.0
 10
2.163888931274414
 20
1.963839213053385
 30
0.0
 10
2.163888931274414
 20
2.059722052680121
 30
0.0
 10
2.163888931274414
 20
2.155604892306858
 30
0.0
 10
2.241617202758789
 20
2.233333163791233
 30
0.0
 10
2.337500042385525
 20
2.233333163791233
 30
0.0
  0
HATCH
  5
AC
330
A7
100
AcDbEntity
  8
Calque 1
 62
   178
420
   131587
100
AcDbHatch
 10
0.0
 20
0.0
 30
0.0
210
0.0
220
0.0
230
1.0
  2
SOLID
 70
     1
 71
     0
 91
        1
 92
        1
 93
        1
 72
     4
 94
        3
 73
     0
 74
     1
 95
       17
 96
       13
 40
0.0
 40
0.0
 40
0.0
 40
0.0
 40
1.0
 40
1.0
 40
1.0
 40
2.0
 40
2.0
 40
2.0
 40
3.0
 40
3.0
 40
3.0
 40
4.0
 40
4.0
 40
4.0
 40
4.0
 10
2.337500042385525
 20
2.233333163791233
 10
2.433382882012261
 20
2.233333163791233
 10
2.511111153496636
 20
2.155604892306858
 10
2.511111153496636
 20
2.059722052680121
 10
2.511111153496636
 20
1.963839213053385
 10
2.433382882012261
 20
1.88611094156901
 10
2.337500042385525
 20
1.88611094156901
 10
2.241617202758789
 20
1.88611094156901
 10
2.163888931274414
 20
1.963839213053385
 10
2.163888931274414
 20
2.059722052680121
 10
2.163888931274414
 20
2.155604892306858
 10
2.241617202758789
 20
2.233333163791233
 10
2.337500042385525
 20
2.233333163791233
 97
        0
 97
        0
 75
     2
 76
     1
 98
        0
  0
SPLINE
  5
AD
330
A7
100
AcDbEntity
  8
Calque 1
370
     0
100
AcDbSpline
210
0.0
220
0.0
230
1.0
 70
    11
 71
     3
 72
    17
 73
    13
 74
     0
 42
0.0000000001
 43
0.0000000001
 12
1.0
 22
0.0
 32
0.0
 13
1.0
 23
0.0
 33
0.0
 40
0.0
 40
0.0
 40
0.0
 40
0.0
 40
1.0
 40
1.0
 40
1.0
 40
2.0
 40
2.0
 40
2.0
 40
3.0
 40
3.0
 40
3.0
 40
4.0
 40
4.0
 40
4.0
 40
4.0
 10
2.337500042385525
 20
2.129166497124566
 30
0.0
 10
2.375853220621745
 20
2.129166497124566
 30
0.0
 10
2.406944486829969
 20
2.098075018988715
 30
0.0
 10
2.406944486829969
 20
2.059722052680121
 30
0.0
 10
2.406944486829969
 20
2.021369086371528
 30
0.0
 10
2.375853220621745
 20
1.990277608235677
 30
0.0
 10
2.337500042385525
 20
1.990277608235677
 30
0.0
 10
2.299146864149305
 20
1.990277608235677
 30
0.0
 10
2.268055597941081
 20
2.021369086371528
 30
0.0
 10
2.268055597941081
 20
2.059722052680121
 30
0.0
 10
2.268055597941081
 20
2.098075018988715
 30
0.0
 10
2.299146864149305
 20
2.129166497124566
 30
0.0
 10
2.337500042385525
 20
2.129166497124566
 30
0.0
  0
SPLINE
  5
AE
330
A7
100
AcDbEntity
  8
Calque 1
370
     0
100
AcDbSpline
210
0.0
220
0.0
230
1.0
 70
    11
 71
     3
 72
    17
 73
    13
 74
     0
 42
0.0000000001
 43
0.0000000001
 12
1.0
 22
0.0
 32
0.0
 13
1.0
 23
0.0
 33
0.0
 40
0.0
 40
0.0
 40
0.0
 40
0.0
 40
1.0
 40
1.0
 40
1.0
 40
2.0
 40
2.0
 40
2.0
 40
3.0
 40
3.0
 40
3.0
 40
4.0
 40
4.0
 40
4.0
 40
4.0
 10
2.431944529215495
 20
2.013888888888889
 30
0.0
 10
2.448819902208116
 20
2.013888888888889
 30
0.0
 10
2.462500042385525
 20
2.000208536783854
 30
0.0
 10
2.462500042385525
 20
1.983333163791233
 30
0.0
 10
2.462500042385525
 20
1.966457790798611
 30
0.0
 10
2.448819902208116
 20
1.952777438693576
 30
0.0
 10
2.431944529215495
 20
1.952777438693576
 30
0.0
 10
2.415069156222873
 20
1.952777438693576
 30
0.0
 10
2.401389016045464
 20
1.966457790798611
 30
0.0
 10
2.401389016045464
 20
1.983333163791233
 30
0.0
 10
2.401389016045464
 20
2.000208536783854
 30
0.0
 10
2.415069156222873
 20
2.013888888888889
 30
0.0
 10
2.431944529215495
 20
2.013888888888889
 30
0.0
  0
ENDBLK
  5
AA
330
A7
100
AcDbEntity
  8
0
100
AcDbBlockEnd
  0
BLOCK
  5
B1
330
AF
100
AcDbEntity
  8
0
100
AcDbBlockBegin
  2
block 20
 70
     0
 10
0.0
 20
0.0
 30
0.0
  3
block 20
  1

  0
SPLINE
  5
B3
330
AF
100
AcDbEntity
  8
Calque 1
370
     0
100
AcDbSpline
210
0.0
220
0.0
230
1.0
 70
    11
 71
     3
 72
    14
 73
    10
 74
     0
 42
0.0000000001
 43
0.0000000001
 12
1.0
 22
0.0
 32
0.0
 13
1.0
 23
0.0
 33
0.0
 40
0.0
 40
0.0
 40
0.0
 40
0.0
 40
1.0
 40
1.0
 40
1.0
 40
2.0
 40
2.0
 40
2.0
 40
3.0
 40
3.0
 40
3.0
 40
3.0
 10
1.870833290947808
 20
1.451388888888889
 30
0.0
 10
1.870833290947808
 20
1.11250008477105
 30
0.0
 10
2.090277777777778
 20
1.097222222222222
 30
0.0
 10
2.094444486829969
 20
1.443055470784505
 30
0.0
 10
2.026389016045465
 20
1.520833333333333
 30
0.0
 10
2.008333418104383
 20
1.527777777777778
 30
0.0
 10
1.997222264607747
 20
1.580555386013455
 30
0.0
 10
1.980555640326606
 20
1.530555725097656
 30
0.0
 10
1.933333290947808
 20
1.476388719346788
 30
0.0
 10
1.870833290947808
 20
1.451388888888889
 30
0.0
  0
HATCH
  5
B4
330
AF
100
AcDbEntity
  8
Calque 1
 62
    24
420
 10692654
100
AcDbHatch
 10
0.0
 20
0.0
 30
0.0
210
0.0
220
0.0
230
1.0
  2
SOLID
 70
     1
 71
     0
 91
        1
 92
        1
 93
        1
 72
     4
 94
        3
 73
     0
 74
     1
 95
       14
 96
       10
 40
0.0
 40
0.0
 40
0.0
 40
0.0
 40
1.0
 40
1.0
 40
1.0
 40
2.0
 40
2.0
 40
2.0
 40
3.0
 40
3.0
 40
3.0
 40
3.0
 10
1.870833290947808
 20
1.451388888888889
 10
1.870833290947808
 20
1.11250008477105
 10
2.090277777777778
 20
1.097222222222222
 10
2.094444486829969
 20
1.443055470784505
 10
2.026389016045465
 20
1.520833333333333
 10
2.008333418104383
 20
1.527777777777778
 10
1.997222264607747
 20
1.580555386013455
 10
1.980555640326606
 20
1.530555725097656
 10
1.933333290947808
 20
1.476388719346788
 10
1.870833290947808
 20
1.451388888888889
 97
        0
 97
        0
 75
     2
 76
     1
 98
        0
  0
SPLINE
  5
B5
330
AF
100
AcDbEntity
  8
Calque 1
370
     0
100
AcDbSpline
210
0.0
220
0.0
230
1.0
 70
    11
 71
     3
 72
    74
 73
    70
 74
     0
 42
0.0000000001
 43
0.0000000001
 12
1.0
 22
0.0
 32
0.0
 13
1.0
 23
0.0
 33
0.0
 40
0.0
 40
0.0
 40
0.0
 40
0.0
 40
1.0
 40
1.0
 40
1.0
 40
2.0
 40
2.0
 40
2.0
 40
3.0
 40
3.0
 40
3.0
 40
4.0
 40
4.0
 40
4.0
 40
5.0
 40
5.0
 40
5.0
 40
6.0
 40
6.0
 40
6.0
 40
7.0
 40
7.0
 40
7.0
 40
8.0
 40
8.0
 40
8.0
 40
9.0
 40
9.0
 40
9.0
 40
10.0
 40
10.0
 40
10.0
 40
11.0
 40
11.0
 40
11.0
 40
12.0
 40
12.0
 40
12.0
 40
13.0
 40
13.0
 40
13.0
 40
14.0
 40
14.0
 40
14.0
 40
15.0
 40
15.0
 40
15.0
 40
16.0
 40
16.0
 40
16.0
 40
17.0
 40
17.0
 40
17.0
 40
18.0
 40
18.0
 40
18.0
 40
19.0
 40
19.0
 40
19.0
 40
20.0
 40
20.0
 40
20.0
 40
21.0
 40
21.0
 40
21.0
 40
22.0
 40
22.0
 40
22.0
 40
23.0
 40
23.0
 40
23.0
 40
23.0
 10
1.995833290947808
 20
1.523611280653212
 30
0.0
 10
1.994444317287869
 20
1.522222306993273
 30
0.0
 10
1.993055555555555
 20
1.520833333333333
 30
0.0
 10
1.991666581895616
 20
1.518055809868706
 30
0.0
 10
1.959722095065647
 20
1.466666751437717
 30
0.0
 10
1.911110983954535
 20
1.438888973659939
 30
0.0
 10
1.852777693006727
 20
1.429167005750868
 30
0.0
 10
1.811111026340061
 20
1.422222561306423
 30
0.0
 10
1.77083322736952
 20
1.427778032090929
 30
0.0
 10
1.733333269755045
 20
1.444444868299696
 30
0.0
 10
1.705555491977268
 20
1.456944783528646
 30
0.0
 10
1.687499894036187
 20
1.480556064181858
 30
0.0
 10
1.676388846503364
 20
1.506944868299696
 30
0.0
 10
1.669444402058919
 20
1.523611704508463
 30
0.0
 10
1.679166581895616
 20
1.540278116861979
 30
0.0
 10
1.695833312140571
 20
1.540278116861979
 30
0.0
 10
1.702777756585015
 20
1.540278116861979
 30
0.0
 10
1.709722201029459
 20
1.537500169542101
 30
0.0
 10
1.712499936421712
 20
1.530555725097656
 30
0.0
 10
1.731944402058919
 20
1.48888905843099
 30
0.0
 10
1.768055491977268
 20
1.472222222222222
 30
0.0
 10
1.8125
 20
1.472222222222222
 30
0.0
 10
1.865277820163303
 20
1.470833248562283
 30
0.0
 10
1.909722222222222
 20
1.48888905843099
 30
0.0
 10
1.943055470784505
 20
1.530555725097656
 30
0.0
 10
1.966666539510091
 20
1.559722476535373
 30
0.0
 10
1.973610983954535
 20
1.593055725097656
 30
0.0
 10
1.974999957614475
 20
1.629166920979818
 30
0.0
 10
1.974999957614475
 20
1.638889312744141
 30
0.0
 10
1.974999957614475
 20
1.650000254313151
 30
0.0
 10
1.977777693006727
 20
1.659722646077474
 30
0.0
 10
1.98055542839898
 20
1.670833587646484
 30
0.0
 10
1.990277608235677
 20
1.677778032090929
 30
0.0
 10
2.0
 20
1.675000508626302
 30
0.0
 10
2.008333418104383
 20
1.673611534966363
 30
0.0
 10
2.013888888888889
 20
1.666667090521918
 30
0.0
 10
2.015277862548828
 20
1.658333672417535
 30
0.0
 10
2.018055597941081
 20
1.645833757188585
 30
0.0
 10
2.01944457160102
 20
1.633333841959635
 30
0.0
 10
2.020833333333333
 20
1.620833502875434
 30
0.0
 10
2.023611068725586
 20
1.572222391764323
 30
0.0
 10
2.040277693006727
 20
1.531944698757595
 30
0.0
 10
2.073611153496636
 20
1.495833502875434
 30
0.0
 10
2.113888846503364
 20
1.452777862548828
 30
0.0
 10
2.176388846503364
 20
1.452777862548828
 30
0.0
 10
2.219444486829969
 20
1.483333587646484
 30
0.0
 10
2.238888846503364
 20
1.498611450195312
 30
0.0
 10
2.255555682712131
 20
1.516666836208767
 30
0.0
 10
2.268055597941081
 20
1.537500169542101
 30
0.0
 10
2.272222306993272
 20
1.544444613986545
 30
0.0
 10
2.277777777777778
 20
1.55138905843099
 30
0.0
 10
2.283333460489909
 20
1.558333502875434
 30
0.0
 10
2.2875001695421
 20
1.563888973659939
 30
0.0
 10
2.294444613986545
 20
1.566666920979818
 30
0.0
 10
2.301389058430989
 20
1.566666920979818
 30
0.0
 10
2.313888973659939
 20
1.566666920979818
 30
0.0
 10
2.323611365424262
 20
1.555555979410807
 30
0.0
 10
2.320833418104383
 20
1.543055640326606
 30
0.0
 10
2.319444444444444
 20
1.53888914320204
 30
0.0
 10
2.318055682712131
 20
1.534722222222222
 30
0.0
 10
2.315277947319878
 20
1.530555725097656
 30
0.0
 10
2.30000008477105
 20
1.505555894639757
 30
0.0
 10
2.283333460489909
 20
1.480555640326606
 30
0.0
 10
2.262500127156575
 20
1.459722306993273
 30
0.0
 10
2.204166836208767
 20
1.404166751437717
 30
0.0
 10
2.1000001695421
 20
1.395833333333333
 30
0.0
 10
2.036111195882161
 20
1.469444698757595
 30
0.0
 10
2.020833333333333
 20
1.48750008477105
 30
0.0
 10
2.009722179836697
 20
1.505555470784505
 30
0.0
 10
1.995833290947808
 20
1.523611280653212
 30
0.0
  0
HATCH
  5
B6
330
AF
100
AcDbEntity
  8
Calque 1
 62
     7
420
 16777215
100
AcDbHatch
 10
0.0
 20
0.0
 30
0.0
210
0.0
220
0.0
230
1.0
  2
SOLID
 70
     1
 71
     0
 91
        1
 92
        1
 93
        1
 72
     4
 94
        3
 73
     0
 74
     1
 95
       74
 96
       70
 40
0.0
 40
0.0
 40
0.0
 40
0.0
 40
1.0
 40
1.0
 40
1.0
 40
2.0
 40
2.0
 40
2.0
 40
3.0
 40
3.0
 40
3.0
 40
4.0
 40
4.0
 40
4.0
 40
5.0
 40
5.0
 40
5.0
 40
6.0
 40
6.0
 40
6.0
 40
7.0
 40
7.0
 40
7.0
 40
8.0
 40
8.0
 40
8.0
 40
9.0
 40
9.0
 40
9.0
 40
10.0
 40
10.0
 40
10.0
 40
11.0
 40
11.0
 40
11.0
 40
12.0
 40
12.0
 40
12.0
 40
13.0
 40
13.0
 40
13.0
 40
14.0
 40
14.0
 40
14.0
 40
15.0
 40
15.0
 40
15.0
 40
16.0
 40
16.0
 40
16.0
 40
17.0
 40
17.0
 40
17.0
 40
18.0
 40
18.0
 40
18.0
 40
19.0
 40
19.0
 40
19.0
 40
20.0
 40
20.0
 40
20.0
 40
21.0
 40
21.0
 40
21.0
 40
22.0
 40
22.0
 40
22.0
 40
23.0
 40
23.0
 40
23.0
 40
23.0
 10
1.995833290947808
 20
1.523611280653212
 10
1.994444317287869
 20
1.522222306993273
 10
1.993055555555555
 20
1.520833333333333
 10
1.991666581895616
 20
1.518055809868706
 10
1.959722095065647
 20
1.466666751437717
 10
1.911110983954535
 20
1.438888973659939
 10
1.852777693006727
 20
1.429167005750868
 10
1.811111026340061
 20
1.422222561306423
 10
1.77083322736952
 20
1.427778032090929
 10
1.733333269755045
 20
1.444444868299696
 10
1.705555491977268
 20
1.456944783528646
 10
1.687499894036187
 20
1.480556064181858
 10
1.676388846503364
 20
1.506944868299696
 10
1.669444402058919
 20
1.523611704508463
 10
1.679166581895616
 20
1.540278116861979
 10
1.695833312140571
 20
1.540278116861979
 10
1.702777756585015
 20
1.540278116861979
 10
1.709722201029459
 20
1.537500169542101
 10
1.712499936421712
 20
1.530555725097656
 10
1.731944402058919
 20
1.48888905843099
 10
1.768055491977268
 20
1.472222222222222
 10
1.8125
 20
1.472222222222222
 10
1.865277820163303
 20
1.470833248562283
 10
1.909722222222222
 20
1.48888905843099
 10
1.943055470784505
 20
1.530555725097656
 10
1.966666539510091
 20
1.559722476535373
 10
1.973610983954535
 20
1.593055725097656
 10
1.974999957614475
 20
1.629166920979818
 10
1.974999957614475
 20
1.638889312744141
 10
1.974999957614475
 20
1.650000254313151
 10
1.977777693006727
 20
1.659722646077474
 10
1.98055542839898
 20
1.670833587646484
 10
1.990277608235677
 20
1.677778032090929
 10
2.0
 20
1.675000508626302
 10
2.008333418104383
 20
1.673611534966363
 10
2.013888888888889
 20
1.666667090521918
 10
2.015277862548828
 20
1.658333672417535
 10
2.018055597941081
 20
1.645833757188585
 10
2.01944457160102
 20
1.633333841959635
 10
2.020833333333333
 20
1.620833502875434
 10
2.023611068725586
 20
1.572222391764323
 10
2.040277693006727
 20
1.531944698757595
 10
2.073611153496636
 20
1.495833502875434
 10
2.113888846503364
 20
1.452777862548828
 10
2.176388846503364
 20
1.452777862548828
 10
2.219444486829969
 20
1.483333587646484
 10
2.238888846503364
 20
1.498611450195312
 10
2.255555682712131
 20
1.516666836208767
 10
2.268055597941081
 20
1.537500169542101
 10
2.272222306993272
 20
1.544444613986545
 10
2.277777777777778
 20
1.55138905843099
 10
2.283333460489909
 20
1.558333502875434
 10
2.2875001695421
 20
1.563888973659939
 10
2.294444613986545
 20
1.566666920979818
 10
2.301389058430989
 20
1.566666920979818
 10
2.313888973659939
 20
1.566666920979818
 10
2.323611365424262
 20
1.555555979410807
 10
2.320833418104383
 20
1.543055640326606
 10
2.319444444444444
 20
1.53888914320204
 10
2.318055682712131
 20
1.534722222222222
 10
2.315277947319878
 20
1.530555725097656
 10
2.30000008477105
 20
1.505555894639757
 10
2.283333460489909
 20
1.480555640326606
 10
2.262500127156575
 20
1.459722306993273
 10
2.204166836208767
 20
1.404166751437717
 10
2.1000001695421
 20
1.395833333333333
 10
2.036111195882161
 20
1.469444698757595
 10
2.020833333333333
 20
1.48750008477105
 10
2.009722179836697
 20
1.505555470784505
 10
1.995833290947808
 20
1.523611280653212
 97
        0
 97
        0
 75
     2
 76
     1
 98
        0
  0
SPLINE
  5
B7
330
AF
100
AcDbEntity
  8
Calque 1
370
     0
100
AcDbSpline
210
0.0
220
0.0
230
1.0
 70
    11
 71
     3
 72
    47
 73
    43
 74
     0
 42
0.0000000001
 43
0.0000000001
 12
1.0
 22
0.0
 32
0.0
 13
1.0
 23
0.0
 33
0.0
 40
0.0
 40
0.0
 40
0.0
 40
0.0
 40
1.0
 40
1.0
 40
1.0
 40
2.0
 40
2.0
 40
2.0
 40
3.0
 40
3.0
 40
3.0
 40
4.0
 40
4.0
 40
4.0
 40
5.0
 40
5.0
 40
5.0
 40
6.0
 40
6.0
 40
6.0
 40
7.0
 40
7.0
 40
7.0
 40
8.0
 40
8.0
 40
8.0
 40
9.0
 40
9.0
 40
9.0
 40
10.0
 40
10.0
 40
10.0
 40
11.0
 40
11.0
 40
11.0
 40
12.0
 40
12.0
 40
12.0
 40
13.0
 40
13.0
 40
13.0
 40
14.0
 40
14.0
 40
14.0
 40
14.0
 10
1.976388931274414
 20
1.858333163791233
 30
0.0
 10
1.984722349378798
 20
1.870833079020182
 30
0.0
 10
1.991666793823242
 20
1.881944444444444
 30
0.0
 10
2.0
 20
1.893055386013455
 30
0.0
 10
2.016666624281141
 20
1.912499745686849
 30
0.0
 10
2.037499957614475
 20
1.924999660915798
 30
0.0
 10
2.0625
 20
1.927777608235677
 30
0.0
 10
2.083333333333333
 20
1.929166581895616
 30
0.0
 10
2.099999957614475
 20
1.922222137451172
 30
0.0
 10
2.113888846503364
 20
1.904166327582465
 30
0.0
 10
2.133333206176758
 20
1.877777523464627
 30
0.0
 10
2.13749991522895
 20
1.84861077202691
 30
0.0
 10
2.133333206176758
 20
1.818055046929253
 30
0.0
 10
2.126388761732313
 20
1.765277438693576
 30
0.0
 10
2.102777693006727
 20
1.719443851047092
 30
0.0
 10
2.068055470784505
 20
1.680555131700304
 30
0.0
 10
2.058333290947808
 20
1.669444190131293
 30
0.0
 10
2.045833163791233
 20
1.65972179836697
 30
0.0
 10
2.033333248562283
 20
1.651388380262587
 30
0.0
 10
2.015277650621202
 20
1.637499491373698
 30
0.0
 10
1.995833290947808
 20
1.638888465033637
 30
0.0
 10
1.974999957614475
 20
1.647221883138021
 30
0.0
 10
1.972222222222222
 20
1.64861085679796
 30
0.0
 10
1.969444486829969
 20
1.649999830457899
 30
0.0
 10
1.96805551317003
 20
1.651388380262587
 30
0.0
 10
1.913888931274414
 20
1.68472162882487
 30
0.0
 10
1.869444317287869
 20
1.727777269151476
 30
0.0
 10
1.844444486829969
 20
1.787499321831597
 30
0.0
 10
1.836111068725586
 20
1.80833265516493
 30
0.0
 10
1.830555597941081
 20
1.829165988498264
 30
0.0
 10
1.833333333333333
 20
1.851388295491536
 30
0.0
 10
1.834722306993273
 20
1.858332739935981
 30
0.0
 10
1.834722306993273
 20
1.865277184380425
 30
0.0
 10
1.837500042385525
 20
1.87083265516493
 30
0.0
 10
1.851388931274414
 20
1.912499321831597
 30
0.0
 10
1.891666624281141
 20
1.927777184380425
 30
0.0
 10
1.930555555555555
 20
1.906943851047092
 30
0.0
 10
1.943055470784505
 20
1.899999406602648
 30
0.0
 10
1.952777862548828
 20
1.891665988498264
 30
0.0
 10
1.961111068725586
 20
1.880555046929253
 30
0.0
 10
1.965277777777778
 20
1.872222052680121
 30
0.0
 10
1.970833248562283
 20
1.865277608235677
 30
0.0
 10
1.976388931274414
 20
1.858333163791233
 30
0.0
  0
HATCH
  5
B8
330
AF
100
AcDbEntity
  8
Calque 1
 62
    24
420
 10692654
100
AcDbHatch
 10
0.0
 20
0.0
 30
0.0
210
0.0
220
0.0
230
1.0
  2
SOLID
 70
     1
 71
     0
 91
        1
 92
        1
 93
        1
 72
     4
 94
        3
 73
     0
 74
     1
 95
       47
 96
       43
 40
0.0
 40
0.0
 40
0.0
 40
0.0
 40
1.0
 40
1.0
 40
1.0
 40
2.0
 40
2.0
 40
2.0
 40
3.0
 40
3.0
 40
3.0
 40
4.0
 40
4.0
 40
4.0
 40
5.0
 40
5.0
 40
5.0
 40
6.0
 40
6.0
 40
6.0
 40
7.0
 40
7.0
 40
7.0
 40
8.0
 40
8.0
 40
8.0
 40
9.0
 40
9.0
 40
9.0
 40
10.0
 40
10.0
 40
10.0
 40
11.0
 40
11.0
 40
11.0
 40
12.0
 40
12.0
 40
12.0
 40
13.0
 40
13.0
 40
13.0
 40
14.0
 40
14.0
 40
14.0
 40
14.0
 10
1.976388931274414
 20
1.858333163791233
 10
1.984722349378798
 20
1.870833079020182
 10
1.991666793823242
 20
1.881944444444444
 10
2.0
 20
1.893055386013455
 10
2.016666624281141
 20
1.912499745686849
 10
2.037499957614475
 20
1.924999660915798
 10
2.0625
 20
1.927777608235677
 10
2.083333333333333
 20
1.929166581895616
 10
2.099999957614475
 20
1.922222137451172
 10
2.113888846503364
 20
1.904166327582465
 10
2.133333206176758
 20
1.877777523464627
 10
2.13749991522895
 20
1.84861077202691
 10
2.133333206176758
 20
1.818055046929253
 10
2.126388761732313
 20
1.765277438693576
 10
2.102777693006727
 20
1.719443851047092
 10
2.068055470784505
 20
1.680555131700304
 10
2.058333290947808
 20
1.669444190131293
 10
2.045833163791233
 20
1.65972179836697
 10
2.033333248562283
 20
1.651388380262587
 10
2.015277650621202
 20
1.637499491373698
 10
1.995833290947808
 20
1.638888465033637
 10
1.974999957614475
 20
1.647221883138021
 10
1.972222222222222
 20
1.64861085679796
 10
1.969444486829969
 20
1.649999830457899
 10
1.96805551317003
 20
1.651388380262587
 10
1.913888931274414
 20
1.68472162882487
 10
1.869444317287869
 20
1.727777269151476
 10
1.844444486829969
 20
1.787499321831597
 10
1.836111068725586
 20
1.80833265516493
 10
1.830555597941081
 20
1.829165988498264
 10
1.833333333333333
 20
1.851388295491536
 10
1.834722306993273
 20
1.858332739935981
 10
1.834722306993273
 20
1.865277184380425
 10
1.837500042385525
 20
1.87083265516493
 10
1.851388931274414
 20
1.912499321831597
 10
1.891666624281141
 20
1.927777184380425
 10
1.930555555555555
 20
1.906943851047092
 10
1.943055470784505
 20
1.899999406602648
 10
1.952777862548828
 20
1.891665988498264
 10
1.961111068725586
 20
1.880555046929253
 10
1.965277777777778
 20
1.872222052680121
 10
1.970833248562283
 20
1.865277608235677
 10
1.976388931274414
 20
1.858333163791233
 97
        0
 97
        0
 75
     2
 76
     1
 98
        0
  0
ENDBLK
  5
B2
330
AF
100
AcDbEntity
  8
0
100
AcDbBlockEnd
  0
BLOCK
  5
BB
330
B9
100
AcDbEntity
  8
0
100
AcDbBlockBegin
  2
block 21
 70
     0
 10
0.0
 20
0.0
 30
0.0
  3
block 21
  1

  0
SPLINE
  5
BD
330
B9
100
AcDbEntity
  8
Calque 1
370
     0
100
AcDbSpline
210
0.0
220
0.0
230
1.0
 70
    11
 71
     3
 72
    23
 73
    19
 74
     0
 42
0.0000000001
 43
0.0000000001
 12
1.0
 22
0.0
 32
0.0
 13
1.0
 23
0.0
 33
0.0
 40
0.0
 40
0.0
 40
0.0
 40
0.0
 40
1.0
 40
1.0
 40
1.0
 40
2.0
 40
2.0
 40
2.0
 40
3.0
 40
3.0
 40
3.0
 40
4.0
 40
4.0
 40
4.0
 40
5.0
 40
5.0
 40
5.0
 40
6.0
 40
6.0
 40
6.0
 40
6.0
 10
1.536111089918349
 20
2.690277735392252
 30
0.0
 10
1.455555491977268
 20
2.801388846503364
 30
0.0
 10
1.344444380866157
 20
2.911110983954535
 30
0.0
 10
1.275000042385525
 20
2.911110983954535
 30
0.0
 10
1.204166730244954
 20
2.911110983954535
 30
0.0
 10
0.9888889524671766
 20
2.748611026340061
 30
0.0
 10
0.9055556191338433
 20
2.552777608235677
 30
0.0
 10
0.8222222858005099
 20
2.355555216471354
 30
0.0
 10
0.805555608537462
 20
2.286110772026909
 30
0.0
 10
0.868055608537462
 20
2.258332994249132
 30
0.0
 10
0.9541667302449544
 20
2.220832824707031
 30
0.0
 10
1.216666751437717
 20
2.705555174085829
 30
0.0
 10
1.294444508022732
 20
2.738888634575738
 30
0.0
 10
1.375000105963813
 20
2.772221883138021
 30
0.0
 10
1.502777841356066
 20
2.649999830457899
 30
0.0
 10
1.502777841356066
 20
2.649999830457899
 30
0.0
 10
1.502777841356066
 20
2.649999830457899
 30
0.0
 10
1.536111089918349
 20
2.690277735392252
 30
0.0
 10
1.536111089918349
 20
2.690277735392252
 30
0.0
  0
HATCH
  5
BE
330
B9
100
AcDbEntity
  8
Calque 1
 62
   252
420
 10061429
100
AcDbHatch
 10
0.0
 20
0.0
 30
0.0
210
0.0
220
0.0
230
1.0
  2
SOLID
 70
     1
 71
     0
 91
        1
 92
        1
 93
        1
 72
     4
 94
        3
 73
     0
 74
     1
 95
       23
 96
       19
 40
0.0
 40
0.0
 40
0.0
 40
0.0
 40
1.0
 40
1.0
 40
1.0
 40
2.0
 40
2.0
 40
2.0
 40
3.0
 40
3.0
 40
3.0
 40
4.0
 40
4.0
 40
4.0
 40
5.0
 40
5.0
 40
5.0
 40
6.0
 40
6.0
 40
6.0
 40
6.0
 10
1.536111089918349
 20
2.690277735392252
 10
1.455555491977268
 20
2.801388846503364
 10
1.344444380866157
 20
2.911110983954535
 10
1.275000042385525
 20
2.911110983954535
 10
1.204166730244954
 20
2.911110983954535
 10
0.9888889524671766
 20
2.748611026340061
 10
0.9055556191338433
 20
2.552777608235677
 10
0.8222222858005099
 20
2.355555216471354
 10
0.805555608537462
 20
2.286110772026909
 10
0.868055608537462
 20
2.258332994249132
 10
0.9541667302449544
 20
2.220832824707031
 10
1.216666751437717
 20
2.705555174085829
 10
1.294444508022732
 20
2.738888634575738
 10
1.375000105963813
 20
2.772221883138021
 10
1.502777841356066
 20
2.649999830457899
 10
1.502777841356066
 20
2.649999830457899
 10
1.502777841356066
 20
2.649999830457899
 10
1.536111089918349
 20
2.690277735392252
 10
1.536111089918349
 20
2.690277735392252
 97
        0
 97
        0
 75
     2
 76
     1
 98
        0
  0
SPLINE
  5
BF
330
B9
100
AcDbEntity
  8
Calque 1
370
     0
100
AcDbSpline
210
0.0
220
0.0
230
1.0
 70
    11
 71
     3
 72
    23
 73
    19
 74
     0
 42
0.0000000001
 43
0.0000000001
 12
1.0
 22
0.0
 32
0.0
 13
1.0
 23
0.0
 33
0.0
 40
0.0
 40
0.0
 40
0.0
 40
0.0
 40
1.0
 40
1.0
 40
1.0
 40
2.0
 40
2.0
 40
2.0
 40
3.0
 40
3.0
 40
3.0
 40
4.0
 40
4.0
 40
4.0
 40
5.0
 40
5.0
 40
5.0
 40
6.0
 40
6.0
 40
6.0
 40
6.0
 10
2.406944486829969
 20
2.73750008477105
 30
0.0
 10
2.493055555555555
 20
2.844444486829969
 30
0.0
 10
2.609722349378798
 20
2.948611153496636
 30
0.0
 10
2.679166793823242
 20
2.944444444444444
 30
0.0
 10
2.748611238267686
 20
2.940277735392252
 30
0.0
 10
2.95694457160102
 20
2.768055597941081
 30
0.0
 10
3.030555725097656
 20
2.566666709052192
 30
0.0
 10
3.104166878594292
 20
2.365277608235677
 30
0.0
 10
3.116666793823242
 20
2.294444613986545
 30
0.0
 10
3.052778032090929
 20
2.270833333333333
 30
0.0
 10
2.965277989705403
 20
2.23750008477105
 30
0.0
 10
2.727778116861979
 20
2.736111111111111
 30
0.0
 10
2.65138922797309
 20
2.772222306993272
 30
0.0
 10
2.572222603691948
 20
2.809722264607747
 30
0.0
 10
2.438889185587565
 20
2.694444444444444
 30
0.0
 10
2.438889185587565
 20
2.694444444444444
 30
0.0
 10
2.438889185587565
 20
2.694444444444444
 30
0.0
 10
2.406944486829969
 20
2.73750008477105
 30
0.0
 10
2.406944486829969
 20
2.73750008477105
 30
0.0
  0
HATCH
  5
C0
330
B9
100
AcDbEntity
  8
Calque 1
 62
   252
420
 10061429
100
AcDbHatch
 10
0.0
 20
0.0
 30
0.0
210
0.0
220
0.0
230
1.0
  2
SOLID
 70
     1
 71
     0
 91
        1
 92
        1
 93
        1
 72
     4
 94
        3
 73
     0
 74
     1
 95
       23
 96
       19
 40
0.0
 40
0.0
 40
0.0
 40
0.0
 40
1.0
 40
1.0
 40
1.0
 40
2.0
 40
2.0
 40
2.0
 40
3.0
 40
3.0
 40
3.0
 40
4.0
 40
4.0
 40
4.0
 40
5.0
 40
5.0
 40
5.0
 40
6.0
 40
6.0
 40
6.0
 40
6.0
 10
2.406944486829969
 20
2.73750008477105
 10
2.493055555555555
 20
2.844444486829969
 10
2.609722349378798
 20
2.948611153496636
 10
2.679166793823242
 20
2.944444444444444
 10
2.748611238267686
 20
2.940277735392252
 10
2.95694457160102
 20
2.768055597941081
 10
3.030555725097656
 20
2.566666709052192
 10
3.104166878594292
 20
2.365277608235677
 10
3.116666793823242
 20
2.294444613986545
 10
3.052778032090929
 20
2.270833333333333
 10
2.965277989705403
 20
2.23750008477105
 10
2.727778116861979
 20
2.736111111111111
 10
2.65138922797309
 20
2.772222306993272
 10
2.572222603691948
 20
2.809722264607747
 10
2.438889185587565
 20
2.694444444444444
 10
2.438889185587565
 20
2.694444444444444
 10
2.438889185587565
 20
2.694444444444444
 10
2.406944486829969
 20
2.73750008477105
 10
2.406944486829969
 20
2.73750008477105
 97
        0
 97
        0
 75
     2
 76
     1
 98
        0
  0
ENDBLK
  5
BC
330
B9
100
AcDbEntity
  8
0
100
AcDbBlockEnd
  0
ENDSEC
  0
SECTION
  2
ENTITIES
  0
INSERT
  5
42
330
1F
100
AcDbEntity
  8
Calque 1
100
AcDbBlockReference
  2
block 2
 10
0.0
 20
0.0
 30
0.0
  0
ENDSEC
  0
SECTION
  2
OBJECTS
  0
DICTIONARY
  5
C
330
0
100
AcDbDictionary
281
     1
  3
ACAD_GROUP
350
D
  3
ACAD_LAYOUT
350
1A
  3
ACAD_MATERIAL
350
3B
  3
ACAD_MLEADERSTYLE
350
C2
  3
ACAD_MLINESTYLE
350
17
  3
ACAD_PLOTSETTINGS
350
19
  3
ACAD_PLOTSTYLENAME
350
E
  3
ACAD_TABLESTYLE
350
C1
  3
ACAD_VISUALSTYLE
350
2A
  0
SUN
  5
3F
330
29
100
AcDbSun
 90
        1
290
     0
 63
     7
421
 16777215
 40
1.0
291
     1
 91
  2455826
 92
 54000000
292
     0
 70
     2
 71
   256
280
     1
  0
DICTIONARY
  5
D
102
{ACAD_REACTORS
330
C
102
}
330
C
100
AcDbDictionary
281
     1
  0
DICTIONARY
  5
1A
102
{ACAD_REACTORS
330
C
102
}
330
C
100
AcDbDictionary
281
     1
  3
Layout1
350
1E
  3
Layout2
350
26
  3
Model
350
22
  0
DICTIONARY
  5
3B
102
{ACAD_REACTORS
330
C
102
}
330
C
100
AcDbDictionary
281
     1
  3
ByBlock
350
3D
  3
ByLayer
350
3C
  3
Global
350
3E
  0
DICTIONARY
  5
C2
102
{ACAD_REACTORS
330
C
102
}
330
C
100
AcDbDictionary
281
     1
  0
DICTIONARY
  5
17
102
{ACAD_REACTORS
330
C
102
}
330
C
100
AcDbDictionary
281
     1
  3
Standard
350
18
  0
DICTIONARY
  5
19
102
{ACAD_REACTORS
330
C
102
}
330
C
100
AcDbDictionary
281
     1
  0
ACDBDICTIONARYWDFLT
  5
E
102
{ACAD_REACTORS
330
C
102
}
330
C
100
AcDbDictionary
281
     1
  3
Normal
350
F
100
AcDbDictionaryWithDefault
340
F
  0
DICTIONARY
  5
C1
102
{ACAD_REACTORS
330
C
102
}
330
C
100
AcDbDictionary
281
     1
  0
DICTIONARY
  5
2A
102
{ACAD_REACTORS
330
C
102
}
330
C
100
AcDbDictionary
281
     1
  3
2dWireframe
350
2F
  3
3D Hidden
350
31
  3
3dWireframe
350
30
  3
Basic
350
32
  3
Brighten
350
36
  3
ColorChange
350
3A
  3
Conceptual
350
34
  3
Dim
350
35
  3
Facepattern
350
39
  3
Flat
350
2B
  3
FlatWithEdges
350
2C
  3
Gouraud
350
2D
  3
GouraudWithEdges
350
2E
  3
Linepattern
350
38
  3
Realistic
350
33
  3
Thicken
350
37
  0
LAYOUT
  5
1E
102
{ACAD_REACTORS
330
1A
102
}
330
1A
100
AcDbPlotSettings
  1

  2
none_device
  4

  6

 40
0.0
 41
0.0
 42
0.0
 43
0.0
 44
0.0
 45
0.0
 46
0.0
 47
0.0
 48
0.0
 49
0.0
140
0.0
141
0.0
142
1.0
143
1.0
 70
   688
 72
     0
 73
     0
 74
     5
  7

 75
    16
 76
     0
 77
     2
 78
   300
147
1.0
148
0.0
149
0.0
100
AcDbLayout
  1
Layout1
 70
     1
 71
     1
 10
0.0
 20
0.0
 11
12.0
 21
9.0
 12
0.0
 22
0.0
 32
0.0
 14
1.000000000000000E+20
 24
1.000000000000000E+20
 34
1.000000000000000E+20
 15
-1.000000000000000E+20
 25
-1.000000000000000E+20
 35
-1.000000000000000E+20
146
0.0
 13
0.0
 23
0.0
 33
0.0
 16
1.0
 26
0.0
 36
0.0
 17
0.0
 27
1.0
 37
0.0
 76
     0
330
1B
  0
LAYOUT
  5
26
102
{ACAD_REACTORS
330
1A
102
}
330
1A
100
AcDbPlotSettings
  1

  2
none_device
  4

  6

 40
0.0
 41
0.0
 42
0.0
 43
0.0
 44
0.0
 45
0.0
 46
0.0
 47
0.0
 48
0.0
 49
0.0
140
0.0
141
0.0
142
1.0
143
1.0
 70
   688
 72
     0
 73
     0
 74
     5
  7

 75
    16
 76
     0
 77
     2
 78
   300
147
1.0
148
0.0
149
0.0
100
AcDbLayout
  1
Layout2
 70
     1
 71
     2
 10
0.0
 20
0.0
 11
0.0
 21
0.0
 12
0.0
 22
0.0
 32
0.0
 14
0.0
 24
0.0
 34
0.0
 15
0.0
 25
0.0
 35
0.0
146
0.0
 13
0.0
 23
0.0
 33
0.0
 16
1.0
 26
0.0
 36
0.0
 17
0.0
 27
1.0
 37
0.0
 76
     0
330
23
  0
LAYOUT
  5
22
102
{ACAD_REACTORS
330
1A
102
}
330
1A
100
AcDbPlotSettings
  1

  2
none_device
  4

  6

 40
0.0
 41
0.0
 42
0.0
 43
0.0
 44
0.0
 45
0.0
 46
0.0
 47
0.0
 48
0.0
 49
0.0
140
0.0
141
0.0
142
1.0
143
1.0
 70
  1712
 72
     0
 73
     0
 74
     0
  7

 75
     0
 76
     0
 77
     2
 78
   300
147
1.0
148
0.0
149
0.0
100
AcDbLayout
  1
Model
 70
     1
 71
     0
 10
0.0
 20
0.0
 11
12.0
 21
9.0
 12
0.0
 22
0.0
 32
0.0
 14
1.000000000000000E+20
 24
1.000000000000000E+20
 34
1.000000000000000E+20
 15
-1.000000000000000E+20
 25
-1.000000000000000E+20
 35
-1.000000000000000E+20
146
0.0
 13
0.0
 23
0.0
 33
0.0
 16
1.0
 26
0.0
 36
0.0
 17
0.0
 27
1.0
 37
0.0
 76
     0
330
1F
331
29
  0
MATERIAL
  5
3D
102
{ACAD_REACTORS
330
3B
102
}
330
3B
100
AcDbMaterial
  1
ByBlock
 72
     1
 94
      127
  0
MATERIAL
  5
3C
102
{ACAD_REACTORS
330
3B
102
}
330
3B
100
AcDbMaterial
  1
ByLayer
 72
     1
 94
      127
  0
MATERIAL
  5
3E
102
{ACAD_REACTORS
330
3B
102
}
330
3B
100
AcDbMaterial
  1
Global
 72
     1
 94
      127
  0
MLINESTYLE
  5
18
102
{ACAD_REACTORS
330
17
102
}
330
17
100
AcDbMlineStyle
  2
Standard
 70
     0
  3

 62
   256
 51
90.0
 52
90.0
 71
     2
 49
0.5
 62
   256
  6
BYLAYER
 49
-0.5
 62
   256
  6
BYLAYER
  0
ACDBPLACEHOLDER
  5
F
102
{ACAD_REACTORS
330
E
102
}
330
E
  0
VISUALSTYLE
  5
2F
102
{ACAD_REACTORS
330
2A
102
}
330
2A
100
AcDbVisualStyle
  2
2dWireframe
 70
     4
177
     2
291
     0
 71
     0
176
     1
 72
     2
176
     1
 73
     0
176
     1
 90
        0
176
     1
 40
-0.6
176
     1
 41
-30.0
176
     1
 62
     5
 63
     7
421
 16777215
176
     1
 74
     1
176
     1
 91
        4
176
     1
 64
     7
176
     1
 65
   257
176
     1
 75
     1
176
     1
175
     1
176
     1
 42
1.0
176
     1
 92
        0
176
     1
 66
   257
176
     1
 43
1.0
176
     1
 76
     1
176
     1
 77
     6
176
     1
 78
     2
176
     1
 67
     7
176
     1
 79
     5
176
     1
170
     0
176
     1
171
     0
176
     1
290
     0
176
     1
 93
        1
176
     1
 44
0.0
176
     1
173
     0
176
     1
  0
VISUALSTYLE
  5
31
102
{ACAD_REACTORS
330
2A
102
}
330
2A
100
AcDbVisualStyle
  2
3D Hidden
 70
     6
177
     2
291
     0
 71
     1
176
     1
 72
     2
176
     1
 73
     2
176
     1
 90
        0
176
     1
 40
-0.6
176
     1
 41
-30.0
176
     1
 62
     5
 63
     7
421
 16777215
176
     1
 74
     2
176
     1
 91
        2
176
     1
 64
     7
176
     1
 65
   257
176
     1
 75
     2
176
     1
175
     1
176
     1
 42
40.0
176
     1
 92
        0
176
     1
 66
   257
176
     1
 43
1.0
176
     1
 76
     1
176
     1
 77
     6
176
     1
 78
     2
176
     1
 67
     7
176
     1
 79
     3
176
     1
170
     0
176
     1
171
     0
176
     1
290
     0
176
     1
 93
        1
176
     1
 44
0.0
176
     1
173
     0
176
     1
  0
VISUALSTYLE
  5
30
102
{ACAD_REACTORS
330
2A
102
}
330
2A
100
AcDbVisualStyle
  2
3dWireframe
 70
     5
177
     2
291
     0
 71
     0
176
     1
 72
     2
176
     1
 73
     0
176
     1
 90
        0
176
     1
 40
-0.6
176
     1
 41
-30.0
176
     1
 62
     5
 63
     7
421
 16777215
176
     1
 74
     1
176
     1
 91
        4
176
     1
 64
     7
176
     1
 65
   257
176
     1
 75
     1
176
     1
175
     1
176
     1
 42
1.0
176
     1
 92
        0
176
     1
 66
   257
176
     1
 43
1.0
176
     1
 76
     1
176
     1
 77
     6
176
     1
 78
     2
176
     1
 67
     7
176
     1
 79
     5
176
     1
170
     0
176
     1
171
     0
176
     1
290
     0
176
     1
 93
        1
176
     1
 44
0.0
176
     1
173
     0
176
     1
  0
VISUALSTYLE
  5
32
102
{ACAD_REACTORS
330
2A
102
}
330
2A
100
AcDbVisualStyle
  2
Basic
 70
     7
177
     2
291
     1
 71
     1
176
     1
 72
     0
176
     1
 73
     1
176
     1
 90
        0
176
     1
 40
-0.6
176
     1
 41
-30.0
176
     1
 62
     5
 63
     7
421
 16777215
176
     1
 74
     0
176
     1
 91
        4
176
     1
 64
     7
176
     1
 65
   257
176
     1
 75
     1
176
     1
175
     1
176
     1
 42
1.0
176
     1
 92
        8
176
     1
 66
     7
176
     1
 43
1.0
176
     1
 76
     1
176
     1
 77
     6
176
     1
 78
     2
176
     1
 67
     7
176
     1
 79
     5
176
     1
170
     0
176
     1
171
     0
176
     1
290
     0
176
     1
 93
        1
176
     1
 44
0.0
176
     1
173
     0
176
     1
  0
VISUALSTYLE
  5
36
102
{ACAD_REACTORS
330
2A
102
}
330
2A
100
AcDbVisualStyle
  2
Brighten
 70
    12
177
     2
291
     1
 71
     2
176
     1
 72
     2
176
     1
 73
     0
176
     1
 90
        0
176
     1
 40
-0.6
176
     1
 41
-30.0
176
     1
 62
     5
 63
     7
421
 16777215
176
     1
 74
     1
176
     1
 91
        4
176
     1
 64
     7
176
     1
 65
   257
176
     1
 75
     1
176
     1
175
     1
176
     1
 42
1.0
176
     1
 92
        8
176
     1
 66
     7
176
     1
 43
1.0
176
     1
 76
     1
176
     1
 77
     6
176
     1
 78
     2
176
     1
 67
     7
176
     1
 79
     5
176
     1
170
     0
176
     1
171
     0
176
     1
290
     0
176
     1
 93
        1
176
     1
 44
50.0
176
     1
173
     0
176
     1
  0
VISUALSTYLE
  5
3A
102
{ACAD_REACTORS
330
2A
102
}
330
2A
100
AcDbVisualStyle
  2
ColorChange
 70
    16
177
     2
291
     1
 71
     2
176
     1
 72
     2
176
     1
 73
     3
176
     1
 90
        0
176
     1
 40
-0.6
176
     1
 41
-30.0
176
     1
 62
     5
 63
     8
421
  8421504
176
     1
 74
     1
176
     1
 91
        4
176
     1
 64
     7
176
     1
 65
   257
176
     1
 75
     1
176
     1
175
     1
176
     1
 42
1.0
176
     1
 92
        8
176
     1
 66
     8
424
  8421504
176
     1
 43
1.0
176
     1
 76
     1
176
     1
 77
     6
176
     1
 78
     2
176
     1
 67
     7
176
     1
 79
     5
176
     1
170
     0
176
     1
171
     0
176
     1
290
     0
176
     1
 93
        1
176
     1
 44
0.0
176
     1
173
     0
176
     1
  0
VISUALSTYLE
  5
34
102
{ACAD_REACTORS
330
2A
102
}
330
2A
100
AcDbVisualStyle
  2
Conceptual
 70
     9
177
     2
291
     0
 71
     3
176
     1
 72
     2
176
     1
 73
     0
176
     1
 90
        0
176
     1
 40
-0.6
176
     1
 41
-30.0
176
     1
 62
     5
 63
     7
421
 16777215
176
     1
 74
     2
176
     1
 91
        2
176
     1
 64
     7
176
     1
 65
   257
176
     1
 75
     1
176
     1
175
     1
176
     1
 42
40.0
176
     1
 92
        8
176
     1
 66
     7
176
     1
 43
1.0
176
     1
 76
     1
176
     1
 77
     6
176
     1
 78
     2
176
     1
 67
     7
176
     1
 79
     3
176
     1
170
     0
176
     1
171
     0
176
     1
290
     0
176
     1
 93
        1
176
     1
 44
0.0
176
     1
173
     0
176
     1
  0
VISUALSTYLE
  5
35
102
{ACAD_REACTORS
330
2A
102
}
330
2A
100
AcDbVisualStyle
  2
Dim
 70
    11
177
     2
291
     1
 71
     2
176
     1
 72
     2
176
     1
 73
     0
176
     1
 90
        0
176
     1
 40
-0.6
176
     1
 41
-30.0
176
     1
 62
     5
 63
     7
421
 16777215
176
     1
 74
     1
176
     1
 91
        4
176
     1
 64
     7
176
     1
 65
   257
176
     1
 75
     1
176
     1
175
     1
176
     1
 42
1.0
176
     1
 92
        8
176
     1
 66
     7
176
     1
 43
1.0
176
     1
 76
     1
176
     1
 77
     6
176
     1
 78
     2
176
     1
 67
     7
176
     1
 79
     5
176
     1
170
     0
176
     1
171
     0
176
     1
290
     0
176
     1
 93
        1
176
     1
 44
-50.0
176
     1
173
     0
176
     1
  0
VISUALSTYLE
  5
39
102
{ACAD_REACTORS
330
2A
102
}
330
2A
100
AcDbVisualStyle
  2
Facepattern
 70
    15
177
     2
291
     1
 71
     2
176
     1
 72
     2
176
     1
 73
     0
176
     1
 90
        0
176
     1
 40
-0.6
176
     1
 41
-30.0
176
     1
 62
     5
 63
     7
421
 16777215
176
     1
 74
     1
176
     1
 91
        4
176
     1
 64
     7
176
     1
 65
   257
176
     1
 75
     1
176
     1
175
     1
176
     1
 42
1.0
176
     1
 92
        8
176
     1
 66
     7
176
     1
 43
1.0
176
     1
 76
     1
176
     1
 77
     6
176
     1
 78
     2
176
     1
 67
     7
176
     1
 79
     5
176
     1
170
     0
176
     1
171
     0
176
     1
290
     0
176
     1
 93
        1
176
     1
 44
0.0
176
     1
173
     0
176
     1
  0
VISUALSTYLE
  5
2B
102
{ACAD_REACTORS
330
2A
102
}
330
2A
100
AcDbVisualStyle
  2
Flat
 70
     0
177
     2
291
     1
 71
     2
176
     1
 72
     1
176
     1
 73
     1
176
     1
 90
        2
176
     1
 40
-0.6
176
     1
 41
30.0
176
     1
 62
     5
 63
     7
421
 16777215
176
     1
 74
     0
176
     1
 91
        4
176
     1
 64
     7
176
     1
 65
   257
176
     1
 75
     1
176
     1
175
     1
176
     1
 42
1.0
176
     1
 92
        8
176
     1
 66
     7
176
     1
 43
1.0
176
     1
 76
     1
176
     1
 77
     6
176
     1
 78
     2
176
     1
 67
     7
176
     1
 79
     5
176
     1
170
     0
176
     1
171
     0
176
     1
290
     0
176
     1
 93
       13
176
     1
 44
0.0
176
     1
173
     0
176
     1
  0
VISUALSTYLE
  5
2C
102
{ACAD_REACTORS
330
2A
102
}
330
2A
100
AcDbVisualStyle
  2
FlatWithEdges
 70
     1
177
     2
291
     1
 71
     2
176
     1
 72
     1
176
     1
 73
     1
176
     1
 90
        2
176
     1
 40
-0.6
176
     1
 41
30.0
176
     1
 62
     5
 63
     7
421
 16777215
176
     1
 74
     1
176
     1
 91
        4
176
     1
 64
     7
176
     1
 65
   257
176
     1
 75
     1
176
     1
175
     1
176
     1
 42
1.0
176
     1
 92
        0
176
     1
 66
   257
176
     1
 43
1.0
176
     1
 76
     1
176
     1
 77
     6
176
     1
 78
     2
176
     1
 67
     7
176
     1
 79
     5
176
     1
170
     0
176
     1
171
     0
176
     1
290
     0
176
     1
 93
       13
176
     1
 44
0.0
176
     1
173
     0
176
     1
  0
VISUALSTYLE
  5
2D
102
{ACAD_REACTORS
330
2A
102
}
330
2A
100
AcDbVisualStyle
  2
Gouraud
 70
     2
177
     2
291
     1
 71
     2
176
     1
 72
     2
176
     1
 73
     1
176
     1
 90
        2
176
     1
 40
-0.6
176
     1
 41
30.0
176
     1
 62
     5
 63
     7
421
 16777215
176
     1
 74
     0
176
     1
 91
        4
176
     1
 64
     7
176
     1
 65
   257
176
     1
 75
     1
176
     1
175
     1
176
     1
 42
1.0
176
     1
 92
        0
176
     1
 66
     7
176
     1
 43
1.0
176
     1
 76
     1
176
     1
 77
     6
176
     1
 78
     2
176
     1
 67
     7
176
     1
 79
     5
176
     1
170
     0
176
     1
171
     0
176
     1
290
     0
176
     1
 93
       13
176
     1
 44
0.0
176
     1
173
     0
176
     1
  0
VISUALSTYLE
  5
2E
102
{ACAD_REACTORS
330
2A
102
}
330
2A
100
AcDbVisualStyle
  2
GouraudWithEdges
 70
     3
177
     2
291
     1
 71
     2
176
     1
 72
     2
176
     1
 73
     1
176
     1
 90
        2
176
     1
 40
-0.6
176
     1
 41
30.0
176
     1
 62
     5
 63
     7
421
 16777215
176
     1
 74
     1
176
     1
 91
        4
176
     1
 64
     7
176
     1
 65
   257
176
     1
 75
     1
176
     1
175
     1
176
     1
 42
1.0
176
     1
 92
        0
176
     1
 66
   257
176
     1
 43
1.0
176
     1
 76
     1
176
     1
 77
     6
176
     1
 78
     2
176
     1
 67
     7
176
     1
 79
     5
176
     1
170
     0
176
     1
171
     0
176
     1
290
     0
176
     1
 93
       13
176
     1
 44
0.0
176
     1
173
     0
176
     1
  0
VISUALSTYLE
  5
38
102
{ACAD_REACTORS
330
2A
102
}
330
2A
100
AcDbVisualStyle
  2
Linepattern
 70
    14
177
     2
291
     1
 71
     2
176
     1
 72
     2
176
     1
 73
     0
176
     1
 90
        0
176
     1
 40
-0.6
176
     1
 41
-30.0
176
     1
 62
     5
 63
     7
421
 16777215
176
     1
 74
     1
176
     1
 91
        4
176
     1
 64
     7
176
     1
 65
   257
176
     1
 75
     7
176
     1
175
     7
176
     1
 42
1.0
176
     1
 92
        8
176
     1
 66
     7
176
     1
 43
1.0
176
     1
 76
     1
176
     1
 77
     6
176
     1
 78
     2
176
     1
 67
     7
176
     1
 79
     5
176
     1
170
     0
176
     1
171
     0
176
     1
290
     0
176
     1
 93
        1
176
     1
 44
0.0
176
     1
173
     0
176
     1
  0
VISUALSTYLE
  5
33
102
{ACAD_REACTORS
330
2A
102
}
330
2A
100
AcDbVisualStyle
  2
Realistic
 70
     8
177
     2
291
     0
 71
     2
176
     1
 72
     2
176
     1
 73
     0
176
     1
 90
        0
176
     1
 40
-0.6
176
     1
 41
-30.0
176
     1
 62
     5
 63
     7
421
 16777215
176
     1
 74
     1
176
     1
 91
        0
176
     1
 64
     7
176
     1
 65
   257
176
     1
 75
     1
176
     1
175
     1
176
     1
 42
1.0
176
     1
 92
        8
176
     1
 66
     8
424
  7895160
176
     1
 43
1.0
176
     1
 76
     1
176
     1
 77
     6
176
     1
 78
     2
176
     1
 67
     7
176
     1
 79
     5
176
     1
170
     0
176
     1
171
     0
176
     1
290
     0
176
     1
 93
       13
176
     1
 44
0.0
176
     1
173
     0
176
     1
  0
VISUALSTYLE
  5
37
102
{ACAD_REACTORS
330
2A
102
}
330
2A
100
AcDbVisualStyle
  2
Thicken
 70
    13
177
     2
291
     1
 71
     2
176
     1
 72
     2
176
     1
 73
     0
176
     1
 90
        0
176
     1
 40
-0.6
176
     1
 41
-30.0
176
     1
 62
     5
 63
     7
421
 16777215
176
     1
 74
     1
176
     1
 91
        4
176
     1
 64
     7
176
     1
 65
   257
176
     1
 75
     1
176
     1
175
     1
176
     1
 42
1.0
176
     1
 92
       12
176
     1
 66
     7
176
     1
 43
1.0
176
     1
 76
     1
176
     1
 77
     6
176
     1
 78
     2
176
     1
 67
     7
176
     1
 79
     5
176
     1
170
     0
176
     1
171
     0
176
     1
290
     0
176
     1
 93
        1
176
     1
 44
0.0
176
     1
173
     0
176
     1
  0
ENDSEC
  0
EOF
