<?xml version="1.0" encoding="utf-8"?>
<!-- Generator: Adobe Illustrator 22.0.0, SVG Export Plug-In . SVG Version: 6.00 Build 0)  -->
<svg version="1.1" id="Calque_1" xmlns="http://www.w3.org/2000/svg" xmlns:xlink="http://www.w3.org/1999/xlink" x="0px" y="0px"
	 viewBox="0 0 432 432" style="enable-background:new 0 0 432 432;" xml:space="preserve">
<style type="text/css">
	.st0{fill:#E5DAC7;}
	.st1{fill:#FAF3E3;}
	.st2{fill:#C7B29A;}
	.st3{fill:#972021;}
	.st4{fill:#E9EAE4;}
	.st5{fill:#8C633A;}
	.st6{fill:#F39323;}
	.st7{fill:#ED6F71;}
	.st8{fill:#FFFFFF;}
	.st9{fill:#B6CE3F;}
	.st10{fill:#95AF23;}
	.st11{fill:#18B0C1;}
	.st12{fill:#C2E1D1;}
	.st13{fill:#9F1E29;}
	.st14{fill:#E6E9EA;}
	.st15{fill:#020203;}
	.st16{fill:#4D9564;}
	.st17{fill:#754D24;}
	.st18{fill:#A67D52;}
	.st19{fill:#F0D2B5;}
	.st20{fill:#E1BC9E;}
	.st21{fill:#97509A;}
	.st22{fill:#603914;}
	.st23{fill:#E83078;}
	.st24{fill:#E89125;}
	.st25{fill:#89BF4A;}
	.st26{fill:#82171C;}
	.st27{fill:#6CC2EE;}
	.st28{fill:#1861A9;}
	.st29{fill:#E00825;}
	.st30{fill:#109F3D;}
	.st31{fill:#808181;}
	.st32{fill:#D79A5D;}
	.st33{fill:#C68448;}
	.st34{fill:#D62416;}
	.st35{fill:#F9D61D;}
	.st36{fill:#A9191E;}
	.st37{fill:#F3E4E7;}
	.st38{fill:none;}
	.st39{fill:#E8CAA3;}
	.st40{fill:#64121D;}
	.st41{fill:#15A57E;}
	.st42{fill:#167157;}
	.st43{fill:#CF8916;}
	.st44{fill:#B26F14;}
	.st45{fill:#901D81;}
	.st46{fill:#612261;}
	.st47{fill:#B88E5C;}
	.st48{fill:#EBDCC8;}
	.st49{fill:#F3A0BE;}
	.st50{fill:#FAD7E3;}
	.st51{fill:#EAD797;}
	.st52{fill:#E18CAC;}
	.st53{fill:#A8D9DD;}
	.st54{fill:#67C2C6;}
	.st55{fill:#4EADAD;}
	.st56{fill:#CDCCCC;}
	.st57{fill:#D4C3B3;}
	.st58{fill:#CAB9A7;}
	.st59{fill:#C69C6C;}
	.st60{fill:#D7C5B3;}
	.st61{fill:#96877C;}
	.st62{fill:#EFE8E9;}
	.st63{fill:#B4B4B4;}
	.st64{fill:#F0CC53;}
	.st65{fill:#EE7D54;}
	.st66{fill:#F5D29D;}
	.st67{fill:#5D403F;}
	.st68{fill:#F9CBCC;}
	.st69{fill:#F6DEB8;}
	.st70{fill:#D6A14D;}
	.st71{fill:#B09878;}
	.st72{fill:#C1292E;}
	.st73{fill:#5B4841;}
	.st74{fill:#E0C399;}
	.st75{fill:#EBDA8C;}
	.st76{fill:#363A3D;}
	.st77{fill:#BFC1D7;}
	.st78{fill:#7188BA;}
	.st79{fill:#A34F4D;}
	.st80{fill:#D9CD7A;}
	.st81{fill:#D9AF66;}
	.st82{fill:#E6C776;}
	.st83{fill:#575756;}
	.st84{fill:#C3BF5B;}
	.st85{fill:#63622A;}
	.st86{fill:#E1AE9D;}
	.st87{fill:#D9C7AB;}
	.st88{fill:#B3625C;}
	.st89{fill:#D4BB78;}
	.st90{fill:#009245;}
	.st91{fill:#0B7B3A;}
	.st92{fill:#911A29;}
	.st93{fill:#571419;}
	.st94{fill:#9A9999;}
	.st95{fill:#A81922;}
	.st96{fill:#A3282E;}
	.st97{fill:#B3713B;}
	.st98{fill:#998675;}
	.st99{fill:#6189B1;}
	.st100{fill:#E0EDF3;}
	.st101{fill:#A5C0DF;}
	.st102{fill:#DBDBDB;}
	.st103{fill:#067838;}
	.st104{fill:#E5AEBF;}
	.st105{fill:#9982BC;}
	.st106{fill:#E7E6E6;}
	.st107{fill:#706F6F;}
	.st108{fill:#746458;}
	.st109{fill:#412413;}
	.st110{fill:#544842;}
	.st111{fill:#DAA405;}
	.st112{fill:#D06C5D;}
	.st113{fill:#8C694B;}
	.st114{fill:#C8C8CE;}
	.st115{fill:#D286A7;}
	.st116{fill:#C6CCCC;}
	.st117{fill:#A65F42;}
	.st118{fill:#343434;}
	.st119{fill:#A56E45;}
	.st120{fill:#F2F2F2;}
	.st121{fill:#8AC18A;}
	.st122{fill:#4B6678;}
	.st123{fill:#324C5B;}
	.st124{fill:#97AFBC;}
	.st125{fill:#B27D63;}
	.st126{fill:#6A737A;}
	.st127{fill:#72403F;}
	.st128{fill:#8D7968;}
	.st129{fill:#1B1B1B;}
	.st130{fill:#6B141A;}
	.st131{fill:#E4DCCC;}
	.st132{fill:#B33949;}
	.st133{fill:#6D141B;}
	.st134{fill:#911825;}
	.st135{fill:#821622;}
	.st136{fill:#1F1D1D;}
	.st137{fill:#CC1417;}
	.st138{fill:#69362D;}
	.st139{fill:#ECC9AE;}
	.st140{fill:#471E19;}
	.st141{fill:#2B1D1C;}
	.st142{fill:#BE1622;}
	.st143{fill:#E6332A;}
	.st144{fill:#D8EAF8;}
	.st145{fill:#D4AE8E;}
	.st146{fill:#883B4C;}
	.st147{fill:#C74A54;}
	.st148{fill:#F2959C;}
	.st149{fill:#3C3C3B;}
</style>
<g>
	<g>
		<path class="st95" d="M197,121.3c0-0.4,0-0.8,0-1.1c0.1-3.8,0-7.6,0.3-11.3c0.5-7.6,2.1-14.9,5.7-21.7c2.7-5.1,6.3-9.2,11.3-12.2
			c2-1.2,4.2-2.1,6.5-2.5c3.4-0.6,6.6,0,9.6,1.9c3.1,2,5.2,4.7,6.8,8c2,4.2,3.1,8.6,3.7,13.2c0.7,5.6,0.5,11.1-0.1,16.6
			c-0.2,1.7-0.2,3.4-0.3,5.1c-0.4,7.7-1.3,15.4-2.8,22.9c-1.7,8.7-3.7,17.3-5.4,26c-1.7,8.4-3.2,16.9-4.3,25.4
			c-0.7,5.5-1.3,11.1-1.9,16.6c-0.3,2.5-2.5,3.6-4.6,2.3c-0.5-0.3-1-0.7-1.5-1.2c-0.6-0.7-1.3-1.3-1.8-2.1
			c-2.9-4.2-6.3-7.9-9.7-11.6c-8.7-9.7-17.4-19.3-26.1-29c-5.6-6.3-11.1-12.7-16.1-19.5c-5-6.9-9.8-13.8-13.8-21.3
			c-2.4-4.5-4.5-9-5.6-14c-0.4-2.1-0.7-4.3-0.9-6.5c-0.2-1.9-0.3-3.8-0.2-5.7c0.1-2.7,0.6-5.3,1.8-7.7c1.8-3.6,4.5-6.2,8.5-7
			c2.4-0.5,4.7-0.3,7.1,0.2c4.7,1.1,8.8,3.4,12.4,6.5c4.9,4.2,8.9,9.2,12.5,14.5c3.1,4.5,5.6,9.3,7.9,14.1c0.2,0.3,0.3,0.7,0.5,1
			C196.8,121.3,196.9,121.3,197,121.3z"/>
		<path class="st95" d="M253.8,157.2c0.6-0.4,1-0.7,1.4-1c2-1.4,4-2.5,6.5-2.8c3.7-0.4,6.4,2,6.5,5.7c0,2-0.6,3.9-1.4,5.7
			c-1.6,3.7-3.7,7.1-6.2,10.3c-1.9,2.5-3.9,4.9-5.8,7.4c-3.2,4-6.4,8.1-9.7,12.1c-0.9,1.1-1.9,2.2-2.9,3.3c-0.4,0.4-0.9,0.8-1.4,1.1
			c-1.4,0.7-2.9,0.1-3.4-1.3c-0.2-0.7-0.4-1.5-0.4-2.2c-0.6-5.2-1-10.4-0.7-15.6c0.2-4.4,0.4-8.8,0.9-13.2c0.4-4.3,1.1-8.5,1.8-12.7
			c0.4-2.8,1.2-5.5,2.4-8.1c0.5-1,1-1.9,1.6-2.7c2.4-3,6.2-3,8.8-0.2c1.5,1.6,2.2,3.6,2.4,5.7c0.3,2.5,0.2,5-0.1,7.5
			C253.9,156.4,253.8,156.7,253.8,157.2z"/>
	</g>
	<g>
		<g>
			<path class="st33" d="M372.7,277.3c-0.2,1.7,0.1,3.4,0.4,5.1c1.6,11.1,1.2,22.1-1.8,33c-2.9,10.8-8.7,19.7-17.1,27.1
				c-8.4,7.3-17.9,12.6-28.6,15.5c-8.3,2.2-16.6,2.3-25,0.7c-1.6-0.3-3.2-0.5-4.8-0.6c-5-0.2-9.6-1.4-14.2-3.2
				c-5.8-2.3-10.9-5.7-15.8-9.7c-7-5.7-11.6-12.9-14.6-21.4c-2.6-7.3-4.2-14.7-4.9-22.4c-0.2-2.6-0.3-5.2-0.4-6.8
				c0-5.9,0.6-10.7,1.3-15.4c0.4-2.4,0.2-4.8,0-7.2c-0.4-4.8-1.9-9.3-3.3-13.9c-2.2-7.2-4-14.6-5.2-22c-0.4-2.6-0.9-5.2-0.6-7.8
				c0.2-2.9,1.7-4.8,4.3-5.9c3-1.2,6.1-1.2,9.2-0.4c3.5,1,7,2.1,10.5,3.1c6.5,2,13,4.1,19.8,5.4c2.9,0.6,6,0.8,9,1.1
				c0.4,0,0.9,0,1.3-0.1c1.8-0.5,3.5-0.9,5.3-1.1c1.4-0.2,2.9-0.4,4.4-0.6c2.3-0.2,4.6-0.3,6.9-0.3c1.2,0,2.3,0,3.5,0.1
				c0.3,0,0.5,0,0.8,0c2.6,0.2,5.3,0.5,7.9,0.9c1.5,0.2,3,0.5,4.5,0.9c1.4,0.3,2.8,0.7,4.1,1.1c0.8,0.3,1.6,0.1,2.3-0.1
				c2.7-0.6,5.2-1.6,7.6-3c4.6-2.6,9.2-5.2,13.8-7.8c2.6-1.5,5.2-2.9,7.8-4.3c2.1-1.1,4.3-2,6.6-2.5c3.7-0.9,6.5,0.4,8.3,3.7
				c1.5,2.6,2.1,5.5,2.2,8.5c0.3,7-0.3,13.9-1.3,20.8c-1,6.3-2,12.6-2.8,19C373.3,270.3,373.1,273.8,372.7,277.3z"/>
			<g>
				<g>
					<g>
						<circle class="st15" cx="284.8" cy="283.7" r="12.5"/>
						<circle class="st8" cx="284.8" cy="283.7" r="5"/>
						<circle class="st8" cx="291.5" cy="289.2" r="2.2"/>
					</g>
					<g>
						<circle class="st15" cx="335.7" cy="283.7" r="12.5"/>
						<circle class="st8" cx="335.7" cy="283.7" r="5"/>
						<circle class="st8" cx="342.4" cy="289.2" r="2.2"/>
					</g>
				</g>
				<g>
					<path d="M311.2,330.4c-0.1,0.1-0.2,0.2-0.3,0.4c-2.3,3.7-5.8,5.7-10,6.4c-3,0.5-5.9,0.1-8.6-1.1c-2-0.9-3.3-2.6-4.1-4.5
						c-0.5-1.2,0.2-2.4,1.4-2.4c0.5,0,1,0.2,1.2,0.7c1.4,3,4,4.2,7.2,4.2c3.8,0.1,7-1.2,9.4-4.2c1.7-2.1,2.2-4.5,2.3-7.1
						c0-0.7,0-1.5,0.2-2.2c0.2-0.8,0.9-1.3,1.6-1.1c0.6,0.1,1,0.6,1.1,1.2c0.2,0.9,0.3,1.8,0.4,2.7c0.2,3.5,1.4,6.4,3.8,9
						c2.9,3.1,7.4,3.1,10.5,0.9c1.4-1.1,2.6-2.4,3.5-3.9c0.3-0.5,0.7-1,1.1-1.5c0.3-0.4,0.8-0.6,1.3-0.6c0.9,0,1.6,0.8,1.4,1.7
						c-0.1,0.3-0.2,0.6-0.4,0.9c-1.1,1.8-2.3,3.6-3.8,5.1c-4.2,4-11.7,4.6-16.3-0.7C313,333,312.1,331.7,311.2,330.4z"/>
					<path class="st96" d="M309.7,306.4c0.6-0.9,1.1-1.7,1.7-2.5c1.2-1.4,2.7-2.3,4.5-2.5c1.5-0.1,2.7,0.4,3.7,1.7
						c1.4,1.9,1.7,4,1.4,6.2c-0.5,3.8-2.2,7.1-4.7,9.9c-0.7,0.8-1.6,1.5-2.5,2.1c-1.3,1-2.7,0.9-4.2,0.3c-0.2-0.1-0.4-0.2-0.5-0.3
						c-3.9-2.4-7.1-5.5-8.9-9.8c-0.6-1.5-1-3-0.8-4.6c0.1-0.5,0.1-1,0.3-1.4c1-3,3.9-4.1,6.7-2.6c0.9,0.5,1.6,1.1,2.2,1.9
						C308.9,305.3,309.3,305.8,309.7,306.4z"/>
				</g>
				<g>
					<g>
						<path class="st97" d="M301.6,229.8c-4.3,7.2-7.4,15-9.3,23.3c-0.5,2.2-3.9,1.3-3.4-0.9c1.8-7.7,4.5-15,8.3-21.8
							C298.7,230.2,300.1,230,301.6,229.8z"/>
					</g>
					<g>
						<path class="st97" d="M329.5,253.2c-1.8-8-4.8-15.5-8.9-22.6c1.5,0.2,3,0.5,4.5,0.9c3.5,6.5,6.1,13.5,7.8,20.8
							C333.4,254.4,330,255.4,329.5,253.2z"/>
					</g>
					<g>
						<path class="st97" d="M312,229.7v23.8c0,2.2-3.5,2.2-3.5,0v-23.9C309.6,229.6,310.8,229.6,312,229.7z"/>
					</g>
					<path class="st97" d="M343.8,240.5c7.3-6.2,19.1-15.3,24.2-13.4c5.1,1.9-0.6,23.1-1.2,25.8
						C366.2,255.6,340.4,243.4,343.8,240.5z"/>
					<path class="st97" d="M274.8,242.2c-7.8-5.6-20.4-13.6-25.3-11.2c-4.9,2.4,2.6,23,3.5,25.6
						C253.8,259.3,278.4,244.8,274.8,242.2z"/>
				</g>
			</g>
		</g>
		<g>
			<path class="st2" d="M106.1,244c-1.7-0.8-3.4-1.3-5.1-1.6c-1.6-0.2-3.1,0.4-4.3,1.3c-0.8,0.6-1.5,1.3-2.2,2
				c-3.1,3.4-5.6,7.2-8.1,11c-2.2,3.2-4.3,6.5-6.6,9.7c-2.5,3.5-5.3,6.7-8.7,9.3c-1.6,1.2-3.2,2.2-5.1,2.8
				c-4.6,1.5-8.9-0.5-10.8-4.9c-1.2-2.8-1.4-5.8-1.2-8.8c0.3-4.7,1.1-9.4,2.6-13.9c1.8-5.4,4.6-10.3,7.9-14.9
				c4.6-6.6,10.1-12.3,16.8-16.8c2.8-1.9,5.9-3.3,9.3-3.9c1.8-0.3,3.5-0.1,5.2,0.4c4,1.2,7.3,3.5,10.2,6.6c3.1,3.3,5.5,7.2,7.8,11.1
				c0.5,0.8,0.9,1.6,1.4,2.5c0.5-0.4,1-0.7,1.5-1c5-3.4,10.6-5.5,16.6-6.5c11.7-2,22.9-0.2,33.6,4.9c0.3,0.1,0.5,0.2,0.8,0.3
				c0,0,0.1,0,0.2,0c0.2-0.3,0.5-0.6,0.8-0.9c4.3-5,9.2-9.4,14.9-12.7c3.2-1.8,6.6-3,10.3-3.1c5.8-0.1,10.9,1.8,15.1,5.8
				c3.4,3.2,7,6.4,9.8,10.2c3.2,4.3,6.1,8.8,8.4,13.7c2,4.1,3.3,8.5,4,13.1c0.5,3.8-0.1,7.5-1.9,10.9c-1.9,3.5-4.7,5.7-8.8,6.1
				c-0.8,0.1-1.7,0-2.5-0.1c-5.9-0.9-10.9-3.6-15.1-7.8c-3.4-3.4-6.3-7.3-8.6-11.5c-2.2-3.9-4.1-8-6.2-12c-1-1.9-2.2-3.7-3.4-5.6
				c-0.5-0.8-1.3-1.4-2.2-1.8c-0.3-0.1-0.7-0.2-1,0c-1.3,0.7-2.5,1.5-3.8,2.3c0.3,0.3,0.5,0.6,0.7,0.8c6.2,5.9,10.6,13,13.3,21
				c0.3,0.8,0.6,1.5,0.9,2.3c1,2.6,2.2,5.1,3.1,7.8c2,6,3.8,12.1,5.6,18.2c1.4,4.8,2.7,9.7,3.4,14.7c0.8,5.5,0.7,11-0.6,16.5
				c-1.4,5.8-4.6,10.5-8.9,14.5c-2.6,2.4-5.5,4.4-8.5,6.3c-7.8,5-16,9.4-24.8,12.6c-4.4,1.6-8.9,3-13.5,3.7
				c-7.2,1.1-14.2,0.5-21-1.8c-7.4-2.5-14.4-6.1-21.3-9.8c-4.3-2.4-8.3-5.3-11.9-8.7c-2.4-2.3-4.5-4.8-6.4-7.5
				c-2.9-4.3-4.2-9.1-4.1-14.3c0.1-4.3,0.3-8.6,0.6-12.9c0.5-6,1.2-11.9,2.5-17.8c2-8.7,4.9-17.1,8.8-25.1c2.1-4.3,4.3-8.6,7.3-12.4
				C103.8,246.8,104.9,245.5,106.1,244z"/>
			<g>
				<g>
					<g>
						<circle class="st15" cx="117.4" cy="283.7" r="12.5"/>
						<circle class="st8" cx="117.4" cy="283.7" r="5"/>
						<circle class="st8" cx="124.2" cy="289.2" r="2.2"/>
					</g>
					<g>
						<circle class="st15" cx="168.3" cy="283.7" r="12.5"/>
						<circle class="st8" cx="168.3" cy="283.7" r="5"/>
						<circle class="st8" cx="175.1" cy="289.2" r="2.2"/>
					</g>
				</g>
				<g>
					<path class="st96" d="M134.7,327.5c0,24.4,15.8,25.5,16.1,0.6c-4.9-5.6-6.2-6.1-7-9.9C142.6,321.8,139.2,325.7,134.7,327.5z"/>
					<path d="M143.7,322.3c-0.1,0.1-0.2,0.2-0.3,0.4c-2.3,3.7-5.8,5.7-10,6.4c-3,0.5-5.9,0.1-8.6-1.1c-2-0.9-3.3-2.6-4.1-4.5
						c-0.5-1.2,0.2-2.4,1.4-2.4c0.5,0,1,0.2,1.2,0.7c1.4,3,4,4.2,7.2,4.2c3.8,0.1,7-1.2,9.4-4.2c1.7-2.1,2.2-4.5,2.3-7.1
						c0-0.7,0-1.5,0.2-2.2c0.2-0.8,0.9-1.3,1.6-1.1c0.6,0.1,1,0.6,1.1,1.2c0.2,0.9,0.3,1.8,0.4,2.7c0.2,3.5,1.4,6.4,3.8,9
						c2.9,3.1,7.4,3.1,10.5,0.9c1.4-1.1,2.6-2.4,3.5-3.9c0.3-0.5,0.7-1,1.1-1.5c0.3-0.4,0.8-0.6,1.3-0.6c0.9,0,1.6,0.8,1.4,1.7
						c-0.1,0.3-0.2,0.6-0.4,0.9c-1.1,1.8-2.3,3.6-3.8,5.1c-4.2,4-11.7,4.6-16.3-0.7C145.5,324.9,144.7,323.6,143.7,322.3z"/>
					<path class="st96" d="M142.3,298.2c0.6-0.9,1.1-1.7,1.7-2.5c1.2-1.4,2.7-2.3,4.5-2.5c1.5-0.1,2.7,0.4,3.7,1.7
						c1.4,1.9,1.7,4,1.4,6.2c-0.5,3.8-2.2,7.1-4.7,9.9c-0.7,0.8-1.6,1.5-2.5,2.1c-1.3,1-2.7,0.9-4.2,0.3c-0.2-0.1-0.4-0.2-0.5-0.3
						c-3.9-2.4-7.1-5.5-8.9-9.8c-0.6-1.5-1-3-0.8-4.6c0.1-0.5,0.1-1,0.3-1.4c1-3,3.9-4.1,6.7-2.6c0.9,0.5,1.6,1.1,2.2,1.9
						C141.5,297.2,141.9,297.7,142.3,298.2z"/>
				</g>
				<g>
					<path class="st98" d="M110.6,238.3c-5.8-8-13.8-15.9-18.8-15.9c-5.1,0-20.6,11.7-26.6,25.8c-6,14.2-7.2,19.2-2.7,21.2
						c6.2,2.7,25.1-32.2,30.7-34.6c5.8-2.4,15,6.4,15,6.4L110.6,238.3z"/>
					<path class="st98" d="M173.3,234.9c6.2-7.7,14.6-15.2,19.6-14.9c5,0.3,20,12.7,25.3,27.2c5.3,14.5,6.2,19.6,1.6,21.3
						c-6.3,2.4-23.4-33.5-28.9-36.1c-5.7-2.7-15.3,5.6-15.3,5.6L173.3,234.9z"/>
				</g>
			</g>
		</g>
	</g>
</g>
</svg>
