<?xml version="1.0" encoding="utf-8"?>
<!-- Generator: Adobe Illustrator 16.0.0, SVG Export Plug-In . SVG Version: 6.00 Build 0)  -->
<!DOCTYPE svg PUBLIC "-//W3C//DTD SVG 1.1//EN" "http://www.w3.org/Graphics/SVG/1.1/DTD/svg11.dtd">
<svg version="1.1" id="Calque_1" xmlns="http://www.w3.org/2000/svg" xmlns:xlink="http://www.w3.org/1999/xlink" x="0px" y="0px"
	 width="432px" height="432px" viewBox="0 0 432 432" enable-background="new 0 0 432 432" xml:space="preserve">
<g>
	<path fill="#C7B29A" d="M214.748,157.395c-1.008-2.575-3.486-4.438-4.178-7.115c-0.523-2.027,0.093-4.209,1.172-6.004
		c0.912-1.517,2.183-2.927,2.392-4.684c0.319-2.686-2.022-5.017-4.53-6.031c-3.246-1.312-7.06-1.14-10.175,0.459
		c-0.386,0.198-0.755,0.421-1.118,0.654c0.286-0.554,0.537-1.125,0.736-1.718c0.791-2.353,0.803-4.897,0.59-7.37
		c-0.794-9.243-4.57-17.989-9.193-26.031c-4.624-8.042-10.129-15.549-14.82-23.551c-2.4-4.093-4.941-8.632-9.38-10.308
		c-4.651-1.756-10.188,0.498-13.114,4.525c-3.813-3.079-8.387-4.901-13.289-5.32c-5.118-0.438-10.298,0.581-15.03,2.603
		c-0.731,0.313-1.452,0.647-2.16,1.006c-1.516,0.768-2.986,1.646-4.302,2.715c-0.345,0.28-0.681,0.569-1.002,0.877
		c-0.813,0.78-1.531,1.645-2.184,2.561c-0.463-2.688-2.03-5.164-4.585-5.932c-1.36-0.409-2.837-0.289-4.201,0.105
		c-3.158,0.912-5.723,3.186-8.058,5.5c-11.777,11.675-20.646,26.02-27.597,41.076c-2.383,5.162-4.562,10.444-5.978,15.951
		c-1.365,5.309-1.903,11.325,1.061,15.937c0.364,0.566,0.774,1.095,1.219,1.594c-0.646,0.169-1.283,0.408-1.881,0.674
		c-3.143,1.398-6.12,3.626-7.399,6.82c-1.279,3.193-0.313,7.422,2.748,8.992c1.505,0.772,3.676,1.258,3.798,2.944
		c0.077,1.075-0.814,1.933-1.495,2.768c-1.877,2.305-2.454,5.618-1.414,8.403c1.039,2.785,3.676,4.922,6.624,5.309
		c2.411,0.316,4.889-0.493,6.858-1.919c1.97-1.426,3.466-3.429,4.59-5.585c1.325-2.541,2.287-5.468,4.611-7.145
		c0.594-0.428,1.242-0.746,1.924-0.988c0.325,0.375,0.683,0.721,1.084,1.028c1.715,1.311,4.05,1.77,6.134,1.205
		c2.083-0.565,3.867-2.141,4.684-4.139c0.676,2.377,3.126,4.12,5.594,3.979c2.468-0.142,4.702-2.152,5.103-4.591
		c1.163,2.874,4.677,4.397,7.703,3.718c2.533-0.568,4.625-2.449,5.824-4.77c10.089-0.266,20.171-0.782,30.233-1.551
		c0.732,1.261,1.664,2.401,2.894,3.164c1.985,1.231,4.589,1.305,6.727,0.364c2.139-0.941,3.8-2.823,4.662-4.994
		c0.363,2.789,2.855,5.15,5.66,5.364c2.805,0.213,5.625-1.745,6.406-4.447c0.69,2.221,3.641,3.122,5.783,2.215
		c1.739-0.736,2.958-2.316,3.707-4.079c1.569-0.09,3.153,0.05,4.679,0.43c3.271,0.814,6.182,2.655,9.327,3.865
		c3.146,1.209,6.886,1.719,9.746-0.062C214.677,164.16,215.924,160.4,214.748,157.395z"/>
	<g>
		<path fill="#DDD1C2" d="M172.998,122.26c-1.145-3.594-3.893-6.414-6.559-9.083c-3.145-3.147-6.388-6.344-10.42-8.223
			c-2.714-1.265-5.679-1.879-8.627-2.397c-4.086-0.718-8.245-1.272-12.378-0.906c-0.459,0.041-0.916,0.096-1.372,0.159
			c-4.489,0.615-8.805,2.245-12.914,4.18c-1.449,0.683-2.877,1.409-4.286,2.168c-3.157,1.702-6.211,3.594-9.141,5.664
			c-0.238,0.169-0.48,0.334-0.718,0.505c-2.162,1.561-4.316,3.29-5.564,5.647c-0.148,0.281-0.278,0.571-0.4,0.864
			c-0.561,1.348-0.859,2.803-1.059,4.254c-0.62,4.496-0.396,9.106,0.655,13.521c0.016,0.065,0.033,0.131,0.049,0.197
			c0.419,1.701,1.021,3.429,2.298,4.621c0.729,0.682,1.635,1.144,2.554,1.533c5.714,2.418,12.185,2.254,18.33,1.401
			c1.219-0.169,2.452-0.372,3.655-0.663c1.002-0.242,1.982-0.546,2.918-0.943c0.92-0.39,1.797-0.871,2.604-1.473
			c1.839-1.369,3.454-3.535,3.859-5.762c0.84,2.171,2.761,4.153,4.653,5.379c0.93,0.603,1.934,1.058,2.98,1.401
			c0.397,0.13,0.802,0.246,1.21,0.345c1.689,0.411,3.458,0.571,5.197,0.594c3.494,0.045,6.994-0.408,10.361-1.343
			c2.229-0.619,4.449-1.477,6.202-2.987c1.139-0.981,2.038-2.204,2.828-3.487c0.133-0.217,0.265-0.435,0.393-0.655
			C172.859,132.393,174.536,127.09,172.998,122.26z"/>
		<path fill="#958574" d="M175.302,142.779c-2.2-1.318-3.907-3.233-5.386-5.352c-0.79,1.283-1.689,2.506-2.828,3.487
			c-1.753,1.51-3.973,2.368-6.202,2.987c-3.367,0.935-6.867,1.388-10.361,1.343c-1.739-0.022-3.508-0.183-5.197-0.594
			c-0.428,1.513-1.364,2.955-2.488,4.214c3.08-0.091,6.161-0.201,9.239-0.336c0.443-0.635,0.952-1.223,1.532-1.743
			c3.71-2.458,17-2.928,25.961-1.816c1.161,0.144,2.274,0.454,3.322,0.912c1.166-0.479,2.298-1.056,3.396-1.708
			c-0.073,0.019-0.146,0.041-0.221,0.059C182.459,145.104,178.489,144.687,175.302,142.779z"/>
		<path fill="#958574" d="M127.102,145.703c-1.203,0.291-2.437,0.493-3.655,0.663c-6.146,0.853-12.616,1.017-18.33-1.401
			c-0.919-0.389-1.825-0.852-2.554-1.533c-1.276-1.191-1.879-2.919-2.298-4.621c-2.118,3.561-4.681,6.857-7.607,9.79
			c1.849-0.508,3.785-0.78,5.692-0.965c3.895-0.378,7.816-0.467,11.725-0.265c2.676,0.138,5.525,0.508,7.834,1.742
			c3.814,0.036,7.628,0.037,11.442,0.004C128.317,148.13,127.442,146.995,127.102,145.703z"/>
		<g>
			<path fill="#4E4D4D" d="M110.227,133.068c0.627-0.229,1.037-0.908,1.015-1.575c-0.022-0.667-0.361-1.573-1.624-1.674
				c-1.39,0.354-1.482,1.665-1.08,2.574C108.807,133.003,109.599,133.297,110.227,133.068z"/>
		</g>
		<g>
			<path fill="#4E4D4D" d="M120.942,122.322c3.111,3.162,7.367,5.151,11.78,5.6s8.954-0.63,12.741-2.94
				c1.925-1.174,3.698-2.703,4.764-4.69c1.065-1.987,1.336-4.484,0.329-6.501c-1.007-2.018-2.265-2.86-4.563-3.128
				c-7.124-0.625-14.365,0.113-21.216,2.163c-1.373,0.411-2.758,0.888-3.902,1.75s-2.029,2.178-2.047,3.611
				C118.809,119.776,119.827,121.188,120.942,122.322z"/>
		</g>
		<g>
			<path fill="#4E4D4D" d="M151.018,93.101c0.401,0.653,1.003,1.348,1.766,1.272c0.902-0.089,1.316-1.155,1.478-2.047
				c0.66-3.651,0.228-7.785-2.352-10.452l-0.241-0.188c-0.611-0.551-2.103-0.269-2.578,0.404c-0.475,0.672-0.52,1.551-0.497,2.374
				C148.672,87.488,149.435,90.523,151.018,93.101z"/>
		</g>
		<g>
			<path fill="#958574" d="M139.246,84.36c0.104-4.465-0.847-9.202-3.889-12.472c-2.685-2.887-6.547-4.162-10.548-4.385
				c-0.731,0.313-1.452,0.647-2.16,1.006c-1.516,0.768-2.986,1.646-4.302,2.715c-0.345,0.28-0.681,0.569-1.002,0.877
				c-0.813,0.78-1.531,1.645-2.184,2.561c-1.121,1.575-2.046,3.306-2.909,5.041c-6.384,12.829-10.23,26.874-11.634,41.135
				c0.122-0.293,0.252-0.583,0.4-0.864c1.248-2.357,3.402-4.087,5.564-5.647c0.237-0.171,0.479-0.336,0.718-0.505
				c2.93-2.07,5.983-3.962,9.141-5.664c1.409-0.76,2.837-1.486,4.286-2.168c4.109-1.936,8.425-3.565,12.914-4.18
				c0.717-1,1.356-2.062,1.923-3.149C137.86,94.258,139.13,89.324,139.246,84.36z"/>
		</g>
		<g>
			<path fill="#4E4D4D" d="M120.788,92.88c0.123,0.898,0.492,1.98,1.39,2.108c0.759,0.107,1.389-0.561,1.817-1.197
				c1.69-2.508,2.581-5.509,2.788-8.526c0.057-0.821,0.05-1.701-0.396-2.393c-0.446-0.691-1.924-1.037-2.559-0.513l-0.249,0.177
				C120.89,85.092,120.283,89.204,120.788,92.88z"/>
		</g>
		<g>
			<path fill="#4E4D4D" d="M110.438,125.809c0.463,0.7,1.543,0.636,2.272,0.22c0.762-0.435,1.377-1.244,1.319-2.12
				c-0.058-0.875-0.998-1.661-1.82-1.353l-0.075,0.019c-1.195,0.535-2.001,1.306-1.93,2.426
				C110.222,125.283,110.281,125.572,110.438,125.809z"/>
		</g>
		<g>
			<path fill="#4E4D4D" d="M117.783,130.434c0.726-0.302,0.949-1.401,0.397-1.96l-0.044-0.024c-1.014-0.784-2.051,0.104-2.033,0.891
				C116.122,130.125,117.058,130.736,117.783,130.434z"/>
		</g>
		<g>
			<path fill="#4E4D4D" d="M154.481,122.652c0.501,0.444,1.246,0.706,1.848,0.412c0.658-0.322,0.874-1.26,0.507-1.894
				c-0.368-0.634-0.985-1.226-2.207-0.96c-0.504,0.083-0.851,0.615-0.84,1.125C153.8,121.845,154.1,122.313,154.481,122.652z"/>
		</g>
		<g>
			<path fill="#4E4D4D" d="M148.863,129.307c0.324,0.837,1.617,1.067,2.21,0.393s0.032-1.958-0.84-2.17
				C149.341,127.429,148.539,128.47,148.863,129.307z"/>
		</g>
		<g>
			<path fill="#4E4D4D" d="M160.103,127.585c0.409-0.606,0.151-1.875-0.902-1.844c-0.721,0.129-1.22,1.01-0.903,1.67
				C158.614,128.07,159.693,128.191,160.103,127.585z"/>
		</g>
		<g>
			<g>
				<path fill="#CDCCCC" d="M84.29,154.895c-0.673,0.27-1.368,0.478-2.09,0.597c-3.12,0.516-6.272-0.652-9.075-2.118
					c-2.246-1.174-4.428-2.603-6.102-4.48c-0.646,0.169-1.283,0.408-1.881,0.674c-3.143,1.398-6.12,3.626-7.399,6.82
					c-1.279,3.193-0.313,7.422,2.748,8.992c1.505,0.772,3.676,1.258,3.798,2.944c0.077,1.075-0.814,1.933-1.495,2.768
					c-1.877,2.305-2.454,5.618-1.414,8.403c1.039,2.785,3.676,4.922,6.624,5.309c2.411,0.316,4.889-0.493,6.858-1.919
					c1.97-1.426,3.466-3.429,4.59-5.585c1.325-2.541,2.287-5.468,4.611-7.145c0.594-0.428,1.242-0.746,1.924-0.988
					c-1.579-1.82-2.301-4.354-2.528-6.797C83.243,159.003,83.561,156.657,84.29,154.895z"/>
			</g>
			<g>
				<path fill="#CDCCCC" d="M214.748,157.395c-1.008-2.575-3.486-4.438-4.178-7.115c-0.523-2.027,0.093-4.209,1.172-6.004
					c0.912-1.517,2.183-2.927,2.392-4.684c0.319-2.686-2.022-5.017-4.53-6.031c-3.246-1.312-7.06-1.14-10.175,0.459
					c-0.386,0.198-0.755,0.421-1.118,0.654c-0.734,1.424-1.723,2.723-2.827,3.89c-2.501,2.642-5.673,4.706-9.194,5.609
					c-1.098,0.652-2.229,1.23-3.396,1.708c1.135,0.496,2.191,1.167,3.141,2.006c1.209,1.07,1.992,2.551,2.489,4.087
					c0.876,2.709,0.913,5.684,0.106,8.415c-0.124,0.418-0.272,0.836-0.445,1.243c1.569-0.09,3.153,0.05,4.679,0.43
					c3.271,0.814,6.182,2.655,9.327,3.865c3.146,1.209,6.886,1.719,9.746-0.062C214.677,164.16,215.924,160.4,214.748,157.395z"/>
			</g>
			<g>
				<path fill="#CDCCCC" d="M150.019,154.343c0.181-2.07,0.876-4.117,2.06-5.814c-3.078,0.135-6.159,0.245-9.239,0.336
					c-0.285,0.319-0.581,0.628-0.886,0.923c-1.787,1.73-4.015,3.339-6.478,2.993c-1.73-0.243-3.229-1.293-4.608-2.367
					c-0.514-0.4-1.032-0.833-1.517-1.296c-3.814,0.032-7.628,0.031-11.442-0.004c0.891,0.476,1.703,1.076,2.391,1.848
					c1.038,1.164,1.701,2.617,2.181,4.101c0.954,2.951,1.226,6.205,0.23,9.141c-0.162,0.478-0.364,0.944-0.598,1.395
					c10.089-0.266,20.171-0.782,30.233-1.551c-0.263-0.45-0.501-0.916-0.717-1.386C150.438,160.065,149.77,157.188,150.019,154.343z
					"/>
			</g>
		</g>
		<path fill="#E62747" d="M144.117,144.305c-1.047-0.343-2.051-0.798-2.98-1.401c-1.893-1.226-3.813-3.208-4.653-5.379
			c-0.405,2.228-2.021,4.393-3.859,5.762c-0.808,0.602-1.685,1.083-2.604,1.473c-0.936,0.397-1.916,0.701-2.918,0.943
			c0.341,1.292,1.216,2.427,2.249,3.415c0.484,0.463,1.003,0.896,1.517,1.296c1.379,1.074,2.878,2.124,4.608,2.367
			c2.463,0.346,4.69-1.263,6.478-2.993c0.305-0.294,0.601-0.604,0.886-0.923c1.124-1.259,2.061-2.701,2.488-4.214
			C144.919,144.551,144.515,144.436,144.117,144.305z"/>
	</g>
</g>
<g>
	<g>
		<path fill="#C7B29A" d="M374.215,231.201c1.793-8.892-0.646-18.25-5.147-26.125s-10.942-14.454-17.63-20.583
			c-1.684-1.543-3.431-3.092-5.535-3.981c-3.651-1.543-7.82-0.893-11.699-0.075c-2.771,0.584-5.994,1.658-8.73,2.388
			c-13.252-9.609-31.223-12.102-46.326-5.79c-2.863-6.619-10.315-10.287-17.51-10.792c-7.979-0.56-15.94,2.099-22.756,6.284
			c-6.814,4.185-12.604,9.835-18.037,15.705c-4.617,4.989-9.148,10.405-10.971,16.954c-1.222,4.391-1.144,9.03-0.872,13.579
			c0.217,3.624,0.565,7.304,1.931,10.668c0.4,0.987,0.945,2.002,1.893,2.489c1.021,0.525,2.252,0.313,3.369,0.051
			c7.729-1.805,15.595-5.882,18.85-13.12c0.846-1.88,1.352-3.916,2.377-5.705c1.258-2.194,3.481-5.329,5.425-6.948
			c5.489-4.571,9.697-8.971,15.519-13.111c1.23-0.875,7.32-4.348,8.182-2.54c-0.479,1.049-1.139,2.161-1.911,3.307
			c-2.396,3.549-5.899,7.42-8.623,10.736c-0.819,0.997-1.567,1.944-2.194,2.817c-4.92,6.857-8.411,14.877-9.148,23.285
			c-0.304,3.459-0.131,6.892,0.536,10.194c0.955,4.726,2.933,9.183,6.053,13.049c1.928,2.426,4.608,4.019,7.523,5.16
			c-0.762,2.433-1.414,4.9-1.94,7.395c-0.149,0.71-0.289,1.44-0.182,2.158c0.107,0.707,0.448,1.355,0.82,1.965
			c2.574,4.226,6.8,7.244,11.338,9.217c3.566,1.551,6.859,2.312,10.457,3.057c-0.087,0.186-0.151,0.381-0.189,0.582
			c-3.319,0.046-6.523,2.188-7.818,5.247c-1.31,3.092-0.592,6.936,1.744,9.347c2.337,2.412,6.155,3.25,9.287,2.039
			s5.393-4.4,5.499-7.756c0.045-1.416-0.26-2.819-0.623-4.188c-0.465-1.749-1.389-3.772-3.151-4.02
			c0.006-0.102,0.004-0.204-0.008-0.306c-0.01-0.084-0.025-0.169-0.042-0.255c5.121,0.36,10.26-0.884,15.239-2.229
			c2.174-0.587,4.372-1.206,6.31-2.354c1.036-0.614,2.005-1.395,2.632-2.423c0.459-0.755,0.718-1.612,0.972-2.458
			c0.62-2.067,1.24-4.134,1.86-6.2c6.017-0.521,11.49-2.542,15.93-7.388c4.006-4.372,6.283-10.049,7.21-15.946
			c0.287-1.831,0.446-3.683,0.485-5.523l0.061-0.777c0.339-8.618-0.175-20.218-2.447-28.538c-0.666-2.438-1.301-5.437,0.54-7.168
			c0.218-0.205,0.479-0.387,0.777-0.407c0.671-0.046,1.097,0.685,1.354,1.306c3.633,8.746,7.211,17.603,8.888,26.923
			c1.409,7.829,1.448,15.838,1.217,23.79c-0.021,0.758-0.044,1.533,0.182,2.257c0.482,1.546,2.04,2.565,3.634,2.852
			c3.565,0.64,6.922-1.731,9.643-4.121C365.771,248.746,372.289,240.745,374.215,231.201z"/>
	</g>
	<path fill="#E52629" d="M307.714,268.073l-0.256-0.015c-0.736,0.059-1.474,0.058-2.209,0.014
		c-4.66,2.765-11.038,5.089-16.306,4.828c-3.118-0.155-6.002-0.811-8.946-1.848c-5.071-1.786-11.036-5.432-14.189-9.928
		c-0.442-0.079-0.892-0.168-1.36-0.276l-0.271-0.103c-1.787-0.438-3.599-0.956-5.329-1.633c-0.762,2.433-1.414,4.9-1.939,7.395
		c-0.149,0.71-0.29,1.44-0.182,2.157c0.106,0.707,0.447,1.355,0.819,1.966c2.574,4.226,6.8,7.244,11.338,9.217
		c3.566,1.551,6.86,2.312,10.458,3.057c0.19-0.405,0.485-0.762,0.862-1.004c0.703-0.452,1.648-0.496,2.391-0.113
		c0.799,0.196,1.284,1.018,1.444,1.807c5.121,0.36,10.26-0.884,15.239-2.229c2.175-0.587,4.373-1.207,6.311-2.354
		c1.036-0.614,2.004-1.395,2.631-2.424c0.46-0.755,0.719-1.611,0.973-2.458c0.62-2.066,1.24-4.133,1.86-6.2
		C309.956,268.024,308.843,268.069,307.714,268.073z"/>
	<path fill="#F2979A" d="M282.489,264.16c1.992,1.42,4.537,2.178,6.93,1.672c1.772-0.375,3.304-1.383,4.675-2.598
		c-3.192-2.91-5.413-6.826-6.569-10.994c-0.798,2.199-1.918,3.153-3.821,4.628c-1.567,1.216-3.396,2.035-5.271,2.702
		C279.499,261.339,280.814,262.966,282.489,264.16z"/>
	<path fill="#F2979A" d="M282.489,264.16c1.992,1.42,4.537,2.178,6.93,1.672c1.772-0.375,3.304-1.383,4.675-2.598
		c-3.192-2.91-5.413-6.826-6.569-10.994c-0.798,2.199-1.918,3.153-3.821,4.628c-1.567,1.216-3.396,2.035-5.271,2.702
		C279.499,261.339,280.814,262.966,282.489,264.16z"/>
	<g>
		<path fill="#754D24" d="M316.531,207.407l-0.024-0.051c-1.149-0.804-2.757-0.781-4-0.13c-1.242,0.652-2.136,1.853-2.631,3.166
			c-0.582,1.544-0.643,3.32,0.034,4.825c0.678,1.505,2.146,2.678,3.792,2.808c0.982,0.078,1.975-0.208,2.82-0.714
			c1.702-1.018,2.808-2.965,2.809-4.949C319.333,210.378,318.232,208.429,316.531,207.407z"/>
	</g>
	<g>
		<path fill="#DDD1C2" d="M295.525,209.116c0.732-5.375-1.439-10.988-5.375-14.722s-7.313-6.851-12.989-5.433
			c-4.167,1.254-8.379,2.527-12.14,4.718c-0.107,0.063-0.214,0.129-0.32,0.193c-2.396,3.55-5.899,7.42-8.623,10.736
			c-0.606,2.49-0.603,5.119-0.412,7.688c0.264,3.581,1,7.399,3.572,9.903c1.633,1.588,3.829,2.459,6.023,3.069
			c3.916,1.088,8.24,1.432,11.942-0.245c1.532-0.694,2.905-1.71,4.455-2.365c1.382-0.584,2.872-0.869,4.283-1.38
			C291.043,219.43,294.793,214.491,295.525,209.116z"/>
	</g>
	<g>
		<path fill="#DDD1C2" d="M334.191,244.595c-1.466-3.064-3.572-5.669-6.669-7.289c-5.867-3.07-13.638-4.174-20.24-3.67
			c-1.357,0.104-2.731,0.221-4.073-0.009c-2.34-0.401-4.363-1.812-6.559-2.714c-4.465-1.834-9.501-1.518-14.279-0.836
			c-2.03,0.29-4.092,0.64-6.119,0.334c-1.985-0.3-3.816-1.209-5.668-1.985c-5.731-2.399-12.671-3.461-17.91-0.123
			c-3.133,1.996-5.223,5.331-6.416,8.848c-0.417,1.228-0.733,2.483-0.986,3.753c0.955,4.726,2.932,9.182,6.052,13.048
			c1.929,2.426,4.609,4.019,7.523,5.16c1.73,0.677,3.542,1.195,5.329,1.633l0.271,0.103c0.469,0.108,0.918,0.197,1.36,0.276
			c4.106,0.736,7.165,0.24,11.419-1.142c0.402-0.131,0.805-0.269,1.205-0.412c1.876-0.667,3.704-1.486,5.271-2.702
			c1.903-1.475,3.023-2.43,3.821-4.628c1.156,4.168,3.377,8.084,6.569,10.994c0.201,0.184,0.406,0.363,0.614,0.539
			c2.957,2.48,6.703,4.066,10.541,4.299c0.735,0.044,1.473,0.045,2.209-0.014l0.256,0.015c1.129-0.004,2.242-0.049,3.338-0.144
			c6.017-0.521,11.489-2.542,15.93-7.389C330.986,256.169,333.264,250.492,334.191,244.595z"/>
	</g>
	<g>
		<path fill="#754D24" d="M281.521,234.24c-1.474,0.276-3.087,0.771-3.822,2.078c-0.571,1.016-0.449,2.309,0.046,3.363
			c0.496,1.054,1.321,1.914,2.157,2.724c1.89,1.832,3.915,3.524,6.054,5.058c0.94,0.674,1.963,1.34,3.117,1.419
			c1.098,0.076,2.153-0.388,3.139-0.877c3.229-1.602,6.352-2.702,9.125-5.004c0.688-0.571,1.913-1.915,1.93-2.809
			C303.341,236.015,288.994,232.841,281.521,234.24z"/>
	</g>
	<g>
		<path fill="#CDCCCC" d="M287.863,292.361c0.045-1.416-0.26-2.819-0.624-4.188c-0.464-1.749-1.388-3.772-3.15-4.02
			c0.005-0.102,0.003-0.204-0.009-0.306c-0.01-0.084-0.024-0.169-0.042-0.255c-0.16-0.789-0.646-1.61-1.444-1.807
			c-0.742-0.383-1.688-0.339-2.391,0.113c-0.377,0.242-0.672,0.599-0.862,1.004c-0.087,0.186-0.151,0.381-0.189,0.582
			c-3.319,0.046-6.523,2.188-7.819,5.247c-1.309,3.092-0.592,6.936,1.745,9.347c2.337,2.412,6.155,3.25,9.287,2.039
			S287.757,295.718,287.863,292.361z"/>
	</g>
	<g>
		<path fill="#754D24" d="M274.106,209.674c1.271,2.01,3.872,3.102,6.179,2.527c2.307-0.576,4.107-2.821,4.094-5.198
			c-0.015-2.377-1.845-4.848-4.194-5.207c-1.911-0.553-4.022,0.36-5.352,1.841c-0.981,1.094-1.634,2.558-1.469,4.018
			C273.445,208.374,273.72,209.063,274.106,209.674z"/>
	</g>
</g>
<g>
	<path fill="#CDCCCC" d="M219.521,288.561c-0.07-3.442-0.387-7.108-2.478-9.844c-0.527-0.691-1.343-1.357-2.18-1.121
		c-0.867,0.245-1.193,1.279-1.379,2.161c-2.645,12.57-4.568,25.741-11.623,36.477c-1.869,2.846-5.387,6.411-9.539,7.656
		c-0.134-1.132-0.345-2.244-0.66-3.322c-0.78-15.304-1.188-30.653-2.705-45.9c0.39-0.146,0.78-0.289,1.169-0.439
		c0.236-0.091,0.486-0.194,0.629-0.403c0.179-0.26,0.141-0.606,0.095-0.918c-0.391-2.661-0.361-7.151-0.434-9.831l-0.072,0.048
		c-0.533,0.187-1.064,0.367-1.597,0.548c-0.646-12.055-1.29-24.109-1.936-36.164l-0.017-0.276c3.765-6.941,7.207-15.13,9.84-23.047
		c0.797-2.394,1.521-4.765,2.155-7.067c-4.11,1.207-7.626,3.847-11.041,6.435c-2.639,2-5.277,4-7.917,6l-0.207,0.134
		c-5.105-1.638-10.21-3.276-15.314-4.914c-0.426-0.136-0.875-0.289-1.159-0.633c-0.033-0.041-0.063-0.083-0.091-0.127
		c-0.2-0.317-0.26-0.712-0.313-1.088c-0.935-6.542-2.617-12.977-5.003-19.139c-0.439,0.87-0.869,1.744-1.293,2.621
		c-3.123,6.479-5.804,13.172-8.013,20.018c-0.89,2.634-2.06,3.58-3.104,3.824c-13.657,3.201-27.799,3.98-41.631,6.207
		c-5.126,0.825-10.21,1.848-15.211,3.268c-0.647,0.184-1.306,0.38-1.855,0.768c-2.017,1.423-1.633,4.489-0.883,6.841
		c1.572,4.928,3.819,9.664,6.741,13.924c1.524,2.222,3.229,4.317,5.125,6.238c5.528,5.601,12.682,9.69,20.426,11.092
		c-0.002,0.018-0.004,0.037-0.006,0.055c-0.046,0.336-0.043,0.37-0.036,0.486c-0.009,0.321,0.013,0.642,0.067,0.958
		c0.215,1.237,0.899,2.398,1.915,3.141c1.422,1.041,3.428,1.218,5.011,0.444c0.102,1.596,0.202,3.192,0.304,4.788l0.063,0.611
		c-0.49-0.089-0.979-0.177-1.47-0.273c-0.295,2.688-0.41,5.803-0.405,8.681c-2.821,0.528-5.365,2.538-6.408,5.227
		c-1.02,2.628-0.544,5.747,1.092,8.026c-4.004,15.377-7.34,30.929-9.992,46.597c-0.093,0.546-0.196,1.121-0.552,1.545
		c-0.55,0.659-1.509,0.755-2.271,1.148c-0.856,0.443-1.392,1.255-1.629,2.183c-0.271,1.062-0.151,2.275,0.345,3.263
		c0.93,1.849,2.771,3.046,4.591,4.029c0.911,0.492,1.937,0.966,2.944,0.732c1.737-0.402,2.92-1.779,4.488-2.697
		c-1.235,0.872-1.453,2.743-0.757,4.084c0.696,1.342,2.093,2.197,3.537,2.642c1.768,0.545,4.27,0.694,5.934-0.112
		c1.665-0.806,3.187-2.559,3.814-4.441c2.617-0.044,4.912,0.079,7.472,0.353c-1.478,0.615-2.938,1.291-4.384,2.037
		c-1.281,0.544-2.598,1.113-3.575,2.105c-0.977,0.993-1.54,2.526-1.001,3.811c0.345,0.822,1.084,1.425,1.89,1.808
		c1.79,0.853,4.017,0.713,5.687-0.357c-0.623,1.761,0.988,3.673,2.811,4.086s3.701-0.218,5.463-0.841
		c-1.208,1.255-0.183,3.543,1.438,4.183c1.62,0.64,3.442,0.167,5.118-0.311c10.479-2.987,20.804-5.958,31.046-9.393
		c3.923-1.315,7.833-2.696,11.735-4.174l0.009-0.06c0.061-1.202,0.096-2.324,0.109-3.405c2.87-1.792,6.908-5.021,9.024-7.319
		C214.569,327.998,219.913,307.902,219.521,288.561z M162.129,204.806L162.129,204.806L162.129,204.806L162.129,204.806z"/>
	<path fill="#4E4D4D" d="M101.078,230.309c2.229-4.244,3.643-9.25,2.626-13.854c-5.126,0.825-10.21,1.848-15.211,3.268
		c-0.647,0.184-1.306,0.38-1.855,0.768c-2.017,1.423-1.633,4.489-0.883,6.841c1.572,4.928,3.819,9.664,6.741,13.924
		C95.982,238.161,98.911,234.437,101.078,230.309z"/>
	<g>
		<path fill="#E7E6E6" d="M130.459,280.721c-0.158-0.221-0.321-0.436-0.489-0.643c-1.265-1.564-2.802-2.684-4.856-2.74
			c-0.405-0.009-0.809,0.016-1.209,0.07c-0.139,0.019-0.277,0.044-0.415,0.07c-2.821,0.528-5.365,2.538-6.408,5.227
			c-1.02,2.628-0.544,5.747,1.092,8.026c0.354,0.494,0.762,0.95,1.222,1.352c1.016,0.885,2.287,1.532,3.633,1.591
			c1.645,0.073,3.588-0.628,4.873-1.657c1.483-1.188,2.529-2.674,3.09-4.49C131.678,285.304,131.815,282.614,130.459,280.721z"/>
	</g>
	<g>
		<path fill="#E52521" d="M190.85,272.908c-0.391-2.661-0.361-7.151-0.434-9.831l-0.072,0.048c-0.533,0.187-1.064,0.367-1.597,0.548
			c-20.721,7.021-41.236,9.435-63.383,5.397c-0.49-0.089-0.979-0.177-1.47-0.273c-0.295,2.688-0.41,5.803-0.405,8.681
			c0.138-0.025,0.276-0.051,0.415-0.07c0.4-0.054,0.804-0.079,1.209-0.07c2.055,0.056,3.592,1.176,4.856,2.74
			c19.855,3.499,39.991,1.702,58.987-5.411c0.39-0.146,0.78-0.289,1.169-0.439c0.236-0.091,0.486-0.194,0.629-0.403
			C190.934,273.565,190.896,273.22,190.85,272.908z"/>
	</g>
	<g>
		<path fill="#4E4D4D" d="M149.854,215.128c-1.795,1.065-3.526,2.468-4.653,4.226c-0.479,0.748-0.895,1.677-0.56,2.5
			c0.314,0.771,1.226,1.171,2.056,1.11s1.588-0.492,2.262-0.981c0.91-0.66,1.729-1.445,2.427-2.326
			c0.679-0.858,1.266-1.901,1.136-2.987c-0.13-1.086-1.282-2.075-2.298-1.669L149.854,215.128z"/>
	</g>
	<g>
		<path fill="#4E4D4D" d="M159.535,221.404c-2.27,1.059-4.174,2.881-5.333,5.102c-0.509,0.975-0.825,2.298-0.046,3.073
			c0.489,0.486,1.277,0.566,1.936,0.361s1.213-0.65,1.726-1.111c1.129-1.014,2.143-2.154,3.019-3.393
			c0.398-0.563,0.778-1.179,0.829-1.867c0.05-0.688-0.057-2.514-2-2.176L159.535,221.404z"/>
	</g>
	<path fill="#4E4D4D" d="M129.156,254.943c3.933-2.527,6.841-5.605,6.752-10.503c-0.018-0.931-1.465-0.934-1.448,0
		c0.082,4.565-3.158,8.174-6.843,10.435c-1.565,0.961-3.22,1.742-4.938,2.389c-1.482,0.558-3.056,1.144-4.638,1.377
		c-0.065,0.48-0.03,0.338-0.03,0.712c1.778-0.255,3.743-0.876,5.4-1.442C125.463,257.211,127.424,256.055,129.156,254.943z"/>
	<path fill="#4E4D4D" d="M125.752,352.143c-2.606,2.824-7.168,1.231-8.979-0.362c-1.811-1.593,0.29-4.49,0.941-5.214
		s0.941-2.969,0.941-2.969s5.865-44.75,5.431-44.823c-0.435-0.073-0.435,0.724-0.435,0.724s-5.503,41.564-5.865,43.447
		c-0.362,1.883-2.1,3.042-3.041,3.693c-0.941,0.652-2.462,2.39-6.662,0.941c-2.902-1-3.972-3.764-4.355-5.376
		c-0.271,1.062-0.151,2.275,0.345,3.263c0.93,1.849,2.771,3.046,4.591,4.029c0.911,0.492,1.937,0.966,2.944,0.732
		c1.737-0.402,2.92-1.779,4.488-2.697c-1.235,0.872-1.453,2.743-0.757,4.084c0.696,1.342,2.093,2.197,3.537,2.642
		c1.768,0.545,4.27,0.694,5.934-0.112c1.665-0.806,3.187-2.559,3.814-4.441C128.528,348.933,128.359,349.319,125.752,352.143z"/>
	<path fill="#4E4D4D" d="M179.192,356.633c0,0-28.023,8.762-32.368,9.414c-4.345,0.651-3.331-2.969-3.041-3.476
		c0.289-0.507,0.941-1.448-1.086-0.724c-2.028,0.724-4.563,0.724-5.721,0.29c-2.824-2.1-0.579-4.128-0.579-4.128
		s-0.725,0-2.173,0.507c-3.187,0.869-6.01,0-6.3-2.1s5.286-4.272,11.586-6.589c6.3-2.317,10.428-2.607,13.469-3.114
		s1.593-1.883,1.593-2.824s-2.245-15.568,8.689-26.72c10.934-11.151,21.868-3.331,24.186-1.738c1.125,0.773,0.951-0.042,0.477-1.084
		c-2.633-2.509-6.232-4.043-9.886-4.363c-5-0.438-10.03,1.195-14.276,3.87c-3.548,2.236-6.655,5.232-8.758,8.861
		c-3.974,6.861-4.049,15.224-3.903,23.151c-5.215,0.849-10.2,2.191-15.004,4.191c-1.478,0.615-2.938,1.291-4.384,2.037
		c-1.281,0.544-2.598,1.113-3.575,2.105c-0.977,0.993-1.54,2.526-1.001,3.811c0.345,0.822,1.084,1.425,1.89,1.808
		c1.79,0.853,4.017,0.713,5.687-0.357c-0.623,1.761,0.988,3.673,2.811,4.086s3.701-0.218,5.463-0.841
		c-1.208,1.255-0.183,3.543,1.438,4.183c1.62,0.64,3.442,0.167,5.118-0.311c10.479-2.987,20.804-5.958,31.046-9.393
		C180.753,356.549,179.192,356.633,179.192,356.633z"/>
	<path fill="#4E4D4D" d="M187.749,203.554c-2.639,2-5.277,4-7.917,6l-0.207,0.134c-5.105-1.638-10.21-3.276-15.314-4.914
		c-0.426-0.136-0.875-0.289-1.159-0.633c-0.033-0.041-0.063-0.083-0.091-0.127c-0.2-0.317-0.26-0.712-0.313-1.088
		c-0.935-6.542-2.617-12.977-5.003-19.139c-0.439,0.87-0.869,1.744-1.293,2.621c0.338-0.164,0.666-0.104,0.849,0.518
		c0.454,1.543,4.361,16.133,4.829,17.882v0c-0.039,0.174,0.081,0.338,0.481,0.463c1.544,0.482,14.965,4.73,15.544,5.117
		s2.221,2.221,2.221,2.896c0.482,0.966,1.158,0.29,0.579-1.159c-0.579-1.448,0-1.931,1.738-3.282
		c1.737-1.352,14.386-10.813,14.386-10.041c0,0.638-1.577,5.22-0.443,5.387c0.797-2.394,1.521-4.765,2.155-7.067
		C194.68,198.327,191.164,200.966,187.749,203.554z"/>
</g>
</svg>
