<?xml version="1.0" encoding="utf-8"?>
<!-- Generator: Adobe Illustrator 16.0.0, SVG Export Plug-In . SVG Version: 6.00 Build 0)  -->
<!DOCTYPE svg PUBLIC "-//W3C//DTD SVG 1.1//EN" "http://www.w3.org/Graphics/SVG/1.1/DTD/svg11.dtd">
<svg version="1.1" id="Calque_1" xmlns="http://www.w3.org/2000/svg" xmlns:xlink="http://www.w3.org/1999/xlink" x="0px" y="0px"
	 width="432px" height="432px" viewBox="0 0 432 432" enable-background="new 0 0 432 432" xml:space="preserve">
<g>
	<path fill="#F39323" d="M344.852,247.268c-3.01-10.467-10.804-18.766-18.299-26.669c-1.418-1.496-2.912-3.217-3.408-5.138
		c-0.149-0.58-0.207-1.178-0.145-1.794c0.002-0.031,0.002-0.062,0.006-0.092c0.244-2.035,1.782-3.666,3.392-4.936
		c0.198-0.157,0.4-0.31,0.604-0.461c0.427-0.319,0.862-0.625,1.303-0.926c1.539-1.048,3.139-2.015,4.655-3.088
		c0.746-0.527,1.473-1.08,2.16-1.682c2.681-2.344,4.821-5.763,4.316-9.289c-0.47-3.286-3.211-5.925-6.336-7.046
		c-3.125-1.121-6.569-0.947-9.839-0.373c-0.712,0.125-1.423,0.27-2.129,0.437c-3.062,0.724-6.028,1.871-8.585,3.688
		c-2.1,1.493-3.897,3.479-5.055,5.766c-0.577,1.138-0.997,2.349-1.211,3.614c-0.455,2.679,0.016,5.396,0.998,7.95
		c0.552,1.436,1.264,2.82,2.068,4.117c0.801,1.29,1.688,2.511,2.635,3.683c1.591,1.97,3.358,3.799,5.202,5.568
		c5.28,5.064,11.185,9.639,15.356,15.634c8.51,12.227,8.167,29.918-0.809,41.806c-3.404,4.508-7.851,8.157-12.666,11.111
		c-3.682,2.258-7.725,4.151-11.951,4.836c0.002-0.645-0.008-1.29-0.029-1.934c-0.037-1.098-0.108-2.194-0.211-3.288
		c-0.201-2.147-0.528-4.282-0.979-6.393c-0.302-1.415-0.658-2.818-1.068-4.206c-1.383-4.679-3.373-9.179-5.924-13.331
		c7.18-4.102,14.359-8.204,21.539-12.306c0.387-0.22,0.816-0.449,1.253-0.363c0.606,0.12,0.923,0.766,1.237,1.298
		c0.908,1.535,2.613,2.66,4.395,2.571s3.474-1.589,3.495-3.373c0.023-1.986-2.303-3.479-4.136-2.947
		c1.243-0.666,2.289-1.729,2.697-3.067c0.486-1.589-0.121-3.539-1.594-4.308c-1.243-0.65-2.973-0.143-3.66,1.015
		c0.537-1.438,0.979-2.943,0.688-4.432c-0.339-1.731-2.11-3.302-3.785-2.746c-0.803,0.266-1.406,0.953-1.797,1.704
		c-0.824,1.589-0.834,3.481-0.564,5.251c0.088,0.573,0.196,1.19-0.065,1.708c-0.193,0.381-0.556,0.641-0.906,0.885
		c-7.188,5.026-14.481,9.903-21.863,14.641c-1.66-2.173-3.486-4.221-5.478-6.106c7.094-2.007,12.775-7.941,14.289-15.156
		c1.513-7.215-1.031-14.64-6.721-19.329c1.256-6.039,1.936-12.198,2.026-18.366c-4.379,4.644-9.049,9.407-13.429,14.051
		c-1.08-0.363-2.174-0.685-3.279-0.964c-1.375-0.348-2.768-0.624-4.169-0.843c-0.937-0.146-1.878-0.267-2.822-0.355
		c-2.065-0.192-4.144-0.245-6.217-0.159c-0.81,0.034-1.618,0.088-2.425,0.165c-1.588,0.15-3.166,0.377-4.729,0.692
		c-1.111,0.225-2.215,0.49-3.307,0.798c-4.463-4.441-8.79-9.12-13.253-13.562c-0.365,6.866-0.718,13.286-1.687,20.093
		c-6.199,4.898-8.952,13.746-6.626,21.296c2.325,7.551,9.008,13.299,16.889,13.859c-2.347,1.674-4.513,3.593-6.472,5.705
		c-6.101-4.23-12.202-8.46-18.304-12.69c-0.46-0.319-0.937-0.656-1.205-1.147c-0.396-0.726-0.254-1.61-0.26-2.437
		c-0.012-1.703-0.798-3.46-2.258-4.336c-1.461-0.876-3.59-0.634-4.597,0.739c-1.426,1.943-0.118,4.643,1.19,6.667
		c-1.954-1.094-4.743-1.7-6.174,0.022c-0.963,1.158-0.788,2.996,0.156,4.169c0.943,1.174,2.485,1.743,3.989,1.822
		c-1.461-0.199-3.041,0.242-4.046,1.322c-1.004,1.079-1.312,2.814-0.569,4.089c1.04,1.787,3.687,2.049,5.504,1.061
		c1.817-0.988,2.967-2.852,3.923-4.686c5.996,3.802,12.065,7.488,18.198,11.065c-2.961,4.471-5.113,9.478-6.283,14.707
		c-0.276,1.236-0.497,2.485-0.661,3.742c-0.028,0.215-0.059,0.429-0.083,0.644c-0.287,2.507-0.339,5.037-0.175,7.553
		c0.112,1.727,0.327,3.447,0.643,5.15c0.702,3.788,1.899,7.485,3.549,10.965c0.475,1.002,0.987,1.986,1.536,2.95
		c1.443,2.531,3.137,4.918,5.068,7.103c1.161,1.313,2.439,2.569,3.823,3.669c-0.162,7.686-0.324,15.372-0.485,23.058
		c-2.865-1.413-6.821,0.613-7.351,3.763c-0.132,0.784-0.073,1.618,0.288,2.327c0.734,1.448,2.577,2.045,4.186,1.819
		s3.043-1.098,4.425-1.951c-1.218,2.057-2.273,4.905-0.605,6.617c1.474,1.512,4.254,0.823,5.48-0.895
		c1.226-1.718,1.251-4.017,0.924-6.102c1.519,1.018,3.791,0.61,4.916-0.832s1.001-3.687-0.223-5.045s-3.385-1.729-5.026-0.924
		c-0.107-6.164-0.215-12.328-0.321-18.492c0.644,0.186,1.3,0.333,1.972,0.424c7.818,0.67,16.665,1.203,24.266-0.75
		c0.883-0.227,1.761-0.488,2.63-0.781c0.659,6.174,1.3,12.351,1.914,18.529c-1.804-0.161-3.764,0.501-4.774,2.004
		s-0.726,3.855,0.831,4.782c2.073,1.235,4.609-0.473,6.405-2.086c-0.014,1.284-0.529,2.513-0.646,3.792
		c-0.117,1.278,0.35,2.792,1.565,3.207c1.043,0.356,2.184-0.261,2.945-1.058c1.96-2.05,2.281-5.473,0.739-7.852
		c1.345,0.979,3.488,0.329,4.229-1.161c0.74-1.49,0.11-3.453-1.254-4.406c-1.364-0.953-3.274-0.934-4.738-0.143
		c-0.201-6.209-0.402-12.418-0.604-18.628c3.901-2.319,7.265-5.444,9.513-9.371c0.514-0.898,0.959-1.831,1.358-2.784
		c0.543-1.295,0.992-2.632,1.368-3.989c0.199-0.715,0.38-1.435,0.543-2.157c0.211-0.934,0.389-1.873,0.545-2.816
		c11.131-3.509,21.615-9.403,29.176-18.231C344.188,274.15,348.506,259.976,344.852,247.268z"/>
	<g>
		<path fill="#4E4D4D" d="M279.256,224.757c1.523-3.358,2.832-6.814,3.917-10.338c-1.375-0.348-2.768-0.624-4.169-0.843
			c0,0.486,0.039,0.977,0.078,1.459C279.34,218.269,279.397,221.517,279.256,224.757z"/>
	</g>
	<g>
		<path fill="#4E4D4D" d="M267.539,213.228c-1.587,0.15-3.166,0.377-4.729,0.692c0.131,3.027,0.657,6.037,1.572,8.926
			C265.435,219.64,266.487,216.434,267.539,213.228z"/>
	</g>
	<g>
		<path fill="#4E4D4D" d="M276.182,213.221c-2.066-0.192-4.145-0.245-6.217-0.159c0.656,5.063,1.379,10.118,2.174,15.162
			C273.582,223.25,274.926,218.247,276.182,213.221z"/>
	</g>
	<g>
		<g>
			<path fill="#FBC063" d="M285.613,278.232c-2.865-3.04-6.781-5.241-10.955-5.417c-9.667-0.101-14.329,4.535-17.86,9.517
				c-6.45,9.099-7.142,21.782-2.244,31.802c1.669,3.416,4.007,6.613,7.229,8.629c3.477,2.174,7.721,2.814,11.819,2.696
				c2.797-0.081,5.611-0.5,8.2-1.563c6.185-2.541,10.471-8.641,11.92-15.169c1.448-6.528,0.347-13.409-1.922-19.699
				C290.385,285.097,288.478,281.272,285.613,278.232z M274.326,314.412c-0.111,0.473-0.521,1.041-0.954,0.821
				c-0.233-0.119-0.308-0.412-0.344-0.671c-0.179-1.292-0.239-2.251,0.255-3.458c0.157-0.366,0.324-0.401,0.551-0.291
				c0.228,0.109,0.334,0.369,0.406,0.611C274.526,312.39,274.557,313.431,274.326,314.412z"/>
		</g>
	</g>
	<g>
		<path fill="#4E4D4D" d="M268.157,239.647c2.014,1.392,3.414,3.397,4.334,5.666c0.534-2.083,1.554-4.121,3.169-5.507
			c0.885-0.759,2.006-1.478,2.164-2.633c0.066-0.355-0.137-0.594-0.553-0.271c-3.178,1.87-7.244,2.139-10.641,0.704
			C266.519,238.496,267.42,239.137,268.157,239.647z"/>
	</g>
	<g>
		<path fill="#FBC063" d="M230.053,249.419c-0.461-0.319-0.938-0.656-1.205-1.147c-0.396-0.726-0.255-1.61-0.26-2.437
			c-0.013-1.703-0.798-3.46-2.259-4.336c-1.46-0.876-3.59-0.634-4.597,0.739c-1.426,1.943-0.117,4.643,1.191,6.667
			c-1.954-1.094-4.743-1.7-6.175,0.022c-0.963,1.159-0.787,2.996,0.156,4.169c0.944,1.174,2.485,1.743,3.99,1.822
			c-1.461-0.199-3.042,0.242-4.046,1.322c-1.005,1.079-1.313,2.814-0.57,4.089c1.041,1.787,3.688,2.049,5.505,1.061
			c1.817-0.988,2.967-2.852,3.922-4.686c5.996,3.802,12.065,7.488,18.198,11.065c1.328-2.004,2.818-3.899,4.452-5.66
			C242.255,257.879,236.153,253.649,230.053,249.419z"/>
	</g>
	<g>
		<path fill="#FBC063" d="M326.614,249.638c-0.25,0.072-0.491,0.181-0.716,0.333C326.143,249.875,326.381,249.762,326.614,249.638z"
			/>
	</g>
	<g>
		<g>
			<path fill="#1B1B1B" d="M323.625,243.025c-0.144,0.261-0.253,0.527-0.318,0.819c-0.143,0.639,0.734,0.857,0.965,0.266
				c0.09-0.232,0.18-0.465,0.268-0.699c0.228-0.603-0.739-0.863-0.964-0.266c-0.088,0.233-0.178,0.466-0.269,0.699
				c0.322,0.088,0.643,0.177,0.965,0.266c0.047-0.21,0.113-0.391,0.217-0.58C324.801,242.966,323.938,242.461,323.625,243.025z"/>
		</g>
	</g>
	<g>
		<path fill="#FBC063" d="M320.37,252.451c0.386-0.22,0.815-0.449,1.252-0.363c0.606,0.12,0.923,0.766,1.237,1.298
			c0.908,1.535,2.613,2.66,4.395,2.571s3.475-1.589,3.495-3.373c0.024-1.986-2.302-3.479-4.135-2.947
			c-0.233,0.125-0.472,0.237-0.716,0.333c0.225-0.152,0.466-0.261,0.716-0.333c1.243-0.666,2.288-1.729,2.697-3.067
			c0.485-1.588-0.122-3.539-1.594-4.308c-1.243-0.65-2.973-0.143-3.661,1.015c-0.088,0.235-0.178,0.468-0.268,0.699
			c0.046-0.254,0.142-0.486,0.268-0.699c0.538-1.438,0.98-2.943,0.688-4.432c-0.34-1.731-2.11-3.302-3.786-2.746
			c-0.803,0.267-1.406,0.953-1.796,1.704c-0.825,1.589-0.834,3.481-0.564,5.251c0.087,0.573,0.196,1.19-0.066,1.708
			c-0.192,0.381-0.556,0.641-0.905,0.885c-7.189,5.026-14.482,9.903-21.863,14.641c1.097,1.436,2.121,2.927,3.067,4.468
			C306.011,260.655,313.19,256.553,320.37,252.451z"/>
	</g>
	<g>
		<path fill="#FBC063" d="M250.836,347.309c-2.865-1.413-6.82,0.613-7.35,3.763c-0.132,0.784-0.073,1.618,0.287,2.327
			c0.735,1.448,2.578,2.045,4.186,1.819c1.609-0.226,3.043-1.098,4.426-1.951c-1.218,2.057-2.273,4.905-0.605,6.617
			c1.473,1.512,4.253,0.823,5.479-0.895s1.251-4.017,0.924-6.102c1.519,1.018,3.791,0.61,4.917-0.832
			c1.124-1.441,1-3.687-0.224-5.045s-3.385-1.729-5.026-0.924c-0.107-6.164-0.214-12.328-0.32-18.492
			c-2.256-0.653-4.331-1.851-6.208-3.343C251.16,331.937,250.998,339.623,250.836,347.309z"/>
	</g>
	<g>
		<path fill="#FBC063" d="M288.311,345.016c-1.805-0.161-3.764,0.501-4.775,2.004c-1.011,1.503-0.725,3.855,0.832,4.782
			c2.073,1.235,4.608-0.473,6.404-2.086c-0.014,1.284-0.528,2.513-0.646,3.792c-0.116,1.279,0.351,2.792,1.565,3.207
			c1.044,0.356,2.184-0.261,2.946-1.058c1.96-2.05,2.281-5.473,0.739-7.852c1.344,0.979,3.487,0.329,4.228-1.161
			c0.741-1.49,0.11-3.453-1.253-4.406c-1.364-0.953-3.275-0.934-4.738-0.143c-0.201-6.209-0.402-12.418-0.604-18.628
			c-2.081,1.237-4.314,2.244-6.614,3.02C287.055,332.661,287.695,338.837,288.311,345.016z"/>
	</g>
	<g>
		<path fill="#4E4D4D" d="M273.834,310.813c-0.227-0.11-0.394-0.075-0.551,0.291c-0.494,1.207-0.434,2.166-0.255,3.458
			c0.036,0.259,0.11,0.552,0.344,0.671c0.433,0.22,0.843-0.348,0.954-0.821c0.23-0.981,0.2-2.022-0.086-2.988
			C274.168,311.182,274.062,310.922,273.834,310.813z"/>
	</g>
	<g>
		<path fill="#4E4D4D" d="M319.706,217.717c1.013-0.912,2.147-1.713,3.365-2.33c-0.149-0.58-0.207-1.178-0.146-1.794
			c-3.705-0.523-7.549-0.043-11.018,1.361c1.592,1.97,3.358,3.799,5.203,5.568C317.904,219.522,318.756,218.572,319.706,217.717z"/>
	</g>
	<g>
		<path fill="#4E4D4D" d="M332.886,204.09c0.745-0.527,1.472-1.08,2.159-1.682c2.682-2.344,4.822-5.763,4.317-9.289
			c-0.471-3.287-3.212-5.926-6.337-7.046c-3.124-1.121-6.568-0.947-9.838-0.373c-0.713,0.125-1.424,0.27-2.129,0.437
			C326.825,190.604,331.012,197.045,332.886,204.09z"/>
	</g>
	<g>
		<path fill="#4E4D4D" d="M320.055,204.641c2.548,0.507,4.877,1.778,6.872,3.462c0.427-0.318,0.862-0.625,1.304-0.925
			c-1.908-3.198-4.561-5.954-7.71-7.941c-3.889-2.455-8.507-3.727-13.103-3.646c-0.576,1.138-0.996,2.349-1.211,3.614
			c-0.454,2.679,0.016,5.396,0.998,7.95C311.298,205.186,315.681,203.77,320.055,204.641z"/>
	</g>
	<g>
		<path fill="#4E4D4D" d="M289.854,231.079c0.151,0.347,0.66,0.047,0.509-0.298c-0.929-2.119-3.766-1.562-5.527-1.063
			c-1.935,0.549-3.767,1.582-4.777,3.378c-0.187,0.331,0.323,0.629,0.509,0.298c0.861-1.529,2.37-2.45,4.005-2.98
			C286.136,229.907,288.996,229.124,289.854,231.079z"/>
		<path fill="#4E4D4D" d="M259.785,231.701c-1.994-0.355-4.04-0.047-5.821,0.922c-0.333,0.181-0.036,0.691,0.298,0.509
			c1.635-0.89,3.534-1.188,5.367-0.863c1.602,0.283,3.613,1.032,4.297,2.614c0.15,0.347,0.658,0.047,0.51-0.298
			C263.691,232.864,261.53,232.012,259.785,231.701z"/>
		<path fill="#4E4D4D" d="M277.816,246.536c-0.264,1.136-1.27,2.081-2.479,2.074c-1.24-0.007-2.229-1.1-2.494-2.239
			c-0.046-0.195-0.225-0.241-0.371-0.189c-0.14-0.034-0.295,0.02-0.333,0.201c-0.564,2.675-4.12,3.229-5.523,0.911
			c-0.196-0.324-0.706-0.028-0.509,0.298c1.531,2.531,5.318,2.204,6.397-0.4c0.507,1.109,1.58,2.006,2.833,2.008
			c1.463,0.002,2.725-1.114,3.047-2.507C278.471,246.324,277.902,246.166,277.816,246.536z"/>
		<path fill="#4E4D4D" d="M307.781,234.655c-6.299,1.155-12.628,2.136-18.981,2.94c-0.371,0.047-0.376,0.637,0,0.59
			c6.405-0.811,12.788-1.797,19.139-2.961C308.311,235.155,308.153,234.587,307.781,234.655z"/>
		<path fill="#4E4D4D" d="M309.646,240.436c-6.299,0.167-12.603-0.112-18.863-0.833c-0.376-0.043-0.373,0.547,0,0.59
			c6.261,0.721,12.564,1,18.863,0.833C310.025,241.016,310.027,240.426,309.646,240.436z"/>
		<path fill="#4E4D4D" d="M308.936,246.768c-5.383-0.804-10.689-2.042-15.873-3.701c-0.363-0.116-0.518,0.453-0.157,0.568
			c5.184,1.66,10.49,2.897,15.873,3.701C309.149,247.392,309.311,246.823,308.936,246.768z"/>
		<path fill="#4E4D4D" d="M254.478,239.938c-7.509-1.486-15.063-2.731-22.652-3.738c-0.375-0.049-0.371,0.541,0,0.59
			c7.536,1,15.038,2.241,22.496,3.717C254.691,240.58,254.85,240.011,254.478,239.938z"/>
		<path fill="#4E4D4D" d="M253.046,242.246c-6.12,1.182-12.327,1.895-18.504,2.708c-0.37,0.049-0.375,0.639,0,0.59
			c6.229-0.821,12.489-1.539,18.661-2.729C253.575,242.742,253.417,242.174,253.046,242.246z"/>
		<path fill="#4E4D4D" d="M254.108,245.493c-5.645,2.188-11.452,3.925-17.37,5.196c-0.371,0.08-0.215,0.648,0.156,0.569
			c5.919-1.271,11.727-3.008,17.371-5.196C254.615,245.926,254.463,245.355,254.108,245.493z"/>
	</g>
	<path fill="none" d="M268.157,239.647c2.014,1.392,3.414,3.397,4.334,5.666c0.534-2.083,1.554-4.121,3.169-5.507
		c0.885-0.759,2.006-1.478,2.164-2.633c0.066-0.355-0.137-0.594-0.553-0.271c-3.178,1.87-7.244,2.139-10.641,0.704
		C266.519,238.496,267.42,239.137,268.157,239.647z"/>
	<path fill="none" d="M285.613,278.232c-2.865-3.04-6.781-5.241-10.955-5.417c-9.667-0.101-14.329,4.535-17.86,9.517
		c-6.45,9.099-7.142,21.782-2.244,31.802c1.669,3.416,4.007,6.613,7.229,8.629c3.477,2.174,7.721,2.814,11.819,2.696
		c2.797-0.081,5.611-0.5,8.2-1.563c6.185-2.541,10.471-8.641,11.92-15.169c1.448-6.528,0.347-13.409-1.922-19.699
		C290.385,285.097,288.478,281.272,285.613,278.232z"/>
	<path fill="#4E4D4D" d="M237.622,282.476c-0.276,1.236-0.498,2.485-0.661,3.742l11.114-1.158L237.622,282.476z"/>
	<path fill="#4E4D4D" d="M236.702,294.415c0.112,1.727,0.328,3.447,0.644,5.15c3.056-2.346,7.781-6.249,7.781-6.249L236.702,294.415
		z"/>
	<path fill="#4E4D4D" d="M240.895,310.53c0.475,1.002,0.986,1.986,1.536,2.95l4.171-6.454L240.895,310.53z"/>
	<path fill="#4E4D4D" d="M294.217,281.227c0,0,6.976,0.717,11.605,1.067c-0.301-1.415-0.658-2.818-1.068-4.206L294.217,281.227z"/>
	<path fill="#4E4D4D" d="M307.012,291.975c-0.036-1.097-0.108-2.194-0.211-3.288l-9.193,1.532L307.012,291.975z"/>
	<path fill="#4E4D4D" d="M303.881,311.313c0.542-1.295,0.992-2.631,1.368-3.989c-2.803-0.747-6.904-1.772-6.904-1.772
		L303.881,311.313z"/>
</g>
<g>
	<g>
		<path fill="#B4B4B4" d="M198.933,277.417c-4.469-0.139-8.479-3.05-11.083-6.685c-2.345-3.272-3.741-7.1-5.043-10.92
			c2.509-1.878,4.455-4.62,6.003-7.399c4.813-8.642,7.107-18.667,6.53-28.542c-0.028-0.498-0.109-1.071-0.534-1.331
			c-0.29-0.178-0.657-0.149-0.996-0.111c-11.897,1.321-22.811,6.75-31.343,15.13c-0.177-0.047-0.355-0.087-0.532-0.131
			c-1.607-0.399-3.242-0.688-4.875-0.864c-0.044-0.005-0.089-0.012-0.134-0.017c-0.822-0.085-1.631-0.145-2.433-0.188
			c-5.134-0.275-9.881,0.274-14.903,1.069c-0.688,0.108-1.381,0.223-2.08,0.339c-0.707,0.118-1.419,0.237-2.142,0.359
			c-1.386,0.389-2.742,0.866-4.068,1.416c-0.135,0.056-0.271,0.109-0.406,0.167c-2.186-1.67-4.693-2.99-7.176-4.202
			c-5.074-2.477-10.326-4.734-15.888-5.71s-11.506-0.586-16.516,2.018c-0.362,0.188-0.738,0.407-0.932,0.767
			c-0.217,0.401-0.16,0.89-0.089,1.34c1.562,9.939,6.796,19.024,13.468,26.554c1.525,1.722,3.146,3.385,4.933,4.828
			c-0.839,3.162-1.375,6.407-2.397,9.514c-1.382,4.194-3.778,8.221-7.487,10.616c-3.709,2.396-9.386,2.924-12.966,0.342l0.021,0.061
			c0.661,0.754,1.342,1.498,2.039,2.231c8.311,8.75,19.03,15.928,30.478,19.857c-1.973,3.601-2.923,7.787-3.073,11.917
			c-0.204,5.635,0.957,11.226,2.308,16.7c1.179-1.801,3.498-2.361,5.476-3.21c2.654-1.139,4.978-3.036,6.624-5.409
			c-1.701,5.433,1.059,11.157,3.739,16.18c0.273-1.853,1.063-4.189,2.937-4.215c0.789-0.011,1.504,0.439,2.146,0.897
			c6.574,4.685,11.181,12.046,12.521,20.007c3.669-3.771,7.399-7.628,9.702-12.358c2.74-5.629,3.246-12.045,3.708-18.288
			c2.031,0.808,2.587,3.368,2.856,5.538c1.55-1.671,2.695-3.715,3.313-5.909c0.638,1.251,0.955,2.664,0.914,4.067
			c5.669-3.612,9.998-9.455,11.259-16.058c1.072-5.622-0.231-11.722-3.646-16.272c8.476-5.886,15.329-14.054,21.52-22.474
			c0.788-1.073,1.566-2.149,2.336-3.226C202.276,276.805,200.172,277.455,198.933,277.417z"/>
	</g>
	<path fill="#CDCCCC" d="M190.896,241.627c1.598-4.822,2.703-9.848,2.727-14.928c0.002-0.308-0.008-0.64-0.195-0.884
		c-0.369-0.481-1.122-0.316-1.685-0.09c-8.021,3.216-14.611,9.215-19.792,16.193c1.786,1.277,3.398,2.78,4.747,4.54
		c2.376,3.099,3.829,6.774,5.114,10.477C186.174,253.014,189.017,247.301,190.896,241.627z"/>
	<path fill="#CDCCCC" d="M95.941,239.812c-0.307,0.099-0.637,0.22-0.811,0.492c-0.231,0.361-0.1,0.834,0.043,1.238
		c2.908,8.212,7.795,15.708,14.108,21.71c2.911-8.999,9.354-16.757,17.527-21.496C117.233,237.35,105.986,236.565,95.941,239.812z"
		/>
	<g>
		<path fill="#4E4D4D" d="M155.06,260.975c1.242-8.104,3.559-16.043,6.861-23.548c-1.607-0.399-3.242-0.688-4.875-0.864
			C155.148,244.537,154.471,252.8,155.06,260.975z"/>
	</g>
	<g>
		<path fill="#4E4D4D" d="M154.479,236.359c-5.134-0.275-9.881,0.274-14.903,1.069c4.307,7.444,7.438,15.567,9.227,23.979
			C149.836,252.897,151.154,244.175,154.479,236.359z"/>
	</g>
	<g>
		<path fill="#4E4D4D" d="M137.496,237.767c-0.707,0.118-1.419,0.237-2.142,0.359c-1.386,0.389-2.742,0.866-4.068,1.416
			c0.205,0.325,0.403,0.655,0.606,0.982c4.213,6.781,7.944,13.861,11.141,21.177C142.032,253.558,140.169,245.522,137.496,237.767z"
			/>
	</g>
	<g>
		<path fill="#8EC045" d="M139.07,261.701c-1.212-1.774-3.021-3.019-5.055-3.53c-1.323-0.333-2.742-0.358-4.157-0.007
			c-0.228,0.052-0.455,0.111-0.682,0.178c-3.572,1.048-6.961,3.917-7.401,8.332c-0.468,4.695,3.064,9.451,7.694,10.361
			c4.63,0.91,9.698-2.156,11.042-6.679C141.373,267.458,140.776,264.197,139.07,261.701z"/>
	</g>
	<g>
		<path fill="#8EC045" d="M172.009,257.041c-0.796-0.793-1.748-1.46-2.787-1.877c-0.706-0.284-1.452-0.453-2.217-0.462
			c-1.675,0.135-2.836,0.334-4.091,1.092c-0.418,0.253-0.848,0.568-1.31,0.963c-1.931,1.653-3.358,3.932-3.806,6.434
			s0.137,5.209,1.731,7.188c2.072,2.572,5.77,3.656,8.94,2.731c3.172-0.925,5.676-3.747,6.344-6.981
			C175.483,262.893,174.349,259.373,172.009,257.041z"/>
	</g>
	<g>
		<path fill="#4E4D4D" d="M136.587,265.167c-0.087-1.609-0.524-3.356-1.268-4.908c-0.363-0.757-0.799-1.464-1.304-2.088
			c-1.323-0.333-2.742-0.358-4.157-0.007c-0.228,0.052-0.455,0.111-0.682,0.178c-1.987,2.696-2.863,6.191-2.362,9.505
			c0.519,3.432,2.504,6.617,5.356,8.594c0.239,0.166,0.508,0.33,0.798,0.309c0.244-0.018,0.459-0.166,0.645-0.327
			c0.977-0.852,1.429-2.144,1.796-3.387c0.695-2.352,1.223-4.785,1.192-7.231C136.599,265.592,136.599,265.379,136.587,265.167z"/>
	</g>
	<g>
		<path fill="#FFFFFF" d="M133.617,269.006c0.435-0.457,0.177-1.352-0.435-1.508l-0.036-0.008c-0.617-0.131-1.245,0.557-1.059,1.16
			C132.275,269.251,133.182,269.463,133.617,269.006z"/>
	</g>
	<g>
		<path fill="#CDCCCC" d="M172.582,284.589c-3.768-1.142-8.626-3.357-12.432-4.362c-3.636-0.959-9.028-1.459-12.758-0.981
			c-15.938,2.043-26.559,16.413-42.624,16.109c-7.036-0.133-11.566-3.209-16.879-7.288c8.311,8.75,19.03,15.928,30.478,19.857
			c1.911,0.656,3.843,1.225,5.787,1.692c3.271,0.786,6.663,1.347,9.993,0.865c0.843-0.122,1.707-0.31,2.534-0.107
			c0.752,0.185,1.387,0.672,2.03,1.104c5.743,3.854,13.958,3.548,19.398-0.722c0.648-0.509,1.27-1.074,2.018-1.422
			c0.827-0.386,1.755-0.481,2.656-0.62c3.903-0.603,7.618-2.111,11.101-3.972c1.825-0.975,3.576-2.059,5.265-3.231
			c8.476-5.886,15.329-14.054,21.52-22.474C192.753,285.188,182.81,287.691,172.582,284.589z"/>
	</g>
	<g>
		<path fill="#4E4D4D" d="M190.845,267.689c-8.572,6.636-17.145,13.271-25.717,19.908c-0.332,0.257,0.134,0.717,0.463,0.462
			c8.572-6.636,17.145-13.271,25.717-19.908C191.64,267.895,191.174,267.435,190.845,267.689z"/>
		<path fill="#4E4D4D" d="M195.632,269.408c-8.833,6.651-17.666,13.302-26.5,19.953c-0.332,0.25-0.006,0.818,0.331,0.565
			c8.833-6.651,17.666-13.302,26.499-19.953C196.294,269.722,195.969,269.154,195.632,269.408z"/>
		<path fill="#4E4D4D" d="M200.915,270.782c-9.164,6.809-18.329,13.618-27.493,20.427c-0.334,0.249-0.008,0.816,0.33,0.565
			c9.164-6.809,18.329-13.618,27.493-20.427C201.58,271.099,201.254,270.53,200.915,270.782z"/>
		<path fill="#4E4D4D" d="M125.199,292.087c-9.188-6.613-18.375-13.227-27.563-19.839c-0.342-0.247-0.669,0.321-0.33,0.564
			c9.188,6.613,18.375,13.227,27.563,19.84C125.212,292.898,125.539,292.331,125.199,292.087z"/>
		<path fill="#4E4D4D" d="M122.206,295.264c-8.995-5.89-17.991-11.779-26.986-17.668c-0.354-0.231-0.682,0.335-0.33,0.565
			c8.995,5.889,17.991,11.779,26.986,17.668C122.229,296.06,122.557,295.494,122.206,295.264z"/>
		<path fill="#4E4D4D" d="M116.586,298.295c-8.454-5.637-16.909-11.274-25.363-16.912c-0.352-0.234-0.68,0.332-0.331,0.565
			c8.455,5.637,16.91,11.274,25.364,16.912C116.607,299.094,116.936,298.528,116.586,298.295z"/>
	</g>
	<g>
		<path fill="#F3A4C8" d="M149.215,298.76c-0.279-0.282-0.535-0.585-0.772-0.904c-0.008-0.01-0.018-0.026-0.026-0.041
			c-0.763,2.08-2.676,3.386-4.78,4.043c0.294,1.481,0.706,2.828,1.172,3.467c1.106,1.516,3.075,2.436,4.913,2.058
			c1.741-0.358,3.127-1.806,3.744-3.474c0.229-0.623,0.345-1.682,0.379-2.854c-0.915-0.099-1.811-0.38-2.633-0.814
			C150.479,299.854,149.798,299.347,149.215,298.76z"/>
	</g>
	<g>
		<path fill="#4E4D4D" d="M160.698,294.232c-0.272,2.894-2.688,5.604-5.654,5.872c-0.4,0.036-0.798,0.021-1.191-0.029
			c-0.98-0.126-1.925-0.5-2.757-1.04c-0.626-0.406-1.19-0.918-1.664-1.494c-0.309-0.375-0.546-1.05-0.97-1.286
			c-0.252-0.141-0.667-0.03-0.721,0.293c-0.383,2.3-2.207,3.679-4.278,4.35c-0.487,0.158-0.988,0.277-1.487,0.36
			c-2.604,0.428-5.933-0.109-6.97-2.91c-0.218-0.587-1.166-0.333-0.946,0.261c1.167,3.15,4.63,4.073,7.687,3.668
			c0.63-0.083,1.268-0.224,1.89-0.417c2.104-0.657,4.018-1.963,4.78-4.043c0.009,0.014,0.019,0.03,0.026,0.041
			c0.237,0.318,0.493,0.622,0.772,0.904c0.583,0.587,1.265,1.094,1.996,1.48c0.822,0.434,1.718,0.715,2.633,0.814
			c0.631,0.069,1.271,0.053,1.906-0.069c3.221-0.62,5.628-3.551,5.93-6.754C161.739,293.604,160.758,293.607,160.698,294.232z"/>
	</g>
	<g>
		<path fill="#4E4D4D" d="M170.432,257.775c-0.12-0.395-0.261-0.788-0.422-1.17c-0.215-0.509-0.473-0.997-0.788-1.441
			c-0.706-0.284-1.452-0.453-2.217-0.462c-1.675,0.135-2.836,0.334-4.091,1.092c-1.232,2.633-1.65,5.645-1.157,8.511
			c0.549,3.191,2.22,6.179,4.651,8.317c0.221,0.194,0.467,0.39,0.759,0.42c0.522,0.053,0.932-0.423,1.218-0.862
			c1.729-2.648,2.671-5.787,2.764-8.947C171.203,261.391,170.97,259.541,170.432,257.775z"/>
	</g>
	<g>
		<path fill="#FFFFFF" d="M167.055,266.473c0.548-0.557,0.239-1.673-0.518-1.869c-0.756-0.196-1.568,0.629-1.359,1.382
			C165.387,266.74,166.507,267.03,167.055,266.473z"/>
	</g>
	<g>
		<path fill="#FFFFFF" d="M136.871,261.54c-0.379-0.566-0.93-1.007-1.552-1.281c-0.43-0.188-0.893-0.299-1.361-0.307
			c-0.66,0.13-2.261,0.627-2.619,2.31c-0.358,1.683,0.833,3.473,2.464,4.022c0.855,0.288,1.866,0.259,2.585-0.287
			c0.076-0.058,0.146-0.125,0.214-0.192c0.272-0.271,0.48-0.607,0.621-0.966C137.646,263.769,137.51,262.496,136.871,261.54z"/>
	</g>
	<g>
		<path fill="#FFFFFF" d="M170.121,256.637c-0.037-0.013-0.074-0.021-0.111-0.032c-1.804-0.557-3.279,0.571-3.91,2.386
			c-0.644,1.854,0.24,4.015,2.106,4.62c0.977,0.316,2.058,0.135,2.942-0.377c0.807-0.467,1.451-1.208,1.701-2.11
			C173.373,259.233,172.043,257.035,170.121,256.637z"/>
	</g>
	<g>
		<path fill="#4E4D4D" d="M153.582,284.19c-1.063,0.412-2.015,1.073-3.076,1.491c-1.939,0.763-4.129,0.661-6.15,0.15
			c-0.758-0.191-1.511-0.439-2.291-0.475c-0.781-0.036-1.618,0.175-2.135,0.762c-1.023,1.163-0.216,3.105,1.088,3.943
			c1.304,0.837,2.92,0.986,4.385,1.49c1.466,0.505,2.953,1.649,2.947,3.199c0.283-1.547,1.485-2.778,2.813-3.622
			c1.328-0.844,2.82-1.4,4.166-2.215c0.944-0.573,1.874-1.369,2.075-2.455c0.202-1.086-0.062-1.733-0.533-2.185
			C155.918,283.648,154.645,283.778,153.582,284.19z"/>
	</g>
</g>
<g>
	<g>
		<path fill="#1B1B1B" d="M99.02,132.008c-0.385-1.269-1.299-2.6-2.625-2.63c-1.092-0.025-1.994,0.856-2.561,1.79
			c-1.002,1.649-1.382,3.666-1.051,5.566c-1.153-0.704-2.381-1.099-3.956-0.753c-1.574,0.345-2.98,1.392-3.764,2.8
			c-0.7,1.258-0.843,2.971,0.116,4.044c1.222,1.368,3.383,1.024,5.215,0.942c2.958-0.133,5.953,0.758,8.357,2.488
			C97.924,141.543,100.408,136.584,99.02,132.008z"/>
	</g>
	<g>
		<path fill="#1B1B1B" d="M94.842,154.515c0.934-0.495,1.715-1.622,1.392-2.627c-0.182-0.565-0.723-0.948-1.286-1.134
			c-0.916-0.302-1.966-0.17-2.778,0.349c-0.3-0.858-0.414-1.782-0.808-2.602c-0.394-0.819-1.187-1.552-2.093-1.483
			c-1.182,0.091-1.865,1.518-1.654,2.685c0.21,1.167,1.015,2.121,1.729,3.066c1.105,1.461,2.1,3.245,1.724,5.038
			C92.806,155.746,93.621,155.163,94.842,154.515z"/>
	</g>
	<g>
		<path fill="#1B1B1B" d="M96.973,163.71c-0.513-0.389-1.266-0.401-1.816-0.069c0.124-0.591,0.05-1.222-0.207-1.769
			c-0.057-0.124-0.128-0.247-0.239-0.326c-0.434-0.309-0.958,0.252-1.171,0.74c-0.625,1.427-1.117,3.432-1.246,4.984
			c0.531-0.791,1.654-0.838,2.607-0.835c0.953,0.002,2.096-0.143,2.513-1C97.694,164.858,97.484,164.1,96.973,163.71z"/>
	</g>
	<g>
		<path fill="#1B1B1B" d="M150.637,81.883l-0.054,0.069c1.811-1.248,3.621-2.496,5.432-3.743c1.087-0.749,2.202-1.526,2.923-2.632
			c0.328-0.502,0.568-1.138,0.344-1.693c-0.323-0.797-1.383-0.968-2.233-0.847c-1.323,0.187-2.584,0.794-3.556,1.711
			c-0.581-0.83-1.18-1.648-1.794-2.455c-0.399-0.524-0.903-1.093-1.563-1.086c-0.586,0.006-1.079,0.502-1.262,1.06
			s-0.12,1.162-0.032,1.742C149.231,76.602,150,79.209,150.637,81.883z"/>
	</g>
	<g>
		<path fill="#FABF79" d="M196.056,186.612c-0.074-2.11-0.458-4.181-1.074-6.192c-1.079-3.522-2.877-6.855-5.021-9.869
			c-2.951-4.151-6.578-7.821-10.695-10.821c-2.141-1.561-4.539-3.118-6.306-5.046c0.114-4.243-0.163-8.495-0.842-12.684
			c1.098-2.339,1.632-4.945,1.492-7.526c-0.154-2.862-1.135-5.666-2.75-8.031c1.085-0.98,2.075-2.056,2.923-3.256
			c2.498-3.54,3.49-8.335,1.762-12.308l-0.006-0.027c4.82-5.805,8.508-12.548,10.793-19.739c0.563-1.77,0.886-4.064-0.61-5.163
			c-1.034-0.76-2.465-0.546-3.718-0.274c-6.541,1.42-12.935,3.519-19.045,6.251c-0.282-0.267-0.572-0.518-0.869-0.758
			c-1.17-0.948-2.454-1.697-3.815-2.289c-1.044-0.453-2.133-0.814-3.251-1.102c-2.104-0.541-4.311-0.822-6.512-0.968
			c-0.63-0.042-1.245-0.073-1.854-0.101c-1.137-0.051-2.247-0.078-3.354-0.075c-1.718,0.004-3.434,0.075-5.237,0.22
			c-0.141,0.011-0.277,0.02-0.419,0.032c-5.474-4.839-12.784-7.545-20.089-7.438c-0.954,0.014-2.132,0.241-2.4,1.156
			c-0.139,0.472,0.029,0.973,0.186,1.438c1.415,4.192,2.107,8.626,2.039,13.05c-0.022,1.416-0.116,2.872,0.346,4.21
			c0.461,1.339,1.655,2.548,3.07,2.517l-0.159,0.164c-2.451,3.219-5.013,6.74-5.081,10.785c-0.073,4.249,2.64,8.021,5.569,11.099
			c0.935,0.981,1.906,1.924,2.908,2.835c-1.711,2.297-2.606,5.179-2.973,8.044c-0.134,1.043-0.203,2.102-0.187,3.156
			c-6.728,8.146-9.5,19.273-9.427,29.95c0.037,5.452,0.834,11.162,4.044,15.568c0.973,1.334,2.177,2.576,2.614,4.168
			c0.177,0.644,0.22,1.324,0.466,1.944c0.729,1.832,3.4,2.516,4.92,1.261c0.233-0.192,0.458-0.429,0.756-0.484
			c0.395-0.073,0.76,0.194,1.104,0.4c1.142,0.683,2.603,0.717,3.826,0.212c-0.315,1.594-2.09,2.527-2.664,4.058
			c-0.521,1.389,0.197,3.121,1.548,3.733c1.352,0.612,3.128,0.01,3.828-1.297c0.039,1.182,1.09,2.242,2.271,2.292
			c1.182,0.05,2.318-0.917,2.457-2.092c0.735,1.169,2.202,1.831,3.566,1.609c1.363-0.222,2.544-1.316,2.869-2.658
			c0.516-2.124-0.953-4.148-1.817-6.156c-0.146-0.338-0.272-0.682-0.388-1.029l4.843-0.191c-0.079,0.235-0.158,0.47-0.241,0.704
			c-0.469,1.323-1.002,2.662-1.005,4.065s0.666,2.915,1.966,3.443c1.21,0.492,2.851-0.327,2.984-1.57
			c0.057,1.156,1.191,2.194,2.36,2.063c1.264-0.141,2.191-1.606,1.779-2.809c0.667,1.751,3.365,2.047,4.67,0.703
			s1.194-3.658,0.085-5.168c-0.337-0.459-0.771-0.905-0.817-1.474c-0.018-0.218,0.025-0.431,0.093-0.64
			c0.48,0.315,1.049,0.494,1.623,0.479c1.173-0.032,2.28-0.867,2.633-1.985c0.058,1.128,1.234,2.003,2.36,1.915
			c1.127-0.088,2.09-0.977,2.475-2.039c0.568-1.568,0.026-3.314,0.218-4.972c0.068-0.592,0.23-1.164,0.432-1.726
			c0.178-0.5,0.386-0.993,0.589-1.483c0.015-0.035,0.028-0.071,0.042-0.106c0.205-0.497,0.4-0.997,0.593-1.498
			c-0.01,0.209-0.009,0.418,0.002,0.627c0.055,1.028,0.354,2.042,0.864,2.937c0.198,0.348,0.427,0.679,0.688,0.984
			c0.415,0.487,0.908,0.922,1.201,1.491c0.294,0.569,0.329,1.342-0.132,1.787s-1.44,0.192-1.447-0.449
			c-0.23,0.207-0.451,0.425-0.662,0.651c-0.071,0.077-0.143,0.153-0.212,0.232c-0.914,1.039-1.623,2.257-2.076,3.563
			c-0.089,0.258-0.168,0.519-0.236,0.782c-0.025,0.094-0.05,0.188-0.072,0.283c-3.95,0.354-6.782,3.868-8.941,7.195
			c-0.748,1.154-1.477,2.333-2.069,3.57c-0.312,0.649-0.587,1.315-0.805,2.003c-0.286,0.907-0.466,1.836-0.557,2.776
			c-0.292,2.988,0.331,6.077,1.463,8.883c1.487,3.688,3.795,6.978,6.083,10.23l0.31,0.019c1.645-4.891,4.758-9.278,8.832-12.446
			c1.046-0.813,2.183-1.554,3.433-1.965c0.248-0.082,0.5-0.155,0.757-0.208c0.747-0.154,1.547-0.186,2.196-0.586
			c0.104-0.064,0.199-0.138,0.292-0.215c0.381-0.32,0.681-0.738,1.003-1.123c2.256-2.688,5.815-3.721,8.939-5.382
			c0.567-0.302,1.122-0.622,1.65-0.979c0.442-0.299,0.865-0.624,1.268-0.969c2.277-1.953,3.896-4.598,4.827-7.494
			C195.821,191.143,196.135,188.856,196.056,186.612z"/>
	</g>
	<g>
		<path fill="#F39323" d="M175.103,108.826c1.228-1.154,2.044-2.464,2.812-3.738c2.789-4.625,5.375-9.474,6.506-14.755
			c-2.253,0.847-4.506,1.695-6.76,2.542c-2.837,1.067-5.727,2.163-8.095,4.055c-0.206,0.165-0.423,0.362-0.452,0.625
			c-0.024,0.211,0.081,0.414,0.183,0.601C171.231,101.712,173.167,105.27,175.103,108.826z"/>
	</g>
	<g>
		<path fill="#F39323" d="M129.665,92.061c0.382-0.374,0.795-0.826,0.741-1.358c-0.04-0.409-0.35-0.733-0.644-1.02
			c-1.488-1.448-3.05-2.821-4.69-4.093c-2.016-1.562-4.309-3.022-6.857-3.066c-0.237-0.004-0.498,0.014-0.669,0.179
			c-0.253,0.245-0.172,0.66-0.077,0.999c0.756,2.717,1.179,5.526,1.257,8.345c0.043,1.551-0.016,3.121,0.328,4.634
			c0.345,1.513,1.164,3.003,2.532,3.735C124.309,97.753,126.942,94.723,129.665,92.061z"/>
	</g>
	<g>
		<path fill="#020203" d="M145.422,107.508c0.673,0.12,1.019-0.77,1.101-1.449c0.465-3.876,0.919-7.821,2.478-11.4
			c1.23-2.824,3.276-5.423,5.938-6.883c-2.104-0.541-4.311-0.822-6.512-0.968c-0.63-0.042-1.245-0.073-1.854-0.101
			C144.283,93.357,143.869,100.647,145.422,107.508z"/>
	</g>
	<g>
		<path fill="#EB5B28" d="M153.187,102.167c2.181-4.198,5.201-7.954,8.819-11c-1.171-0.948-2.455-1.697-3.816-2.289
			c-3.053,3.406-4.976,7.815-5.362,12.375C152.797,101.607,152.844,102.068,153.187,102.167z"/>
	</g>
	<g>
		<path fill="#EB5B28" d="M138.377,100.211c0.233,0.805,0.574,1.717,1.367,1.987c0.29-0.765,0.311-1.601,0.345-2.418
			c0.192-4.538,0.986-9.174,3.13-13.147c-1.718,0.004-3.434,0.075-5.237,0.22C136.783,91.148,137.137,95.929,138.377,100.211z"/>
	</g>
	<g>
		<path fill="#1B1B1B" d="M155.959,111.547c-1.606,1.767-3.155,3.607-3.764,5.917c-0.454,1.724-0.277,3.552,0.081,5.298
			C155.811,120.415,157.414,115.532,155.959,111.547z"/>
	</g>
	<g>
		<path fill="#1B1B1B" d="M132.91,119.479c0.069-0.013,0.123-0.067,0.172-0.118c1.601-1.698,2.542-4.003,2.587-6.337
			c0.046-2.334-0.806-4.674-2.339-6.434c-2.716,3.626-3.078,8.788-0.732,12.665C132.668,119.373,132.775,119.505,132.91,119.479z"/>
	</g>
	<g>
		<path fill="#1B1B1B" d="M141.494,135.271c0.557-1.029,1.985-1.061,3.063-1.517c0.877-0.371,1.594-1.106,1.941-1.993
			c0.139-0.352,0.215-0.771,0.018-1.094c-0.304-0.501-1.046-0.472-1.596-0.268c-0.77,0.286-1.441,0.78-2.173,1.154
			c-0.731,0.373-1.678,1.001-2.422,0.514c-0.849-0.708-1.697-1.416-2.546-2.124c-0.331-0.277-0.675-0.56-1.088-0.684
			c-0.414-0.124-0.92-0.047-1.181,0.296c-0.279,0.367-0.192,0.896-0.003,1.316c0.889,1.961,3.432,2.602,4.675,4.359
			c0.23,0.326,0.418,0.731,0.309,1.116c-0.07,0.247-0.425,0.475-0.743,0.533c0.41,0.176,0.821,0.35,1.236,0.517
			c0.46,0.014,0.913,0.018,1.36,0.017C141.538,137.117,141.078,136.041,141.494,135.271z"/>
	</g>
	<g>
		<path fill="#1B1B1B" d="M149.314,195.833c0.01-0.093,0.013-0.188,0.006-0.285C149.31,195.643,149.31,195.738,149.314,195.833z"/>
	</g>
	<g>
		<path fill="#F39323" d="M141.154,190.41c-0.146-0.338-0.272-0.682-0.388-1.029c-0.667-2.022-0.851-4.193-0.985-6.329
			c-0.475-7.535-0.477-15.099-0.006-22.633c-1.792-1.865-3.913-3.507-6.002-4.982c-2.859-2.02-5.895-4.08-8.306-6.583
			c-1.64-1.703-2.99-3.61-3.799-5.851c-0.081-0.223-0.152-0.447-0.221-0.672c-1.587,6.239-0.696,13.06,0.241,19.536
			c0.928,6.41,1.871,12.882,4.201,18.925c1.08,2.801,2.457,5.51,3.102,8.441c0.117,0.535,0.21,1.089,0.117,1.629
			c-0.004,0.02-0.01,0.039-0.015,0.059c-0.314,1.594-2.089,2.527-2.663,4.058c-0.521,1.389,0.197,3.121,1.549,3.733
			c1.351,0.612,3.127,0.01,3.827-1.297c0.039,1.182,1.09,2.242,2.271,2.292c1.182,0.05,2.318-0.917,2.457-2.092
			c0.736,1.169,2.202,1.831,3.566,1.609c1.363-0.222,2.544-1.316,2.869-2.658C143.487,194.442,142.02,192.417,141.154,190.41z"/>
	</g>
	<g>
		<path fill="#F39323" d="M157.668,188.036c2.904-6.756,5.857-13.527,7.748-20.634c1.673-6.286,2.488-12.894,1.644-19.324
			c-1.56,1.24-3.245,2.34-4.815,3.576c-0.383,0.302-0.76,0.61-1.125,0.932c0.413-1.769-0.284-3.748-1.715-4.867
			c0.404,3.147-0.645,6.453-2.791,8.791c-1.697,1.849-4.076,3.184-5.07,5.489c0.245-1.753-0.568-3.613-2.023-4.622
			c-0.19,1.02-0.583,1.974-1.07,2.897c0.652,9.77,0.281,19.689-2.839,28.916c-0.08,0.235-0.159,0.47-0.242,0.704
			c-0.469,1.323-1.002,2.662-1.005,4.065s0.666,2.915,1.967,3.443c1.209,0.492,2.85-0.327,2.984-1.57
			c-0.005-0.094-0.005-0.189,0.006-0.285c0.007,0.097,0.004,0.192-0.006,0.285c0.056,1.156,1.191,2.194,2.359,2.063
			c1.264-0.141,2.191-1.606,1.779-2.809c0.667,1.751,3.365,2.047,4.67,0.703s1.194-3.658,0.085-5.168
			c-0.337-0.459-0.771-0.905-0.817-1.474c-0.018-0.218,0.025-0.431,0.093-0.64C157.535,188.348,157.602,188.19,157.668,188.036z"/>
	</g>
	<g>
		<path fill="#EB5B28" d="M173.526,134.473c-0.155-2.862-1.136-5.666-2.751-8.031c-2.117,1.91-4.602,3.448-7.135,4.782
			c-6.273,3.305-12.559,6.163-21.296,6.188c-0.447,0.001-0.9-0.002-1.36-0.017c-0.415-0.167-0.826-0.34-1.236-0.517
			c-5.781-2.487-11.141-5.945-15.797-10.178c-1.711,2.297-2.606,5.179-2.973,8.044c-0.134,1.043-0.203,2.102-0.187,3.156
			c0.023,1.503,0.223,2.997,0.656,4.429c0.068,0.226,0.14,0.45,0.221,0.672c0.809,2.24,2.159,4.148,3.799,5.851
			c2.411,2.503,5.446,4.563,8.306,6.583c2.089,1.475,4.21,3.117,6.002,4.982c2.331,2.426,4.103,5.229,4.514,8.53
			c0.192-3.231,2.642-5.795,4.16-8.674c0.487-0.923,0.88-1.877,1.07-2.897c1.455,1.009,2.269,2.868,2.023,4.622
			c0.994-2.305,3.373-3.64,5.07-5.489c2.146-2.338,3.195-5.643,2.791-8.791c1.431,1.119,2.128,3.098,1.715,4.867
			c0.365-0.322,0.742-0.63,1.125-0.932c1.57-1.236,3.256-2.336,4.815-3.576c0.798-0.635,1.563-1.306,2.262-2.052
			c1.11-1.188,2.021-2.555,2.712-4.027C173.131,139.66,173.665,137.054,173.526,134.473z"/>
	</g>
	<g>
		<path fill="#F39323" d="M194.896,180.42c-1.079-3.522-2.877-6.855-5.021-9.869c-2.951-4.151-6.578-7.821-10.694-10.821
			c-2.142-1.561-4.54-3.118-6.307-5.046c-0.208,7.648-1.695,15.263-4.428,22.409c-0.01,0.209-0.009,0.418,0.002,0.627
			c0.055,1.028,0.354,2.042,0.865,2.937c0.197,0.348,0.426,0.679,0.687,0.984c0.415,0.487,0.908,0.922,1.202,1.491
			c0.293,0.569,0.328,1.342-0.133,1.787s-1.44,0.192-1.447-0.449c-0.23,0.207-0.451,0.425-0.662,0.651
			c-0.072,0.077-0.143,0.153-0.212,0.232c-0.914,1.039-1.623,2.257-2.075,3.563c-0.09,0.258-0.169,0.519-0.238,0.782
			c-0.024,0.094-0.049,0.188-0.07,0.283c-3.951,0.354-6.783,3.868-8.941,7.195c-0.749,1.154-1.478,2.333-2.07,3.57
			c-0.312,0.649-0.587,1.315-0.805,2.003c-0.285,0.907-0.465,1.836-0.557,2.776c-0.292,2.988,0.331,6.077,1.463,8.883
			c1.487,3.688,3.795,6.978,6.083,10.23l0.31,0.019c1.645-4.891,4.758-9.278,8.832-12.446c1.046-0.813,2.183-1.554,3.434-1.966
			c0.247-0.081,0.498-0.155,0.756-0.208c0.746-0.154,1.547-0.187,2.196-0.586c0.104-0.064,0.2-0.138,0.292-0.215
			c0.381-0.32,0.681-0.738,1.003-1.123c2.256-2.688,5.815-3.721,8.939-5.382c0.567-0.302,1.122-0.622,1.65-0.979
			c0.443-0.299,0.865-0.624,1.268-0.969c2.277-1.953,3.896-4.598,4.827-7.494c0.691-2.148,1.006-4.435,0.926-6.679
			C195.896,184.502,195.513,182.431,194.896,180.42z"/>
	</g>
	<g>
		<path fill="#EB5B28" d="M177.262,206.773c-0.404-4.097-1.622-8.111-3.563-11.741c0.697,1.907,1.4,3.836,1.627,5.854
			c0.33,2.946-0.372,5.899-1.069,8.78c-0.047,0.193-0.095,0.386-0.144,0.58c0.247-0.082,0.498-0.155,0.756-0.208
			c0.746-0.154,1.547-0.186,2.196-0.586c0.104-0.064,0.2-0.138,0.292-0.215C177.387,208.417,177.343,207.589,177.262,206.773z"/>
	</g>
	<g>
		<path fill="#020203" d="M166.156,202.16c-2.501-1.028-5.089-2.073-7.792-2.032c-1.018,0.016-2.06,0.227-3.011,0.619
			c-0.312,0.649-0.587,1.315-0.805,2.003c-0.285,0.907-0.465,1.836-0.557,2.776C157.179,202.536,161.885,201.141,166.156,202.16z"/>
	</g>
	<g>
		<path fill="#EB5B28" d="M177.137,189.928c-0.776-0.939-1.595-1.854-2.553-2.608c-1.604-1.263-3.588-2.037-5.623-2.2
			c-0.072,0.077-0.143,0.153-0.212,0.232c-0.914,1.039-1.623,2.257-2.075,3.563c-0.09,0.258-0.169,0.519-0.238,0.782
			c2.24-0.494,4.604-0.284,6.804,0.374c2.281,0.683,4.4,1.831,6.387,3.146C178.844,192.086,178.014,190.988,177.137,189.928z"/>
	</g>
	<g>
		<path fill="#020203" d="M181.282,186.053c2.379,2.794,4.405,5.957,5.452,9.476c0.69,2.323,0.922,4.815,0.565,7.203
			c0.567-0.302,1.122-0.622,1.65-0.979c0.443-0.299,0.865-0.624,1.268-0.969C188.951,195.079,185.781,189.793,181.282,186.053z"/>
	</g>
	<g>
		<path fill="#EB5B28" d="M195.971,186.612c-0.074-2.11-0.458-4.181-1.074-6.192c-2.272-2.243-5.679-3.417-8.931-3.313
			c-4.435,0.141-8.583,2.245-12.21,4.8c4.813-2.101,10.701-1.51,15.001,1.506c3.279,2.3,5.546,5.95,6.288,9.877
			C195.736,191.143,196.051,188.856,195.971,186.612z"/>
	</g>
	<g>
		<path fill="#020203" d="M173.372,176.227c2.038-1.532,4.353-2.654,6.699-3.651c0.364-0.155,0.803-0.542,0.558-0.853
			c-0.093-0.117-0.251-0.155-0.397-0.181c-1.882-0.332-3.824,0.189-5.55,1.009c-2.464,1.17-4.62,2.971-6.232,5.169
			c0.055,1.028,0.354,2.042,0.865,2.937C170.327,178.924,171.762,177.438,173.372,176.227z"/>
	</g>
	<g>
		<path fill="#1B1B1B" d="M128.577,120.67c-2.439-1.362-4.879-2.724-7.318-4.086c-3.909-2.183-7.818-4.365-11.728-6.548
			c-0.893-0.499-1.785-0.997-2.679-1.495c-0.286-0.16-0.543,0.28-0.257,0.44c2.439,1.362,4.879,2.724,7.318,4.086
			c3.909,2.183,7.818,4.365,11.729,6.548c0.893,0.499,1.785,0.997,2.678,1.496C128.606,121.27,128.864,120.83,128.577,120.67z"/>
		<path fill="#1B1B1B" d="M125.221,122.656c0.884,0.201,1.768,0.401,2.65,0.602c0.319,0.073,0.456-0.418,0.136-0.491
			c-2.406-0.546-4.813-1.093-7.219-1.64c-3.837-0.872-7.675-1.743-11.512-2.615c-0.884-0.201-1.768-0.401-2.651-0.602
			c-0.319-0.072-0.455,0.418-0.136,0.491c2.407,0.546,4.813,1.093,7.219,1.64C117.546,120.912,121.383,121.784,125.221,122.656z"/>
		<path fill="#1B1B1B" d="M128.363,125.22c-5.771-0.058-11.544-0.115-17.316-0.173c-0.808-0.008-1.615-0.016-2.424-0.024
			c-0.327-0.003-0.328,0.506,0,0.51c5.772,0.058,11.545,0.115,17.317,0.173c0.808,0.008,1.616,0.016,2.423,0.024
			C128.691,125.732,128.691,125.223,128.363,125.22z"/>
		<path fill="#1B1B1B" d="M174.077,140.649c-2.104-1.261-4.208-2.522-6.313-3.783c-3.36-2.014-6.721-4.028-10.081-6.042
			c-0.779-0.467-1.559-0.935-2.339-1.402c-0.281-0.169-0.538,0.271-0.257,0.44c2.104,1.261,4.209,2.522,6.313,3.783
			c3.36,2.014,6.721,4.028,10.081,6.042c0.779,0.467,1.56,0.935,2.339,1.402C174.103,141.258,174.358,140.818,174.077,140.649z"/>
		<path fill="#1B1B1B" d="M178.297,135.978c-2.414-0.901-4.827-1.803-7.241-2.704c-3.87-1.446-7.741-2.891-11.611-4.336
			c-0.886-0.331-1.771-0.661-2.655-0.992c-0.308-0.115-0.44,0.377-0.136,0.491c2.414,0.901,4.827,1.803,7.241,2.704
			c3.871,1.445,7.741,2.891,11.611,4.336c0.885,0.331,1.771,0.661,2.655,0.992C178.469,136.584,178.602,136.092,178.297,135.978z"/>
		<path fill="#1B1B1B" d="M180.938,128.906c-2.557-0.282-5.114-0.563-7.672-0.845c-4.073-0.449-8.147-0.897-12.221-1.345
			c-0.932-0.103-1.863-0.206-2.795-0.308c-0.326-0.036-0.323,0.474,0,0.51c2.557,0.281,5.114,0.563,7.671,0.844
			c4.074,0.449,8.147,0.897,12.221,1.346c0.933,0.103,1.864,0.205,2.796,0.308C181.264,129.451,181.261,128.942,180.938,128.906z"/>
	</g>
	<g>
		<path fill="#1B1B1B" d="M91.337,170.227c-1.519-0.094-3.036-0.187-4.554-0.281c0.666-1.632,1.103-3.358,1.294-5.11
			c-1.096,1.77-2.016,3.258-3.038,4.908c-1.085-0.998-2.554-1.588-4.029-1.506c-2.945-0.026-5.088,1.737-5.885,4.572
			c-0.369,1.314-0.268,2.813,0.354,4.001c-0.146,0.076-0.288,0.156-0.429,0.24c-2.406-5.577-5.645-10.794-9.579-15.423
			c-0.501-0.588-1.026-1.179-1.704-1.549c-0.177-0.096-0.381-0.178-0.573-0.121c-0.318,0.093-0.418,0.491-0.443,0.822
			c-0.242,3.221,1.628,6.5,4.524,7.932c-0.939-0.065-1.751,0.878-1.73,1.819c0.02,0.942,0.708,1.777,1.556,2.188
			c0.848,0.41,1.827,0.457,2.766,0.375c-0.676,0.579-0.704,1.667-0.288,2.453c0.417,0.786,1.173,1.329,1.93,1.796
			c0.611,0.377,1.258,0.728,1.936,0.956c-0.168,0.167-0.326,0.344-0.479,0.526c-5.748-0.831-11.496-1.662-17.244-2.492
			c-0.714-0.104-1.742,0.053-1.718,0.773c0.013,0.36,0.322,0.629,0.607,0.851c1.426,1.111,2.882,2.239,4.58,2.861
			c1.697,0.622,3.707,0.667,5.218-0.326c-1.091,0.782-2.127,1.641-3.098,2.569c-0.205,0.196-0.426,0.454-0.355,0.729
			c0.078,0.304,0.451,0.41,0.764,0.444c1.63,0.183,3.302-0.118,4.785-0.814c0.493-0.231,0.966-0.505,1.408-0.822
			c-0.147,0.259-0.191,0.538-0.046,0.816c0.152,0.292,0.474,0.452,0.784,0.564c0.304,0.11,0.617,0.186,0.935,0.237
			c0.484,0.078,0.978,0.092,1.466,0.04c0.006,0.462,0.05,0.923,0.135,1.377c-2.845-0.511-5.831-0.214-8.52,0.849
			c-0.583,0.23-1.177,0.515-1.554,1.017c-0.377,0.501-0.461,1.275-0.028,1.729c0.357,0.375,0.932,0.426,1.448,0.417
			c1.501-0.023,2.996-0.348,4.371-0.948c-1.234,0.618-2.194,1.76-2.591,3.082c1.729-0.286,3.404-0.887,4.92-1.766
			c-0.686,0.946-1.2,2.015-1.511,3.142c-0.091,0.329-0.16,0.699,0.006,0.998c0.416,0.753,1.582,0.21,2.134-0.45
			c1.169-1.396,1.977-3.092,2.326-4.879c1.656,0.73,3.544,0.847,5.304,0.433c-0.023,1.915-0.075,3.829-0.157,5.743
			c-0.027,0.637-0.057,1.273-0.09,1.91c-0.033,0.632-0.07,1.265-0.112,1.897c-0.034,0.51-0.177,0.831-0.659,1.11
			c-0.117,0.068-0.267,0.095-0.392,0.153c-0.294,0.139-0.566,0.327-0.817,0.533c-0.314,0.259-0.917,0.77-0.854,1.25
			c0.048,0.355,0.479,0.492,0.793,0.449c0.526-0.073,0.783-0.618,1.189-0.89c0.862-0.577,1.337,0.484,2.021,0.768
			c0.503,0.209,0.519-0.303,0.397-0.654c-0.311-0.899-1.088-1.514-1.411-2.41c-0.002-0.005-0.006-0.009-0.009-0.014
			c0.06-0.404,0.03-0.849,0.05-1.184c0.021-0.343,0.033-0.688,0.052-1.031c0.038-0.714,0.077-1.428,0.107-2.142
			c0.076-1.849,0.125-3.699,0.147-5.549c0.947-0.253,1.849-0.666,2.652-1.221c0.533,1.54,0.996,3.102,1.38,4.686
			c0.279,1.158,0.52,2.325,0.719,3.499c0.041,0.242,0.079,0.486,0.116,0.729c0.059,0.373,0.113,0.747,0.161,1.121
			c0.042,0.329,0.101,0.641-0.049,0.952c-0.119,0.248-0.317,0.446-0.445,0.69c-0.208,0.392-0.562,1.466-0.13,1.81
			c0.255,0.203,0.425-0.033,0.506-0.263c0.092-0.259,0.087-0.55,0.191-0.804c0.227-0.555,0.613-0.42,1.021-0.148
			c0.363,0.243,0.831,0.717,1.318,0.581c0.573-0.161,0.521-0.88,0.194-1.248c-0.272-0.307-0.688-0.393-1.061-0.515
			c-0.445-0.145-1.125-0.519-1.266-1.034c-0.032-0.371-0.09-0.746-0.155-1.118c-0.076-0.436-0.163-0.869-0.239-1.292
			c-0.175-0.977-0.378-1.949-0.609-2.914c-0.396-1.652-0.877-3.281-1.435-4.884c0.352-0.261,0.684-0.549,0.988-0.866
			c2.051-2.137,2.783-5.414,1.955-8.244c0.22-0.099,0.434-0.211,0.641-0.339c2.054-1.271,3.069-4.005,2.345-6.309
			c-0.033-0.104-0.073-0.205-0.112-0.306c0.205-0.036,0.403-0.082,0.59-0.129C88.49,171.259,89.932,170.79,91.337,170.227z"/>
		<g>
			<path fill="#F39323" d="M86.78,169.946c0.666-1.632,1.103-3.358,1.294-5.11c-1.096,1.77-2.016,3.258-3.037,4.908
				c-0.271,0.437-0.547,0.882-0.836,1.351c0.634,0.768,1.477,0.796,2.229,0.666c0.205-0.036,0.404-0.082,0.59-0.129
				c1.467-0.373,2.909-0.842,4.313-1.405C89.816,170.133,88.298,170.04,86.78,169.946z"/>
		</g>
		<path fill="#F39323" d="M78.218,180.445c-0.107-0.224-0.327-0.369-0.541-0.494c-0.707-0.414-1.128-0.5-1.916-0.723
			c-0.934-0.135-1.866-0.27-2.799-0.404c-5.748-0.831-11.496-1.662-17.244-2.492c-0.714-0.104-1.743,0.053-1.718,0.773
			c0.014,0.36,0.322,0.629,0.607,0.851c1.426,1.111,2.883,2.239,4.58,2.861c1.698,0.622,3.707,0.667,5.219-0.326
			c-1.092,0.782-2.128,1.641-3.099,2.569c-0.205,0.196-0.426,0.454-0.354,0.729c0.078,0.304,0.451,0.41,0.763,0.444
			c1.63,0.183,3.302-0.118,4.785-0.814c0.493-0.231,0.966-0.505,1.408-0.822c-0.147,0.259-0.19,0.538-0.046,0.816
			c0.152,0.292,0.475,0.452,0.784,0.564c0.304,0.11,0.618,0.186,0.936,0.237c0.483,0.078,0.977,0.092,1.466,0.04
			c1.339-0.142,2.633-0.755,3.539-1.755c-0.014,0.434-0.318,0.797-0.462,1.207c-0.145,0.409,0.005,1.01,0.438,1.027
			c0.188,0.008,0.358-0.104,0.512-0.215c1.081-0.782,2.036-1.738,2.817-2.82C78.159,181.331,78.414,180.855,78.218,180.445z"/>
		<path fill="#EB5B28" d="M86.543,172.067c-0.032-0.104-0.072-0.205-0.112-0.306c-0.754,0.13-1.596,0.102-2.229-0.666
			c0.289-0.468,0.565-0.914,0.836-1.351c-1.086-0.998-2.555-1.588-4.03-1.506c-2.944-0.026-5.088,1.737-5.885,4.572
			c-0.369,1.314-0.267,2.813,0.354,4.001c-0.145,0.076-0.288,0.156-0.429,0.24c-0.583,0.349-1.126,0.766-1.607,1.246
			c-0.168,0.167-0.326,0.344-0.479,0.526c0.934,0.135,1.865,0.27,2.799,0.404c0.788,0.224,1.209,0.309,1.916,0.723
			c0.214,0.125,0.434,0.271,0.541,0.494c0.196,0.41-0.059,0.885-0.324,1.253c-0.781,1.082-1.736,2.038-2.817,2.82
			c-0.152,0.11-0.323,0.223-0.512,0.215c-0.434-0.017-0.583-0.618-0.438-1.027c0.144-0.409,0.448-0.773,0.462-1.207
			c-0.906,1-2.2,1.613-3.539,1.755c0.006,0.462,0.049,0.923,0.135,1.377c-2.846-0.511-5.832-0.214-8.52,0.849
			c-0.584,0.23-1.178,0.515-1.555,1.017c-0.377,0.501-0.46,1.275-0.027,1.729c0.356,0.375,0.931,0.426,1.448,0.417
			c1.5-0.023,2.995-0.348,4.37-0.948c-1.234,0.618-2.194,1.76-2.591,3.082c1.729-0.286,3.404-0.887,4.921-1.766
			c-0.687,0.946-1.2,2.015-1.512,3.142c-0.091,0.329-0.159,0.699,0.006,0.998c0.416,0.753,1.582,0.21,2.135-0.45
			c1.168-1.396,1.976-3.092,2.325-4.879c1.656,0.73,3.544,0.847,5.304,0.433c0.086-0.02,0.171-0.038,0.256-0.06
			c0.947-0.253,1.849-0.666,2.653-1.221c0.072-0.05,0.146-0.097,0.217-0.149c0.353-0.261,0.684-0.549,0.988-0.866
			c2.051-2.137,2.783-5.414,1.955-8.244c0.22-0.099,0.434-0.211,0.641-0.339C86.252,177.105,87.269,174.371,86.543,172.067z"/>
		<path fill="#020203" d="M80.352,170.938c-0.372,0.559-0.545,1.155,0.05,1.558c0.273,0.186,0.714,0.173,0.985-0.016
			c0.366-0.255,0.679-0.659,0.643-1.104C81.994,170.93,81.229,170.161,80.352,170.938z"/>
	</g>
</g>
<g>
	<path fill="#4E4D4D" d="M376.394,120.387c-2.741-5.601-10.253-9.425-16.479-9.762c-1.061-4.603-2.568-8.005-5.456-11.185
		c-0.635-0.699-1.335-1.387-2.113-2.075c-0.443-0.391-0.902-0.764-1.369-1.126c-1.166-0.902-2.403-1.711-3.697-2.417
		c-1.481-0.81-3.036-1.485-4.639-2.017c-1.904-0.632-3.874-1.066-5.871-1.272c-0.382-0.04-0.764-0.069-1.146-0.092
		c-1.131-0.07-2.261-0.072-3.389-0.012c-1.547,0.083-3.089,0.283-4.614,0.585c-2.407,0.478-4.776,1.209-7.07,2.135
		c-1.988,0.802-3.921,1.749-5.775,2.803c-0.324,0.184-0.645,0.374-0.965,0.564c-1.841,1.095-3.618,2.287-5.347,3.549
		c-1.139,0.831-2.258,1.69-3.36,2.571c-1.086,0.868-2.158,1.756-3.22,2.657c-0.983,0.834-1.958,1.68-2.928,2.53
		c-0.775,0.68-1.548,1.361-2.319,2.043c0.01-0.818,0.017-1.636,0.022-2.453c0.002-0.259,0.004-0.518,0.006-0.777
		c0.006-0.917,0.013-1.835,0.02-2.752c0.005-0.782,0.011-1.563,0.016-2.345c0.016-2.16,0.031-4.321,0.046-6.481
		c0.035-4.911,0.503-14.675-1.113-14.649c-1.418,0.19-2.407,1.458-3.235,2.625c-2.975,4.188-5.949,8.376-8.924,12.564l-0.044,0.021
		c-1.286-0.115-2.563-0.205-3.838-0.278c-0.793-0.045-1.584-0.083-2.373-0.113c-0.776-0.029-1.551-0.05-2.324-0.064
		c-1.286-0.022-2.567-0.023-3.847-0.005c-0.738,0.01-1.475,0.027-2.211,0.05c-2.103,0.066-4.2,0.186-6.297,0.354
		c-1.328,0.107-2.657,0.232-3.986,0.378c-1.137,0.125-2.273,0.263-3.412,0.415c-1.076,0.143-2.154,0.297-3.234,0.463
		c-0.711,0.11-1.424,0.224-2.138,0.343c-0.64,0.107-1.28,0.216-1.922,0.33c-2.283-3.392-4.324-6.943-6.607-10.335
		c-0.777-1.154-1.558-2.313-2.5-3.336c-0.345-0.375-0.791-0.758-1.294-0.685c-0.705,0.104-0.96,0.975-1.05,1.682
		c-0.809,6.334-0.803,12.713-0.421,19.092c0.101,1.685,0.228,3.369,0.373,5.052c0.162,1.88,0.347,3.759,0.543,5.635
		c0.158,1.516,0.324,3.031,0.491,4.543c0.043,0.391,0.087,0.781,0.13,1.172c0.382,3.404,1.158,7.64,1.896,10.932
		c0.238,1.066,0.52,2.151,1.141,3.049c0.522,0.755,1.246,1.323,2.056,1.766c-1.356,1.223-2.307,2.9-2.627,4.7
		c-0.07,0.396-0.123,0.824-0.389,1.126c-0.356,0.406-0.964,0.445-1.503,0.468c-6.894,0.288-13.689,2.619-19.307,6.625
		c-2.094-1.071-4.884-0.686-6.494,1.027c-1.611,1.712-1.78,4.647-0.257,6.438c0.148,0.175,0.315,0.331,0.49,0.476
		c0.043,1.003,0.299,1.985,0.845,2.822l0.818-1.968c1.433,0.391,3.055,0.116,4.131-0.913c-0.222,0.75-0.04,1.548,0.387,2.202
		c-0.115,1.073-0.01,2.169,0.33,3.193l1.067-2.01c0.074,0.031,0.149,0.061,0.227,0.085c1.411,0.45,3.021-0.121,4.045-1.19
		c0.216,0.776,0.691,1.465,1.313,1.975c0.07,0.921,0.328,1.815,0.831,2.586l0.745-1.792c0.119,0.029,0.239,0.054,0.36,0.07
		c1.51,0.207,3.107-0.556,3.896-1.859c0.158-0.261,0.288-0.545,0.5-0.765c0.315-0.327,0.769-0.471,1.203-0.604
		c1.665-0.51,3.33-1.02,4.995-1.529c-0.221,0.79-0.098,1.647,0.274,2.376c-0.208,1.089-0.159,2.208,0.308,3.202l1.12-1.754
		c1.353,0.672,3.154,0.253,4.071-0.947c0.154,0.84,0.542,1.635,1.087,2.294c0.002,0.938,0.197,1.864,0.632,2.702l0.734-1.547
		c0.488,0.279,1.023,0.471,1.587,0.542c2.009,0.254,4.151-1.167,4.513-3.159l0.225-0.266c13.558-2.796,27.073-5.798,40.539-9.004
		c1.342-0.319,2.706-0.65,3.896-1.349s2.193-1.71,2.404-3.073c2.404-0.134,4.791-0.576,7.084-1.311
		c-0.082,0.402-0.125,0.814-0.125,1.227c-0.47,1.195-0.735,2.53-0.785,3.605l1.337-1.106c0.153,0.318,0.338,0.622,0.558,0.902
		c0.271,0.346,0.596,0.65,0.955,0.906c-1.123,0.508-2.218,1.084-3.266,1.73c-1.655,1.022-3.191,2.218-4.527,3.595
		c-1.249,1.288-2.322,2.733-3.154,4.339c-2.662,5.139-2.282,12.063,1.874,16.09c0.636,0.615,1.37,1.168,2.229,1.382
		c2.018,0.501,4.655-0.584,5.421-2.517s0.077-2.582-0.135-4.65c-0.091-1.764,0.236-2.99,0.806-3.937
		c0.554-0.919,1.335-1.574,2.188-2.196c0.572-0.418,1.177-0.822,1.765-1.282c0.743-0.582,1.531-1.097,2.351-1.561
		c0.804-0.455,1.638-0.861,2.489-1.23c1.043-0.453,2.113-0.852,3.187-1.222c2.107-0.726,4.252-1.352,6.418-1.917
		c0.966-0.251,1.936-0.491,2.91-0.721c12.982-3.062,26.554-4.428,37.838-11.373c2.939-1.809,5.7-4.01,7.667-6.846
		C378.238,134.027,379.136,125.987,376.394,120.387z M362.385,134.04c-1.293,1.252-2.687,2.387-4.154,3.42
		c0.303-0.621,0.584-1.252,0.854-1.885c1.208-2.84,2.584-5.791,2.502-8.876c-0.084-3.192-0.218-4.398-0.628-6.083
		c2.979-0.608,5.692,2.561,5.64,5.601C366.545,129.257,364.569,131.924,362.385,134.04z"/>
	<path fill="#9A9999" d="M295.632,80.409c-1.418,0.19-2.407,1.458-3.235,2.625c-2.975,4.188-5.949,8.376-8.924,12.564l-0.044,0.021
		c-1.286-0.115-2.563-0.205-3.838-0.278c-0.614,0.81-1.409,1.517-1.974,2.371c-0.674,1.021-1.001,2.224-1.488,3.346
		c-0.654,1.507-1.608,2.883-2.792,4.022c0.872-1.644,1.523-3.404,1.931-5.22c0.256-1.137,0.424-2.317,0.974-3.344
		c0.257-0.479,0.591-0.907,0.977-1.288c-0.776-0.029-1.551-0.05-2.324-0.064c-0.948,1.193-2.141,2.277-2.601,3.719
		c-0.416,1.299-0.174,2.716-0.4,4.062c-0.336,1.987-1.648,3.649-2.916,5.215c0.053-2.239,1.15-4.329,1.405-6.554
		c0.177-1.542-0.058-3.111,0.142-4.651c0.079-0.611,0.254-1.234,0.523-1.796c-0.738,0.01-1.475,0.027-2.211,0.05
		c-0.584,1.34-1.588,2.608-1.582,4.067c0.003,0.902,0.396,1.75,0.646,2.616c0.25,0.867,0.331,1.879-0.213,2.599
		c-0.341-1.998-1.253-3.896-2.601-5.41c-0.972-1.093-2.233-2.142-2.547-3.518c-1.328,0.107-2.657,0.232-3.986,0.378
		c0.086,0.557,0.313,1.107,0.618,1.583c1.312,2.047,3.835,3.098,5.072,5.19c0.958,1.62,1.02,3.668,2.063,5.234
		c-1.042-0.399-1.794-1.32-2.363-2.279c-0.569-0.959-1.012-2-1.699-2.879c-1.991-2.545-5.817-3.484-7.103-6.435
		c-1.076,0.143-2.154,0.297-3.234,0.463c0.243,1.159,0.941,2.257,1.811,3.089c1.312,1.255,2.974,2.065,4.502,3.046
		c0.902,0.579,1.853,1.388,1.848,2.461c-1.338-0.937-2.818-1.671-4.374-2.17c-0.8-0.256-1.634-0.458-2.339-0.913
		c-0.992-0.642-1.613-1.708-2.198-2.734c-0.462-0.812-0.924-1.625-1.387-2.436c-0.64,0.107-1.28,0.216-1.922,0.33
		c-2.283-3.392-4.324-6.943-6.607-10.335c-0.777-1.154-1.558-2.313-2.5-3.336c-0.345-0.375-0.791-0.758-1.294-0.685
		c-0.705,0.104-0.96,0.975-1.05,1.682c-0.809,6.334-0.803,12.713-0.421,19.092c0.321,0.437,0.707,0.824,1.158,1.131
		c1.911,1.302,4.67,1.323,6.092,3.146c-1.599-0.457-3.336-0.413-4.908,0.125c-0.654,0.224-1.285,0.531-1.967,0.65l-0.002,0
		c0.162,1.88,0.347,3.759,0.543,5.635c0.612,0.904,1.51,1.626,2.575,1.802c1.146,0.189,2.409-0.25,3.438,0.29
		c0.75,0.394,1.161,1.205,1.688,1.869c1.01,1.274,2.585,2.083,4.209,2.161c-1.003,0.473-2.203,0.507-3.232,0.093
		c-1.594-0.643-2.821-2.3-4.54-2.286c-0.746,0.006-1.445,0.341-2.172,0.509c-0.482,0.112-0.981,0.146-1.475,0.107
		c0.043,0.391,0.087,0.781,0.13,1.172c0.382,3.404,1.158,7.64,1.896,10.932c0.238,1.066,0.52,2.151,1.141,3.049
		c0.522,0.755,1.246,1.323,2.056,1.766c0.635,0.347,1.321,0.618,2.005,0.842c3.842,1.263,7.969,1.42,12.003,1.142
		c2.328-0.16,4.72-0.492,6.8-1.5c0.112-0.055,0.224-0.109,0.334-0.168c0.281-0.148,0.557-0.309,0.823-0.486
		c0.122-0.08,0.242-0.167,0.361-0.256c0.014-0.01,0.026-0.02,0.04-0.03c0.113-0.086,0.225-0.176,0.334-0.269
		c0.018-0.015,0.036-0.03,0.054-0.046c0.107-0.093,0.214-0.189,0.317-0.288c0.018-0.017,0.035-0.034,0.053-0.051
		c0.104-0.101,0.207-0.206,0.307-0.313c0.013-0.014,0.025-0.028,0.038-0.042c0.104-0.114,0.207-0.23,0.306-0.35
		c0.002-0.002,0.004-0.004,0.006-0.007c0.1-0.122,0.197-0.246,0.291-0.373c0.007-0.01,0.015-0.02,0.021-0.029
		c0.091-0.123,0.178-0.249,0.262-0.377c0.011-0.017,0.022-0.034,0.033-0.051c0.081-0.125,0.159-0.253,0.234-0.383
		c0.01-0.019,0.021-0.037,0.031-0.056c0.074-0.131,0.145-0.264,0.212-0.398c0.007-0.015,0.014-0.029,0.021-0.044
		c0.068-0.14,0.134-0.282,0.193-0.425c0.001-0.002,0.002-0.005,0.003-0.008c0.062-0.148,0.118-0.298,0.169-0.449
		c0.001-0.004,0.002-0.008,0.004-0.011c0.049-0.146,0.092-0.292,0.131-0.439c0.004-0.015,0.008-0.029,0.012-0.043
		c0.036-0.142,0.066-0.285,0.093-0.428c0.003-0.018,0.007-0.036,0.01-0.053c0.024-0.143,0.044-0.286,0.058-0.429
		c0.001-0.015,0.002-0.03,0.003-0.045c0.013-0.147,0.021-0.294,0.021-0.441c0-0.005,0-0.011,0-0.017
		c0-0.153-0.007-0.306-0.021-0.458c0.008,0,0.016,0,0.023,0c0.045,0.297,0.089,0.594,0.143,0.89c0.17,0.944,0.403,1.914,0.993,2.671
		c0.741,0.952,1.935,1.428,3.099,1.744c0.496,0.135,0.996,0.245,1.498,0.339c0.196,0.037,0.393,0.069,0.59,0.1
		c3.789,0.594,7.722,0.143,11.535-0.463c2.786-0.442,5.815-1.11,7.552-3.333c1.047-1.341,1.458-3.06,1.767-4.733
		c0.826-4.487,1.109-9.045,1.221-13.613c-1.39,1.69-3.011,3.12-5.071,3.763c-1.32,0.412-2.591,1.271-3.523,1.9
		c1.207-1.513,1.919-3.544,3.626-4.456c0.982-0.524,2.195-0.607,3.046-1.323c0.739-0.623,1.022-1.54,1.228-2.509
		c0.142-0.664,0.246-1.353,0.437-1.987c0.088-0.294,0.202-0.58,0.333-0.858c0.002-0.259,0.004-0.518,0.006-0.777
		c0.006-0.917,0.013-1.835,0.02-2.752c-0.971,0.71-1.821,1.586-2.488,2.587c-0.48,0.72-0.875,1.507-1.479,2.126
		c-0.887,0.91-2.207,1.378-3.47,1.229c2.381-1.09,3.843-3.474,5.319-5.637c0.63-0.922,1.334-1.854,2.133-2.651
		c0.016-2.16,0.031-4.321,0.046-6.481C296.78,90.148,297.248,80.383,295.632,80.409z M244.761,97.77
		c-0.114,0.256-0.397,0.386-0.661,0.484c-1.102,0.407-2.271,0.632-3.444,0.662c-0.426,0.011-0.879-0.011-1.232-0.248
		c-0.519-0.347-0.665-1.033-0.753-1.651c-0.415-2.933-0.536-5.486-0.222-8.431c0.013-0.248,0.157-0.439,0.384-0.404
		c0.227,0.036,0.392,0.227,0.536,0.405c2.099,2.59,4.237,5.25,5.333,8.398C244.79,97.239,244.87,97.524,244.761,97.77z
		 M254.231,115.545c-0.132,1.007-0.341,2.146-1.198,2.691c-1.083-3.062-1.063-6.501,0.058-9.549l0.02,0.024
		c0.758,0.858,1.224,2.27,1.32,3.411C254.526,113.263,254.379,114.409,254.231,115.545z M282.112,116.272
		c-1.126-2.163-1.596-4.661-1.333-7.085c0.113-1.046,0.398-2.147,1.182-2.85l0.08-0.142
		C283.774,109.247,283.802,113.197,282.112,116.272z M294.619,84.843c-0.112,2.796-0.263,5.617-0.373,8.414
		c-0.023,0.578-0.091,1.241-0.565,1.571c-0.278,0.193-0.636,0.223-0.975,0.235c-1.021,0.038-2.045-0.018-3.056-0.164
		c-0.292-0.042-0.609-0.107-0.791-0.338c-0.279-0.354-0.09-0.869,0.112-1.272c1.588-3.162,3.411-6.206,5.45-9.097
		C294.611,83.981,294.628,84.603,294.619,84.843z"/>
	<path fill="none" d="M366.598,126.217c0.053-3.041-2.66-6.209-5.64-5.601c0.41,1.685,0.544,2.89,0.628,6.083
		c0.082,3.085-1.294,6.036-2.502,8.876c-0.27,0.633-0.551,1.264-0.854,1.885c1.468-1.033,2.861-2.168,4.154-3.42
		C364.569,131.924,366.545,129.257,366.598,126.217z"/>
	<g>
		<path fill="#4E4D4D" d="M254.231,115.545c0.147-1.136,0.295-2.282,0.199-3.423c-0.097-1.142-0.563-2.553-1.32-3.411l-0.02-0.024
			c-1.12,3.048-1.141,6.488-0.058,9.549C253.891,117.69,254.1,116.552,254.231,115.545z"/>
	</g>
	<g>
		<path fill="#4E4D4D" d="M282.041,106.196l-0.08,0.142c-0.783,0.703-1.068,1.804-1.182,2.85c-0.263,2.424,0.207,4.922,1.333,7.085
			C283.802,113.197,283.774,109.247,282.041,106.196z"/>
	</g>
	<g>
		<path fill="#4E4D4D" d="M289.65,94.898c1.011,0.146,2.035,0.201,3.056,0.164c0.339-0.012,0.696-0.042,0.975-0.235
			c0.475-0.33,0.542-0.993,0.565-1.571c0.11-2.796,0.261-5.617,0.373-8.414c0.009-0.24-0.008-0.861-0.197-0.651
			c-2.039,2.892-3.862,5.935-5.45,9.097c-0.202,0.403-0.392,0.918-0.112,1.272C289.041,94.792,289.358,94.856,289.65,94.898z"/>
	</g>
	<g>
		<path fill="#4E4D4D" d="M239.368,88.587c-0.145-0.178-0.31-0.369-0.536-0.405c-0.227-0.036-0.371,0.156-0.384,0.404
			c-0.314,2.945-0.193,5.499,0.222,8.431c0.088,0.618,0.234,1.304,0.753,1.651c0.354,0.237,0.807,0.259,1.232,0.248
			c1.174-0.03,2.343-0.255,3.444-0.662c0.264-0.098,0.547-0.228,0.661-0.484c0.109-0.246,0.029-0.531-0.06-0.785
			C243.605,93.836,241.467,91.177,239.368,88.587z"/>
	</g>
	<g>
		<path fill="#E7E6E6" d="M262.539,95.563c0.313,1.376,1.575,2.424,2.547,3.518c1.348,1.515,2.26,3.412,2.601,5.41
			c0.544-0.72,0.463-1.732,0.213-2.599c-0.249-0.867-0.643-1.714-0.646-2.616c-0.006-1.459,0.998-2.727,1.582-4.067
			C266.733,95.275,264.636,95.394,262.539,95.563z"/>
	</g>
	<g>
		<path fill="#4E4D4D" d="M259.171,97.524c-0.305-0.476-0.532-1.026-0.618-1.583c-1.137,0.125-2.273,0.263-3.412,0.415
			c1.285,2.951,5.111,3.89,7.103,6.435c0.688,0.879,1.13,1.919,1.699,2.879c0.569,0.959,1.321,1.88,2.363,2.279
			c-1.043-1.566-1.104-3.614-2.063-5.234C263.006,100.622,260.482,99.571,259.171,97.524z"/>
	</g>
	<g>
		<path fill="#4E4D4D" d="M271.047,95.158c-0.27,0.563-0.444,1.186-0.523,1.796c-0.199,1.54,0.035,3.109-0.142,4.651
			c-0.255,2.225-1.353,4.315-1.405,6.554c1.268-1.566,2.58-3.228,2.916-5.215c0.227-1.345-0.016-2.762,0.4-4.062
			c0.46-1.441,1.652-2.526,2.601-3.719C273.607,95.141,272.326,95.14,271.047,95.158z"/>
	</g>
	<g>
		<path fill="#E7E6E6" d="M277.218,95.228c-0.386,0.381-0.72,0.809-0.977,1.288c-0.55,1.027-0.718,2.208-0.974,3.344
			c-0.407,1.815-1.059,3.576-1.931,5.22c1.184-1.139,2.138-2.515,2.792-4.022c0.487-1.122,0.814-2.326,1.488-3.346
			c0.564-0.854,1.359-1.561,1.974-2.371C278.798,95.295,278.007,95.258,277.218,95.228z"/>
	</g>
	<g>
		<path fill="#E7E6E6" d="M258.219,102.955c-1.528-0.981-3.19-1.791-4.502-3.046c-0.869-0.832-1.567-1.931-1.811-3.089
			c-0.711,0.11-1.424,0.224-2.138,0.343c0.463,0.812,0.925,1.624,1.387,2.436c0.585,1.026,1.206,2.093,2.198,2.734
			c0.705,0.456,1.539,0.657,2.339,0.913c1.556,0.499,3.036,1.233,4.374,2.17C260.071,104.343,259.121,103.534,258.219,102.955z"/>
	</g>
	<g>
		<path fill="#4E4D4D" d="M243.225,108.188c-1.422-1.823-4.181-1.844-6.092-3.146c-0.451-0.308-0.837-0.695-1.158-1.131
			c0.101,1.685,0.228,3.369,0.373,5.052h0.002c0.682-0.119,1.313-0.427,1.967-0.65C239.889,107.774,241.626,107.73,243.225,108.188z
			"/>
	</g>
	<g>
		<path fill="#E7E6E6" d="M244.592,118.558c-0.526-0.664-0.938-1.475-1.688-1.869c-1.029-0.54-2.292-0.101-3.438-0.29
			c-1.065-0.175-1.963-0.898-2.575-1.802c0.158,1.516,0.324,3.031,0.491,4.543c0.493,0.039,0.992,0.005,1.475-0.107
			c0.727-0.168,1.426-0.503,2.172-0.509c1.719-0.014,2.946,1.644,4.54,2.286c1.029,0.415,2.229,0.38,3.232-0.093
			C247.177,120.641,245.602,119.832,244.592,118.558z"/>
	</g>
	<g>
		<path fill="#4E4D4D" d="M275.62,116.34c-0.383-0.463-0.671,0.075-1.235,0.323l-0.028,0.016c-1.759,0.741-3.707,0.796-5.603,1.022
			c-7.729,0.923-9.931-1.555-10.153-0.637c-0.126,0.608,0.389,1.143,0.857,1.55c2.244,1.952,4.488,3.903,6.732,5.854
			c0.209,0.181,0.417,0.362,0.625,0.543c0.309,0.268,0.658,0.549,1.063,0.55c0.01,0,0.019,0.002,0.028,0.002
			c0.015,0,0.028-0.004,0.043-0.005c0.425-0.034,0.765-0.371,1.056-0.689c0.922-1.006,1.828-2.025,2.726-3.052
			c1.218-1.394,2.417-2.805,3.592-4.236C275.617,117.224,275.916,116.698,275.62,116.34z"/>
	</g>
	<g>
		<path fill="#4E4D4D" d="M294.566,104.191c-1.477,2.163-2.938,4.546-5.319,5.637c1.263,0.148,2.583-0.32,3.47-1.229
			c0.604-0.619,0.998-1.407,1.479-2.126c0.667-1.001,1.518-1.877,2.488-2.587c0.005-0.782,0.011-1.563,0.016-2.345
			C295.9,102.337,295.196,103.269,294.566,104.191z"/>
	</g>
	<g>
		<path fill="#E7E6E6" d="M295.889,110.259c-0.205,0.969-0.488,1.886-1.228,2.509c-0.851,0.716-2.063,0.799-3.046,1.323
			c-1.707,0.912-2.419,2.942-3.626,4.456c0.933-0.629,2.203-1.488,3.523-1.9c2.061-0.643,3.682-2.073,5.071-3.763
			c0.024-1.005,0.039-2.012,0.052-3.017c0.01-0.818,0.017-1.636,0.022-2.453c-0.131,0.278-0.245,0.564-0.333,0.858
			C296.135,108.907,296.03,109.595,295.889,110.259z"/>
	</g>
	<g>
		<path fill="#E7E6E6" d="M309.305,110.339c-0.326-1.97,1.113-4.176,0.058-5.871c-0.846-1.358-2.654-1.407-4.26-1.832
			c-1.086,0.868-2.158,1.756-3.22,2.657c1.207,0.204,2.381,0.608,3.453,1.201c0.389,0.215,0.773,0.463,1.039,0.82
			c0.953,1.286-0.08,3.123,0.225,4.693c0.4,2.064,2.801,2.911,4.497,4.152c1.809,1.323,3.094,4.522,3.296,6.753
			c1.009-2.54,0.501-5.619-1.271-7.701C311.762,113.613,309.647,112.411,309.305,110.339z"/>
	</g>
	<g>
		<path fill="#9A9999" d="M321.714,102.8c-0.245-1.796-1.997-2.935-3.575-3.83c-1.442-0.818-2.886-1.636-4.329-2.454
			c-1.841,1.095-3.618,2.287-5.347,3.549c1.049,0.889,2.334,1.551,3.649,1.938c1.915,0.563,4.004,0.708,5.688,1.779
			c0.305,0.194,0.604,0.432,0.74,0.767c0.146,0.361,0.076,0.768,0.043,1.156c-0.297,3.514,2.607,6.774,2.089,10.262
			c0.826-2.051,0.587-4.411,0.522-6.628c-0.032-1.084-0.149-2.177,0.02-3.249C321.39,104.989,321.865,103.906,321.714,102.8z"/>
	</g>
	<g>
		<path fill="#E7E6E6" d="M327.707,93.844c-0.146-0.934,0.004-1.89-0.087-2.83c-2.407,0.478-4.776,1.209-7.07,2.135
			c0.201,0.913,0.641,1.79,1.251,2.496c1.299,1.505,3.213,2.348,5.138,2.845c1.435,0.371,3.191,0.826,3.561,2.261
			c0.103,0.398,0.071,0.817,0.04,1.227c-0.251,3.289-0.502,6.577-0.752,9.865c0.559-1.798,1.416-3.493,1.98-5.289
			c0.565-1.796,0.825-3.777,0.172-5.543C330.968,98.384,328.138,96.611,327.707,93.844z"/>
	</g>
	<g>
		<path fill="#9A9999" d="M335.643,92.165c-0.114-0.559-0.061-1.145-0.02-1.724c-1.131-0.07-2.261-0.072-3.389-0.012
			c0.003,0.248,0.037,0.495,0.105,0.727c0.291,0.992,0.996,1.798,1.543,2.675c1.026,1.641,1.521,3.61,1.391,5.541
			c1.011-1.62,1.627-3.638,1.02-5.448C336.094,93.33,335.77,92.778,335.643,92.165z"/>
	</g>
	<g>
		<path fill="#E7E6E6" d="M342.512,92.475c-0.168,1.409,0.146,2.824,0.342,4.229s0.257,2.903-0.37,4.176
			c-0.349,0.708-0.889,1.3-1.371,1.925c-1.415,1.832-2.369,4.017-2.75,6.3c1.06-2.749,4.564-3.99,5.517-6.778
			c0.489-1.434,0.203-3.04,0.663-4.483c0.487-1.525,1.755-2.735,2.736-4.021c-1.481-0.81-3.036-1.485-4.639-2.017
			C342.582,92.027,342.538,92.251,342.512,92.475z"/>
	</g>
	<g>
		<path fill="#9A9999" d="M352.345,97.366c-0.443-0.391-0.902-0.764-1.369-1.126c-0.177,1.355,0.077,2.82,0.014,4.214
			c-0.096,2.08-0.925,4.046-1.741,5.961c1.232-0.546,2.191-1.675,2.531-2.979c0.211-0.811,0.211-1.716,0.706-2.393
			c0.426-0.583,1.136-0.877,1.691-1.338c0.1-0.082,0.192-0.171,0.281-0.265C353.823,98.742,353.123,98.054,352.345,97.366z"/>
	</g>
	<g>
		<path fill="#E7E6E6" d="M305.263,162.286c-1.323-0.057-2.69,0-3.92-0.49c0.383,1.002,1.287,1.709,2.221,2.237
			c0.933,0.529,1.942,0.938,2.78,1.609c0.643,0.516,1.141,1.15,1.528,1.857c0.554-0.919,1.335-1.574,2.188-2.196
			c-0.214-0.702-0.554-1.347-1.091-1.843C307.996,162.563,306.586,162.343,305.263,162.286z"/>
	</g>
	<g>
		<path fill="#9A9999" d="M308.815,159.87c0.044-1.078-0.463-2.092-0.956-3.052c-0.576-1.12-1.163-2.255-2.025-3.172
			c-0.148-0.158-0.308-0.309-0.475-0.451c-1.655,1.022-3.191,2.218-4.527,3.595c1.264-0.068,2.555,0.418,3.756,0.899
			C306.066,158.28,307.566,158.884,308.815,159.87z"/>
	</g>
	<g>
		<path fill="#E7E6E6" d="M315.755,158.169c-0.095-0.561-0.111-1.139-0.28-1.683c-0.424-1.363-1.889-2.319-3.307-2.158
			c0.975,0.916,2.008,1.944,2.173,3.271c0.129,1.043-0.312,2.072-0.363,3.122c-0.028,0.581,0.061,1.161,0.198,1.739
			c0.804-0.455,1.638-0.861,2.489-1.23c-0.012-0.042-0.021-0.086-0.033-0.128C316.354,160.118,315.928,159.175,315.755,158.169z"/>
	</g>
	<g>
		<path fill="#9A9999" d="M320.256,150.359c-0.366-0.685-0.847-1.301-1.378-1.879c-0.807,0.146-1.61,0.305-2.409,0.48
			c0.407,0.216,0.786,0.484,1.117,0.807c0.316,0.307,0.584,0.648,0.817,1.012c0.847,1.318,1.215,2.956,1.54,4.518
			c1.128-1.129,1.175-3.01,0.54-4.474C320.415,150.664,320.337,150.511,320.256,150.359z"/>
	</g>
	<g>
		<path fill="#9A9999" d="M325.7,150.514c0.964,0.611,1.308,1.829,1.577,2.938c0.163,0.671,0.327,1.361,0.231,2.044
			c-0.075,0.539-0.309,1.043-0.573,1.519c-0.204,0.366-0.43,0.723-0.666,1.076c0.966-0.251,1.936-0.491,2.91-0.721
			c0.226-0.888,0.379-1.802,0.273-2.709C329.221,152.685,327.643,150.941,325.7,150.514z"/>
	</g>
	<g>
		<path fill="#E7E6E6" d="M331.865,147.726c-0.03-0.368-0.082-0.734-0.151-1.098c-0.485,0.074-0.97,0.146-1.456,0.216
			c0.166,0.364,0.279,0.765,0.35,1.167c0.039,0.227,0.066,0.455,0.078,0.676c0.066,1.2-0.079,2.412-0.429,3.561
			c1.095-0.85,1.601-2.29,1.638-3.675C331.902,148.29,331.889,148.007,331.865,147.726z"/>
	</g>
	<path fill="none" d="M360.958,120.616c0.41,1.685,0.544,2.89,0.628,6.083c0.082,3.085-1.294,6.036-2.502,8.876
		c-0.27,0.633-0.551,1.264-0.854,1.885c1.468-1.033,2.861-2.168,4.154-3.42c2.185-2.116,4.16-4.782,4.213-7.822
		C366.65,123.177,363.938,120.008,360.958,120.616z"/>
	<path fill="none" d="M320.256,150.359c-0.366-0.685-0.847-1.301-1.378-1.879c-0.807,0.146-1.61,0.305-2.409,0.48
		c0.407,0.216,0.786,0.484,1.117,0.807c0.316,0.307,0.584,0.648,0.817,1.012c0.847,1.318,1.215,2.956,1.54,4.518
		c1.128-1.129,1.175-3.01,0.54-4.474C320.415,150.664,320.337,150.511,320.256,150.359z"/>
	<path fill="none" d="M331.714,146.628c-0.485,0.074-0.97,0.146-1.456,0.216c0.166,0.364,0.279,0.765,0.35,1.167
		c0.039,0.227,0.066,0.455,0.078,0.676c0.066,1.2-0.079,2.412-0.429,3.561c1.095-0.85,1.601-2.29,1.638-3.675
		c0.008-0.284-0.006-0.566-0.029-0.847C331.835,147.358,331.783,146.992,331.714,146.628z"/>
	<path fill="none" d="M253.11,108.711l-0.02-0.024c-1.12,3.048-1.141,6.488-0.058,9.549c0.857-0.546,1.066-1.684,1.198-2.691
		c0.147-1.136,0.295-2.282,0.199-3.423C254.334,110.98,253.868,109.569,253.11,108.711z"/>
	<path fill="none" d="M264.569,135.89c0.122-0.08,0.242-0.167,0.361-0.256C264.812,135.723,264.691,135.81,264.569,135.89z"/>
	<path fill="none" d="M239.368,88.587c-0.145-0.178-0.31-0.369-0.536-0.405c-0.227-0.036-0.371,0.156-0.384,0.404
		c-0.314,2.945-0.193,5.499,0.222,8.431c0.088,0.618,0.234,1.304,0.753,1.651c0.354,0.237,0.807,0.259,1.232,0.248
		c1.174-0.03,2.343-0.255,3.444-0.662c0.264-0.098,0.547-0.228,0.661-0.484c0.109-0.246,0.029-0.531-0.06-0.785
		C243.605,93.836,241.467,91.177,239.368,88.587z"/>
	<path fill="none" d="M281.961,106.337c-0.783,0.703-1.068,1.804-1.182,2.85c-0.263,2.424,0.207,4.922,1.333,7.085
		c1.689-3.075,1.662-7.026-0.071-10.077L281.961,106.337z"/>
	<path fill="none" d="M294.422,84.191c-2.039,2.892-3.862,5.935-5.45,9.097c-0.202,0.403-0.392,0.918-0.112,1.272
		c0.182,0.231,0.499,0.296,0.791,0.338c1.011,0.146,2.035,0.201,3.056,0.164c0.339-0.012,0.696-0.042,0.975-0.235
		c0.475-0.33,0.542-0.993,0.565-1.571c0.11-2.796,0.261-5.617,0.373-8.414C294.628,84.603,294.611,83.981,294.422,84.191z"/>
	<path fill="#4E4D4D" d="M264.931,135.634c0.014-0.01,0.026-0.02,0.04-0.03C264.957,135.614,264.944,135.624,264.931,135.634z"/>
	<g>
		<path fill="#4E4D4D" d="M256.665,126.556c-8.139-1.022-16.238-2.344-24.28-3.955c-0.434-0.087-0.619,0.577-0.184,0.665
			c8.104,1.624,16.264,2.949,24.464,3.979C257.104,127.3,257.1,126.611,256.665,126.556z"/>
		<path fill="#4E4D4D" d="M252.821,129.843c0.443,0.019,0.442-0.67,0-0.689c-5.718-0.238-11.435-0.476-17.152-0.713
			c-0.443-0.019-0.442,0.67,0,0.689C241.387,129.368,247.104,129.606,252.821,129.843z"/>
		<path fill="#4E4D4D" d="M255.649,130.695c-6.586,1.475-13.171,2.95-19.757,4.424c-0.433,0.097-0.249,0.761,0.183,0.665
			c6.586-1.475,13.172-2.95,19.757-4.425C256.265,131.262,256.082,130.598,255.649,130.695z"/>
		<path fill="#4E4D4D" d="M297.757,119.039c-6.638,2.446-13.387,4.582-20.224,6.399c-0.428,0.114-0.246,0.778,0.184,0.665
			c6.837-1.817,13.586-3.953,20.223-6.399C298.353,119.551,298.174,118.885,297.757,119.039z"/>
		<path fill="#4E4D4D" d="M297.836,124.929c-4.984,0.561-9.988,0.929-15.001,1.104c-0.442,0.016-0.444,0.705,0,0.689
			c5.013-0.175,10.017-0.543,15.001-1.103C298.271,125.569,298.276,124.879,297.836,124.929z"/>
		<path fill="#4E4D4D" d="M297.932,131.436c-6.276-0.983-12.553-1.966-18.828-2.95c-0.434-0.068-0.621,0.596-0.184,0.665
			c6.276,0.983,12.552,1.966,18.828,2.95C298.182,132.168,298.369,131.504,297.932,131.436z"/>
	</g>
	<g>
		<path fill="#E7E6E6" d="M273.92,134.927c-0.502-0.094-1.002-0.204-1.498-0.339c-0.153-0.042-0.307-0.086-0.459-0.134
			c-1.015,0.694-2.497,1.133-4.15,1.133c-0.865,0-1.684-0.12-2.413-0.334c-0.014,0.012-0.027,0.025-0.041,0.037
			c-0.018,0.016-0.036,0.031-0.054,0.046c-0.109,0.093-0.221,0.183-0.334,0.269c-0.014,0.01-0.026,0.02-0.04,0.03
			c-0.119,0.089-0.239,0.176-0.361,0.256c-0.267,0.177-0.542,0.338-0.823,0.486c-0.11,0.059-0.222,0.113-0.334,0.168
			c1.789,0.273,3.6,0.467,5.4,0.311c1.813-0.158,4.16-0.755,5.697-1.828C274.313,134.996,274.116,134.964,273.92,134.927z"/>
	</g>
	<path fill="#4E4D4D" d="M271.963,134.454c-1.011-0.316-1.996-0.783-2.64-1.61c-0.59-0.757-0.823-1.727-0.993-2.671
		c-0.054-0.296-0.098-0.593-0.143-0.89c-0.008,0-0.016,0-0.023,0c0.015,0.152,0.021,0.304,0.021,0.458c0,0.006,0,0.011,0,0.017
		c0,0.146-0.008,0.293-0.021,0.441c-0.001,0.015-0.002,0.03-0.003,0.045c-0.014,0.143-0.033,0.286-0.058,0.429
		c-0.003,0.018-0.007,0.035-0.01,0.053c-0.026,0.143-0.057,0.286-0.093,0.428c-0.004,0.015-0.008,0.029-0.012,0.043
		c-0.039,0.147-0.082,0.293-0.131,0.439c-0.002,0.003-0.003,0.007-0.004,0.011c-0.051,0.15-0.107,0.3-0.169,0.449
		c-0.001,0.002-0.002,0.005-0.003,0.008c-0.06,0.143-0.125,0.285-0.193,0.425c-0.007,0.015-0.014,0.029-0.021,0.044
		c-0.067,0.135-0.138,0.268-0.212,0.398c-0.011,0.019-0.021,0.037-0.031,0.056c-0.075,0.129-0.153,0.257-0.234,0.383
		c-0.011,0.017-0.022,0.034-0.033,0.051c-0.084,0.128-0.171,0.254-0.262,0.377c-0.007,0.01-0.015,0.019-0.021,0.029
		c-0.094,0.126-0.191,0.251-0.291,0.373c-0.002,0.002-0.004,0.005-0.006,0.007c-0.099,0.12-0.201,0.236-0.306,0.35
		c-0.013,0.013-0.025,0.027-0.038,0.042c-0.1,0.107-0.203,0.211-0.307,0.313c-0.018,0.017-0.035,0.034-0.053,0.051
		c-0.091,0.086-0.184,0.169-0.276,0.251c0.729,0.214,1.548,0.334,2.413,0.334C269.466,135.586,270.948,135.148,271.963,134.454z"/>
</g>
</svg>
