<?xml version="1.0" encoding="utf-8"?>
<!-- Generator: Adobe Illustrator 22.0.1, SVG Export Plug-In . SVG Version: 6.00 Build 0)  -->
<svg version="1.1" id="Calque_1" xmlns="http://www.w3.org/2000/svg" xmlns:xlink="http://www.w3.org/1999/xlink" x="0px" y="0px"
	 viewBox="0 0 432 432" style="enable-background:new 0 0 432 432;" xml:space="preserve">
<style type="text/css">
	.st0{fill:#0E5A60;}
	.st1{fill:#828068;}
	.st2{fill:#7E2038;}
	.st3{fill:#1E4847;}
	.st4{fill:#AC847B;}
	.st5{fill:#FDECF0;}
	.st6{fill:#C5A36B;}
	.st7{fill:#D0AFA8;}
	.st8{fill:#9AA3AD;}
	.st9{fill:#9A8266;}
	.st10{fill:#91ACBA;}
	.st11{fill:#5C748E;}
	.st12{fill:#313F52;}
	.st13{fill:#96683E;}
	.st14{fill:#E4DDC2;}
	.st15{fill:#DED3C6;}
	.st16{fill:#E7E6E6;}
	.st17{fill:#BFD4DD;}
	.st18{fill:#FCE2DF;}
	.st19{fill:#CD8C56;}
	.st20{fill:#343434;}
	.st21{fill:#5D6F59;}
	.st22{fill:#C49253;}
	.st23{fill:#B88E5C;}
	.st24{fill:#E9A197;}
	.st25{fill:#72968E;}
	.st26{fill:#1B1B1B;}
	.st27{fill:#BD6581;}
	.st28{fill:#F2F2F2;}
	.st29{fill:#3D313B;}
	.st30{fill:#4E5254;}
	.st31{fill:#4B262E;}
	.st32{fill:#B093A5;}
	.st33{fill:#04707D;}
	.st34{fill:#A39BB2;}
	.st35{fill:#E3E1E0;}
	.st36{fill:#020203;}
	.st37{fill:#523F50;}
	.st38{fill:#81434D;}
	.st39{fill:#B58186;}
	.st40{fill:#563138;}
	.st41{fill:#E8B73C;}
	.st42{fill:#EC667A;}
	.st43{fill:#93A5A9;}
	.st44{fill:#A6394D;}
	.st45{fill:#6BC4CD;}
	.st46{fill:#3F6753;}
	.st47{fill:#66976A;}
	.st48{fill:#E3C8BD;}
	.st49{fill:#C8878D;}
	.st50{fill:#AE4043;}
	.st51{fill:#8B9976;}
	.st52{fill:#E7929D;}
	.st53{fill:#1E382B;}
	.st54{fill:#EF787A;}
	.st55{fill:#A81916;}
	.st56{fill:#E04747;}
	.st57{fill:#A5606F;}
	.st58{fill:#6C323C;}
	.st59{fill:#9C6434;}
	.st60{fill:#668CB9;}
	.st61{fill:#485B97;}
	.st62{fill:#F0C872;}
	.st63{fill:#D25215;}
	.st64{fill:#F1E0C6;}
	.st65{fill:#E1CBAC;}
	.st66{fill:#A9937F;}
	.st67{fill:#788A28;}
	.st68{fill:#A3AF32;}
	.st69{fill:#C1292E;}
	.st70{fill:#066938;}
	.st71{fill:#109F3D;}
	.st72{fill:#1861A9;}
	.st73{fill:#E00825;}
	.st74{fill:#F9B03D;}
	.st75{fill:#B4B4B4;}
	.st76{fill:#E52629;}
	.st77{fill:#DDC6A7;}
	.st78{fill:#746458;}
	.st79{fill:#754D24;}
	.st80{fill:#F39323;}
	.st81{fill:#A1AA40;}
	.st82{fill:#DBAD5D;}
	.st83{fill:#8EC045;}
	.st84{fill:#BA9BC9;}
	.st85{fill:#9B7574;}
	.st86{fill:#C68A89;}
	.st87{fill:#DF5564;}
	.st88{fill:#AA353D;}
	.st89{fill:#B75266;}
	.st90{fill:#DB6455;}
	.st91{fill:#975F74;}
	.st92{fill:#804F63;}
	.st93{fill:#FFFFFF;}
	.st94{fill:#CDCCCC;}
	.st95{fill:#A67D52;}
	.st96{fill:#DB8E98;}
	.st97{fill:#F3EED1;}
	.st98{fill:#CCD8B0;}
	.st99{fill:#47663C;}
	.st100{fill:#355129;}
	.st101{fill:#EEBCC5;}
	.st102{fill:#9A9999;}
	.st103{fill:#676767;}
	.st104{fill:#C69C6C;}
	.st105{fill:#4E3B3B;}
	.st106{fill:#D7ACAB;}
	.st107{fill:#CA5A69;}
	.st108{fill:#EC8A9F;}
	.st109{fill:#D4175B;}
	.st110{fill:#828BC5;}
	.st111{fill:#884C64;}
	.st112{fill:#F6B7BB;}
	.st113{fill:#F8D9C4;}
	.st114{fill:#F5CACD;}
	.st115{fill:#F6B1B3;}
	.st116{fill:#F9BFA1;}
	.st117{fill:#9BD2CC;}
	.st118{fill:#83B143;}
	.st119{fill:#959C57;}
	.st120{fill:#60643C;}
	.st121{fill:#C469A5;}
	.st122{fill:#9D8098;}
	.st123{fill:#9E1832;}
	.st124{fill:#BC1821;}
	.st125{fill:#AF5617;}
	.st126{fill:#DB6428;}
	.st127{fill:#FFFFFE;}
	.st128{fill:#141112;}
	.st129{fill:#EEC8A0;}
	.st130{fill:#CA1517;}
	.st131{fill:none;}
	.st132{fill:#B51918;}
	.st133{fill:#918A82;}
	.st134{fill:#878179;}
	.st135{fill:#F39BA4;}
	.st136{fill:#F0818B;}
	.st137{fill:#9F1915;}
	.st138{fill:#AB182A;}
	.st139{fill:#24612B;}
	.st140{fill:#114C25;}
	.st141{fill:#C7495D;}
	.st142{fill:#EBC164;}
	.st143{fill:#F6B6B8;}
	.st144{fill:#A9654E;}
	.st145{fill:#2D1B14;}
	.st146{fill:#CA3B63;}
	.st147{fill:#4A2C22;}
	.st148{fill:#E54967;}
	.st149{fill:#889F63;}
	.st150{fill:#808181;}
	.st151{fill:#8C633A;}
	.st152{fill:#CDAC81;}
	.st153{fill:#977D61;}
	.st154{fill:#423A30;}
	.st155{fill:#3D574A;}
	.st156{fill:#CCCDC9;}
	.st157{fill:#F1866C;}
	.st158{fill:#D8B67C;}
	.st159{fill:#432918;}
	.st160{fill:#D4A479;}
	.st161{fill:#E6C283;}
	.st162{fill:#3C3C3B;}
	.st163{fill:#C6C6C6;}
	.st164{fill:#F4A3A6;}
	.st165{fill:#B2B2B2;}
	.st166{fill:#1D71B8;}
	.st167{fill:#B4DCD3;}
	.st168{fill:#CEE7E1;}
	.st169{fill:#99D0C3;}
	.st170{fill:#3B3835;}
	.st171{fill:#E7CFB3;}
	.st172{fill:#DCC19F;}
	.st173{fill:#D4B188;}
	.st174{fill:#F3B68B;}
	.st175{fill:#F9C19B;}
	.st176{fill:#FCDCC8;}
	.st177{fill:#A68B74;}
	.st178{fill:#CCB295;}
	.st179{fill:#D2B89A;}
	.st180{fill:#3D3329;}
	.st181{fill:#966837;}
	.st182{fill:#A06E3B;}
	.st183{fill:#B57D44;}
	.st184{fill:#13110C;}
	.st185{fill:#D5D4D4;}
	.st186{fill:#9B6228;}
	.st187{fill:#844C16;}
	.st188{fill:#D01419;}
	.st189{fill:#4C2814;}
	.st190{fill:#B71918;}
	.st191{fill:#C11718;}
</style>
<g>
	<g>
		<g>
			<path d="M194.1,192.7c0,0.5,0.1,1,0.1,1.4c0.1,1.5,0.3,3,0.4,4.5c0.1,1.6,0.2,3.2,0.2,4.8c-0.1,6.7-1.7,13.1-5.1,19
				c-1.7,2.9-3.8,5.5-6.4,7.6c-2.9,2.4-6.1,4.6-9.5,6.3c-3.1,1.5-6.3,2.6-9.7,3.5c-0.2,0-0.3,0.1-0.6,0.2c0.2,0.2,0.3,0.3,0.4,0.4
				c1.6,1.6,3.2,3.2,4.8,4.8c2.2,2.2,4.1,4.6,5.9,7.1c2.1,3.1,3.9,6.4,5.1,10c0.7,2.2,1.2,4.4,1.3,6.6c0.1,1.6,0.1,3.2-0.3,4.8
				c-0.5,2.1-1.6,3.8-3.1,5.3c-2.5,2.5-5.6,4.3-8.8,5.8c0,0-0.1,0-0.1,0c-0.9-1.1-1.8-2.1-2-3.6c-0.2-1-0.1-2,0.2-3
				c0.4-1.5,1.2-2.9,2-4.3c0.6-1.2,1.3-2.4,1.8-3.6c1.2-2.9,1.3-5.8,0.2-8.7c-0.2-0.4-0.4-0.8-0.6-1.2c-0.1-0.2-0.4-0.4-0.6-0.6
				c-0.5-0.3-1,0-1,0.6c0,0.4,0.1,0.8,0.2,1.2c0.3,1.2,0.5,2.5,0.5,3.7c0,1.5-0.3,2.9-0.9,4.2c-0.5,1.1-1.1,2.1-1.7,3.2
				c-0.8,1.4-1.6,2.9-2.2,4.5c-0.4,1.1-0.6,2.2-0.6,3.3c0,1.5,0.4,2.9,1.2,4.1c0.3,0.5,0.6,0.9,1,1.4c-0.2,0.1-0.3,0.1-0.5,0.2
				c-2.3,0.8-4.6,1.4-7,1.9c-2.1,0.4-4.2,0.8-6.3,1c-1,0.1-2,0.1-3,0.2c-0.3,0-0.5-0.1-0.6-0.3c-0.2-0.3-0.3-0.6-0.5-0.9
				c-0.5-1.2-0.7-2.4-0.8-3.7c-0.1-2-0.2-4.1-0.2-6.1c-0.1-2.5-0.1-5.1-0.2-7.6c-0.1-2.3-0.3-4.6-0.5-6.8c-0.1-1.2-0.2-2.5-0.3-3.8
				c0.1,0,0.3-0.1,0.5-0.1c2-0.3,3.8-0.9,5.5-2c0.2-0.1,0.4-0.3,0.6-0.5c0.3-0.3,0.3-0.7,0.2-0.9c-0.2-0.3-0.5-0.4-0.9-0.3
				c-0.6,0.2-1.2,0.4-1.8,0.7c-1.7,0.8-3.4,1.3-5.3,1.4c-1.4,0.1-2.7,0-4-0.5c-0.5-0.2-1.1-0.4-1.7-0.3c-0.1,0-0.3,0.1-0.4,0.2
				c0,0.1,0,0.3,0.1,0.4c0.3,0.3,0.5,0.6,0.9,0.8c1,0.7,2.2,1,3.5,1.1c0.3,0,0.6,0.1,1,0.1c0,0.5,0,0.9,0,1.4
				c0.1,1.8,0.2,3.7,0.3,5.5c0.3,4.8,0.3,9.6,0.3,14.4c0,1.8-0.1,3.7-0.3,5.5c-0.1,0.4-0.2,0.8-0.3,1.3c-0.1,0.3-0.2,0.5-0.4,0.7
				c-0.2,0.3-0.5,0.4-0.8,0.4c-1.4-0.1-2.9-0.2-4.3-0.4c-3.1-0.3-6.1-0.8-9.2-1.5c0.1-0.1,0.2-0.2,0.3-0.3c0.3-0.3,0.7-0.5,1-0.8
				c1.7-1.5,2.4-3.4,2.6-5.6c0.2-2-0.3-3.9-1.4-5.6c-0.5-0.8-1.1-1.5-1.7-2.3c-0.8-1.1-1.7-2.1-2.6-3.2c-1.1-1.4-1.9-2.9-2.6-4.5
				c-0.1-0.2-0.2-0.4-0.3-0.5c-0.3-0.5-0.9-0.5-1.2,0.1c-0.2,0.4-0.2,0.8-0.2,1.2c0.2,1,0.5,2,1,2.9c0.9,1.7,2,3.3,3.2,4.8
				c0.4,0.5,0.9,1.1,1.3,1.6c0.8,1,1.5,2.2,1.8,3.4c0.5,2.4,0,4.6-1.9,6.3c-0.6,0.5-1.3,1-2,1.5c-0.2,0.1-0.4,0.2-0.6,0.1
				c-3.4-1.3-6.5-2.9-9.2-5.4c-2-2-3.2-4.4-3.7-7.2c-0.2-1.4-0.3-2.7-0.3-4.1c0-0.6,0.1-1.2,0.2-1.9c0-0.3,0-0.5-0.3-0.7
				c-1-0.8-2-1.5-3-2.3c-0.6-0.6-1.2-1.3-1.7-2c-1.5-2.1-2.4-4.4-2.9-7c-0.2-1.1-0.2-2.2,0-3.4c0.1-0.7,0.4-1.3,0.8-1.9
				c0.6-0.9,1.4-1,2.4-0.5c0.2,0.1,0.4,0.3,0.6,0.4c1.3,1,2.6,2,3.8,3.2c1.1,1.1,2,2.4,2.6,4c0,0.1,0.1,0.1,0.1,0.3
				c2.6-6.9,6.7-12.7,11.9-17.9c-0.1,0-0.3-0.1-0.5-0.1c-8.5-1.9-15.5-6.1-21.3-12.5c-3.9-4.3-6.4-9.4-7.7-15.1
				c-0.5-2.3-0.8-4.5-1-6.9c-0.1-2.2,0-4.5,0.1-6.7c0-0.1,0-0.2,0-0.4c-0.2,0.1-0.2,0.3-0.3,0.5c-1,2.2-1.9,4.4-2.9,6.6
				c-0.7,1.5-1.4,3.1-2.4,4.4c-0.6,0.7-1.2,1.4-1.9,1.9c-1.5,1.1-3.1,1-4.5-0.3c-0.5-0.5-0.9-1.1-1.2-1.7c-0.6-1.4-0.9-2.9-1-4.4
				c-0.1-3,0.5-5.9,1.3-8.8c2-6.9,4.8-13.5,8.3-19.7c1.7-3,3.4-6,5.4-8.8c2.1-2.8,4.5-5.4,7.4-7.5c2.7-1.9,5.6-3.4,8.8-4.3
				c1.8-0.5,3.6-0.7,5.4-0.6c2.4,0.2,4.5,1,6.3,2.6c1.3,1.2,2.5,2.5,3.5,4c0.1,0.2,0.2,0.3,0.3,0.5c0.3-0.1,0.6-0.2,1-0.3
				c3.1-0.9,6.3-1.6,9.6-2c2.4-0.3,4.9-0.5,7.3-0.5c4.4,0,8.8,0.6,13.1,1.7c2.2,0.6,4.3,1.2,6.4,1.8c0.1,0,0.2,0.1,0.3,0.1
				c0.1-0.1,0.3-0.3,0.4-0.4c1.8-1.8,3.7-3.6,5.8-5.1c2-1.5,4.2-2.7,6.7-3.5c3.1-1,6.1-0.7,9,0.8c2.3,1.1,4.3,2.7,6,4.5
				c2.3,2.4,4.2,5.1,5.9,8c2,3.4,3.6,7,5.2,10.6c1.3,2.9,2.5,5.9,3.4,8.9c0.4,1.4,0.8,2.9,0.9,4.4c0.2,1.8,0,3.6-0.6,5.4
				c-0.7,1.9-2,3.4-4,4.2c-1.2,0.5-2.3,0.4-3.5-0.1c-0.9-0.5-1.8-1.1-2.4-1.9c-1.1-1.3-2.2-2.7-3.3-4.1c-0.7-0.9-1.3-1.8-2.2-2.5
				C194.5,192.9,194.4,192.8,194.1,192.7C194.2,192.7,194.2,192.7,194.1,192.7z"/>
		</g>
		<path class="st57" d="M144.8,209.8c0.3-0.5,0.5-1,0.8-1.4c0.3-0.6,0.7-1.1,1.3-1.5c1.4-1.1,2.9-0.4,3.3,1.3
			c0.1,0.6,0.1,1.2-0.1,1.8c-0.1,0.4-0.2,0.7-0.3,1.1c-0.7,1.8-1.8,3.3-3.2,4.6c-0.9,0.8-1.5,0.8-2.4,0c-1.4-1.3-2.7-2.7-3.6-4.3
			c-0.5-0.8-0.8-1.7-0.8-2.7c0-0.2,0-0.5,0.1-0.7c0.3-1,1.2-1.5,2.2-1.2c0.9,0.2,1.7,0.8,2.2,1.6
			C144.4,208.9,144.5,209.3,144.8,209.8z"/>
		<path class="st93" d="M145.6,223.3c-0.1,0.2-0.2,0.3-0.2,0.4c-0.5,0.7-1.2,1-2,1c-0.4,0-0.9-0.2-1.3-0.3c-0.3-0.1-0.4-0.3-0.3-0.5
			c0.1-0.2,0.2-0.3,0.5-0.3c0.3,0,0.6,0.1,0.9,0.1c0.8,0.1,1.4-0.2,1.5-1c0.1-0.4,0.1-0.7,0.1-1.1c0-1.1,0.1-2.2,0.1-3.3
			c0-0.2,0.1-0.4,0.1-0.6c0-0.2,0.2-0.3,0.4-0.4c0.2,0,0.4,0.1,0.4,0.4c0.1,0.5,0.3,1.1,0.3,1.6c0.1,0.9,0.2,1.8,0.3,2.7
			c0.1,0.4,0.2,0.7,0.3,1.1c0.3,0.7,1,0.9,1.6,0.5c0.3-0.2,0.7-0.5,1-0.7c0.2-0.1,0.3-0.2,0.5-0.1c0.2,0.2,0.2,0.4,0.1,0.6
			c-0.4,0.5-0.9,1-1.5,1.3c-0.5,0.2-1,0.2-1.5,0.1c-0.5-0.2-0.9-0.5-1.2-1C145.8,223.6,145.7,223.5,145.6,223.3z"/>
		<g>
			<g>
				<circle class="st28" cx="130.8" cy="197.8" r="5.8"/>
				<path class="st26" d="M134,195.5c-0.2,1-1.1,1.7-2.1,1.7c-1.2,0-2.2-1-2.2-2.2c0-0.4,0.1-0.8,0.3-1.1c-1.8,0.4-3.1,2-3.1,3.9
					c0,2.2,1.8,3.9,3.9,3.9c2.2,0,3.9-1.8,3.9-3.9C134.7,197,134.4,196.2,134,195.5z M130.3,200c-0.7,0-1.3-0.6-1.3-1.3
					c0-0.7,0.6-1.3,1.3-1.3c0.7,0,1.3,0.6,1.3,1.3C131.6,199.4,131.1,200,130.3,200z"/>
			</g>
			<g>
				<circle class="st28" cx="161" cy="197.8" r="5.8"/>
				<path class="st26" d="M164.2,195.5c-0.2,1-1.1,1.7-2.1,1.7c-1.2,0-2.2-1-2.2-2.2c0-0.4,0.1-0.8,0.3-1.1c-1.8,0.4-3.1,2-3.1,3.9
					c0,2.2,1.8,3.9,3.9,3.9c2.2,0,3.9-1.8,3.9-3.9C164.9,197,164.6,196.2,164.2,195.5z M160.6,200c-0.7,0-1.3-0.6-1.3-1.3
					c0-0.7,0.6-1.3,1.3-1.3c0.7,0,1.3,0.6,1.3,1.3C161.8,199.4,161.3,200,160.6,200z"/>
			</g>
		</g>
	</g>
	<g>
		<g>
			<path class="st75" d="M328.5,103.3c0,0.5,0.1,1,0.1,1.4c0.1,1.5,0.3,3,0.4,4.5c0.1,1.6,0.2,3.2,0.2,4.8c-0.1,6.7-1.7,13.1-5.1,19
				c-1.7,2.9-3.8,5.5-6.4,7.6c-2.9,2.4-6.1,4.6-9.5,6.3c-3.1,1.5-6.3,2.6-9.7,3.5c-0.2,0-0.3,0.1-0.6,0.2c0.2,0.2,0.3,0.3,0.4,0.4
				c1.6,1.6,3.2,3.2,4.8,4.8c2.2,2.2,4.1,4.6,5.9,7.1c2.1,3.1,3.9,6.4,5.1,10c0.7,2.2,1.2,4.4,1.3,6.6c0.1,1.6,0.1,3.2-0.3,4.8
				c-0.5,2.1-1.6,3.8-3.1,5.3c-2.5,2.5-5.6,4.3-8.8,5.8c0,0-0.1,0-0.1,0c-0.9-1.1-1.8-2.1-2-3.6c-0.2-1-0.1-2,0.2-3
				c0.4-1.5,1.2-2.9,2-4.3c0.6-1.2,1.3-2.4,1.8-3.6c1.2-2.9,1.3-5.8,0.2-8.7c-0.2-0.4-0.4-0.8-0.6-1.2c-0.1-0.2-0.4-0.4-0.6-0.6
				c-0.5-0.3-1,0-1,0.6c0,0.4,0.1,0.8,0.2,1.2c0.3,1.2,0.5,2.5,0.5,3.7c0,1.5-0.3,2.9-0.9,4.2c-0.5,1.1-1.1,2.1-1.7,3.2
				c-0.8,1.4-1.6,2.9-2.2,4.5c-0.4,1.1-0.6,2.2-0.6,3.3c0,1.5,0.4,2.9,1.2,4.1c0.3,0.5,0.6,0.9,1,1.4c-0.2,0.1-0.3,0.1-0.5,0.2
				c-2.3,0.8-4.6,1.4-7,1.9c-2.1,0.4-4.2,0.8-6.3,1c-1,0.1-2,0.1-3,0.2c-0.3,0-0.5-0.1-0.6-0.3c-0.2-0.3-0.3-0.6-0.5-0.9
				c-0.5-1.2-0.7-2.4-0.8-3.7c-0.1-2-0.2-4.1-0.2-6.1c-0.1-2.5-0.1-5.1-0.2-7.6c-0.1-2.3-0.3-4.6-0.5-6.8c-0.1-1.2-0.2-2.5-0.3-3.8
				c0.1,0,0.3-0.1,0.5-0.1c2-0.3,3.8-0.9,5.5-2c0.2-0.1,0.4-0.3,0.6-0.5c0.3-0.3,0.3-0.7,0.2-0.9c-0.2-0.3-0.5-0.4-0.9-0.3
				c-0.6,0.2-1.2,0.4-1.8,0.7c-1.7,0.8-3.4,1.3-5.3,1.4c-1.4,0.1-2.7,0-4-0.5c-0.5-0.2-1.1-0.4-1.7-0.3c-0.1,0-0.3,0.1-0.4,0.2
				c0,0.1,0,0.3,0.1,0.4c0.3,0.3,0.5,0.6,0.9,0.8c1,0.7,2.2,1,3.5,1.1c0.3,0,0.6,0.1,1,0.1c0,0.5,0,0.9,0,1.4
				c0.1,1.8,0.2,3.7,0.3,5.5c0.3,4.8,0.3,9.6,0.3,14.4c0,1.8-0.1,3.7-0.3,5.5c-0.1,0.4-0.2,0.8-0.3,1.3c-0.1,0.3-0.2,0.5-0.4,0.7
				c-0.2,0.3-0.5,0.4-0.8,0.4c-1.4-0.1-2.9-0.2-4.3-0.4c-3.1-0.3-6.1-0.8-9.2-1.5c0.1-0.1,0.2-0.2,0.3-0.3c0.3-0.3,0.7-0.5,1-0.8
				c1.7-1.5,2.4-3.4,2.6-5.6c0.2-2-0.3-3.9-1.4-5.6c-0.5-0.8-1.1-1.5-1.7-2.3c-0.8-1.1-1.7-2.1-2.6-3.2c-1.1-1.4-1.9-2.9-2.6-4.5
				c-0.1-0.2-0.2-0.4-0.3-0.5c-0.3-0.5-0.9-0.5-1.2,0.1c-0.2,0.4-0.2,0.8-0.2,1.2c0.2,1,0.5,2,1,2.9c0.9,1.7,2,3.3,3.2,4.8
				c0.4,0.5,0.9,1.1,1.3,1.6c0.8,1,1.5,2.2,1.8,3.4c0.5,2.4,0,4.6-1.9,6.3c-0.6,0.5-1.3,1-2,1.5c-0.2,0.1-0.4,0.2-0.6,0.1
				c-3.4-1.3-6.5-2.9-9.2-5.4c-2-2-3.2-4.4-3.7-7.2c-0.2-1.4-0.3-2.7-0.3-4.1c0-0.6,0.1-1.2,0.2-1.9c0-0.3,0-0.5-0.3-0.7
				c-1-0.8-2-1.5-3-2.3c-0.6-0.6-1.2-1.3-1.7-2c-1.5-2.1-2.4-4.4-2.9-7c-0.2-1.1-0.2-2.2,0-3.4c0.1-0.7,0.4-1.3,0.8-1.9
				c0.6-0.9,1.4-1,2.4-0.5c0.2,0.1,0.4,0.3,0.6,0.4c1.3,1,2.6,2,3.8,3.2c1.1,1.1,2,2.4,2.6,4c0,0.1,0.1,0.1,0.1,0.3
				c2.6-6.9,6.7-12.7,11.9-17.9c-0.1,0-0.3-0.1-0.5-0.1c-8.5-1.9-15.5-6.1-21.3-12.5c-3.9-4.3-6.4-9.4-7.7-15.1
				c-0.5-2.3-0.8-4.5-1-6.9c-0.1-2.2,0-4.5,0.1-6.7c0-0.1,0-0.2,0-0.4c-0.2,0.1-0.2,0.3-0.3,0.5c-1,2.2-1.9,4.4-2.9,6.6
				c-0.7,1.5-1.4,3.1-2.4,4.4c-0.6,0.7-1.2,1.4-1.9,1.9c-1.5,1.1-3.1,1-4.5-0.3c-0.5-0.5-0.9-1.1-1.2-1.7c-0.6-1.4-0.9-2.9-1-4.4
				c-0.1-3,0.5-5.9,1.3-8.8c2-6.9,4.8-13.5,8.3-19.7c1.7-3,3.4-6,5.4-8.8c2.1-2.8,4.5-5.4,7.4-7.5c2.7-1.9,5.6-3.4,8.8-4.3
				c1.8-0.5,3.6-0.7,5.4-0.6c2.4,0.2,4.5,1,6.3,2.6c1.3,1.2,2.5,2.5,3.5,4c0.1,0.2,0.2,0.3,0.3,0.5c0.3-0.1,0.6-0.2,1-0.3
				c3.1-0.9,6.3-1.6,9.6-2c2.4-0.3,4.9-0.5,7.3-0.5c4.4,0,8.8,0.6,13.1,1.7c2.2,0.6,4.3,1.2,6.4,1.8c0.1,0,0.2,0.1,0.3,0.1
				c0.1-0.1,0.3-0.3,0.4-0.4c1.8-1.8,3.7-3.6,5.8-5.1c2-1.5,4.2-2.7,6.7-3.5c3.1-1,6.1-0.7,9,0.8c2.3,1.1,4.3,2.7,6,4.5
				c2.3,2.4,4.2,5.1,5.9,8c2,3.4,3.6,7,5.2,10.6c1.3,2.9,2.5,5.9,3.4,8.9c0.4,1.4,0.8,2.9,0.9,4.4c0.2,1.8,0,3.6-0.6,5.4
				c-0.7,1.9-2,3.4-4,4.2c-1.2,0.5-2.3,0.4-3.5-0.1c-0.9-0.5-1.8-1.1-2.4-1.9c-1.1-1.3-2.2-2.7-3.3-4.1c-0.7-0.9-1.3-1.8-2.2-2.5
				C328.9,103.4,328.8,103.3,328.5,103.3C328.6,103.3,328.6,103.3,328.5,103.3z"/>
		</g>
		<path class="st57" d="M279.2,120.4c0.3-0.5,0.5-1,0.8-1.4c0.3-0.6,0.7-1.1,1.3-1.5c1.4-1.1,2.9-0.4,3.3,1.3
			c0.1,0.6,0.1,1.2-0.1,1.8c-0.1,0.4-0.2,0.7-0.3,1.1c-0.7,1.8-1.8,3.3-3.2,4.6c-0.9,0.8-1.5,0.8-2.4,0c-1.4-1.3-2.7-2.7-3.6-4.3
			c-0.5-0.8-0.8-1.7-0.8-2.7c0-0.2,0-0.5,0.1-0.7c0.3-1,1.2-1.5,2.2-1.2c0.9,0.2,1.7,0.8,2.2,1.6
			C278.8,119.5,278.9,119.9,279.2,120.4z"/>
		<path class="st93" d="M280,133.9c-0.1,0.2-0.2,0.3-0.2,0.4c-0.5,0.7-1.2,1-2,1c-0.4,0-0.9-0.2-1.3-0.3c-0.3-0.1-0.4-0.3-0.3-0.5
			c0.1-0.2,0.2-0.3,0.5-0.3c0.3,0,0.6,0.1,0.9,0.1c0.8,0.1,1.4-0.2,1.5-1c0.1-0.4,0.1-0.7,0.1-1.1c0-1.1,0.1-2.2,0.1-3.3
			c0-0.2,0.1-0.4,0.1-0.6c0-0.2,0.2-0.3,0.4-0.4c0.2,0,0.4,0.1,0.4,0.4c0.1,0.5,0.3,1.1,0.3,1.6c0.1,0.9,0.2,1.8,0.3,2.7
			c0.1,0.4,0.2,0.7,0.3,1.1c0.3,0.7,1,0.9,1.6,0.5c0.3-0.2,0.7-0.5,1-0.7c0.2-0.1,0.3-0.2,0.5-0.1c0.2,0.2,0.2,0.4,0.1,0.6
			c-0.4,0.5-0.9,1-1.5,1.3c-0.5,0.2-1,0.2-1.5,0.1c-0.5-0.2-0.9-0.5-1.2-1C280.2,134.2,280.1,134.1,280,133.9z"/>
		<path class="st103" d="M251.1,91.8c7.2-5.5,19,6.4,23,7.2s12.4,3.4,5.3,9.5c-7.1,6.1-11,21.4-15.9,20.3s-8.8-16.9-15.9-11.8
			c-7,5.1-15.7-10.4-8.4-14.4S247.7,94.4,251.1,91.8z"/>
		<g>
			<g>
				<circle class="st28" cx="265.2" cy="108.4" r="5.8"/>
				<path class="st26" d="M268.4,106.1c-0.2,1-1.1,1.7-2.1,1.7c-1.2,0-2.2-1-2.2-2.2c0-0.4,0.1-0.8,0.3-1.1c-1.8,0.4-3.1,2-3.1,3.9
					c0,2.2,1.8,3.9,3.9,3.9c2.2,0,3.9-1.8,3.9-3.9C269.1,107.5,268.8,106.7,268.4,106.1z M264.7,110.5c-0.7,0-1.3-0.6-1.3-1.3
					c0-0.7,0.6-1.3,1.3-1.3c0.7,0,1.3,0.6,1.3,1.3C266,110,265.5,110.5,264.7,110.5z"/>
			</g>
			<g>
				<circle class="st28" cx="295.4" cy="108.4" r="5.8"/>
				<path class="st26" d="M298.6,106.1c-0.2,1-1.1,1.7-2.1,1.7c-1.2,0-2.2-1-2.2-2.2c0-0.4,0.1-0.8,0.3-1.1c-1.8,0.4-3.1,2-3.1,3.9
					c0,2.2,1.8,3.9,3.9,3.9c2.2,0,3.9-1.8,3.9-3.9C299.3,107.5,299,106.7,298.6,106.1z M294.9,110.5c-0.7,0-1.3-0.6-1.3-1.3
					c0-0.7,0.6-1.3,1.3-1.3c0.7,0,1.3,0.6,1.3,1.3C296.2,110,295.7,110.5,294.9,110.5z"/>
			</g>
		</g>
	</g>
	<g>
		<g>
			<path class="st104" d="M332.5,270.5c0,0.5,0.1,1,0.1,1.4c0.1,1.5,0.3,3,0.4,4.5c0.1,1.6,0.2,3.2,0.2,4.8
				c-0.1,6.7-1.7,13.1-5.1,19c-1.7,2.9-3.8,5.5-6.4,7.6c-2.9,2.4-6.1,4.6-9.5,6.3c-3.1,1.5-6.3,2.6-9.7,3.5c-0.2,0-0.3,0.1-0.6,0.2
				c0.2,0.2,0.3,0.3,0.4,0.4c1.6,1.6,3.2,3.2,4.8,4.8c2.2,2.2,4.1,4.6,5.9,7.1c2.1,3.1,3.9,6.4,5.1,10c0.7,2.2,1.2,4.4,1.3,6.6
				c0.1,1.6,0.1,3.2-0.3,4.8c-0.5,2.1-1.6,3.8-3.1,5.3c-2.5,2.5-5.6,4.3-8.8,5.8c0,0-0.1,0-0.1,0c-0.9-1.1-1.8-2.1-2-3.6
				c-0.2-1-0.1-2,0.2-3c0.4-1.5,1.2-2.9,2-4.3c0.6-1.2,1.3-2.4,1.8-3.6c1.2-2.9,1.3-5.8,0.2-8.7c-0.2-0.4-0.4-0.8-0.6-1.2
				c-0.1-0.2-0.4-0.4-0.6-0.6c-0.5-0.3-1,0-1,0.6c0,0.4,0.1,0.8,0.2,1.2c0.3,1.2,0.5,2.5,0.5,3.7c0,1.5-0.3,2.9-0.9,4.2
				c-0.5,1.1-1.1,2.1-1.7,3.2c-0.8,1.4-1.6,2.9-2.2,4.5c-0.4,1.1-0.6,2.2-0.6,3.3c0,1.5,0.4,2.9,1.2,4.1c0.3,0.5,0.6,0.9,1,1.4
				c-0.2,0.1-0.3,0.1-0.5,0.2c-2.3,0.8-4.6,1.4-7,1.9c-2.1,0.4-4.2,0.8-6.3,1c-1,0.1-2,0.1-3,0.2c-0.3,0-0.5-0.1-0.6-0.3
				c-0.2-0.3-0.3-0.6-0.5-0.9c-0.5-1.2-0.7-2.4-0.8-3.7c-0.1-2-0.2-4.1-0.2-6.1c-0.1-2.5-0.1-5.1-0.2-7.6c-0.1-2.3-0.3-4.6-0.5-6.8
				c-0.1-1.2-0.2-2.5-0.3-3.8c0.1,0,0.3-0.1,0.5-0.1c2-0.3,3.8-0.9,5.5-2c0.2-0.1,0.4-0.3,0.6-0.5c0.3-0.3,0.3-0.7,0.2-0.9
				c-0.2-0.3-0.5-0.4-0.9-0.3c-0.6,0.2-1.2,0.4-1.8,0.7c-1.7,0.8-3.4,1.3-5.3,1.4c-1.4,0.1-2.7,0-4-0.5c-0.5-0.2-1.1-0.4-1.7-0.3
				c-0.1,0-0.3,0.1-0.4,0.2c0,0.1,0,0.3,0.1,0.4c0.3,0.3,0.5,0.6,0.9,0.8c1,0.7,2.2,1,3.5,1.1c0.3,0,0.6,0.1,1,0.1
				c0,0.5,0,0.9,0,1.4c0.1,1.8,0.2,3.7,0.3,5.5c0.3,4.8,0.3,9.6,0.3,14.4c0,1.8-0.1,3.7-0.3,5.5c-0.1,0.4-0.2,0.8-0.3,1.3
				c-0.1,0.3-0.2,0.5-0.4,0.7c-0.2,0.3-0.5,0.4-0.8,0.4c-1.4-0.1-2.9-0.2-4.3-0.4c-3.1-0.3-6.1-0.8-9.2-1.5c0.1-0.1,0.2-0.2,0.3-0.3
				c0.3-0.3,0.7-0.5,1-0.8c1.7-1.5,2.4-3.4,2.6-5.6c0.2-2-0.3-3.9-1.4-5.6c-0.5-0.8-1.1-1.5-1.7-2.3c-0.8-1.1-1.7-2.1-2.6-3.2
				c-1.1-1.4-1.9-2.9-2.6-4.5c-0.1-0.2-0.2-0.4-0.3-0.5c-0.3-0.5-0.9-0.5-1.2,0.1c-0.2,0.4-0.2,0.8-0.2,1.2c0.2,1,0.5,2,1,2.9
				c0.9,1.7,2,3.3,3.2,4.8c0.4,0.5,0.9,1.1,1.3,1.6c0.8,1,1.5,2.2,1.8,3.4c0.5,2.4,0,4.6-1.9,6.3c-0.6,0.5-1.3,1-2,1.5
				c-0.2,0.1-0.4,0.2-0.6,0.1c-3.4-1.3-6.5-2.9-9.2-5.4c-2-2-3.2-4.4-3.7-7.2c-0.2-1.4-0.3-2.7-0.3-4.1c0-0.6,0.1-1.2,0.2-1.9
				c0-0.3,0-0.5-0.3-0.7c-1-0.8-2-1.5-3-2.3c-0.6-0.6-1.2-1.3-1.7-2c-1.5-2.1-2.4-4.4-2.9-7c-0.2-1.1-0.2-2.2,0-3.4
				c0.1-0.7,0.4-1.3,0.8-1.9c0.6-0.9,1.4-1,2.4-0.5c0.2,0.1,0.4,0.3,0.6,0.4c1.3,1,2.6,2,3.8,3.2c1.1,1.1,2,2.4,2.6,4
				c0,0.1,0.1,0.1,0.1,0.3c2.6-6.9,6.7-12.7,11.9-17.9c-0.1,0-0.3-0.1-0.5-0.1c-8.5-1.9-15.5-6.1-21.3-12.5
				c-3.9-4.3-6.4-9.4-7.7-15.1c-0.5-2.3-0.8-4.5-1-6.9c-0.1-2.2,0-4.5,0.1-6.7c0-0.1,0-0.2,0-0.4c-0.2,0.1-0.2,0.3-0.3,0.5
				c-1,2.2-1.9,4.4-2.9,6.6c-0.7,1.5-1.4,3.1-2.4,4.4c-0.6,0.7-1.2,1.4-1.9,1.9c-1.5,1.1-3.1,1-4.5-0.3c-0.5-0.5-0.9-1.1-1.2-1.7
				c-0.6-1.4-0.9-2.9-1-4.4c-0.1-3,0.5-5.9,1.3-8.8c2-6.9,4.8-13.5,8.3-19.7c1.7-3,3.4-6,5.4-8.8c2.1-2.8,4.5-5.4,7.4-7.5
				c2.7-1.9,5.6-3.4,8.8-4.3c1.8-0.5,3.6-0.7,5.4-0.6c2.4,0.2,4.5,1,6.3,2.6c1.3,1.2,2.5,2.5,3.5,4c0.1,0.2,0.2,0.3,0.3,0.5
				c0.3-0.1,0.6-0.2,1-0.3c3.1-0.9,6.3-1.6,9.6-2c2.4-0.3,4.9-0.5,7.3-0.5c4.4,0,8.8,0.6,13.1,1.7c2.2,0.6,4.3,1.2,6.4,1.8
				c0.1,0,0.2,0.1,0.3,0.1c0.1-0.1,0.3-0.3,0.4-0.4c1.8-1.8,3.7-3.6,5.8-5.1c2-1.5,4.2-2.7,6.7-3.5c3.1-1,6.1-0.7,9,0.8
				c2.3,1.1,4.3,2.7,6,4.5c2.3,2.4,4.2,5.1,5.9,8c2,3.4,3.6,7,5.2,10.6c1.3,2.9,2.5,5.9,3.4,8.9c0.4,1.4,0.8,2.9,0.9,4.4
				c0.2,1.8,0,3.6-0.6,5.4c-0.7,1.9-2,3.4-4,4.2c-1.2,0.5-2.3,0.4-3.5-0.1c-0.9-0.5-1.8-1.1-2.4-1.9c-1.1-1.3-2.2-2.7-3.3-4.1
				c-0.7-0.9-1.3-1.8-2.2-2.5C332.9,270.6,332.7,270.5,332.5,270.5C332.6,270.4,332.5,270.5,332.5,270.5z"/>
		</g>
		<path class="st57" d="M283.2,287.5c0.3-0.5,0.5-1,0.8-1.4c0.3-0.6,0.7-1.1,1.3-1.5c1.4-1.1,2.9-0.4,3.3,1.3
			c0.1,0.6,0.1,1.2-0.1,1.8c-0.1,0.4-0.2,0.7-0.3,1.1c-0.7,1.8-1.8,3.3-3.2,4.6c-0.9,0.8-1.5,0.8-2.4,0c-1.4-1.3-2.7-2.7-3.6-4.3
			c-0.5-0.8-0.8-1.7-0.8-2.7c0-0.2,0-0.5,0.1-0.7c0.3-1,1.2-1.5,2.2-1.2c0.9,0.2,1.7,0.8,2.2,1.6
			C282.7,286.7,282.9,287.1,283.2,287.5z"/>
		<path class="st93" d="M284,301c-0.1,0.2-0.2,0.3-0.2,0.4c-0.5,0.7-1.2,1-2,1c-0.4,0-0.9-0.2-1.3-0.3c-0.3-0.1-0.4-0.3-0.3-0.5
			c0.1-0.2,0.2-0.3,0.5-0.3c0.3,0,0.6,0.1,0.9,0.1c0.8,0.1,1.4-0.2,1.5-1c0.1-0.4,0.1-0.7,0.1-1.1c0-1.1,0.1-2.2,0.1-3.3
			c0-0.2,0.1-0.4,0.1-0.6c0-0.2,0.2-0.3,0.4-0.4c0.2,0,0.4,0.1,0.4,0.4c0.1,0.5,0.3,1.1,0.3,1.6c0.1,0.9,0.2,1.8,0.3,2.7
			c0.1,0.4,0.2,0.7,0.3,1.1c0.3,0.7,1,0.9,1.6,0.5c0.3-0.2,0.7-0.5,1-0.7c0.2-0.1,0.3-0.2,0.5-0.1c0.2,0.2,0.2,0.4,0.1,0.6
			c-0.4,0.5-0.9,1-1.5,1.3c-0.5,0.2-1,0.2-1.5,0.1c-0.5-0.2-0.9-0.5-1.2-1C284.2,301.4,284.1,301.2,284,301z"/>
		<g>
			<path d="M265.2,277.6c-1.4,0-2.6-0.6-3.6-1.6c-0.2-0.2-0.4-0.5-0.5-0.8c-0.1-0.3,0-0.5,0.2-0.7c0.2-0.2,0.5-0.1,0.7,0
				c0.1,0.1,0.2,0.1,0.2,0.2c0.1,0.1,0.3,0.2,0.4,0.3c1.7,1.4,3.7,1.3,5.3-0.1c0.3-0.3,0.6-0.5,0.9-0.8c0.3-0.2,0.6-0.2,0.9,0
				c0.2,0.2,0.3,0.5,0.1,0.9c0,0.1-0.1,0.2-0.2,0.3c-0.7,1.1-1.8,1.8-3.1,2.2C266.1,277.5,265.6,277.5,265.2,277.6z"/>
			<path d="M302.8,277.6c-1.4,0-2.6-0.6-3.6-1.6c-0.2-0.2-0.4-0.5-0.5-0.8c-0.1-0.3,0-0.5,0.2-0.7c0.2-0.2,0.5-0.1,0.7,0
				c0.1,0.1,0.2,0.1,0.2,0.2c0.1,0.1,0.3,0.2,0.4,0.3c1.7,1.4,3.7,1.3,5.3-0.1c0.3-0.3,0.6-0.5,0.9-0.8c0.3-0.2,0.6-0.2,0.9,0
				c0.2,0.2,0.3,0.5,0.1,0.9c0,0.1-0.1,0.2-0.2,0.3c-0.7,1.1-1.8,1.8-3.1,2.2C303.7,277.5,303.3,277.5,302.8,277.6z"/>
		</g>
	</g>
</g>
</svg>
