<?xml version="1.0" encoding="utf-8"?>
<!-- Generator: Adobe Illustrator 22.0.1, SVG Export Plug-In . SVG Version: 6.00 Build 0)  -->
<svg version="1.1" id="Calque_1" xmlns="http://www.w3.org/2000/svg" xmlns:xlink="http://www.w3.org/1999/xlink" x="0px" y="0px"
	 viewBox="0 0 432 432" style="enable-background:new 0 0 432 432;" xml:space="preserve">
<style type="text/css">
	.st0{fill:#940808;}
	.st1{fill:#E56B6B;}
	.st2{fill:#1A1A1A;}
	.st3{fill:#DD5151;}
	.st4{fill:#6B313C;}
	.st5{fill:#B65165;}
	.st6{fill:#EB899F;}
	.st7{fill:#9C0000;}
	.st8{fill:#4D4D4D;}
	.st9{fill:#C4924B;}
	.st10{fill:#333333;}
	.st11{fill-rule:evenodd;clip-rule:evenodd;fill:#9C0000;}
	.st12{fill:#F68484;}
	.st13{fill:#AB1F1F;}
	.st14{fill:#A45F6F;}
	.st15{fill:#DEB0B0;}
	.st16{fill:#BA3434;}
	.st17{fill:#A57B7C;}
	.st18{fill:#F2F2F2;}
	.st19{fill:#EC1C24;}
	.st20{fill:#A54550;}
	.st21{fill:#FFFFFF;}
	.st22{fill:#AE5B65;}
	.st23{fill:#F5D3D1;}
	.st24{fill:#687A6E;}
	.st25{fill:#231F20;}
	.st26{fill-rule:evenodd;clip-rule:evenodd;fill:#333333;}
	.st27{fill:#F4E6E5;}
	.st28{fill:#EFBB75;}
	.st29{fill:#D8A160;}
	.st30{fill:#EFDDCA;}
	.st31{fill:#A55B6A;}
	.st32{fill:#92A182;}
	.st33{fill:#CCCCCC;}
	.st34{fill:#944E3C;}
	.st35{fill:#C1272D;}
	.st36{fill:#C67B32;}
	.st37{fill:#72696D;}
	.st38{fill:#E3A8A4;}
	.st39{fill:#9FC8C2;}
	.st40{fill:#8B8285;}
	.st41{fill:#71796C;}
	.st42{fill-rule:evenodd;clip-rule:evenodd;fill:#E9C8C3;}
	.st43{fill:#C06666;}
	.st44{fill:#96A4A5;}
	.st45{fill:#C53C3C;}
	.st46{fill:#EA6B74;}
	.st47{fill:#406D8F;}
	.st48{fill:#77A3C0;}
	.st49{fill:#F25850;}
	.st50{fill:#253245;}
	.st51{fill:#FFAA96;}
	.st52{fill:#E0C8A4;}
	.st53{fill:#39ABA9;}
	.st54{fill:#F6DE96;}
	.st55{fill:#F1D2CD;}
	.st56{fill:#E8C3C3;}
	.st57{fill:#AB2130;}
	.st58{fill:#982A3A;}
	.st59{fill:#E19F78;}
	.st60{fill:#FEDED2;}
	.st61{fill:#FFB0A1;}
	.st62{fill:#DB3434;}
	.st63{fill:#C76B6A;}
	.st64{fill:#E05E90;}
	.st65{fill:#CE9F5C;}
	.st66{fill:#FF8D71;}
	.st67{fill:#B75041;}
	.st68{fill:#FCE4B6;}
	.st69{fill:#B24A58;}
	.st70{fill:#3C0303;}
	.st71{fill:#8B1111;}
	.st72{fill:#B02121;}
	.st73{fill:#29285B;}
	.st74{fill:#E6E6E6;}
	.st75{fill:#D59D79;}
	.st76{fill:#F0C880;}
	.st77{fill:#B3B3B3;}
	.st78{fill:#C6C6C6;}
	.st79{fill:#A6A6A6;}
	.st80{fill:#603813;}
	.st81{fill:#BC2A34;}
	.st82{fill:#999966;}
	.st83{fill:#666633;}
	.st84{fill:#CC6666;}
	.st85{fill:#663333;}
	.st86{fill-rule:evenodd;clip-rule:evenodd;fill:#FEDED2;}
	.st87{fill:#534741;}
</style>
<g>
	<g>
		<path class="st15" d="M307.6,129.2c0.3-0.3,0.4-0.4,0.6-0.6c1.9-2.2,3.9-4.2,6.2-6c1.8-1.4,3.8-2.6,5.9-3.5c1.5-0.6,3-1,4.7-0.7
			c1.6,0.3,2.6,1.1,3.3,2.5c0.8,1.9,0.9,3.8,0.5,5.8c-0.6,3.2-1.9,6.1-3.4,8.9c-2.4,4.4-5.4,8.3-8.9,11.8c-2.6,2.6-5.2,5.1-7.8,7.6
			c-1,1-2.1,2-3.2,2.9c-0.4,0.3-0.5,0.7-0.5,1.1c-0.8,3.8-1.6,7.6-2.5,11.4c-1.4,5.7-2.9,11.3-5.2,16.7c-0.8,1.8-1.7,3.4-2.5,5.2
			c-0.1,0.2-0.2,0.4-0.4,0.8c0.2-0.1,0.3-0.1,0.5-0.1c3.3-1.4,6.8-2.3,10.3-2.9c3.2-0.5,6.4-0.9,9.6-1.4c3.7-0.6,7.4-1.2,11-2.5
			c3.3-1.2,6.2-3,8.4-5.8c1-1.3,1.9-2.8,2.3-4.4c0.2-0.9,0.2-1.8-0.1-2.7c-0.3-0.7-0.7-1.4-1.3-1.9c-1.4-1.2-3.1-1.8-4.8-2.5
			c-1.2-0.5-2.4-0.9-3.5-1.6c-1.3-0.9-2.2-2.1-2.6-3.7c-0.2-1.1-0.2-2.2,0.2-3.3c0.5-1.6,1.5-2.9,2.8-4c2.2-1.9,4.9-2.3,7.7-1.9
			c0.5,0.1,1,0.2,1.5,0.3c2.3,0.5,4.2,1.7,5.8,3.4c3.3,3.4,5.1,7.5,4.8,12.4c-0.2,2.7-0.8,5.2-1.9,7.7c-3,6.9-7.6,12.5-14,16.5
			c-3.7,2.3-7.8,3.7-12.1,4.4c-2.7,0.4-5.5,0.5-8.3,0.5c-2.2,0-4.5,0-6.7,0.1c-2.1,0.1-4.2,0.4-6.3,0.6c-2.3,0.3-4.6,0.7-6.9,1.1
			c-2.5,0.5-4.9,1.3-7.2,2.3c-4.5,2-9.3,3.3-14.2,4.3c-4.5,0.9-9.1,1.3-13.7,1.2c-5.1-0.1-10.2-0.4-15.3-1.2
			c-3.9-0.5-7.8-1.1-11.6-2.1c-2.2-0.6-4.4-1.2-6.6-2c-5.9-2.1-10.3-6.1-13-11.8c-0.4-0.8-0.7-1.6-1-2.4c-3.1-7.8-5.2-15.9-6.3-24.2
			c-0.4-3.2-0.7-6.3-1.1-9.5c0-0.3-0.1-0.6-0.3-0.8c-2-2.6-4-5.2-6.1-7.6c-2.8-3.3-5.5-6.7-7.9-10.3c-1.4-2.1-2.7-4.3-3.5-6.7
			c-0.6-1.7-1-3.5-0.8-5.4c0.1-0.7,0.1-1.5,0.2-2.2c0.6-3.1,3-4.8,6.1-4.3c1.3,0.2,2.5,0.7,3.7,1.3c1.4,0.8,2.6,1.7,3.7,2.9
			c1.3,1.4,2.5,2.8,3.7,4.2c0.2,0.2,0.4,0.4,0.6,0.8c0.1-0.6,0.1-1.1,0.1-1.6c0.4-7.6,1.4-15.2,2.9-22.6c1.5-7.6,3.7-15,7-22
			c1.3-2.9,2.9-5.6,5-8c0.7-0.8,1.4-1.5,2.2-2.1c1.6-1.2,3.3-1.4,5.1-0.6c1.4,0.6,2.6,1.4,3.7,2.4c2.2,2,4,4.2,5.7,6.7
			c1.1,1.6,2.1,3.3,3.1,4.9c0.5,0.8,1.1,1.7,1.6,2.5c1.1,1.6,2.6,2.6,4.5,2.9c1.7,0.3,3.5,0.6,5.2,0.7c3.7,0.3,7.4,0.5,11.2,0.4
			c0.7,0,1.3-0.1,2-0.2c1.5-0.3,2.7-1,3.7-2c0.9-1,1.8-2.1,2.5-3.3c1.4-2.2,2.6-4.6,4-6.9c1.3-2.1,2.5-4.3,3.8-6.4
			c1.1-1.8,2.4-3.4,3.9-4.8c0.7-0.6,1.3-1.2,2.1-1.7c2-1.4,4.2-1.4,6.3-0.2c1.3,0.7,2.3,1.6,3.3,2.7c2.7,2.8,4.9,5.9,6.9,9.2
			c2.6,4.3,4.5,8.9,6,13.7c1.7,5.2,3.2,10.5,4,15.9c0.5,3.5,1,7,1.3,10.6c0.3,2.7,0.4,5.4,0.6,8.1c0.1,0.9,0.1,1.9,0.1,2.8
			C307.5,128.7,307.6,128.9,307.6,129.2z"/>
	</g>
	<g>
		<g>
			<path class="st16" d="M214.7,112.3c3.3-3.7,12.7-0.4,15.8,2.9c-2.6-8.1,4.8-17.9,10.8-12.5c5.1,4.6,3.7,12.9,3.5,19.5
				c-0.1,3.7-0.3,14-1,13.1c-8.5,0.3-18.3-4.4-24.8-10.6C215.7,121.6,211,116.5,214.7,112.3z"/>
			<path class="st16" d="M287.3,106.5c-4.1-2.9-12.4,2.6-14.7,6.5c0.7-8.5-8.8-16.3-13.4-9.7c-3.9,5.6-0.7,13.4,1.1,19.7
				c1,3.5,3.5,13.6,4,12.5c8.3-1.7,16.8-8.5,21.7-16C288.4,115.8,291.8,109.7,287.3,106.5z"/>
		</g>
		<g>
			<g>
				<path class="st16" d="M252.6,153.7c-0.2-0.2-0.5-0.5-0.7-0.8c0,0,0,0,0,0c-0.6,1.8-2.3,2.9-4.1,3.4c0.2,1.3,0.6,2.4,1,2.9
					c0.9,1.3,2.6,2.1,4.2,1.7c1.5-0.3,2.7-1.5,3.2-2.9c0.2-0.5,0.3-1.4,0.3-2.4c-0.8-0.1-1.5-0.3-2.2-0.7
					C253.7,154.6,253.1,154.2,252.6,153.7z"/>
			</g>
			<g>
				<g>
					<path class="st2" d="M262.3,149.9c-0.2,2.5-2.3,4.8-4.8,5c-0.3,0-0.7,0-1,0c-0.8-0.1-1.6-0.4-2.3-0.9c-0.5-0.3-1-0.8-1.4-1.3
						c-0.3-0.3-0.5-0.9-0.8-1.1c-0.2-0.1-0.6,0-0.6,0.2c-0.3,2-1.9,3.1-3.6,3.7c-0.4,0.1-0.8,0.2-1.3,0.3c-2.2,0.4-5-0.1-5.9-2.5
						c-0.2-0.5-1-0.3-0.8,0.2c1,2.7,3.9,3.5,6.5,3.1c0.5-0.1,1.1-0.2,1.6-0.4c1.8-0.6,3.4-1.7,4.1-3.4c0,0,0,0,0,0
						c0.2,0.3,0.4,0.5,0.7,0.8c0.5,0.5,1.1,0.9,1.7,1.3c0.7,0.4,1.5,0.6,2.2,0.7c0.5,0.1,1.1,0,1.6-0.1c2.7-0.5,4.8-3,5-5.7
						C263.2,149.3,262.4,149.3,262.3,149.9z"/>
				</g>
				<g>
					<path class="st2" d="M256.3,141.3c-0.9,0.3-1.7,0.9-2.6,1.3c-1.6,0.6-3.5,0.6-5.2,0.1c-0.6-0.2-1.3-0.4-1.9-0.4
						c-0.7,0-1.4,0.1-1.8,0.6c-0.9,1-0.2,2.6,0.9,3.3c1.1,0.7,2.5,0.8,3.7,1.3c1.2,0.4,2.5,1.4,2.5,2.7c0.2-1.3,1.3-2.4,2.4-3.1
						c1.1-0.7,2.4-1.2,3.5-1.9c0.8-0.5,1.6-1.2,1.8-2.1c0.2-0.9-0.1-1.5-0.5-1.9C258.3,140.9,257.2,141,256.3,141.3z"/>
				</g>
			</g>
		</g>
	</g>
</g>
<g>
	<g>
		<path class="st17" d="M124.4,287.3c-0.3-0.3-0.4-0.4-0.6-0.6c-1.9-2.2-3.9-4.2-6.2-6c-1.8-1.4-3.8-2.6-5.9-3.5
			c-1.5-0.6-3-1-4.7-0.7c-1.6,0.3-2.6,1.1-3.3,2.5c-0.8,1.9-0.9,3.8-0.5,5.8c0.6,3.2,1.9,6.1,3.4,8.9c2.4,4.4,5.4,8.3,8.9,11.8
			c2.6,2.6,5.2,5.1,7.8,7.6c1,1,2.1,2,3.2,2.9c0.4,0.3,0.5,0.7,0.5,1.1c0.8,3.8,1.6,7.6,2.5,11.4c1.4,5.7,2.9,11.3,5.2,16.7
			c0.8,1.8,1.7,3.4,2.5,5.2c0.1,0.2,0.2,0.4,0.4,0.8c-0.2-0.1-0.3-0.1-0.5-0.1c-3.3-1.4-6.8-2.3-10.3-2.9c-3.2-0.5-6.4-0.9-9.6-1.4
			c-3.7-0.6-7.4-1.2-11-2.5c-3.3-1.2-6.2-3-8.4-5.8c-1-1.3-1.9-2.8-2.3-4.4c-0.2-0.9-0.2-1.8,0.1-2.7c0.3-0.7,0.7-1.4,1.3-1.9
			c1.4-1.2,3.1-1.8,4.8-2.5c1.2-0.5,2.4-0.9,3.5-1.6c1.3-0.9,2.2-2.1,2.6-3.7c0.2-1.1,0.2-2.2-0.2-3.3c-0.5-1.6-1.5-2.9-2.8-4
			c-2.2-1.9-4.9-2.3-7.7-1.9c-0.5,0.1-1,0.2-1.5,0.3c-2.3,0.5-4.2,1.7-5.8,3.4c-3.3,3.4-5.1,7.5-4.8,12.4c0.2,2.7,0.8,5.2,1.9,7.7
			c3,6.9,7.6,12.5,14,16.5c3.7,2.3,7.8,3.7,12.1,4.4c2.7,0.4,5.5,0.5,8.3,0.5c2.2,0,4.5,0,6.7,0.1c2.1,0.1,4.2,0.4,6.3,0.6
			c2.3,0.3,4.6,0.7,6.9,1.1c2.5,0.5,4.9,1.3,7.2,2.3c4.5,2,9.3,3.3,14.2,4.3c4.5,0.9,9.1,1.3,13.7,1.2c5.1-0.1,10.2-0.4,15.3-1.2
			c3.9-0.5,7.8-1.1,11.6-2.1c2.2-0.6,4.4-1.2,6.6-2c5.9-2.1,10.3-6.1,13-11.8c0.4-0.8,0.7-1.6,1-2.4c3.1-7.8,5.2-15.9,6.3-24.2
			c0.4-3.2,0.7-6.3,1.1-9.5c0-0.3,0.1-0.6,0.3-0.8c2-2.6,4-5.2,6.1-7.6c2.8-3.3,5.5-6.7,7.9-10.3c1.4-2.1,2.7-4.3,3.5-6.7
			c0.6-1.7,1-3.5,0.8-5.4c-0.1-0.7-0.1-1.5-0.2-2.2c-0.6-3.1-3-4.8-6.1-4.3c-1.3,0.2-2.5,0.7-3.7,1.3c-1.4,0.8-2.6,1.7-3.7,2.9
			c-1.3,1.4-2.5,2.8-3.7,4.2c-0.2,0.2-0.4,0.4-0.6,0.8c-0.1-0.6-0.1-1.1-0.1-1.6c-0.4-7.6-1.4-15.2-2.9-22.6c-1.5-7.6-3.7-15-7-22
			c-1.3-2.9-2.9-5.6-5-8c-0.7-0.8-1.4-1.5-2.2-2.1c-1.6-1.2-3.3-1.4-5.1-0.6c-1.4,0.6-2.6,1.4-3.7,2.4c-2.2,2-4,4.2-5.7,6.7
			c-1.1,1.6-2.1,3.3-3.1,4.9c-0.5,0.8-1.1,1.7-1.6,2.5c-1.1,1.6-2.6,2.6-4.5,2.9c-1.7,0.3-3.5,0.6-5.2,0.7
			c-3.7,0.3-7.4,0.5-11.2,0.4c-0.7,0-1.3-0.1-2-0.2c-1.5-0.3-2.7-1-3.7-2c-0.9-1-1.8-2.1-2.5-3.3c-1.4-2.2-2.6-4.6-4-6.9
			c-1.3-2.1-2.5-4.3-3.8-6.4c-1.1-1.8-2.4-3.4-3.9-4.8c-0.7-0.6-1.3-1.2-2.1-1.7c-2-1.4-4.2-1.4-6.3-0.2c-1.3,0.7-2.3,1.6-3.3,2.7
			c-2.7,2.8-4.9,5.9-6.9,9.2c-2.6,4.3-4.5,8.9-6,13.7c-1.7,5.2-3.2,10.5-4,15.9c-0.5,3.5-1,7-1.3,10.6c-0.3,2.7-0.4,5.4-0.6,8.1
			c-0.1,0.9-0.1,1.9-0.1,2.8C124.5,286.7,124.4,286.9,124.4,287.3z"/>
	</g>
	<g>
		<g>
			<g>
				<g>
					<path class="st16" d="M179.4,311.8c0.2-0.2,0.5-0.5,0.7-0.8c0,0,0,0,0,0c0.6,1.8,2.3,2.9,4.1,3.4c-0.2,1.3-0.6,2.4-1,2.9
						c-0.9,1.3-2.6,2.1-4.2,1.7c-1.5-0.3-2.7-1.5-3.2-2.9c-0.2-0.5-0.3-1.4-0.3-2.4c0.8-0.1,1.5-0.3,2.2-0.7
						C178.3,312.7,178.9,312.3,179.4,311.8z"/>
				</g>
				<g>
					<g>
						<path class="st2" d="M169.7,308c0.2,2.5,2.3,4.8,4.8,5c0.3,0,0.7,0,1,0c0.8-0.1,1.6-0.4,2.3-0.9c0.5-0.3,1-0.8,1.4-1.3
							c0.3-0.3,0.5-0.9,0.8-1.1c0.2-0.1,0.6,0,0.6,0.2c0.3,2,1.9,3.1,3.6,3.7c0.4,0.1,0.8,0.2,1.3,0.3c2.2,0.4,5-0.1,5.9-2.5
							c0.2-0.5,1-0.3,0.8,0.2c-1,2.7-3.9,3.5-6.5,3.1c-0.5-0.1-1.1-0.2-1.6-0.4c-1.8-0.6-3.4-1.7-4.1-3.4c0,0,0,0,0,0
							c-0.2,0.3-0.4,0.5-0.7,0.8c-0.5,0.5-1.1,0.9-1.7,1.3c-0.7,0.4-1.5,0.6-2.2,0.7c-0.5,0.1-1.1,0-1.6-0.1c-2.7-0.5-4.8-3-5-5.7
							C168.8,307.4,169.6,307.4,169.7,308z"/>
					</g>
					<g>
						<path class="st2" d="M175.7,299.4c0.9,0.3,1.7,0.9,2.6,1.3c1.6,0.6,3.5,0.6,5.2,0.1c0.6-0.2,1.3-0.4,1.9-0.4
							c0.7,0,1.4,0.1,1.8,0.6c0.9,1,0.2,2.6-0.9,3.3c-1.1,0.7-2.5,0.8-3.7,1.3c-1.2,0.4-2.5,1.4-2.5,2.7c-0.2-1.3-1.3-2.4-2.4-3.1
							c-1.1-0.7-2.4-1.2-3.5-1.9c-0.8-0.5-1.6-1.2-1.8-2.1c-0.2-0.9,0.1-1.5,0.5-1.9C173.7,299,174.8,299.1,175.7,299.4z"/>
					</g>
				</g>
			</g>
		</g>
		<g>
			<g>
				<path class="st18" d="M170.7,277.9c-0.3-9.7-5.5-17.8-12.1-19.9c-1.2-0.4-2.5-0.6-3.7-0.6c-1.3,0-2.5,0.3-3.7,0.7
					c-6.5,2.4-11,10.7-10.7,20.4c0.3,9.7,5.5,17.8,12.1,19.9c1.2,0.4,2.4,0.6,3.7,0.6c1.3,0,2.5-0.3,3.7-0.7
					C166.4,296,171,287.7,170.7,277.9z"/>
				<path class="st18" d="M217.9,277.9c-0.3-9.7-5.5-17.8-12.1-19.9c-1.2-0.4-2.5-0.6-3.7-0.6c-1.3,0-2.5,0.3-3.7,0.7
					c-6.5,2.4-11,10.7-10.7,20.4c0.3,9.7,5.5,17.8,12.1,19.9c1.2,0.4,2.4,0.6,3.7,0.6c1.3,0,2.5-0.3,3.7-0.7
					C213.7,296,218.3,287.7,217.9,277.9z"/>
			</g>
			<g>
				<g>
					<g>
						<path class="st19" d="M161.6,273.1c-1.8-1.5-3.8-0.1-5,1.6c-1.1-2.1-3.8-3.1-6.2-1.9c-4.2,2-2.2,7.8,0.1,10.5
							c1.2,1.4,2.7,2.3,4.3,3l1.1,0.4l0.9-0.6c1.1-0.8,2.2-1.7,3.1-2.6C162.1,281.3,164.8,275.7,161.6,273.1z"/>
					</g>
				</g>
				<g>
					<g>
						<path class="st19" d="M208.9,272.6c-1.8-1.5-3.8-0.1-5,1.6c-1.1-2.1-3.8-3.1-6.2-1.9c-4.2,2-2.2,7.8,0.1,10.5
							c1.2,1.4,2.7,2.3,4.3,3l1.1,0.4l0.9-0.6c1.1-0.8,2.2-1.7,3.1-2.6C209.4,280.8,212.1,275.2,208.9,272.6z"/>
					</g>
				</g>
			</g>
		</g>
	</g>
</g>
</svg>
